<svg xmlns="http://www.w3.org/2000/svg" xmlns:xlink="http://www.w3.org/1999/xlink" width="1000" height="700" viewBox="0 0 1000 700"><path fill="#d0103a" d="M0 0h1000v700H0z"/><path fill="#fedf00" d="M0 0h680v700H0z"/><path fill="#0018a8" d="M0 0h320v700H0z"/><path fill="#c7b37f" d="M469.37 188.48c12.051 0 16.979 10.338 29.029 10.338 7.44 0 11.777-2.43 18.261-6.087 4.524-2.562 7.41-3.927 12.605-3.927 5.319 0 8.58 1.608 11.301 6.167 1.537 2.58 2.814 7.628 2.138 10.525-1.282 5.493-2.071 7.881-4.262 12.953-1.043 2.438-2.028 3.898-2.028 6.566 0 6.396 8.704 8.594 14.622 8.685 1.29.02 12.139.198 18.815-6.56-3.622-.16-7.675-2.965-7.675-6.588 0-4.099 2.88-6.873 6.785-8.057.742-.212 2.006.443 2.677.09.954-.495.508-1.568 1.356-2.24 1.944-1.555 3.207-2.525 5.699-2.525 1.625 0 2.578.229 3.885 1.165.69.495.943 1.107 1.79 1.107 1.786 0 2.67-1.13 4.454-1.13 1.449 0 2.332.194 3.604.848 1.06.548 1.037 2.349 2.238 2.349.601 0 3.779-1.296 5.44-1.296 3.446 0 5.285 1.248 7.512 3.863.6.707.985 2.137 1.596 2.137 1.23 0 4.065.792 5.832 2.559.76.76 1.096 1.12 1.68 2.038.406.654 1.03 2.25 1.748 2.526.842.324 1.548.261 2.655.971 2.525 1.619 4.468 4.662 4.377 7.611-.03.989-.482 2.368-.75 3.31-2.942 10.284-9.94 13.548-17.009 22.382-3.004 3.763-5.375 6.767-5.375 11.59 0 1.167 1.436 3.303 2.073 4.275-.389-2.267.647-5.051 3.043-5.18 3.282-.178 5.817 2.317 6.259 5.568.088.76-.195 2.073-.519 2.85 1.767-1.167 4.097-1.955 6.217-2.202a19.335 19.335 0 0 1 2.979-.13c5.245.13 11.034 3.08 14.547 6.064 10.749 9.13 12.049 22.492 11.462 26.203-1.305 8.246-.484 23.168-21.56 29.117 3.897 1.641 6.55 4.573 6.55 8.178 0 3.923-3.005 7.28-6.927 7.28-2.245 0-3.8-.548-5.372-2.12-4.382 4.381-5.23 8.852-5.23 15.054 0 3.71.706 5.901 2.261 9.258 1.644 3.552 2.827 5.637 5.796 8.2 1.573-2.369 3.234-4.1 6.078-4.1 2.757 0 5.09.883 6.22 3.392.336.76.035 1.379.424 2.12.495.955 1.326 1.167 1.838 2.121.795 1.467.018 2.721.707 4.24.441.99 1.413 1.132 1.837 2.121.672 1.52.849 2.562.849 4.24 0 4.701-4.277 8.058-8.977 8.058-1.413 0-2.19-.565-3.604-.424 2.686 2.686 4.735 3.852 6.785 7.068 2.968 4.647 3.71 7.951 4.382 13.429.124 1.025.142 1.643.142 2.686 0 7.032-1.096 11.238-4.241 17.528-3.004 6.025-5.566 9.365-11.026 13.287-8.517 6.131-14.72 7.899-25.02 9.895-6.609 1.272-10.39 1.838-17.105 2.262-8.588.548-13.482.565-22.052 1.13-11.238.76-19.03 2.35-27 10.32 3.765 2.756 6.362 5.46 6.362 10.107 0 4.77-2.951 8.18-7.492 9.683-1.06.353-1.838.035-2.827.565-1.184.618-1.131 1.979-2.262 2.686-1.997 1.272-3.552 1.555-5.937 1.555-4.205 0-7.068-.99-10.037-3.959-3.445 2.863-4.612 5.443-8.481 7.634-1.273.707-1.927 1.696-3.393 1.696-2.315 0-3.375-1.466-5.23-2.827-2.951-2.156-4.524-3.587-6.927-6.36-3.516 2.102-5.672 3.816-9.754 3.816-2.509 0-4.1-.354-6.22-1.697-1.113-.689-1.29-1.714-2.403-2.403-1.166-.724-2.138-.459-3.392-.99-4.718-2.031-7.775-5.53-7.775-10.671 0-4.506 2.845-7.369 6.927-9.26-7.828-7.827-15.532-9.187-26.576-9.894-8.535-.548-13.394-.565-21.911-1.131-6.768-.46-10.531-1.149-17.246-2.262-5.072-.83-8.075-1.095-12.722-3.251-15.991-7.457-26.187-17.687-28.272-35.198-.177-1.502-.142-2.368-.142-3.887 0-9.118 3.587-14.683 10.036-21.133-1.66-.39-2.774.159-4.382-.424-4.029-1.467-6.926-4.259-6.926-8.553 0-1.59.07-2.65.848-4.028.548-.972 1.59-1.167 1.837-2.262.318-1.449-.106-2.474.566-3.817.442-.9 1.272-1.078 1.696-1.979 1.396-2.897 3.146-5.23 6.361-5.23 2.757 0 4.524 1.449 5.937 3.817 2.686-1.237 3.428-3.252 4.948-5.796 2.527-4.223 3.675-7.174 3.675-12.086 0-3.428-.335-5.442-1.413-8.693-.778-2.333-1.096-3.923-2.827-5.654-1.573 1.572-3.128 2.12-5.372 2.12-4.488 0-7.916-3.852-7.916-8.34 0-3.34 1.643-5.813 4.665-7.21-2.421-2.084-4.524-2.261-7.21-3.957-4.081-2.58-5.512-5.301-8.198-9.33-1.75-2.633-2.21-4.47-3.11-7.492-1.078-3.64-1.697-5.813-1.697-9.612 0-.99.018-1.573.141-2.545 1.008-7.668 2.386-12.475 7.21-18.518 2.862-3.587 4.806-5.795 9.047-7.633 3.604-1.555 5.76-2.686 9.683-2.686 1.184 0 1.873 0 3.04.142 1.801.23 2.95.388 4.523 1.272.6.336 1.696 1.343 1.696.636 0-.813-.424-1.237-.424-2.05 0-3.25 2.332-6.22 5.584-6.22 2.35 0 3.304 2.068 4.453 4.1.742-1.237 1.13-2.085 1.13-3.534 0-5.372-2.88-8.11-6.22-12.298-7.28-9.1-16.397-13.358-16.397-25.02 0-3.48 1.678-5.849 4.665-7.633.865-.513 2.03 0 2.877-.543.725-.46.642-1.395 1.101-2.137.725-1.148 1.366-1.642 2.373-2.525 1.661-1.449 3.12-1.015 4.957-2.287.919-.636 1.136-1.463 1.843-2.31 2.05-2.474 3.89-3.669 7.123-3.669 1.625 0 2.538.01 4.04.607.512.195 1.47.967 1.594.818.323-.389 1.2-1.319 2.243-1.813 1.36-.654 1.913-.907 3.432-.907 1.732 0 2.866.971 4.598.971.636 0 .783-.635 1.295-.971 1.537-1.042 2.422-1.632 4.295-1.632 1.803 0 2.798.596 4.318 1.567 1.43.902 1.637 2.108 3.103 2.957.813.477 1.502.265 2.404.565 4.028 1.343 7.068 4.029 7.068 8.27 0 2.297-.548 3.94-2.262 5.442-1.361 1.201-2.65.99-4.382 1.555 5.619 4.488 10.508 5.601 17.682 5.601 6.573 0 14.612-2.687 14.612-9.26 0-3.057-1.69-4.7-2.892-7.509-2.156-5-3.325-7.942-3.325-13.384 0-4.311.47-6.927 2.979-10.426 2.58-3.604 5.731-4.445 10.167-4.445z"/><g fill="none" stroke="#703d29"><path stroke-linejoin="round" stroke-width="1.041" d="M425.59 223.46c.432 1.631 1.752 3.16 3.82 3.807 1.244.388 4.12.233 5.986-2.177 1.513-1.954 1.397-4.374.833-6.297-.366-1.245-1.371-2.446-2.698-3.468l-7.938 8.057-.002.079z"/><path stroke-linecap="round" stroke-width="1.037" d="M626.61 343.94c-1.866-4.51-6.686-2.488-6.983 0-.683 5.732 4.34 7.464 7.916 6.53 1.771-.461 3.067-1.577 3.896-3.03.934-1.64 1.217-3.78.61-5.824-.275-.927-.663-1.707-1.326-2.581-.665-.878-1.354-1.48-1.999-1.89-1.375-.878-2.874-.965-5.224-.965-8.708 0-16.327 10.289-18.886 20.977-.842 3.52-2.001 11.37-.396 18.815 1.71 7.93 5.138 13.42 9.16 17.585 2.177 2.254 5.146 4.262 8.99 6.435 1.185.67 4.32 2.06 6.496 2.683 2.236.639 4.3.545 6.159.142 5.16-1.12 7.559-5.92 4.96-10.83-2.129-4.02-8.397-6.219-11.352-1.088-.25.436-.64 1.384-.628 2.411.016 1.368.584 3.017 1.561 3.64 2.246 1.428 5.838 1.024 5.672-2.941"/><path stroke-width="1.276" d="M599.69 403.07c1.748-2.056 5.757-5.14 10.343-5.703 4.654-.572 8.699.783 12.828 3.004 8.06 4.335 12.554 8.995 15.549 17.641.76 2.196 1.391 5.506 1.304 9.022-.14 5.604-1.563 11.73-3.092 14.692-1.334 2.583-4.82 13.994-23.946 21.868-11.161 4.594-28.3 5.653-40.118 6.12-16.256.642-31.254 1.244-39.962 11.973"/><g stroke-width="1.121"><path d="M603.75 421.45c-.466-1.71-.035-3.35 1.322-5.209 1.814-2.486 5.675-3.343 9.174-1.4 1.17.65 2.638 1.507 3.965 3.266.502.665 1.35 1.739 1.788 2.488 1.059 1.81 1.494 3.292 1.703 3.887 3.846 10.928-2.265 22.771-10.255 27.522-6.206 3.69-13.608 5.336-22.469 6.375-3.982.468-6.256.437-10.263.623-3.223.149-6.008.096-8.63.064-2.157-.027-4.205-.016-6.297-.064-3.415-.08-6.95-.16-11.274.155-4.55.331-7.972.448-11.818 1.089-2.511.418-5.455.822-8.542 1.515-.926.207-1.865.377-2.809.661-.634.192-1.26.386-1.881.575-5.572 1.7-10.985 3.77-15.257 6.521-1.32.85-2.81 1.701-3.877 2.708-.665.627-1.472 1.256-2.124 1.898-2.99 2.941-6.047 6.126-6.762 10.438-.132.795-.132 1.629-.132 2.507 0 2.798 2.278 6.608 8.42 7.852M516.37 229.11c1.285 2.324 1.992 3.738 1.244 6.142-.847 2.723-2.778 4.354-5.52 4.354-6.22 0-9.878-7.364-7.075-12.051 4.976-8.319 14.539-3.647 23.402.474-.428-2.134-1.174-2.828-1.096-5.471.193-6.565 5.061-9.542 7.005-15.605 1.157-3.613 1.618-6.75-1.025-9.316-2.308-2.24-4.982-2.205-7.994-1.025-6.018 2.359-13.246 9.138-25.97 9.326-12.724-.188-20.012-6.967-26.03-9.326-3.012-1.18-5.686-1.214-7.994 1.025-2.643 2.566-2.183 5.703-1.025 9.316 1.944 6.064 6.812 9.04 7.005 15.605.077 2.643-.669 3.337-1.096 5.47 8.863-4.12 18.798-9.211 23.402-.473 2.565 4.869-.855 12.05-7.075 12.05-2.742 0-4.667-1.747-5.52-4.353-.76-2.323 0-4.354 1.244-6.142"/><path stroke-linecap="round" d="M491.5 224.79c2.403 1.838 4.1 4.1 3.817 7.775-.307 3.986-1.273 4.947-4.382 7.068M494.68 233.7c-.141 2.403-1.13 3.958-3.534 4.947"/></g><path fill="#c7b37f" stroke="none" d="M432.4 214.49l1.088.777 1.166 1.245.778 1.555.389 1.321.078 1.71-.078 1.167-.389 1.322-.778.932-.933 1.011-1.321.7-1.71.389-1.478.233-1.555-.7-1.399-1.01-.855-1.245-.622-1.555v-.621l7.62-7.231z"/><path stroke-linecap="round" stroke-width="1.041" d="M430.01 220.57c-.478-2.581-3.496-3.11-4.665-1.586-1.8 2.348-.485 6.257 3.176 7.401 1.244.39 4.12.234 5.987-2.177 1.512-1.953 1.396-4.373.832-6.296-.366-1.245-1.365-2.33-2.698-3.344-4.252-3.233-11.118-2.488-13.373 2.954-2.909 7.02 3.42 12.284 9.252 16.25 7.34 4.991 15.705 5.899 22.003 5.83 14.306-.155 25.19-6.997 32.265-10.884 1.648-.905 3.345-.72 4.198.311.963 1.165.947 3.043-.389 4.276"/><path stroke-width="1.057" d="M387.6 414.35l-3.188 1.166-3.265 2.488-1.4 1.944-1.788 3.11-.777 2.332-.622 2.877-.311 2.177M405.95 414.66l-.233 2.8-.467 1.943-1.4 3.343-2.176 2.877-2.333 1.865-1.71.856-2.41.544"/><path stroke-width="1.197" d="M499.6 489.23c-.58 2.588-3.004 5.548-8.279 6.617l-1.025.212"/><path stroke-width="1.356" d="M631.59 406.57c3.34 3.114 5.685 6.905 7.488 12.109.76 2.195 1.391 5.506 1.303 9.021-.14 5.604-1.562 11.73-3.091 14.692-1.334 2.584-4.82 13.994-23.946 21.868-11.161 4.595-28.3 5.654-40.118 6.12-16.022.633-30.822 1.227-39.582 11.517"/><path stroke-width=".929" d="M605.45 416.95c1.188-1.621 5.517-3.673 9.016-1.73 1.152.64 2.517 1.45 3.714 3.243"/><path stroke-width="1.356" d="M627.51 402.79c.782.3 1.56.572 2.244.767 2.236.639 4.337.688 6.158.142 4.423-1.327 7.261-5.459 4.96-10.83-.534-1.244-1.556-2.438-2.717-3.333"/><path stroke-linecap="round" stroke-width="1.041" d="M375.44 287.13c-2.969 1.838-5.182 2.273-7.492 4.947-2.3 4.554-3.203 7-4.1 10.65M435.88 221.96c0 2.686-1.98 4.382-4.665 4.947"/><path stroke-width=".997" d="M620.49 275.03c7.39-.15 28.859 5.64 29.012 30.876.15 24.925-15.383 28.997-21.607 30.656"/><path stroke-width="1.037" d="M622.43 275.03c12.743-.554 25.892 8.826 26.472 32.236.452 18.289-12.517 26.584-18.742 28.243"/><g stroke-width=".881"><path d="M615.33 363.16l.196-2.502.834-3.974 1.178-3.091 1.324-2.551 1.717-2.06M632.74 343.67l-.195 2.449-.7 1.672-1.088 1.594-1.244.933-1.904.7-1.672.116-1.244-.195M602.33 268.42l.544-2.643 1.166-2.45 1.517-2.449 2.604-3.343 2.06-2.293 3.343-3.382 2.877-2.916 1.827-2.099 2.41-2.915 2.138-3.227 1.283-2.643.7-3.421.212-4.242-.388-1.23M605.44 429.44l2.527-.505 1.905-1.011 1.05-1.05.738-1.205.505-1.943.04-1.361M364.94 403.38l1.866.155 2.41-.194 2.41-.855M379.44 345.38l-.31 2.177-.506.972-.739.933-1.01.777-1.128.505-1.477.234-1.011.078M388.73 326.65l-.544 3.382-.661 1.477-1.36 1.866-1.828 1.4-1.866.932-3.615.894M402.76 274.48l-.7 2.021-.855 1.478-1.166 1.632-1.633 1.477-1.943.934-1.633.388-1.01-.078M394.41 272.65l.04 1.555"/></g><g stroke-width=".987"><path stroke-linecap="round" d="M397.32 325.09a10.712 10.712 0 01-3.265 2.029M629.24 397.16c.134.145.581.217.739.31 2.215 1.323 6.577-.325 5.294-3.746"/><path d="M621.54 349.38c1.573 2.055 4.538 2.588 6.883 1.976 1.771-.462 3.067-1.578 3.895-3.03.935-1.64 1.218-3.78.61-5.825-.274-.926-.662-1.706-1.325-2.58-.666-.878-1.492-1.812-2.132-2.23-.17-.111-.339-.262-.518-.383M638.99 390.46c.068-.365.103-.74.103-1.125 0-1.81-.757-3.468-2.009-4.586-.427-.381-.841-.973-1.36-1.233M636.47 384.25c-.073-2.912-2.456-4.995-5.41-5.513M624.54 383.17c-.679-.554-1.406-1.025-2.042-1.69-3.826-4.004-6.704-9.924-6.742-16.677-.037-6.473 2.566-13.062 5.598-15.627M533.07 481.44l2.799-2.566 1.944-1.477 3.654-2.255 3.42-1.632 2.41-.622 4.821-1.089 5.598-.855M511.61 501.2c-2.022 3.11-6.842 7.775-11.896 9.64-5.054-1.865-9.874-6.53-11.895-9.64"/><path stroke-linecap="round" d="M491.28 494.73c-.634 2.349-1.785 4.626-3.468 6.451"/><path d="M491.78 491.47l-.7 3.42M487.43 501.42l-1.477 1.477-2.644 1.477-3.032.934M471.46 227.45c.38-1.182.767-2.072.71-4.014-.193-6.565-5.06-9.542-7.005-15.606-1.157-3.612-1.618-6.75 1.026-9.316 2.307-2.24 4.981-2.205 7.993-1.025 6.018 2.36 13.308 9.138 26.032 9.326-12.724-.188-20.015-6.967-26.032-9.326-3.012-1.18-5.935-1.525-8.242.714-2.644 2.566-1.934 6.015-.777 9.627 1.944 6.064 6.563 9.041 6.756 15.606.057 1.942-.455 2.832-.834 4.014M500.18 206.37c12.517-.661 23.245-9.071 26.706-9.757 3.086-.612 4.809-.336 7.072 1.721-2.264-2.057-4.842-1.993-7.77-.845-6.018 2.359-13.246 9.138-25.97 9.326M624.59 383.2c-5.209-3.732-9.672-10.856-9.718-19.274-.036-6.474 2.565-13.061 5.597-15.627M511.17 500.76c-2.021 3.11-6.842 7.775-11.895 9.64-5.054-1.865-9.874-6.53-11.895-9.64"/><path stroke-linecap="round" d="M479.17 230.74c1.302-.72 2.51-1.406 3.624-2.018 1.649-.906 3.63-.716 4.483.316.962 1.164 1.11 3.182-.226 4.416"/><path d="M460.48 239.49c8.588-1.792 15.585-5.638 20.875-8.597M531.78 487.43c.71.484 1.166 1.493 1.166 1.493.197.468.45.911.521 1.326.404 2.379-1.156 3.86-3.083 4.085-2.648.308-4.635-1.265-5.482-3.17M460.04 239.05c8.588-1.792 15.585-5.638 20.875-8.597M633.38 397.49c-1.633.63-2.526.544-4.557-.358-.834-.37-1.788-.943-2.907-1.578-3.98-2.261-8.708-5.824-13.139-14.143a29.394 29.394 0 01-2.672-6.992c-.423-1.736-.716-3.451-.78-5.212-.107-3 .215-6.132.964-9.72 1.237-5.926 2.725-9.144 6.376-14.15 1.795-2.463 3.343-3.966 6.686-4.043M398.83 279.88c2.78 2.362 4.12 5.287 4.12 8.94 0 4.842-4.05 12.75-14.001 15.55-3.814 1.072-7.588.207-9.87-1.18"/><path d="M400.46 296.28c1.788 1.244 2.488 2.64 2.488 5.07 0 1.664-1.076 3.822-2.907 5.866-2.998 3.346-8.082 6.19-13.716 6.26-3.057.039-6.23-.6-9.422-2.735-3.413-2.282-5.21-5.365-5.987-8.397"/><path d="M400.3 306.71c2.026 1.862 2.648 4.193 2.648 7.129 0 4.29-1.742 7.6-5.75 11.107a19.69 19.69 0 01-3.032 2.178M596.4 292.63v5.519M595.96 291.27v7.774M596.4 274.44v10.185M595.96 272.19v13.918M592.99 414.17c-1.93 3.835-3.473 5.85-6.53 8.863-3.086 3.041-5.225 4.435-9.097 6.375-3.772 1.89-6.148 2.492-10.263 3.421-4.113.929-6.518 1.131-10.73 1.322-3.861.175-6.052.014-9.909-.255-4.127-.285-6.417-.86-10.538-1.222-3.404-.3-5.326-.574-8.743-.566-3.512.01-5.525.031-8.983.643-3.224.571-5.052 1.026-8.086 2.255-4.198 1.7-8.941 4.665-9.952 5.987-1.01-1.322-5.754-4.286-9.952-5.987-3.033-1.229-4.862-1.684-8.085-2.255-3.46-.612-5.471-.634-8.984-.643-3.417-.01-5.339.267-8.743.566-4.121.362-6.41.937-10.538 1.222-3.857.267-6.047.43-9.91.255-4.211-.19-6.617-.39-10.728-1.322-4.115-.931-6.489-1.534-10.263-3.42-3.875-1.937-6.011-3.335-9.097-6.376a63.37 63.37 0 01-.948-.953M478.8 505.47l2.799-.35M528.9 501.44l2.825-.269 2.69-1.076 1.884-1.144 2.556-3.027.538-1.144.404-2.623.134-1.21M613.23 277.36c1.213-4.128-.268-8.483-4.266-8.366M402.79 341.75c-1.014 3.428-3.194 5.77-5.62 7.293M402.86 276.05c-1 2.889-2.829 4.953-5.724 6.26-2.886 1.304-6.227.086-8.014-1.292"/><path stroke-linecap="round" d="M380.95 291.2c2.392 1.253 4.82-.584 4.322-3.696-.234-1.458-1.805-3.299-3.933-3.433"/><path d="M390.87 422.86c.516.485.626 1.115 1.322 1.244 1.05.194 1.866.583 2.915-.816 1.294-1.725.599-4.409-.747-6.098-1.44-1.808-5.613-3.405-9.112-1.461-1.17.65-2.638 1.506-3.965 3.265-.502.665-1.35 1.739-1.788 2.488-1.06 1.81-1.494 3.292-1.704 3.887-3.2 9.098.6 18.664 6.489 24.493"/><path stroke-linecap="round" d="M531.59 487.23a9.195 9.195 0 0 1 1.01 1.244c.197.468.358.911.428 1.327.403 2.378-1.156 3.86-3.083 4.084-2.647.309-4.42-1.251-5.267-3.156"/><path d="M608.5 216.81c5.228.638 9.784 5.628 9.784 10.992 0 6.92-2.331 9.496-5.974 14.446-3.899 5.297-16.638 15.005-16.638 26.045 0 6.686 1.866 10.962 6.686 13.139 3.108 1.404 6.742-.116 8.397-1.61 4.042-3.655 2.426-10.063-1.788-10.829-5.132-.933-6.096 7.145-1.089 6.609M635.73 383.51c-.46-2.77-2.813-4.88-5.648-4.88-3.164 0-5.729 2.628-5.729 5.87 0 1.588.615 3.029 1.615 4.085"/><path d="M599.79 279.88c-2.78 2.362-4.12 5.287-4.12 8.94 0 4.842 4.05 12.75 14.001 15.55 3.814 1.072 7.458.971 9.74-.417M375.61 287.8c-2.378.794-5.349 2.277-7.55 5.395-1.856 2.63-2.938 6.286-3.608 9.485-.294 1.4-.643 5.832.252 10.41.661 3.38 2.057 6.527 3.602 8.806.553.817 1.055 1.367 1.62 1.932.518.518 1.253.975 1.774 1.373M471.72 469.02c7.576 3.359 13.13 5.875 17.839 13.31 1.477 2.333 1.866 5.676 1.866 7.62 0 4.197-1.71 8.94-5.21 11.894-3.245 2.742-6.452 3.576-10.417 3.188-3.007-.295-5.831-2.488-6.298-4.043M396.88 325.2c4.276 3.343 6.064 6.586 6.064 11.74 0 5.909-2.876 9.563-6.22 11.662"/><path stroke-linecap="round" d="M392.99 344.41c6.375 7.93 9.758 12.637 9.952 22.08.181 8.863-2.644 14.927-7.93 21.303"/><path d="M515.23 239.57c1.16-.76 2.01-1.98 2.497-3.485.753-2.325.77-4.308-.474-6.096 1.534 2.009 1.675 3.705 1.243 6.142-.274 1.552-1.264 2.369-2.497 3.485M596.4 374.24v25.241h.067c0 .018-.01 2.389-.212 3.887-.133.983-.272 1.87-.429 2.703"/><path d="M595.96 371.81v27.223h.067c0 .018-.009 2.389-.212 3.887-.211 1.563-.437 2.887-.729 4.125M595.96 339.94v22.702M596.4 341.73v18.463M596.4 318.25v13.841M595.96 316.62v17.064M596.4 304.1v5.37M595.96 303.01v7.776M593.08 412.65c-.165.35-.342.71-.53 1.084-1.93 3.835-3.473 5.85-6.53 8.863-3.086 3.041-5.224 4.435-9.097 6.376-3.772 1.89-6.148 2.491-10.263 3.42-4.112.93-6.518 1.132-10.73 1.322-3.86.175-6.052.011-9.908-.255-4.128-.285-6.417-.86-10.538-1.222-3.404-.3-5.327-.574-8.743-.566-3.513.01-5.525.031-8.984.644-3.223.57-5.052 1.025-8.086 2.254-4.197 1.7-8.94 4.665-9.951 5.987-1.011-1.322-5.754-4.286-9.952-5.987-3.034-1.229-4.862-1.684-8.086-2.254-3.458-.613-5.47-.635-8.983-.644-3.417-.01-5.34.267-8.743.566-4.122.362-6.41.937-10.538 1.222-3.857.267-6.047.43-9.91.255-4.212-.19-6.617-.39-10.729-1.321-4.114-.933-6.489-1.534-10.263-3.421-3.875-1.938-6.01-3.335-9.096-6.376-1.616-1.592-2.808-2.905-3.858-4.355M406.42 413.26c.666 4.942-1.413 9.8-3.523 12.034-1.321 1.4-4.2 4.074-7.775 4.12-5.908.078-7.672-3.986-8.03-4.975"/><path d="M399.4 410.7c1.097 1.083 2.07 2.405 2.893 3.965 1.477 2.799 1.022 7.48-.148 9.64-.129.238-.288.49-.475.749M370.04 453.2c3.514 3.687 8.828 7.692 16.99 11.052 11.161 4.595 28.3 5.654 40.118 6.12 15.715.62 30.193 1.266 39.01 10.998M493.29 475.01c2.598 2.556 5.247 5.295 6.366 8.798M488.18 501.7c-.34.362-.7.707-1.083 1.03-3.246 2.74-6.453 3.576-10.418 3.187-3.007-.295-5.908-2.548-6.685-4.025M461.63 497.35c.145.198.297.39.457.577 1.888 2.198 4.868 3.576 7.978 3.833M512.05 501.64c-2.022 3.11-6.842 7.774-11.895 9.64-5.054-1.866-9.874-6.53-11.896-9.64l-.472-.727M512.13 501.62c.36.392.746.762 1.156 1.109 3.246 2.74 6.453 3.576 10.418 3.187 3.007-.294 5.395-2.303 6.36-4.043 0 0 .54-.581.692-1.136"/><path d="M529.75 500.99l-1.16 1.867-1.766 1.463-2.674 1.11-2.421.1"/><path d="M536.03 483.22c1.43 1.097 2.835 2.76 3.599 4.534.49 1.141.718 2.396.787 3.698.133 2.468-.735 4.741-2.222 6.474-1.998 2.326-5.113 3.733-8.43 3.866-.246.01-.491.011-.734 0"/><path d="M529.32 501.35h0c-3.17.127-6.004-1.231-8.092-3.375M620.72 391.93c-2.474-2.28-5.036-5.44-7.507-10.077a29.38 29.38 0 01-2.672-6.992c-.423-1.736-.716-3.451-.78-5.211-.107-3 .215-6.133.964-9.722 1.236-5.925 3.443-10.509 6.376-14.15 1-1.242 2.154-2.791 3.25-3.488M618.2 223.83c3.965.31 7.639 4.58 7.59 8.764-.07 6.078-2.108 8.59-6.89 14.545-4.12 5.131-16.482 14.15-16.171 22.78.055 1.532.88 3.115 1.802 4.39M599.59 279.72c.878.867 1.94 1.584 3.207 2.156 2.261 1.021 4.801.495 6.654-.443M576.37 213.9c1.328.904 2.681 2.29 3.415 4.061 2.908 7.02-3.42 12.284-9.252 16.25-4.181 2.842-8.694 4.36-12.968 5.128"/><path d="M569.69 227.43c-1.414-.014-3.095-.417-4.92-2.34-.42-.442-.913-1.027-1.106-1.552M540.45 231.2c-.738-.37-1.531-.91-2.063-1.504-1.386-1.55-2.31-3.65-1.242-6.853.987-2.963 5.746-11.274 5.98-17.027.356-8.79-3.025-13.977-8.313-16"/><path stroke-linecap="round" d="M542.68 203.85l-.206 3.305-.895 3.374-1.722 4.613-1.308 2.96-1.377 2.961-.688 2.066-.276 1.515.207 1.446M595.81 423.4c.272.66.933 1.306.933 1.306 1.01 1.687 4.94 4.655 8.514 4.701 5.91.078 7.312-4.057 7.464-4.975.746-4.509-.796-5.743-3.11-7.013 0 0-1.361-.705-2.994-.433"/><path d="M370.23 403.67c-2.086.534-4.045.547-5.757.033-4.423-1.326-8.007-5.564-6.18-10.829M379.21 343.15c.443.445.586 1.108.653 1.67.683 5.732-4.34 7.402-7.916 6.469-1.771-.462-3.882-2.107-4.71-3.56a7.354 7.354 0 01-.963-3.6M400.74 307.15a7.554 7.554 0 011.931 2.757M400.9 296.6a5.98 5.98 0 011.825 2.042"/><path stroke-linecap="round" d="M402.91 303.94c-.483 1.19-1.317 2.475-2.43 3.718-2.998 3.346-8.083 6.19-13.716 6.26-3.057.038-6.23-.6-9.422-2.736-3.413-2.282-5.638-5.528-6.377-8.715"/><path d="M399.11 280.13c1.73 1.471 3.06 3.347 3.698 5.295"/><path stroke-linecap="round" d="M402.86 292.56c-1.384 4.574-5.51 10.231-13.473 12.248-3.804.964-8.702-.241-10.374-1.664"/><path d="M375.06 291.49c.417 4.12 3.174 7.209 8.401 7.308 7.35.138 11.818-10.574 5.287-18.094"/><path stroke-linecap="round" d="M358.52 327.39c1.074 1.347 2.337 2.561 3.63 3.636 2.621 2.182 5.712 4.102 9.272 5.153M379.67 336.95c6.569-.789 10.272-5.684 9.538-11.41-.56-4.363-4.563-7.718-7.285-7.912"/><path d="M390.39 268.92c2.85-.105 4.47 2.483 4.444 4.665"/><path stroke-linecap="round" d="M389.72 229.81c1.56 4.083 4.603 7.275 7.86 9.099M622.86 287.29c2.686 3.679.927 10.932-6.379 11.07-2.854.054-5.43-1.528-6.939-3.924"/><path d="M596.4 239.25v24.686"/><path stroke-linecap="round" d="M380.87 291.14c2.255 1.632 5.15-1.124 4.03-4.05-.757-1.975-3.563-4.106-7.45-1.463-4.294 2.92-3.11 12.13 5.13 12.284 7.35.139 11.819-10.574 5.287-18.093-6.282-7.234-17.727-5.542-25.19.396-3.176 2.526-9.174 9.145-11.04 18.164-.58 2.808-.956 5.112-.912 7.93.03 1.857.2 3.937.757 6.53 1.123 5.241 2.968 9.08 4.805 11.746.704 1.022 1.347 1.87 2.037 2.56 1.279 1.28 1.662 1.957 2.954 3.032 4.223 3.515 9.665 6.27 16.327 5.987 7.308-.311 11.507-5.442 10.729-11.507-.754-5.88-6.69-8.805-10.574-6.064-2.644 1.866-3.584 7.644 1.088 9.018 2.644.778 4.976-2.565 3.11-4.509M584.4 210.68c4.218-2.29 7.47-1.867 9.874 1.47 2.613 3.626 2.986 8.453 2.41 11.28-.855 4.199-2.068 5.942-5.407 8.988"/><path stroke-linecap="round" d="M594.58 212.55c4.82-3.187 10.041-1.834 12.906 2.41 2.1 3.11 2.636 5.712 2.488 9.563-.254 6.6-4.384 11.832-8.941 14.383"/><path d="M617.28 223.67c3.965.31 7.153 3.9 7.153 8.086 0 5.986-1.671 8.583-6.454 14.539-4.12 5.131-16.482 14.15-16.17 22.78.117 3.263 2.868 6.338 5.241 6.51"/><path stroke-linecap="round" d="M617.75 291.14c-2.255 1.632-5.131-1.004-3.887-3.803.859-1.932 3.42-4.353 7.308-1.71 4.293 2.92 3.11 12.13-5.131 12.284-7.35.139-12.317-10.297-5.287-18.093 6.416-7.116 18.315-5.723 25.778.214 3.176 2.527 9.566 9.466 10.936 18.573 1.658 11.02 1.445 24.575-9.937 32.922-4.576 3.356-10.918 4.882-16.516 4.637-7.308-.32-11.506-5.443-10.729-11.507.754-5.88 6.416-8.368 10.574-6.065 4.32 2.393 3.565 8.466-1.088 9.019-2.736.325-4.976-2.566-3.11-4.51"/><path d="M613.86 287.34c1.212-5.454 5.885-5.962 9.658-5.907 10.296.151 17.416 12.364 17.535 24.178.15 14.923-6.334 23.711-17.241 24.178-2.823.121-7.684-1.221-7.768-4.665"/><path stroke-linecap="square" d="M620.2 284.9c10.858 2.413 14.67 12.196 14.67 21.532 0 7.616-.754 18.022-15.575 21.682"/><path d="M638.11 389.58a6.103 6.103 0 1 0-9.788 3.66"/><path stroke-linecap="round" d="M616.33 380.33c2.043 3.032 4.516 6.404 9.74 9.238M624.11 406.05c-5.12-3.359-14.838-7.761-23.624-3.428-3.259 1.608-5.442 3.597-6.675 6.84-2.22 5.84.261 12.275 2.788 14.949 1.321 1.4 4.2 4.074 7.774 4.12 5.91.079 7.314-4.056 7.464-4.975.7-4.276-1.788-5.987-3.11-6.453-1.014-.358-4.312-.266-5.012 2.065-.233.778-.275 2.133.348 3.144"/><path stroke-linecap="round" d="M531.99 488.16c1.633 3.343-.224 5.024-2.488 5.287-3.343.388-5.131-2.255-5.364-4.665-.379-3.908 2.915-7.45 6.842-7.386 3.535.057 6.414 2.338 7.764 5.477.49 1.14.718 2.395.788 3.697.132 2.468-.735 4.742-2.223 6.474-1.998 2.326-5.113 3.733-8.429 3.866-6.6.265-11.74-5.908-11.74-12.206 0-12.05 17.872-18.623 24.957-20.314 8.708-2.077 14.006-2.855 27.99-3.632 5.597-.311 9.697-.153 15.86-.792 5.516-.572 8.397-.84 14.072-2.162 7.083-1.65 13.684-4.588 19.592-9.952 4.55-4.131 7.153-7.075 9.26-12.75 1.817-4.898 2.653-14.596-1.951-21.77-4.07-6.34-9.719-9.632-16.171-10.565-5.83-.843-10.942 1.672-13.995 7.456-1.477 2.8-1.022 7.48.148 9.64 1.01 1.867 3.897 4.619 7.471 4.666 5.909.078 7.313-4.057 7.464-4.976.7-4.276-1.788-5.987-3.11-6.453-1.014-.358-4.312-.266-5.012 2.065-.233.778-.275 2.133.347 3.144"/><path stroke-linecap="round" d="M526.9 469.02c-7.576 3.359-13.13 5.875-17.839 13.31-1.477 2.333-1.866 5.676-1.866 7.62 0 4.197 1.71 8.94 5.21 11.894 3.246 2.742 6.452 3.576 10.417 3.188 3.007-.295 5.832-2.488 6.298-4.043"/><path d="M601.73 325.2c-3.545 1.183-6.064 6.586-6.064 11.74 0 5.909 2.876 9.563 6.22 11.662"/><path stroke-linecap="round" d="M605.62 344.41c-6.375 7.93-9.758 12.637-9.952 22.08-.182 8.863 2.644 14.927 7.93 21.303"/><path d="M571.64 212.58l.547-.81c2.644-3.887 7.312-4.911 10.73-2.332 4.12 3.11 5.16 8.402 4.042 13.994-.7 3.499-3.073 6.413-6.325 8.521"/><path stroke-linecap="round" d="M414.22 210.68c-4.043-1.866-7.371-1.507-9.874 1.47-2.877 3.421-2.986 8.453-2.41 11.28.855 4.199 2.068 5.942 5.407 8.988"/><path d="M404.03 212.55c-4.82-3.187-10.041-1.834-12.906 2.41-2.1 3.11-2.636 5.712-2.488 9.563.254 6.6 4.384 11.832 8.941 14.383"/><path d="M390.12 216.81c-5.228.638-9.4 5.069-9.4 10.433 0 6.92 1.703 9.718 5.59 15.005 3.897 5.299 16.638 15.005 16.638 26.045 0 6.686-1.866 10.962-6.686 13.139-3.108 1.404-6.742-.116-8.397-1.61-4.043-3.655-2.426-10.063 1.788-10.829 5.131-.933 6.096 7.145 1.089 6.609"/><path d="M381.33 223.67c-3.965.31-7.867 3.723-7.867 7.908 0 5.986 2.385 8.761 7.167 14.716 4.121 5.131 15.762 13.972 15.451 22.602-.117 3.263-2.31 7.253-4.488 6.786"/><path stroke-linecap="round" d="M372 343.94c1.866-4.51 6.686-2.488 6.983 0 .683 5.732-4.34 7.464-7.916 6.53-1.771-.461-3.068-1.577-3.896-3.03-.934-1.64-1.217-3.78-.61-5.824.275-.927.663-1.707 1.326-2.581.666-.878 1.354-1.48 1.999-1.89 1.375-.878 2.874-.965 5.224-.965 8.708 0 16.327 10.289 18.886 20.977.843 3.52 2.001 11.37.396 18.815-1.71 7.93-5.138 13.42-9.16 17.585-2.177 2.254-5.146 4.262-8.99 6.435-1.185.67-4.32 2.06-6.496 2.683-2.236.639-4.337.688-6.158.142-4.423-1.327-7.262-5.46-4.96-10.83 1.792-4.18 8.397-6.219 11.351-1.088.25.436.64 1.384.628 2.411-.015 1.368-.584 3.017-1.561 3.64-2.246 1.428-5.838 1.024-5.671-2.941"/><path d="M365.24 397.49c1.633.63 2.526.544 4.557-.358.834-.37 1.789-.943 2.907-1.578 3.98-2.261 8.708-5.824 13.139-14.143a29.38 29.38 0 002.672-6.992c.423-1.736.716-3.451.78-5.212.108-3-.215-6.132-.964-9.72-1.236-5.926-2.725-9.144-6.376-14.15-1.795-2.463-3.343-3.966-6.686-4.043M360.51 389.58a6.103 6.103 0 119.788 3.66"/><path d="M362.88 383.51c.46-2.77 2.813-4.88 5.648-4.88 3.164 0 5.729 2.628 5.729 5.87a5.926 5.926 0 0 1-1.615 4.085"/><path d="M374.02 383.2c5.209-3.732 9.672-10.856 9.718-19.274.036-6.474-2.565-13.061-5.597-15.627"/><path stroke-linecap="round" d="M382.29 380.33c-2.043 3.032-4.516 6.404-9.74 9.238"/><path d="M397.81 402.63c-1.449-3.409-4.329-4.985-9.019-5.486-4.662-.497-8.698.784-12.828 3.005-8.06 4.335-12.554 8.995-15.55 17.641-.76 2.195-1.391 5.506-1.303 9.021.14 5.604 1.563 11.73 3.091 14.692 1.334 2.584 4.82 13.994 23.946 21.868 11.161 4.595 28.3 5.654 40.118 6.12 16.256.642 31.255 1.245 39.962 11.973"/><path stroke-linecap="round" d="M374.5 406.05c5.12-3.359 14.838-7.761 23.624-3.428 3.259 1.608 5.442 3.597 6.675 6.84 2.22 5.84-.262 12.275-2.788 14.949-1.321 1.4-4.2 4.074-7.775 4.12-5.908.079-7.313-4.056-7.463-4.975-.7-4.276 1.788-5.987 3.11-6.453 1.014-.358 4.312-.266 5.011 2.065.234.778.275 2.133-.347 3.144"/><path d="M394.86 421.45c.467-1.71.227-3.506-1.321-5.209-1.555-1.71-5.676-3.343-9.175-1.4-1.17.65-2.638 1.507-3.965 3.266-.502.665-1.35 1.739-1.788 2.488-1.06 1.81-1.494 3.292-1.704 3.887-3.845 10.928 2.413 22.532 10.256 27.522 6.842 4.354 13.84 5.598 22.47 6.375 3.993.36 6.256.437 10.263.623 3.223.149 6.008.096 8.63.064 2.157-.027 4.204-.016 6.296-.064 3.416-.08 6.95-.16 11.274.155 4.55.331 7.973.448 11.818 1.089 2.512.418 5.456.822 8.543 1.515.926.207 1.865.377 2.808.661.635.192 1.26.386 1.882.575 5.571 1.7 10.985 3.77 15.257 6.521 1.32.85 2.84 1.67 3.877 2.708.796.795 1.472 1.256 2.123 1.898 2.99 2.941 6.048 6.126 6.763 10.438.132.795.132 1.629.132 2.507 0 2.798-2.278 6.608-8.42 7.852"/><path d="M466.62 488.16c-1.633 3.343.224 5.024 2.488 5.287 3.343.388 5.131-2.255 5.364-4.665.379-3.908-2.915-7.45-6.842-7.386-3.535.057-6.414 2.338-7.764 5.477-.49 1.14-.718 2.395-.788 3.697-.132 2.468.735 4.742 2.223 6.474 1.997 2.326 5.113 3.733 8.429 3.866 6.6.265 11.74-5.908 11.74-12.206 0-12.05-17.873-18.623-24.957-20.314-8.708-2.077-14.006-2.855-27.99-3.632-5.597-.311-9.697-.153-15.86-.792-5.516-.572-8.397-.84-14.073-2.162-7.083-1.65-13.684-4.588-19.592-9.952-4.55-4.131-7.153-7.075-9.26-12.75-1.817-4.898-2.652-14.596 1.951-21.77 4.07-6.34 9.719-9.632 16.172-10.565 5.83-.843 10.942 1.672 13.995 7.456 1.478 2.8 1.022 7.48-.148 9.64-1.01 1.867-3.897 4.619-7.471 4.666-5.909.078-7.313-4.057-7.464-4.976-.7-4.276 1.788-5.987 3.11-6.453 1.014-.358 4.312-.266 5.012 2.065.233.778.275 2.133-.347 3.144"/><path stroke-linecap="round" d="M426.97 212.58a189.46 189.46 0 0 0-.547-.81c-2.644-3.887-7.312-4.911-10.73-2.332-4.12 3.11-5.16 8.402-4.042 13.994.7 3.499 3.073 6.413 6.324 8.521"/><path d="M573.04 224.37c-6.298 6.842-12.595 9.026-22.003 9.33-2.938.095-8.552-.933-11.818-3.258-2.098-1.494-4.432-4.05-2.954-8.482.987-2.962 5.746-11.273 5.98-17.027.355-8.79-3.026-13.606-8.313-15.472-9.774-3.45-20.267 6.211-26.589 8.319-3.305 1.101-4.99 1.232-8.008 1.243-3.018-.011-4.763-.141-8.068-1.243-6.323-2.108-16.816-11.77-26.59-8.32-5.287 1.867-8.668 6.683-8.312 15.473.234 5.753 4.992 14.064 5.98 17.027 1.477 4.431-.857 6.988-2.955 8.481-3.265 2.326-8.88 3.353-11.818 3.259-9.407-.304-15.705-2.488-22.003-9.33"/><path stroke-linecap="round" d="M464.58 466.27c1.246.487.303-.295 8.195 3.203 7.576 3.359 12.954 6.3 17.663 13.736 1.477 2.332 1.866 5.676 1.866 7.62 0 1.252-.152 2.553-.459 3.841"/><path d="M465.09 500.06a12.519 12.519 0 0 0 5.081 1.29c6.6.264 11.74-5.91 11.74-12.207 0-4.366-2.377-8.044-5.706-11"/><path stroke-linecap="round" d="M466.52 488.15c-1.594 3.553.677 5.475 2.94 5.738 3.343.389 5.225-2.255 5.458-4.665.254-2.621-1.145-5.17-3.278-6.485"/><path d="M609.53 216.87c5.018 0 9.394 5.585 9.394 11.317 0 6.605-3.513 10.648-6.087 13.705-2.072 2.46-4.316 4.663-6.982 7.348"/><path stroke-linecap="round" d="M603.58 211.58c1.706.79 3.204 2.128 4.346 3.819 2.099 3.11 2.633 5.712 2.487 9.563-.249 6.6-4.998 11.17-9.246 13.959M593.71 211.58c.347.296.68.634 1 1.014 2.877 3.421 3.1 8.478 2.41 11.281-1.035 4.213-2.427 6.029-5.846 8.549M583.36 209.85c4.12 3.11 5.346 8.489 3.98 14.026-.975 3.957-3.463 6.328-6.565 8.217M598.16 296.28c.493 1.447 1.306 1.949 2.332 3.022 2.229 2.335 5.496 4.344 9.623 5.504 3.813 1.073 7.25.267 9.87-1.367M365.29 387.87c1.937-.035 3.869 1.273 5.133 3.468.25.435.64 1.383.628 2.41-.016 1.369-.616 2.831-1.593 3.453-2.245 1.43-6.232.815-6.065-3.15"/><path d="M377.33 336.4c7.703 1.438 15.119 10.729 17.546 20.865.843 3.52 2.002 11.371.396 18.815-1.71 7.93-5.138 13.42-9.16 17.585-.953.987-2.059 1.928-3.323 2.855l-1.643 1.113M368.76 378.67c3.164 0 5.934 3.032 5.934 6.273a5.926 5.926 0 01-1.615 4.085"/><path d="M366.62 382.35c3.297 0 6.433 3.176 6.433 6.546 0 1.94-.905 3.668-2.316 4.786"/><path stroke-linecap="round" d="M396.84 349.2c3.027 4.063 5.025 7.561 5.954 12.07M402.69 374.53a26.983 26.983 0 01-2.264 6.322c-1.273 2.53-3.492 5.348-5.552 7.253"/><path d="M397.32 325.52c2.919 2.282 4.678 4.641 5.501 7.469"/><path stroke-linecap="round" d="M402.9 317.92c-.767 2.66-2.506 4.674-5.266 7.193M383.33 298.27l3.369-.886 1.994-1.508 1.285-1.817 1.108-2.837.444-2.305"/><path d="M376.51 286.41c-1.063.266-2.41.66-3.824 1.333-1.893.902-3.903 2.305-5.506 4.576-1.856 2.63-2.938 6.286-3.608 9.484-.294 1.4-.644 5.832.252 10.41.661 3.38 2.057 6.527 3.601 8.807.554.817 1.057 1.522 1.621 2.087 2.022 2.021 3.888 3.265 6.997 2.643"/><path stroke-linecap="round" d="M395.38 271.58c-.546 2.007-1.625 4.493-4.774 4.221"/><path d="M383.87 285.2c-3.024-2.956-9.43-3.726-15.798.302-.819.518-1.637 1.183-2.448 1.859-.876.73-1.575 1.57-2.25 2.482-.735.992-1.637 2.68-2.182 3.8-.75 1.545-1.06 2.559-1.474 4.142-1.163 4.455-1.158 8.595-1.02 9.776.176 1.513.32 2.903.567 4.182.845 4.371 2.138 7.439 3.475 9.656 1.407 2.333 4.906 7.69 12.058 8.397 2.811.278 7.612-1.01 7.768-4.665"/><path stroke-linecap="round" d="M568.38 220.42c.478-2.581 3.59-3.08 4.758-1.555 1.8 2.348.61 6.382-3.051 7.526-1.244.389-4.12.233-5.987-2.177-1.512-1.954-1.397-4.373-.832-6.297.366-1.244 1.364-2.33 2.698-3.343 4.251-3.234 11.118-2.488 13.372 2.954 2.909 7.02-3.42 12.284-9.252 16.249-7.34 4.992-15.705 5.9-22.003 5.831-14.306-.156-25.19-6.997-32.265-10.884-1.648-.906-3.345-.72-4.198.31-.963 1.165-.947 3.044.389 4.277"/><path stroke-linecap="round" d="M571.26 218c1.516.07 1.922.662 2.387 1.267 1.8 2.348.485 6.383-3.176 7.526M598.34 307.33c-5.45 5.933-.437 16.116 3.636 18.418 1.41 1.097 2.013.515 3.14 1.175"/><path d="M598.63 295.99c-1.788 1.244-2.418 2.642-2.488 5.07-.058 2.032.296 4.288 2.203 6.272 2.972 3.092 8.786 5.784 14.42 5.855 3.057.038 6.23-.601 9.422-2.736 3.413-2.282 5.21-5.364 5.987-8.397M595.58 398.6c0 .018-.009 2.389-.212 3.887-.591 4.363-1.286 6.874-3.265 10.807-1.93 3.836-3.473 5.85-6.53 8.864-3.086 3.04-5.225 4.434-9.097 6.375-3.772 1.89-6.148 2.491-10.263 3.42-4.113.93-6.518 1.132-10.73 1.322-3.861.175-6.052.011-9.909-.254-4.127-.286-6.417-.86-10.538-1.223-3.404-.299-5.326-.574-8.743-.566-3.512.01-5.525.031-8.983.644-3.224.57-5.052 1.025-8.086 2.255-4.198 1.7-8.941 4.664-9.952 5.986-1.01-1.322-5.754-4.286-9.952-5.986-3.034-1.23-4.862-1.684-8.085-2.255-3.459-.612-5.471-.635-8.984-.644-3.417-.01-5.34.267-8.743.566-4.121.362-6.41.937-10.538 1.223-3.857.266-6.047.43-9.91.254-4.21-.19-6.616-.393-10.728-1.321-4.115-.93-6.491-1.53-10.263-3.421-3.873-1.941-6.011-3.334-9.097-6.375-3.058-3.015-4.6-5.028-6.53-8.864-1.98-3.933-2.674-6.443-3.266-10.807-.203-1.499-.212-3.868-.212-3.887v0-159.02h192.55V398.6h.067z"/></g><g fill="#c7b37f" stroke="#c7b37f"><path stroke-width=".513" d="M387.41 421.32a3.907 3.907 0 117.814 0 3.907 3.907 0 01-7.814 0zM363.42 393.71c0-1.932 1.236-3.499 2.76-3.499s2.76 1.567 2.76 3.499c0 1.932-1.236 3.499-2.76 3.499s-2.76-1.567-2.76-3.499z"/><path stroke="none" d="M377.05 324.36c0-1.587 1.193-2.873 2.665-2.873s2.665 1.286 2.665 2.873c0 1.587-1.193 2.873-2.665 2.873s-2.665-1.286-2.665-2.873zM424.91 221.81c-.168-1.592.788-2.997 2.135-3.138 1.347-.14 2.576 1.035 2.744 2.627.169 1.592-.787 2.997-2.135 3.138-1.347.141-2.576-1.035-2.744-2.627z"/></g><g stroke="#c7b37f" stroke-linecap="round" stroke-width=".987"><path d="M373.92 340.54c-.574.25-.89.456-1.322.91-.412.433-.497.59-.816 1.298-.233.518-.295 1.118-.381 1.858M378.77 386.4c.543-.658.87-1.012 1.391-1.687.434-.562.692-.87 1.073-1.47.344-.539.498-.867.801-1.43.428-.794.64-1.257 1.05-2.06M381.11 401.53c-.925.425-1.472.612-2.371 1.088-.684.363-1.055.594-1.71 1.003-.775.484-1.208.767-1.945 1.307-.767.562-1.161.93-1.904 1.523M396.56 347.25c-.5-.515-.772-.817-1.283-1.321-.534-.528-.825-.839-1.4-1.322-.556-.469-.91-.683-1.492-1.12"/><path stroke-linecap="butt" d="M397.17 326.47c-.743.33-1.133.593-1.905.848-.885.291-1.485.443-2.34.482"/><path d="M371 300.68c.255.907.31 1.448.653 2.325.431 1.102.791 1.681 1.446 2.666.683 1.027 1.11 1.594 1.99 2.457.774.758 1.264 1.14 2.17 1.734.86.564 1.418.759 2.325 1.244M378.04 301.95c.758.406 1.15.712 1.944 1.042.719.298 1.146.424 1.904.598 1.027.236 1.63.295 2.683.32 1.14.026 1.477 0 2.916-.234M398.69 240.15c-1.246-.728-2.008-1.046-3.196-1.866-1.207-.834-1.873-1.345-2.923-2.371-.757-.74-1.181-1.171-1.811-2.022-.563-.76-.778-1.257-1.275-2.06M401.2 224.72c.391 1.046.503 1.684 1.003 2.682.679 1.356 1.203 2.067 2.224 3.188 1.414 1.552 2.613 1.992 4.283 3.265M410.98 224.61c.388.94.507 1.518.995 2.41.432.788.73 1.208 1.299 1.905.725.888 1.197 1.352 2.099 2.06 1.049.824 1.792 1.067 2.939 1.75"/></g><path fill="#703d29" stroke-width=".277" d="M520.78 211.91c-.08-2.649-2.69-2.924-3.69-2.924-2.885 0-3.666 1.8-7.265 3.732-4.512 2.424-6.455 2.962-10.466 2.998-4.01-.036-6.005-.575-10.517-2.998-3.6-1.932-4.205-3.674-7.091-3.674-1.566 0-3.59 1.353-3.513 3.832 0 0-.03.803.093 1.347.047.204.296.14.374.32-.037-1.203.207-1.825.8-2.633.76-1.038 2.024-1.313 2.54-1.313 2.885 0 3.953 1.851 7.553 3.784 4.512 2.423 6.453 2.962 10.464 2.998 4.01-.036 6.007-.575 10.519-2.998 3.6-1.933 4.634-3.938 7.52-3.938 1 0 1.705.647 2.032 1.667.202.627.088 1.045.14 1.293.026.121.174.109.207.24.1-.467.333-.633.3-1.733z"/></g><g fill="#703d29"><path d="M413.12 434.42c.81-.872 1.423-.544 1.573-.946.11-.297-.13-.327-.46-.45-.44-.165-.906-.26-1.346-.424-.457-.17-.87-.405-1.327-.576-.189-.07-.625-.293-.75.04-.228.61 1.602.558.988 2.2-.105.28-.365.88-1.274 1.875l-4.141 4.507c-.093.104-.248.326-.342.29-.095-.035-.082-.309-.083-.45l.06-6.39c.004-1.214.107-2.112.303-2.636.275-.734 1.12-.119 1.297-.59.111-.298.026-.31-.477-.498-.252-.094-.734-.195-1.74-.571-.536-.2-1.044-.47-1.563-.664-.236-.088-.672-.41-.828.01-.046.123.119.304.16.339.58.416.727.69.74 1.472l.114 11.635c.009.84.1 1.073.258 1.132.173.065.29-.011.633-.4l8.205-8.904z"/><path d="M417.95 436.22c.533-1.69 1.532-.671 1.723-1.276.067-.214-.001-.275-.482-.426-.913-.288-1.512-.398-2.088-.58-.56-.177-1.163-.445-1.788-.642-.144-.046-.527-.225-.623.077-.196.623 1.77.695 1.26 2.314l-2.693 8.542c-.533 1.69-1.54.864-1.736 1.486-.028.09-.036.224.109.27.416.131 1.127.277 1.816.494 1.249.394 1.819.652 2.412.839.368.116.534.09.596-.106.18-.57-1.872-.316-1.182-2.505l2.676-8.487zM423.73 437.93c.318-1.073.817-.926 1.413-.75 1.626.483 2.135 2.073 1.616 3.827-.313 1.055-.706 2.028-3.153 1.303-.483-.143-1.079-.32-.946-.766l1.07-3.614zm-4.434 7.696c-.667 2.254-1.797 1.278-1.966 1.85-.106.358.248.404.425.457.805.238 1.631.405 2.5.663.677.2 1.09.4 1.364.481.37.11.53.04.579-.12.19-.644-1.621-.383-1.054-2.297l.917-3.095c.185-.626.126-.78.979-.527.805.238 1.047.485 1.184 1.382l.515 3.227c.192 1.186.374 2.465 1.645 2.842.644.19 1.824.112 1.988-.443.042-.143-.023-.279-.168-.322-.16-.048-.353.011-.514-.036-.13-.038-.435-.129-.495-.458-.491-2.597-1.092-5.596-1.06-5.704.053-.179.568-.201 1.156-.475.594-.29 1.257-.814 1.596-1.959.244-.823.67-3.44-2.856-4.485-1.08-.32-2.195-.572-3.274-.892-1.014-.3-1.122-.41-1.862-.63-.193-.056-.381-.015-.434.164-.19.644 1.76.502 1.167 2.505l-2.332 7.872zM432.46 449.48c-.518 2.159-2.154.845-2.324 1.552-.096.4.186.448.48.519.653.156 1.21.213 2.303.476 1.094.263 1.615.465 2.269.622.473.113.787.246.891-.19.122-.507-2.094-.483-1.558-2.715l1.968-8.2c.21-.87.395-.922 1.064-.761l1.388.333c1.895.378.889 2.267 1.542 2.423.425.102.415-.648.435-.874l.22-1.712c.028-.185.089-.44-.156-.498-1.518-.365-2.63-.555-5.014-1.127-2.384-.573-3.46-.908-4.978-1.272-.245-.06-.306.195-.366.372l-.836 2.332c-.09.228-.283.604.06.686.734.176.815-2.318 2.66-1.875l1.372.33c.669.16.81.29.601 1.161l-2.02 8.418zM452.3 444.42c.646-1 1.306-.782 1.385-1.204.057-.312-.184-.3-.53-.364-.463-.086-.939-.098-1.401-.184-.479-.089-.928-.248-1.406-.337-.198-.037-.667-.18-.732.168-.119.643 1.675.273 1.355 1.997-.054.294-.206.93-.93 2.067l-3.295 5.158c-.073.119-.187.364-.286.345-.1-.018-.134-.29-.16-.428l-1.052-6.305c-.205-1.195-.26-2.098-.158-2.648.143-.77 1.083-.311 1.175-.807.057-.312-.029-.309-.557-.407-.264-.049-.756-.064-1.813-.26-.561-.104-1.11-.281-1.654-.382-.248-.046-.732-.288-.814.152-.024.129.17.279.217.306.642.31.836.554.984 1.321l2.132 11.44c.155.825.286 1.039.451 1.07.182.034.285-.061.555-.505l6.534-10.193zM453.23 454.93c.009.456-.032.6.363.78.92.4 1.692.983 2.702 1.152 2.169.362 3.967-1.02 4.37-3.43.391-2.338-.57-3.312-2.197-4.473-2.037-1.457-2.908-1.85-2.702-3.082.206-1.233 1.069-1.807 2.162-1.624 2.849.476 2.524 3.94 2.905 4.004.364.061.45-.151.486-.562l.23-2.496c.038-.429.134-.697-.115-.738-.215-.036-.679.19-.894.153-.496-.083-1.072-.917-2.43-1.144-1.938-.325-3.521 1-3.875 3.116-.324 1.932.533 2.813 1.84 3.75 2.448 1.753 3.452 2.167 3.19 3.731-.247 1.472-1.388 2.19-2.68 1.973-1.838-.308-2.585-2.154-2.82-4.01-.025-.25-.03-.42-.296-.465-.414-.069-.337.492-.33.758l.091 2.607zM477.95 447.96c.538-1.062 1.217-.915 1.251-1.343.025-.316-.214-.279-.566-.306-.468-.037-.943 0-1.412-.036-.485-.038-.948-.15-1.433-.188-.201-.016-.682-.11-.71.243-.051.651 1.694.096 1.556 1.845-.023.297-.108.946-.708 2.152l-2.739 5.474c-.06.126-.148.381-.248.374-.1-.01-.164-.275-.204-.41l-1.704-6.16c-.33-1.167-.479-2.059-.435-2.617.062-.78 1.044-.423 1.084-.925.024-.316-.06-.304-.596-.346-.268-.02-.76.016-1.83-.07-.57-.044-1.133-.163-1.685-.207-.251-.02-.759-.21-.794.237-.011.13.199.26.247.282.672.24.89.463 1.118 1.21l3.316 11.154c.24.805.393 1.004.56 1.017.184.014.277-.091.499-.56l5.433-10.82z"/><path d="M480.6 457c-.016 1.903-1.626 1.553-1.632 2.3-.002.317.334.226.519.228.453 0 .907-.067 1.444-.062.588.01 1.158.085 1.98.092.22 0 .639.024.64-.237.008-.877-2.152.373-2.12-3.21l.055-6.342c0-.168.036-.299.137-.298.084 0 .183.095.3.245l7.992 9.772c.116.15.2.263.434.265.202 0 .203-.147.206-.558l.092-10.466c.015-1.958 1.44-1.498 1.445-2.058 0-.056.002-.243-.317-.245-.15 0-.74.068-1.797.059-1.159-.011-1.645-.09-1.914-.091-.218 0-.27.184-.271.314-.005.616 2.046.298 2.03 1.996l-.053 6.213c-.005.466-.04.69-.14.689-.101-.001-.3-.227-.517-.49l-6.678-8.286c-.3-.358-.097-.486-.634-.491-.89-.01-1.327.063-1.764.059-.319 0-.62-.08-.94-.083-.2 0-.286.146-.288.315-.009.895 1.884-.301 1.852 3.281l-.061 7.09zM496.86 448.6c.016-1.772 1.27-1.09 1.274-1.724.002-.224-.08-.262-.585-.267-.957-.01-1.562.061-2.166.056-.588 0-1.242-.086-1.897-.09-.151-.002-.57-.062-.573.256-.005.653 1.802.147 1.788 1.845l.015 8.955c-.015 1.772-1.22 1.277-1.225 1.93-.001.093.031.224.182.225.437.01 1.16-.064 1.882-.058 1.31.011 1.93.091 2.55.097.387 0 .539-.07.54-.275.006-.597-1.882.245-1.862-2.05l.077-8.9zM503.9 457.27c.02 2.22-1.886 1.341-1.88 2.069.006.41.29.39.592.386.671-.01 1.225-.085 2.35-.095 1.125-.01 1.68.06 2.351.054.487 0 .824.05.82-.399-.005-.522-2.15.037-2.17-2.257l-.073-8.433c-.007-.895.16-.99.848-.996l1.427-.011c1.93-.091 1.411 1.984 2.083 1.978.436 0 .245-.73.21-.953l-.2-1.715c-.018-.187-.02-.448-.273-.446-1.561.014-2.686.098-5.137.12-2.452.02-3.577-.044-5.139-.03-.252 0-.25.263-.265.45l-.247 2.465c-.031.243-.128.654.224.651.756-.01.231-2.446 2.128-2.462l1.41-.014c.69-.01.858.086.866.98l.075 8.658zM513.68 453.74c-.301.024-.534.061-.549-.125-.02-.26.064-.473.13-.703l1.03-3.393c.067-.212.133-.236.166-.238.084-.01.034 0 .146.138l1.638 3.259c.1.216.217.413.238.673.013.186-.221.186-.523.21l-2.276.179zm2.874.784c.436-.034.534.146 1.2 1.553.224.488.368.813.4 1.222.09 1.135-1.115 1.024-1.073 1.563.02.26.236.206.537.183.485-.038 1.099-.162 1.835-.22 1.105-.087 1.563-.048 2.166-.096.452-.035.605-.01.58-.326-.048-.614-.895.183-1.535-1.096l-5.415-11.028c-.262-.54-.298-.575-.449-.563-.217.018-.273.377-.367.684l-3.651 11.61c-.336 1.074-1.199 1.03-1.165 1.458.02.242.284.183.518.165.485-.038.965-.151 1.467-.19.536-.043 1.044-.01 1.58-.05.351-.028.88.062.85-.329-.04-.502-1.824-.062-1.93-1.401-.035-.447.148-1.116.236-1.497.288-1.258.634-1.36.919-1.382l3.298-.26zM529.53 446.79c-.168-1.276-.104-1.304 1.91-1.569 3.213-.423 2.2 1.912 2.982 1.81.383-.05.22-.65.171-.889l-.307-1.822c-.023-.167-.163-.336-.38-.308-1.465.193-2.604.418-3.786.574-2.547.335-3.755.419-4.438.509-.233.03-.347.196-.325.363.098.74 1.901-.1 2.12 1.564l1.14 8.658c.297 2.256-1.1 1.424-.988 2.275.016.111.127.19.343.162.916-.12 1.606-.287 2.122-.355.732-.097 1.358-.103 1.99-.186.417-.055.776-.027.727-.397-.065-.5-1.885.21-2.156-1.843l-.36-2.738c-.142-1.073-.237-1.286.528-1.387l1.232-.162c1.732-.228 1.524 1.795 2.056 1.724.4-.053.212-.705.164-.943l-.55-3.277c-.082-.498-.26-.437-.377-.421-.333.044-.159 1.752-1.59 1.94l-1.05.139c-.715.094-.732-.035-.837-.831l-.34-2.59zM535.67 451.03c.69 3.724 3.378 5.787 6.697 5.172 5.267-.976 5.44-5.657 4.965-8.225-.721-3.89-3.62-5.8-6.833-5.166-3.939.767-5.574 4.201-4.829 8.219zm1.837-1.422c-.493-2.66-.137-5.345 2.643-5.917 2.123-.431 4.532 1.323 5.283 5.378.565 3.045.096 5.675-2.734 6.256-2.945.603-4.696-3.039-5.192-5.717zM550.53 443.11c-.261-1.089.245-1.21.849-1.355 1.65-.396 2.886.727 3.313 2.505.257 1.07.403 2.11-2.08 2.705-.49.118-1.093.263-1.202-.19l-.88-3.665zm.009 8.882c.549 2.286-.917 2.004-.778 2.585.087.363.417.226.596.183.817-.196 1.616-.465 2.498-.676.685-.165 1.143-.198 1.421-.265.376-.09.48-.23.44-.393-.156-.654-1.594.478-2.06-1.463l-.753-3.138c-.153-.635-.281-.739.584-.947.816-.196 1.15-.103 1.717.605l2.06 2.537c.758.931 1.555 1.949 2.845 1.64.653-.158 1.635-.816 1.5-1.378-.035-.145-.159-.23-.306-.195-.163.039-.3.187-.464.226-.13.031-.44.106-.657-.149-1.725-2.004-3.744-4.3-3.77-4.41-.044-.181.39-.458.764-.99.37-.548.682-1.333.403-2.494-.2-.835-1.141-3.314-4.717-2.456-1.094.263-2.187.602-3.281.864-1.028.247-1.177.206-1.928.386-.196.047-.337.177-.294.359.157.653 1.776-.446 2.264 1.586l1.916 7.983zM564.01 448.98c.556 2.15-1.505 1.758-1.323 2.462.102.398.374.308.667.232.65-.168 1.168-.379 2.257-.66 1.09-.282 1.645-.349 2.295-.517.471-.122.81-.152.698-.585-.13-.506-2.076.556-2.65-1.666l-2.112-8.164c-.224-.867-.085-1 .581-1.172l1.382-.358c1.851-.555 1.85 1.584 2.5 1.416.422-.11.061-.767-.027-.976l-.609-1.615c-.063-.177-.128-.43-.372-.367-1.512.392-2.582.746-4.956 1.36-2.373.613-3.481.822-4.993 1.214-.244.063-.179.316-.148.5l.356 2.452c.029.243.034.666.375.577.732-.189-.368-2.429 1.469-2.904l1.365-.353c.667-.172.853-.124 1.077.743l2.168 8.381zM572.6 437.52c-.474-1.708.92-1.397.75-2.009-.06-.215-.15-.229-.636-.095-.923.256-1.485.49-2.068.651-.566.157-1.217.26-1.848.435-.146.04-.565.098-.48.405.174.629 1.863-.382 2.316 1.254l2.394 8.63c.474 1.708-.821 1.564-.647 2.193.025.09.093.207.238.167.42-.117 1.097-.382 1.793-.575 1.262-.35 1.88-.444 2.48-.61.371-.103.497-.215.442-.413-.16-.576-1.742.754-2.356-1.458l-2.378-8.575zM576.18 441.69c1.202 3.592 4.15 5.261 7.352 4.19 5.08-1.7 4.6-6.36 3.771-8.836-1.255-3.751-4.391-5.24-7.485-4.166-3.793 1.31-4.934 4.937-3.638 8.812zm1.621-1.664c-.858-2.565-.879-5.273 1.794-6.227 2.043-.723 4.672.68 5.98 4.59.983 2.937.885 5.606-1.836 6.576-2.833 1.006-5.074-2.356-5.938-4.939zM589.72 431.56c-.41-1.041.074-1.232.652-1.46 1.578-.622 2.96.318 3.63 2.02.403 1.024.692 2.033-1.683 2.968-.469.185-1.047.412-1.218-.023l-1.381-3.506zm1.245 8.794c.861 2.187-.63 2.113-.411 2.669.136.347.444.166.616.098.781-.308 1.535-.685 2.378-1.017.657-.259 1.106-.355 1.371-.46.36-.142.444-.295.382-.452-.246-.625-1.512.697-2.244-1.16l-1.183-3.004c-.24-.608-.38-.692.447-1.018.781-.308 1.124-.263 1.784.36l2.393 2.225c.881.816 1.812 1.713 3.046 1.227.625-.246 1.506-1.034 1.294-1.572-.055-.14-.19-.206-.33-.151-.157.062-.272.227-.428.289-.125.049-.422.166-.672-.056-1.986-1.744-4.306-3.738-4.347-3.843-.068-.173.323-.508.62-1.085.288-.596.488-1.416.05-2.527-.314-.8-1.59-3.123-5.012-1.776-1.047.413-2.082.9-3.129 1.313-.984.388-1.136.367-1.855.65-.188.075-.31.222-.241.396.246.625 1.696-.688 2.462 1.256l3.009 7.638z"/></g><g fill="#fedf00"><path fill="#d52b1e" d="M412.66 249.25h82.179v82.023H412.66z"/><path id="a" fill="#fff" d="M451.2 313.83s-.048 2.931-.855 5.287c-.933 2.721-.94 2.721-1.796 4.043-1.152 1.78-2.557 3.082-3.81 3.887-1.958 1.258-3.948 1.888-5.948 1.71-5.49-.486-8.038-6.44-9.283-11.273-1.321-5.13-5.073-7.923-7.463-6.064-1.4 1.089-1.479 2.914-.311 4.665 1.244 1.866 4.099 2.8 4.099 2.8l-2.933 3.731s-6.302-.82-7.535-7.393c-.466-2.488.742-7.134 4.891-8.522 5.297-1.774 8.686 2.004 10.318 5.191 2.246 4.384 3.21 12.434 9.43 11.19 3.384-.677 4.976-5.598 4.976-7.852l2.467-2.644 3.654 1.167.099.078z"/><use transform="matrix(-1 0 0 1 907.52 0)" xlink:href="#a"/><path d="M461.12 278.95l10.76-11.643s1.624-1.31 1.61-3.401l-2.219.345-.497-1.142-.11-1.147 2.981-.63c.048-.484.007-.85.092-1.384.08-.494.19-.76.311-1.244l-3.265.218c.166-.571.128-.875.31-1.406.155-.447.198-.618.504-1.103.606-.091 1.158-.228 1.907-.304.728-.073 1.143-.04 1.873-.085 1.781-3.321 9.19-6.373 14.454-.904 3.81 3.958 2.988 11.219-1.95 13.139-2.8 1.088-5.054.445-6.862-1.11l1.97-3.866c2.722 1.625 4.976-.396 4.821-2.495-.197-2.654-1.919-4.297-4.354-4.51-2.254-.197-3.872 1.093-4.898 3.11-.626 1.231-.336 2.134-.544 3.5-.226 1.482-.1 2.31-.537 3.809-.319 1.088-1.155 2.434-2.37 3.592l-11.03 11.935-42.941 46.445-3.227-2.983 43.211-46.737z"/><path fill="#fff" d="M429.51 283.04s2.7 13.372 11.874 33.431c4.665-1.71 7.42-2.8 12.362-2.8 4.943 0 7.697.934 12.362 2.8 9.174-20.059 11.874-33.431 11.874-33.431l-24.236-31.177-24.236 31.177z"/><path d="M456.12 262.41l16.82 21.637s-2.243 10.52-9.078 26.354c-2.646-.603-4.916-1.128-7.733-1.32l-.009-46.67zM451.38 262.41l-16.82 21.637s2.243 10.52 9.078 26.354c2.646-.603 4.916-1.128 7.733-1.32l.009-46.67z"/></g><g fill="#d52b1e"><path fill="#fedf00" d="M503.6 249.25h82.179v82.023H503.6z"/><path d="M515.11 249.25h12.253v82.023H515.11zM538.59 249.25h12.253v82.023H538.59zM562.07 249.25h12.253v82.023H562.07z"/></g><g fill="#d52b1e" stroke="#d52b1e" stroke-width=".513"><path fill="#fedf00" stroke="none" d="M412.97 402.41c.233 1.477.76 4.012 2.163 6.609 1.477 2.332.932 2.269 4.276 6 1.645 1.838 4.213 3.411 6.227 4.495 2.021 1.089 3.517 1.623 6.842 2.496 6.517 1.71 11.09 1.817 16.574 1.598 4.278-.171 7.544-.697 10.249-1.062 3.857-.518 6.73-.827 11.118-1.01 2.133-.09 4.149-.11 6.142 0 2.405.133 4.781.505 7.308 1.01 5.442 1.089 10.962 3.188 10.962 3.188l.014-85.655-82.193-.023V398.6s.168 2.86.318 3.81z"/><path d="M422.51 417.43l3.852 2.241 5.278 1.9-.005-81.528h-9.126zM468.17 421.14l.011-81.099h-9.143v82.396s6.257-.802 9.131-.988zM486.41 340.05h-9.113v81.381a60.43 60.43 0 019.13 1.683l-.017-83.064zM449.92 340.05v83.331c-.09.01-6.1.315-9.173-.003l.002-83.314z"/></g><path fill="#fedf00" d="M585.48 402.39c-.233 1.477-.76 4.012-2.163 6.608-1.477 2.333-.932 2.27-4.275 6.001-1.646 1.837-4.214 3.411-6.228 4.495-2.021 1.089-3.516 1.623-6.841 2.495-6.518 1.71-11.091 1.818-16.574 1.599-4.278-.171-7.544-.698-10.25-1.062-3.857-.518-6.73-.827-11.117-1.01-2.133-.09-4.15-.11-6.142 0-2.406.132-4.782.505-7.309 1.01-5.442 1.089-11.033 3.188-11.033 3.188l.057-85.655 82.193-.023v58.543s-.168 2.86-.318 3.81z"/><g id="b"><path fill="#d52b1e" d="M524.62 346.91s-.366.175-.594.281c-.298.328-.447.52-.781.813-.443.389-.769.503-1.25.843-.23.164-.42.216-.594.438-.252.32-.079.63-.25 1-.186.405-.369.597-.656.938-.366.434-.65.61-1.063 1-.418.395-.587.726-1.093 1-.134.072-.199.142-.344.187-.216.067-.35-.011-.563.062-.388.134-.51.563-.78.719.111.218.106.372.218.594.158.323.705 1.215.812 1.437.21.305.27.7.532.781.537.168.858.154 1.312.125.792.182 1.28.158 2.031.469.613.254.863.575 1.47.844.473.21.771.34 1.28.437.387.074.608.132 1 .094.25-.024.377-.12.625-.156.05-.01.081 0 .125 0l-.03.375c-.006 0 .004.028 0 .031v.062h.062l2.062.906a1.72 1.72 0 0 0-.187.375c-.098.32-.114.689-.063.844.63 1.888 1.16 3.069 1.469 3.188.615.236.806.865 1.156 1.5-.123.132-.227.2-.344.312-.614.59-1.152 1.01-1.656 1.813-.745 1.188-1.248 1.203-.312 2.78.549.926.814 1.1 1.53 2.407.363.66.563 1.173.782 1.969.207.752.278 1.19.313 1.969l.968.375.657-.657.625-1.187.03-.906c-.238-.203-.307-.474-.25-.782.07-.368.515-.29.72-.625.283-.461-.332-.734-.657-1.093-.605-.67-1.43-.833-1.625-1.844-.052-.273.078-.427.375-.719.856-.84 1.13-.973 1.97-1.812.241.142.61.193.968.125.28-.053.53.125 1.406.375.61.173.873.086 1.219.03l.375-.093c.05.211.111.415.125.687.053 1.06-.155 2.995.156 3.5.131.213.186.332.281.563.1.24.214.396.22.656.01.696.046 1.14 0 1.875-.045.691-.104 1.042-.22 1.75-.074.451-.165.714-.437 1.062-.283.364-.595.418-.969.688l-.093 1 1.125.469 1.28.312.688-.281c0-.254.04-.4.156-.625.128-.247.232-.439.47-.531.362-.143.759.129.905-.094.16-.242.06-.338.032-.75-.046-.662-.184-.99-.282-1.657-.164-1.11-.21-1.686-.156-2.75.031-.616.038-.956.156-1.562.172-.883.486-1.311.688-2.188.225-.977.265-1.606.375-2.468 3.17.452 5.807.397 9.344-.375.169-.037.75-.25.75-.25.8.689 1.706 1.264 2.718 1.625-.006.101-.015.845 0 .968.037.288-.04.482.125.72.106.15.197.239.375.28.263.061.455.023.657-.156.226-.201.184-.454.25-.75.032-.14.007-.564 0-.687.366.055.49.062.875.062.357 0 .53.014.875-.031.005.08.02.369.03.468.028.245-.075.435.032.657.111.23.25.359.5.406a.66.66 0 0 0 .531-.094c.296-.185.264-.498.313-.844.015-.11.011-.692 0-.781.212-.067.827-.292 1.031-.375a5.12 5.12 0 0 1-.094.812 5.01 5.01 0 0 1-.25.938c-.206.568-.441.856-.75 1.375-.376.634-.572.985-1.03 1.562-.212.266-.358.386-.563.657-.256.337-.342.566-.594.906-.324.438-.51.724-.938 1.062-.693.55-1.15.11-2.093.844l-.22 1.031 1.438.532 1.282.25.437-.25c-.012-.301.032-.514.219-.75.213-.27.441-.351.781-.407.361-.059.747.034 1.031-.218.35-.311.349-.914.625-1.47.859-1.723 1.621-2.562 3-3.905.613-.597 1.138-.758 1.657-1.438.246-.322.52-.469.53-.875.009-.283-.143-.415-.218-.687-.104-.377-.187-1-.187-1 1.521.744.97.646 1.25 1.406.225.615-.033 1.04.062 1.687.111.756.466 1.114.531 1.875.078.905-.143 1.42-.312 2.313-.15.785-.13 1.277-.469 2-.322.689-.57 1.077-1.156 1.562-.211.175-.369.25-.594.407l-.125 1.03 1.125.376 1.625.437.375-.343c.164-.655-.055-1.617.406-1.688.406-.062.693 0 .782-.312.036-.132.058-.326.093-.625.221-1.886.422-3.646.625-4.5.23-.968.215-1.178.407-1.907.175-.664-.086-.282.406-1.687.734-2.097-.208-2.375-1.063-3.656-.462-.693-.622-.944-.687-1.5-.097-.817.164-1.495.125-2.75a42.325 42.325 0 0 1 0-2.875c.115-.053.222-.121.344-.188 1.17-.642 1.636-.836 2.375-2.469a3.43 3.43 0 0 0 .312-1.468c-.005-.332-.065-.652-.094-1.032-.03-.399-.19-.637-.312-.937-.13-.318-.325-.559-.563-.844-.772-.924-1.779-1.132-2.718-1.469-1.484-.531-2.505-.434-4.125-.562-1.673-.132-2.607-.158-4.282-.062-2.006.114-3.128.519-5.125.75-1.915.222-2.977.37-4.906.406-2.26.042-4.42-.46-5.781-.344-2.451.21-2.493.762-6.188 1.063a66.916 66.916 0 0 1-3.843.187l-2.157-.687c.857-.306 1.067-.488 1.47-1.031.271-.366.232-.679.562-1.063.266-.312.443-.622.78-.969a2.2 2.2 0 0 0-.937-.437c-.363-.076-.573-.042-.937 0-.494.056-.772.124-1.219.344-.36.177-.624.357-.844.593 0 0-1.285-.828-2.187-1.218-1.119-.485-1.6-.712-3-.907zm1.969 11.906h.062c-.012.01-.019.022-.03.031l-.032-.031z"/><g fill="none" stroke="#fedf00" stroke-linecap="round" stroke-width=".987"><path d="M568.77 359.52l-.763.244c-.867.402-1.578.418-2.6.496-2.644.202-4.272-1.057-6.998-.847-1.404.108-2.025 1.19-3.46 1.548a9.247 9.247 0 0 1-1.701.282l.512-1.034s-1.284.262-2.115.264a7.551 7.551 0 0 1-1.523-.13l1.018-.95s-.814-.133-1.294-.336a3.918 3.918 0 0 1-1.06-.63 20.484 20.484 0 0 0 1.69-.353c1.556-.385 2.04-1.147 3.89-1.325 1.15-.111 3.032-.046 7.643.717 3.036.502 4.382.267 5.536-.258.76-.345 1.01-1.01 1.103-1.788.092-.776-.404-1.404-.874-1.81-.123-.106-.444-.335-1.113-.363"/><path fill="#fcd900" stroke-linecap="butt" stroke-width=".513" d="M524.8 350.61c-.53-.066-.884.011-1.34.291-.48.296-.541.697-.888 1.142.445.1.699.361 1.142.254.347-.084.527-.238.761-.507.316-.363.432-.676.428-1.156l-.103-.024z"/><path d="M536.04 363.79s.264.48.407.8c.248.554.376.878.524 1.467.2.799.114 1.284.24 2.098.023.143.05.263.077.376l-.05 1.129M544.04 362.71s-.219.812-.354 1.333c-.352 1.353-.676 2.087-.944 3.46-.045.23-.078.442-.103.644M531.78 364.17c.79.176.544 3.36 1.789 4.09"/><path stroke-linecap="butt" d="M560.12 369.78l.384-.249a8.154 8.154 0 0 0 2.686-1.79"/><path d="M552.38 368.02h.007c3.533-.883 5.885-2.648 7.579-2.869"/><path d="M555.97 363.61c.299-.011.585-.033.83-.068 1.467-.21 1.703.687 2.725 1.258 1.857 1.039 2.098 2.307 4.3 3.356.116.055.223.107.32.155l.848.429"/><path fill="#fcd900" stroke-linecap="butt" stroke-width=".513" d="M517.7 354.53c.268.067.432.08.707.054.332-.031.484-.238.817-.249.27-.01.462-.032.684.125.14.099.2.19.28.342.087.166.163.282.124.466-.06.284-.324.418-.614.42-.237 0-.434-.062-.544-.272a.467.467 0 0 1-.039-.389c-.284.107-.49.111-.777.016a1.04 1.04 0 0 1-.638-.513z"/></g><g fill="#0065bd"><path d="M525.13 364.17c-.797-.237-1.966-.826-1.966-.826.323-.25.587-.265.863-.555.39-.408.373-.788.593-1.319.215-.52.184-.954.671-1.343.29-.23.762-.269 1.118-.165.353.113.759.401.848.766.137.561-.16.886-.246 1.454s-.293.894-.195 1.46c.066.375.227.519.354.907 0 0-1.264-.148-2.04-.38zM524.14 365.12a.628.628 0 11.64.618.627.627 0 01-.64-.618zM522.38 348.61s-.09-.06-.144-.104c-.383-.31-.42-.653-.601-1.11-.172-.434-.257-.691-.315-1.154-.05-.406 0-.64 0-1.048 0-.369.04-.578 0-.944-.04-.375-.03-.612-.21-.944-.097-.18-.394-.337-.314-.42.094-.096.257-.02.42 0 .399.049.63.166.943.42.377.306.526.571.672 1.049.166.548.248.898.407 1.468.083.295.13.469.284.734.16.275.32.383.524.629l-.011.023c-.298.327-.444.54-.777.834-.305.27-.56.403-.846.573l-.033-.01zM525.98 359.25l2.23 1.031c1.149-.635 2.474-1.924 3.497-3.919.881-1.718 1.02-2.65 1.364-4.313l-1.789-.581-.357.073c-.552 1.723-.693 2.704-1.618 4.192-.802 1.291-1.718 2.305-2.649 3.034l-.678.483zM530.92 377.37c.36-.493.513-.81.922-1.264.456-.505.8-.702 1.312-1.15.155.015.335-.012.48.071-.027.545-.055.95-.18 1.541-.1.48-.186.746-.346 1.21-.135.388-.159.639-.39.979-.154.226-.29.316-.476.518-.51-.742-1.33-1.297-1.322-1.906zM563.93 379.22c.573.21.92.27 1.469.538.61.3.895.576 1.467.944.027.154.104.319.063.483-.531.122-.927.207-1.53.251a8.39 8.39 0 01-1.259 0c-.41-.023-.658.024-1.048-.105-.26-.086-.384-.192-.63-.314.573-.696.88-1.637 1.468-1.797zM554.17 377.18c.573.21.92.27 1.468.538.611.3.896.576 1.468.944.027.154.104.319.063.482-.531.123-.927.208-1.53.252-.49.036-.769.027-1.259 0-.41-.023-.658.024-1.048-.105-.26-.086-.384-.192-.63-.314.573-.696.88-1.637 1.468-1.797zM536.83 379.31c.573.21.92.27 1.469.538.61.3.895.576 1.468.944.026.154.103.319.063.483-.532.122-.928.207-1.531.251-.49.036-.769.027-1.258 0-.41-.022-.659.024-1.049-.105-.26-.086-.384-.191-.63-.314.573-.696.88-1.637 1.468-1.797zM527.85 349.51c-.613-.278-1.05-1.045-.66-1.594.155-.22.412-.174.565-.395.19-.273.142-.508.136-.839-.007-.377-.143-.573-.21-.944-.071-.405-.138-.636-.135-1.048.005-.628-.038-1.076.345-1.573.245-.317.66-.592.825-.612.147.136-.057.502-.033.822.036.462.131.717.288 1.153.202.563.479.809.703 1.363.208.516.4.808.42 1.363.015.457-.025.736-.21 1.154-.165.37-.3.579-.61.839-.27.225-.458.325-.796.419a1.15 1.15 0 01-.628-.108z"/></g></g><use y="36.591" xlink:href="#b"/><g fill="none" stroke="#703d29" stroke-width=".797"><path d="M412.66 249.25h82.179v82.023H412.66zM503.6 249.25h82.179v82.023H503.6zM412.97 402.41c.233 1.477.76 4.012 2.163 6.609 1.477 2.332.932 2.269 4.276 6 1.645 1.838 4.213 3.411 6.227 4.495 2.021 1.089 3.517 1.623 6.842 2.496 6.517 1.71 11.09 1.817 16.574 1.598 4.278-.171 7.544-.697 10.249-1.062 3.857-.518 6.73-.827 11.118-1.01 2.133-.09 4.149-.11 6.142 0 2.405.133 4.781.505 7.308 1.01 5.442 1.089 10.962 3.188 10.962 3.188l.014-85.655-82.193-.023V398.6s.168 2.86.318 3.81zM585.48 402.39c-.233 1.477-.76 4.012-2.163 6.608-1.477 2.333-.932 2.27-4.275 6.001-1.646 1.837-4.214 3.411-6.228 4.495-2.021 1.089-3.516 1.623-6.841 2.495-6.518 1.71-11.091 1.818-16.574 1.599-4.278-.171-7.544-.698-10.25-1.062-3.857-.518-6.73-.827-11.117-1.01-2.133-.09-4.15-.11-6.142 0-2.406.132-4.782.505-7.309 1.01-5.442 1.089-11.033 3.188-11.033 3.188l.057-85.655 82.193-.023v58.543s-.168 2.86-.318 3.81z"/></g></svg>