<svg xmlns="http://www.w3.org/2000/svg" width="937.5" height="625" viewBox="0 0 937.5 625"><defs><clipPath id="a"><path d="M125.19 24.921h500.278v449.512H125.19V24.921z"/></clipPath><clipPath id="b"><path d="M204.583 126.545h43.139v60.976h-43.139v-60.976z"/></clipPath><clipPath id="c"><path d="M204.583 187.521h43.139v-60.976h-43.139v60.976z"/></clipPath><clipPath id="d"><path d="M125.19 24.921h500.278v449.512H125.19V24.921z"/></clipPath><clipPath id="e"><path d="M221.657 132.631h16.034v10.362h-16.034v-10.362z"/></clipPath><clipPath id="f"><path d="M221.657 142.993h16.034v-10.362h-16.034v10.362z"/></clipPath><clipPath id="g"><path d="M125.19 24.921h500.278v449.512H125.19V24.921z"/></clipPath><clipPath id="h"><path d="M502.936 126.226h43.138v60.975h-43.138v-60.975z"/></clipPath><clipPath id="i"><path d="M502.937 187.201h43.137v-60.975h-43.137v60.975z"/></clipPath><clipPath id="j"><path d="M125.19 24.921h500.278v449.512H125.19V24.921z"/></clipPath><clipPath id="k"><path d="M512.967 132.312h16.034v10.362h-16.034v-10.362z"/></clipPath><clipPath id="l"><path d="M512.967 142.674H529v-10.362h-16.033v10.362z"/></clipPath><clipPath id="m"><path d="M125.19 24.921h500.278v449.512H125.19V24.921z"/></clipPath><clipPath id="n"><path d="M269.211 377.345h211.581v14.981H269.211v-14.981z"/></clipPath><clipPath id="o"><path d="M269.211 392.326h211.581v-14.981H269.211v14.981z"/></clipPath><clipPath id="p"><path d="M125.19 24.921h500.278v449.512H125.19V24.921z"/></clipPath><clipPath id="q"><path d="M259.051 400.446h232.513v17.241H259.051v-17.241z"/></clipPath><clipPath id="r"><path d="M258.788 417.951h233.039v-17.768H258.788v17.768z"/></clipPath><clipPath id="s"><path d="M125.19 24.921h500.278v449.512H125.19V24.921z"/></clipPath><clipPath id="t"><path d="M370.028 423.962h12.852v23.219h-12.852v-23.219z"/></clipPath><clipPath id="u"><path d="M370.029 447.182h12.853v-23.22h-12.853v23.22z"/></clipPath><clipPath id="v"><path d="M125.19 24.921h500.278v449.512H125.19V24.921z"/></clipPath><clipPath id="w"><path d="M270.391 411.827h18.223v24.017h-18.223v-24.017z"/></clipPath><clipPath id="x"><path d="M270.392 435.844h18.222v-24.018h-18.222v24.018z"/></clipPath><clipPath id="y"><path d="M125.19 24.921h500.278v449.512H125.19V24.921z"/></clipPath><clipPath id="z"><path d="M463.251 412.483h18.222V436.5h-18.222v-24.017z"/></clipPath><clipPath id="A"><path d="M463.251 436.5h18.222v-24.017h-18.222V436.5z"/></clipPath><clipPath id="B"><path d="M125.19 24.921h500.278v449.512H125.19V24.921z"/></clipPath></defs><path fill="#fff" d="M0 625h937.5V0H0v625z"/><g clip-path="url(#a)" transform="matrix(1.25 0 0 -1.25 0 625)"><path fill="#ce0f25" d="M527.24 184.52c8.587-20.196 4.896-36.12 0-51.625 12.382 4.487 38.686 16.811 35.534 32.181-5.515 13.456-22.679 16.75-35.535 19.444"/><path fill="none" stroke="#221b0f" d="M527.24 184.52c8.587-20.196 4.896-36.12 0-51.625 12.382 4.487 38.686 16.811 35.534 32.181-5.515 13.456-22.679 16.75-35.535 19.444z"/><path fill="#faf8f0" d="M483.358 97.092c7.805 2.522 13.165 5.395 26.088 7.188 5.326.738 19.677-.13 27.997 2.46 8.012 2.496 12.65 4.865 12.88 8.885.406 7.205 2.743 15.457 5.568 22.948 4.03 10.69 8.921 19.307 9.676 22.195.713 2.723-.512 5.453-2.317 7.956-7.034 9.755-22.797 16.87-36.843 16.853l.597-2.391c10.814-.196 32.195-8.297 33.481-19.132 1.938-16.32-53.235-18.793-83.884-24.851 0 0-7.902-1.965-10.595-4.744-1.907-1.965-2.879-7.053-.895-8.938 14.015-13.318 18.247-28.43 18.247-28.43"/><path fill="none" stroke="#221b0f" d="M483.358 97.092c7.805 2.522 13.165 5.395 26.088 7.188 5.326.738 19.677-.13 27.997 2.46 8.012 2.496 12.65 4.865 12.88 8.885.406 7.205 2.743 15.457 5.568 22.948 4.03 10.69 8.921 19.307 9.676 22.195.713 2.723-.512 5.453-2.317 7.956-7.034 9.755-22.797 16.87-36.843 16.853l.597-2.391c10.814-.196 32.195-8.297 33.481-19.132 1.938-16.32-53.235-18.793-83.884-24.851 0 0-7.902-1.965-10.595-4.744-1.907-1.965-2.879-7.053-.895-8.938 14.015-13.318 18.247-28.43 18.247-28.43z"/><path fill="#f6e4be" d="M560.473 153.945c-20.633-13.344-48.501-14.32-72.844-16.53l-15.5-15.758 14.209-20.925s15.827 5.192 24.022 6.46c5.792.893 12.299.091 18.08 1.031 4.95.806 9.349.366 12.659 4.134 3.848 4.384 3.65 12.356 5.682 17.824 1.296 3.485 3.367 6.365 6.063 10.497 4.322 6.626 7.629 13.267 7.629 13.267"/><path fill="#ce0f25" d="M475.885 88.123c3.8 18.388-8 25.634-14.348 36.769 0 0 6.839-2.803 10.46-3.287 6.796-.907 10.716-.768 20.546.815 8.047 1.297 14.81 5.351 20.412 2.772.778-.358 1.376-1.243 1.494-2.094.363-2.622-1.16-5.312-2.69-7.473-8.395-11.846-35.874-27.502-35.874-27.502"/><path fill="none" stroke="#221b0f" d="M475.885 88.123c3.8 18.388-8 25.634-14.348 36.769 0 0 6.839-2.803 10.46-3.287 6.796-.907 10.716-.768 20.546.815 8.047 1.297 14.81 5.351 20.412 2.772.778-.358 1.376-1.243 1.494-2.094.363-2.622-1.16-5.312-2.69-7.473-8.395-11.846-35.874-27.502-35.874-27.502z"/><path fill="#ce0f25" d="M222.696 184.52c-8.59-20.196-4.897-36.12 0-51.625-12.383 4.487-38.688 16.811-35.534 32.181 5.516 13.456 22.678 16.75 35.534 19.444"/><path fill="none" stroke="#221b0f" d="M222.696 184.52c-8.59-20.196-4.897-36.12 0-51.625-12.383 4.487-38.688 16.811-35.534 32.181 5.516 13.456 22.678 16.75 35.534 19.444z"/><path fill="#faf8f0" d="M266.576 97.092c-7.806 2.522-13.164 5.395-26.086 7.188-5.328.738-19.677-.13-27.997 2.46-8.013 2.496-12.653 4.865-12.88 8.885-.408 7.205-2.745 15.457-5.569 22.948-4.03 10.69-8.923 19.307-9.677 22.195-.712 2.723.512 5.453 2.318 7.956 7.034 9.755 22.8 16.87 36.843 16.853l-.598-2.391c-10.813-.196-32.194-8.297-33.48-19.132-1.939-16.32 53.234-18.793 83.884-24.851 0 0 7.901-1.965 10.595-4.744 1.907-1.965 2.88-7.053.894-8.938-14.013-13.318-18.247-28.43-18.247-28.43"/><path fill="none" stroke="#221b0f" d="M266.576 97.092c-7.806 2.522-13.164 5.395-26.086 7.188-5.328.738-19.677-.13-27.997 2.46-8.013 2.496-12.653 4.865-12.88 8.885-.408 7.205-2.745 15.457-5.569 22.948-4.03 10.69-8.923 19.307-9.677 22.195-.712 2.723.512 5.453 2.318 7.956 7.034 9.755 22.8 16.87 36.843 16.853l-.598-2.391c-10.813-.196-32.194-8.297-33.48-19.132-1.939-16.32 53.234-18.793 83.884-24.851 0 0 7.901-1.965 10.595-4.744 1.907-1.965 2.88-7.053.894-8.938-14.013-13.318-18.247-28.43-18.247-28.43z"/><path fill="#f6e4be" d="M189.464 153.945c20.632-13.344 48.5-14.32 72.843-16.53l15.498-15.758-14.207-20.925s-15.828 5.192-24.023 6.46c-5.791.893-12.296.091-18.081 1.031-4.95.806-9.35.366-12.657 4.134-3.848 4.384-3.651 12.356-5.683 17.824-1.294 3.485-3.366 6.365-6.063 10.497-4.32 6.626-7.627 13.267-7.627 13.267"/><path fill="#ce0f25" d="M274.05 88.123c-3.8 18.388 8 25.634 14.35 36.769 0 0-6.84-2.803-10.465-3.287-6.792-.907-10.713-.768-20.543.815-8.046 1.297-14.81 5.351-20.41 2.772-.78-.358-1.379-1.243-1.496-2.094-.363-2.622 1.16-5.312 2.69-7.473 8.396-11.846 35.873-27.502 35.873-27.502"/><path fill="none" stroke="#221b0f" d="M274.05 88.123c-3.8 18.388 8 25.634 14.35 36.769 0 0-6.84-2.803-10.465-3.287-6.792-.907-10.713-.768-20.543.815-8.046 1.297-14.81 5.351-20.41 2.772-.78-.358-1.379-1.243-1.496-2.094-.363-2.622 1.16-5.312 2.69-7.473 8.396-11.846 35.873-27.502 35.873-27.502z"/><path fill="#faf8f0" d="M244.233 65.45c-3.57 2.288-7.639 4.553-9.902 7.996-1.559 2.372-2.237 5.631-1.523 8.38 4.173 16.074 3.285 24.682.392 36.854-.934 3.934-1.886 9.873 3.035 9.608 12.624-.68 26.777-4.709 36.942-4.345 4.153.151 10.36.977 10.893 5.505.633 5.378-13.178 10.156-13.178 10.156 8.21-.942 15.002-4.339 17.333-9.142.947-1.953.508-4.718-.715-6.513-2.407-3.538-6.987-4.497-11.227-5.065-8.446-1.14-22.764 1.176-30.86 2.73-3.662.702-4.942 1.278-5.58.777-1.603-1.262.584-3.81 5.681-8.576 10.313-9.644 22.334-17.498 34.74-24.246 33.782-18.374 59.618-24.244 94.704-24.244 35.084 0 60.92 5.87 94.704 24.244 12.405 6.748 24.425 14.602 34.738 24.246 5.098 4.766 7.286 7.314 5.68 8.576-.635.501-1.916-.075-5.579-.777-8.096-1.554-22.414-3.87-30.86-2.73-4.238.568-8.82 1.527-11.227 5.065-1.223 1.795-1.662 4.56-.713 6.513 2.331 4.803 9.122 8.2 17.331 9.142 0 0-13.81-4.778-13.177-10.156.532-4.528 6.74-5.354 10.892-5.505 10.167-.364 24.317 3.664 36.943 4.345 4.922.265 3.97-5.674 3.034-9.608-2.893-12.172-3.782-20.78.393-36.855.712-2.748.034-6.007-1.524-8.379-2.262-3.443-6.329-5.708-9.902-7.997-41.52-26.623-88.188-40.293-130.733-40.293-42.546 0-89.214 13.67-130.735 40.293"/><path fill="none" stroke="#221b0f" d="M244.233 65.45c-3.57 2.288-7.639 4.553-9.902 7.996-1.559 2.372-2.237 5.631-1.523 8.38 4.173 16.074 3.285 24.682.392 36.854-.934 3.934-1.886 9.873 3.035 9.608 12.624-.68 26.777-4.709 36.942-4.345 4.153.151 10.36.977 10.893 5.505.633 5.378-13.178 10.156-13.178 10.156 8.21-.942 15.002-4.339 17.333-9.142.947-1.953.508-4.718-.715-6.513-2.407-3.538-6.987-4.497-11.227-5.065-8.446-1.14-22.764 1.176-30.86 2.73-3.662.702-4.942 1.278-5.58.777-1.603-1.262.584-3.81 5.681-8.576 10.313-9.644 22.334-17.498 34.74-24.246 33.782-18.374 59.618-24.244 94.704-24.244 35.084 0 60.92 5.87 94.704 24.244 12.405 6.748 24.425 14.602 34.738 24.246 5.098 4.766 7.286 7.314 5.68 8.576-.635.501-1.916-.075-5.579-.777-8.096-1.554-22.414-3.87-30.86-2.73-4.238.568-8.82 1.527-11.227 5.065-1.223 1.795-1.662 4.56-.713 6.513 2.331 4.803 9.122 8.2 17.331 9.142 0 0-13.81-4.778-13.177-10.156.532-4.528 6.74-5.354 10.892-5.505 10.167-.364 24.317 3.664 36.943 4.345 4.922.265 3.97-5.674 3.034-9.608-2.893-12.172-3.782-20.78.393-36.855.712-2.748.034-6.007-1.524-8.379-2.262-3.443-6.329-5.708-9.902-7.997-41.52-26.623-88.188-40.293-130.733-40.293-42.546 0-89.214 13.67-130.735 40.293z"/><path fill="#f6e4be" d="M509.935 71.674s2.8 2.792 3.316 5.158c1.29 5.908-1.705 12.005-1.842 18.05-.148 6.518 1.106 19.523 1.106 19.523-16.149-15.42-60.66-54.41-137.547-54.41-74.72 0-121.399 38.99-137.548 54.41 0 0 1.252-13.005 1.105-19.523-.136-6.045-3.132-12.142-1.84-18.05.515-2.366 3.313-5.158 3.313-5.158 42.338-27.197 87.57-43.836 134.97-43.836 47.4 0 92.63 16.639 134.967 43.836"/><path d="M292.676 59.588c1.466 4.205 6.205 8.65 13.761 6.019 6.271-2.185 8.934-7.11 6.971-12.743-1.962-5.631-7.544-8.68-13.94-6.453-7.23 2.518-8.309 8.824-6.792 13.177m16.89-6.405c1.918 5.509-.14 10.058-4.27 11.497-2.897 1.009-6.745.585-8.879-5.54-1.782-5.116-.299-10.183 4.537-11.865 1.763-.616 6.134-1.201 8.611 5.908M318.508 53.387c.924 3.85 1.094 4.558 1.236 5.382.156.873.045 1.327-.77 1.71-.195.1-.63.232-.992.319-.285.068-.43.154-.387.334.043.176.237.184.626.088 1.375-.328 2.99-.797 3.768-.983.623-.15 2.275-.466 3.209-.687.39-.094.559-.19.517-.365-.043-.18-.211-.192-.471-.128a4.12 4.12 0 01-.77.102c-.731.042-1.042-.338-1.306-1.212-.246-.798-.417-1.507-1.34-5.357l-.851-3.545c-.881-3.672-.5-5.396.529-6.716.942-1.215 2.11-1.603 2.993-1.815 1.142-.273 2.627-.255 3.908.51 1.76 1.05 2.386 3.31 3.01 5.919l.76 3.166c.924 3.849 1.094 4.558 1.237 5.38.155.875.045 1.33-.77 1.71-.195.1-.63.233-.914.3-.286.07-.43.159-.387.335.042.178.236.184.6.096 1.322-.317 2.938-.785 2.964-.791.31-.076 1.964-.391 2.976-.632.363-.087.532-.181.49-.358-.043-.178-.211-.192-.522-.116-.285.068-.447.08-.771.104-.73.04-1.041-.34-1.306-1.213-.246-.8-.416-1.507-1.34-5.356l-.65-2.71c-.674-2.813-1.677-5.731-4.293-7.032-2.212-1.104-4.147-.934-5.833-.531-1.375.33-3.847 1.004-5.338 3.13-1.044 1.482-1.58 3.593-.7 7.265l.888 3.697zM341.703 42.78c-.132.02-.192-.025-.267-.172l-1.933-3.327c-.356-.607-.576-1.207-.62-1.518-.068-.463.121-.832.94-.95l.396-.056c.317-.045.388-.108.367-.263-.03-.206-.196-.235-.486-.193-.845.122-1.97.36-2.788.478-.29.042-1.753.173-3.126.37-.343.05-.494.122-.465.33.023.155.135.191.347.161.237-.035.611-.063.825-.066 1.238-.02 1.865.785 2.578 1.998l8.92 15.033c.424.703.623.963.886.925.238-.034.363-.289.543-.92.43-1.509 3.174-12.426 4.302-16.587.67-2.465 1.384-2.934 1.92-3.143a5.959 5.959 0 011.094-.26c.211-.03.34-.077.313-.258-.029-.206-.274-.224-1.25-.082-.952.136-2.879.412-4.984.767-.47.092-.788.138-.762.32.022.153.135.19.403.178.192.025.41.23.322.558l-1.35 5.615c-.034.135-.106.2-.238.217l-5.887.845zm5.57.518c.133-.02.171.053.154.135l-1.466 6.683c-.01.107-.018.24-.098.252-.078.011-.15-.11-.19-.212l-3.337-5.968c-.04-.098-.026-.18.08-.195l4.857-.695zM361.08 37.362c-.02-2.032.301-2.72.828-2.923.447-.17.953-.216 1.38-.23.292-.013.451-.07.445-.226-.008-.207-.249-.252-.622-.239-1.733.063-2.796.18-3.303.197-.24.01-1.495-.022-2.88.027-.348.012-.587.046-.578.281.005.156.168.203.434.193.346-.013.827-.004 1.204.087.701.184.834.934.943 3.197l.793 15.321c.02.52.112.881.378.871.293-.01.522-.357.957-.84.308-.353 4.21-4.66 7.964-8.575 1.75-1.836 5.212-5.713 5.65-6.146l.134-.004.154 11.695c.031 1.588-.19 2.091-.82 2.375-.395.17-1.035.194-1.407.207-.32.01-.425.092-.419.25.008.207.302.223.702.207 1.385-.05 2.663-.175 3.22-.195.294-.01 1.311.031 2.616-.014.348-.012.614-.048.606-.257-.006-.155-.169-.229-.488-.216-.267.01-.48.018-.804-.05-.754-.18-.986-.72-1.066-2.177l-.886-16.41c-.02-.573-.134-.804-.375-.795-.293.01-.603.31-.886.606-1.623 1.622-4.91 5.154-7.586 7.934-2.805 2.915-5.648 6.197-6.11 6.71l-.08.001-.099-10.862zM386.545 40.35c-.135-.011-.183-.065-.225-.226l-1.178-3.662c-.218-.67-.306-1.302-.282-1.615.033-.467.297-.787 1.123-.726l.399.028c.317.022.402-.022.413-.18.015-.206-.14-.27-.433-.291-.851-.062-2.002-.067-2.826-.13-.292-.018-1.751-.203-3.133-.304-.345-.026-.51.014-.525.223-.01.155.09.215.305.232.24.016.61.068.82.11 1.213.246 1.653 1.165 2.09 2.502l5.505 16.59c.265.778.404 1.075.67 1.095.24.018.416-.205.726-.784.74-1.382 5.756-11.461 7.745-15.285 1.183-2.264 1.98-2.572 2.548-2.662a5.995 5.995 0 011.125-.022c.214.016.348 0 .362-.182.014-.21-.221-.277-1.207-.35-.956-.07-2.898-.211-5.03-.312-.48-.011-.802-.033-.813.148-.012.156.09.215.355.262.182.065.352.312.195.614l-2.518 5.196c-.063.127-.147.17-.28.163l-5.931-.432zm5.332 1.693c.133.01.153.09.122.166l-2.86 6.215c-.034.102-.072.23-.151.225-.08-.006-.124-.14-.141-.245l-1.985-6.542c-.02-.107.014-.183.12-.175l4.895.356zM407.623 43.514c.52-3.292.799-5.067 1.425-5.443.508-.317 1.222-.39 3.276-.065 1.397.219 2.422.407 2.971 1.205.263.385.466 1.156.441 1.653-.009.233.019.398.231.43.183.03.229-.095.278-.402.045-.284.165-2.243.07-3.024-.068-.59-.18-.74-1.551-.955-1.896-.297-3.275-.461-4.464-.625a65.843 65.843 0 01-3.227-.427c-.29-.045-.87-.138-1.498-.262-.606-.095-1.283-.255-1.81-.338-.343-.054-.54-.005-.569.174-.019.13.073.223.39.273.395.063.703.163.933.252.511.186.553.774.541 1.535-.039 1.102-.358 3.134-.73 5.5l-.713 4.53c-.614 3.91-.727 4.632-.91 5.446-.189.866-.465 1.245-1.363 1.287-.22.02-.539-.004-.882-.06-.29-.042-.455-.017-.484.162-.028.18.148.26.543.324 1.239.195 2.91.379 3.622.49.633.1 2.543.48 3.573.642.368.058.561.036.588-.145.03-.18-.121-.257-.436-.307a7.057 7.057 0 01-1.017-.24c-.691-.238-.833-.71-.744-1.618.077-.832.19-1.553.805-5.464l.711-4.528zM422.308 45.344c-.128-.032-.167-.095-.184-.26l-.56-3.806c-.105-.696-.087-1.334-.013-1.637.11-.456.423-.728 1.227-.534l.389.094c.31.077.402.043.438-.107.049-.203-.095-.291-.38-.361-.83-.201-1.961-.394-2.766-.59-.285-.07-1.693-.49-3.042-.816-.336-.082-.505-.07-.553.134-.036.15.055.227.262.278.233.055.59.168.792.245 1.156.44 1.44 1.42 1.65 2.812l2.706 17.267c.133.808.22 1.127.48 1.189.233.055.444-.133.844-.653.96-1.242 7.562-10.36 10.152-13.806 1.538-2.04 2.375-2.213 2.952-2.207.405.019.8.087 1.112.163.208.049.344.057.387-.121.047-.203-.172-.31-1.132-.542-.933-.226-2.825-.684-4.912-1.137-.473-.087-.784-.162-.827.015-.038.15.055.228.307.316.17.095.296.367.093.639l-3.338 4.71c-.082.114-.173.147-.301.115l-5.783-1.4zm4.983 2.547c.13.03.137.113.093.182l-3.843 5.66c-.048.095-.107.216-.184.197-.077-.02-.1-.158-.102-.264l-.88-6.778c-.003-.107.043-.178.146-.152l4.77 1.155zM436.003 51.978c-1.44 4.213-.446 10.633 7.127 13.221 6.286 2.146 11.418-.091 13.346-5.735 1.927-5.644-.588-11.484-7-13.672-7.244-2.477-11.983 1.823-13.473 6.186m17.25 5.366c-1.886 5.521-6.311 7.835-10.451 6.42-2.903-.99-5.671-3.697-3.576-9.833 1.75-5.126 6.042-8.201 10.889-6.546 1.767.603 5.572 2.837 3.138 9.96"/></g><g clip-path="url(#b)" transform="matrix(1.25 0 0 -1.25 0 625)"><g clip-path="url(#c)" opacity=".941"><path fill="#eace24" d="M205.136 181.576c-.276-31.249-.552-32.354-.552-32.354 13.687-13.412 15.31-18.325 19.356-22.677 5.254 7.606 13.41 4.564 13.41 4.564 1.66 7.19 10.372 13.411 10.372 13.411-12.167.967-33.184 7.191-34.843 9.68-5.51 8.265 2.074 33.32 2.074 33.32l-9.817-5.944z"/></g></g><g clip-path="url(#d)" transform="matrix(1.25 0 0 -1.25 0 625)"><path fill="none" stroke="#806600" d="M205.136 181.576c-.276-31.249-.552-32.354-.552-32.354 13.687-13.412 15.31-18.325 19.356-22.677 5.254 7.606 13.41 4.564 13.41 4.564 1.66 7.19 10.372 13.411 10.372 13.411-12.167.967-33.184 7.191-34.843 9.68-5.51 8.265 2.074 33.32 2.074 33.32l-9.817-5.944z"/></g><g clip-path="url(#e)" transform="matrix(1.25 0 0 -1.25 0 625)"><g clip-path="url(#f)" opacity=".941"><path fill="#eace24" d="M235.15 132.63l-13.493 10.363 16.034-9.58"/></g></g><g clip-path="url(#g)" transform="matrix(1.25 0 0 -1.25 0 625)"><path fill="none" stroke="#806600" d="M235.15 132.63l-13.493 10.363 16.034-9.58"/><path fill="#eace24" d="M215.123 196.395s16.905 6.901 34.23-5.256c1.655-.483 2.865-.342 4.182-.113 3.349 3.591 10.945 14.148 16.811 12.78.432 8.92-.587 44.581-.587 44.581-2.541.1-3.422-4.888-3.422-4.888 1.467-10.167-4.4-71.958-28.45-31.09l-17.012-1.76-5.752-14.254z"/><path fill="none" stroke="#806600" d="M215.123 196.395s16.905 6.901 34.23-5.256c1.655-.483 2.865-.342 4.182-.113 3.349 3.591 10.945 14.148 16.811 12.78.432 8.92-.587 44.581-.587 44.581-2.541.1-3.422-4.888-3.422-4.888 1.467-10.167-4.4-71.958-28.45-31.09l-17.012-1.76-5.752-14.254z"/><path fill="#eace24" d="M205.866 339.326c14.518-5.254 14.7-8.03 29.078-20.75 11.476-4.564 28.568-15.754 29.536-18.243l-.93-3.634c2.212-1.382 4.301 3.715 4.301 3.715-2.212 12.583-42.62 50.482-42.62 50.482l-17.8-3.748-1.565-7.822z"/><path fill="none" stroke="#806600" d="M205.866 339.326c14.518-5.254 14.7-8.03 29.078-20.75 11.476-4.564 28.568-15.754 29.536-18.243l-.93-3.634c2.212-1.382 4.301 3.715 4.301 3.715-2.212 12.583-42.62 50.482-42.62 50.482l-17.8-3.748-1.565-7.822z"/><path fill="none" stroke="#000" d="M219.516 344.957l45.489-41.756.969-3.042M229.47 329.472c4.563-8.02 12.998-10.923 12.998-10.923"/><path fill="#fff" stroke="#000" d="M211.096 355.67c-.195 15.056 17.6 25.028 17.6 26.397-1.762 10.732-27.182-14.86-28.55-18.185-1.572-4.85 1.955-10.754 1.955-10.754M215.985 375.42c-5.28-4.302-9.581-18.381-9.581-18.381"/><path fill="#fff" stroke="#000" d="M202.883 355.866c-2.15 14.47 8.8 26.984 8.018 27.375-6.729 3.364-15.449-14.47-17.99-20.336l3.324-19.944M199.364 367.793c-2.738-7.039.195-16.62.195-16.62"/><path fill="#fff" stroke="#000" d="M197.213 348.24c-3.52 3.52-.196 28.743-1.174 28.743-7.43 0-11.34-24.246-9.776-29.33 5.074-16.49 9.19-19.358 9.19-19.358M190.565 356.844c-.587-7.431 5.279-16.621 5.279-16.621"/><path fill="#fff" stroke="#000" d="M195.453 329.664c-9.385 8.8-11.013 32.41-12.318 34.805-10.042-1.956-4.888-26.984-4.888-26.984.195-1.955 13.296-17.598 13.296-17.598M181.961 348.827c-3.324-6.648 11.732-26.398 11.732-26.398"/><path fill="#fff" d="M207.185 273.741s-2.542 34.022 1.76 39.106l-12.71 18.772-16.425-32.654 14.86-27.18 12.515 1.956z"/><path fill="none" stroke="#000" d="M207.185 273.741s-2.542 34.022 1.76 39.106l-12.71 18.772-16.425-32.654 14.86-27.18 12.515 1.956zM196.43 308.35c-1.563-4.497 2.739-8.995 2.739-8.995M193.107 305.809c-1.565-4.497 5.67-11.927 5.67-11.927M191.737 298.183c-1.563-4.498 6.453-8.213 6.453-8.213M195.258 286.841c.39-3.324 6.257-2.542 6.257-2.542"/><path fill="#fff" stroke="#000" d="M195.22 199.598c5.574-7.136 8.297-23.23 8.297-23.23l1.659 5.256c.782-.49 1.257-4.564 2.35-4.564.489 0 .403 4.2 1.52 4.426.49.096.166-5.808 1.246-5.808.88 0 .95 4.205 1.244 4.01.69-.46.828-5.582 1.383-2.904-.782 27.473 53.072 49.954 51.988 80.749 1.369 31.87-32.908 43.967-53.924 70.79 0 0-5.905 17.59 4.977 9.817 8.8 1.369 8.02 10.093 8.02 10.093h4.839c2.152 18.77-16.73 14.379-16.73 14.379-17.5 0-19.08-18.112-19.08-18.112-4.497-23.562 26.034-51.623 26.034-51.623 4.497-9.777-.04-26.636-.04-26.636l-42.491-40.032"/><path fill="#fff" stroke="#000" d="M177.002 226.525c-2.347-2.836-14.402-17.122-17.335-22.108-4.153-4.578 3.92-3.29 3.92-3.29s-11.938-12.62-17.736-16.31c1.78-5.34 13.23 2.394 13.23 2.394s-11.147-6.844-10.559-8.213c3.401-2.595 13.295 4.692 13.295 4.692s-2.363-3.323-.39-4.497c3.324 0 10.95 6.061 10.95 6.061s-1.565-3.519.195-4.105c3.18 2.004 23.074 18.577 23.074 18.577"/><path fill="none" stroke="#000" d="M164.849 201.582c-1.271-2.053 4.596-2.598 6.16-.195 0-3.325 4.532-3.451 6.159-1.858.684-2.151 3.85-1.602 5.866.391.342-.928 3.21-2.918 4.27-2.536 2.073.747 10.169 12.203 11.928 13.18M156.616 185.625s9.298 9.055 15.38 13.894M159.796 182.307s12.23 11.304 18.315 16.143M171.549 184.519s8.125 8.37 14.208 13.21M163.46 201.366s9.085 10.828 15.169 15.667M170.55 201.078s7.637 8.762 16.36 14.97M177.512 199.77s3.6 6.902 14.571 15.357M183.084 199.868s4.176 7.24 11.726 12.665M182.61 198.898c-6.223-6.36-11.2-10.647-11.2-10.647M173.623 198.345c-6.223-6.36-12.582-11.476-12.582-11.476M167.538 200.143c-6.222-6.36-7.88-6.914-7.88-6.914"/><path fill="none" stroke="#000" d="M173.648 221.91c-1.272-2.053 1.603-7.025 7.73-4.069-1.936-5.122.937-3.728 4.916-1.859-1.114-4.362 3.85-1.6 5.865.392.342-.929.446-3.196 2.335-3.368 2.194-.199 4.498 6.121 6.259 7.097M181.177 217.749l11.111 10.185M175.265 217.214l5.41 8.23M186.17 216.05l6.67 7.32M191.954 216.205l3.514 3.847M199.754 229.316c-8.85-11.062 3.872-2.212 3.872-2.212M188.352 224.046s-5.189-.95.756 6.239M184.684 234.985s-5.946-7.88-1.936-6.637M198.372 235.538l-1.66-2.627M181.227 215.076c-1.383-1.522-4.563-3.872-4.563-3.872M187.172 213.554c-3.042-2.35-5.668-4.84-5.668-4.84M196.85 211.204c-6.221-6.36-4.838-4.7-4.838-4.7M193.532 213.831c-3.042-2.35-4.839-4.148-4.839-4.148"/><path fill="#fff" stroke="#000" d="M183.847 255.441c-4.839-9.402-11.016-24.905-4.287-31.8 2.213-.692 8.116 22.086 12.721 24.196.691 2.35 3.733 12.72 3.733 12.72M191.347 256.534c2.538 0-5.078-5.085-7.822-12.123"/><path fill="#fff" stroke="#000" d="M193.387 254.749c-3.733-17.559-.276-21.292 1.245-21.431 2.212 1.108 6.084 17.147 10.508 18.114M174.445 336.05c-15.485 14.518-17.56 31.109-19.219 31.249-7.308.608 2.49-29.452 2.49-29.452l18.526-14.794M171.989 332.4s-7.43 5.672-11.341 13.298"/><path fill="#fff" stroke="#000" d="M174.445 325.541c-22.952 12.721-25.718 33.46-27.653 32.77-7.067-2.79 1.935-21.847 1.935-21.847 1.245-5.254 19.496-21.707 19.496-21.707M170.034 319.496s-9.776 7.235-17.598 19.163"/><path fill="#fff" stroke="#000" d="M167.394 316.278c-27.515 15.208-28.068 32.63-31.11 31.524-6.534-17.711 17.421-34.427 34.29-47.01M168.86 308.742s-12.514 4.497-20.336 16.425"/><path fill="#fff" stroke="#000" d="M170.021 301.207c-23.92 7.604-35.469 29.897-38.438 28.759-6.913-2.627 7.605-21.293 7.605-21.293 11.751-10.923 31.109-18.942 31.109-18.942M170.62 297.791s-16.62 3.129-25.615 12.32"/><path fill="#fff" stroke="#000" d="M170.159 291.114c-38.3 12.306-39.82 24.334-43.415 23.367-6.82-5.186 15.07-22.4 15.07-22.4 2.765-4.146 30.696-11.752 30.696-11.752M173.162 289.188s-19.358-.391-27.57 6.258"/><path fill="#fff" stroke="#000" d="M171.957 280.467c-36.64 7.744-42.032 18.528-44.937 17.836-4.58-6.225 17.56-19.771 17.56-19.771 13.688-7.881 32.215-8.987 32.215-8.987M176.095 276.087s-12.905-.39-21.118 4.106M170.85 256.41c-10.231-9.402-16.038-26.956-10.784-28.069 2.903-.137 10.784 20.465 22.26 23.366l7.328 6.362M185.481 259.076c2.537 0-13.291-4.89-16.034-11.929"/><path fill="#fff" stroke="#000" d="M165.458 264.981c-14.932-11.199-19.71-24.446-17.56-25.164 3.319-1.106 16.597 12.697 21.432 13.551 2.35.414 16.315 7.88 16.315 7.88M174.531 263.573c2.537 0-10.358-4.497-13.1-11.538"/><path fill="#fff" stroke="#000" d="M176.105 269.82c-16.315-1.934-44.936 15.487-45.49 13.966-7.103-8.321 23.643-22.261 30.418-21.57l24.059-1.52M182.547 265.138s-19.749-.197-28.744 3.91"/><path fill="#fff" stroke="#000" d="M227.325 267.875s0 9.19-4.497 9.582c0 0-10.168.78-21.509-1.174-25.939 15.486-5.619 35.377-9.19 42.236-1.174 10.559-18.576 26.398-18.576 26.398-1.76-1.566.354-11.422-.978-10.755-3.519 1.759-1.349-5.988-2.346-8.017-3.324 1.173-3.154-3.858-2.346-7.626-2.738-.392-1.76-5.084-1.174-8.41-5.368 2.954 1.625-8.37-.196-8.015-8.212 1.174 1.174-7.822 1.174-7.822-4.693-1.76-2.5-5.25.783-6.648-4.107-2.933.097-7.615 1.563-7.822-3.715-1.954.42-4.781 2.542-6.843-3.324-3.13 2.738-4.465 5.672-5.67-2.347-3.715.412-4.518 2.932-5.67-1.564-2.934 2.285-2.716 4.692-2.349-2.932-3.128 1.956-4.497 3.911-4.104 0 0 1.043-4.059 4.498-2.543-.977-3.13 6.062-2.738 6.062-2.738 0-3.13 10.363-1.956 10.363-1.956"/><path fill="none" stroke="#000" d="M186.889 323.33s.499-3.788 2.35-8.988c-2.903-2.903-3.455-7.327-3.455-7.327M176.87 320.983s2.15-5.67 4.693-5.67M172.967 334.357s2.737-9.582 5.279-9.582M170.62 326.926s.783-6.257 3.324-6.257M167.883 318.91s2.15-5.67 4.692-5.67M166.514 310.697s2.347-5.084 4.889-5.084M166.71 302.484s3.91-6.257 6.451-6.257M167.492 294.076s4.106-3.52 6.648-3.52M168.47 287.429s4.105-3.52 6.647-3.52M169.447 280.194s6.061-2.933 8.603-2.933M172.184 273.35s6.844-.587 9.386-.587M177.764 267.736s5.738.243 8.28.243M181.083 262.205s4.909 1.35 8.003.243M185.645 259.025s4.907 1.351 8.003.243M189.24 255.293s4.77.656 8.14 2.041M194.08 252.804s2.003-.586 5.375.795M199.887 250.315s1.728.104 5.1 1.485M176.87 320.983s2.15-5.67 4.693-5.67M175.625 313.932s2.151-5.67 4.693-5.67M173.275 307.987s2.704-3.735 5.246-3.735M174.242 300.52s2.705-3.735 5.247-3.735M176.178 292.64s2.981-.693 5.522-.693M177.976 287.108s.63-.14 3.172-.14M181.018 326.099s-.338-3.182 2.205-3.182M183.981 275.39s3.178.37 2.618 2.849M179.28 279.813s5.528 1.615 4.97 4.094M190.894 269.03s.966 6.452.407 8.932M198.499 263.913s-.97 8.528-2.911 9.625M206.933 261.84c-2.073 7.189-4.841 10.463-6.782 11.146M215.09 262.254c-2.073 7.19-7.606 9.91-9.548 10.593M224.769 261.978c-2.074 7.19-7.605 9.91-9.547 10.591M217.998 252.4c-7.466-2.766-10.922-9.54-10.922-9.54M224.208 348.147c-4.009 7.604-8.158 6.774-8.158 6.774-2.073 0-2.765-1.382-5.115-1.382-2.904 0-2.212 3.042-2.212 3.042"/><path d="M217.71 354.783c-.83-3.595-3.47-4.293-3.47-4.293s.572-3.43 2.778-3.588c4.052-.726 5.375 2.92 3.456 6.084-.69.83-2.765 1.797-2.765 1.797"/><path fill="#fff" d="M220.223 350.633c.13-.443-.54-1.064-1.5-1.385-.96-.323-1.845-.223-1.976.221l-.001.002c-.131.444.54 1.064 1.5 1.386.96.321 1.845.222 1.977-.222v-.002"/><path fill="none" stroke="#000" d="M207.958 343.55c-1.956 0-2.542-1.173-2.542-1.173M201.505 332.013c-.83-2.35 1.784-5.58 1.369-4.889M201.634 350.967c-1.937 0-2.075-3.733-2.075-3.733M212.142 318.613l2.765-3.595M213.524 308.104l2.903-3.318M225.691 296.906l3.457-3.734"/><path d="M243.477 283.723s1.643-4.54 2.815-4.93c0 0 1.333-.448 2.213.138.801.534 0 1.66 0 1.66-1.075 1.564-5.028 3.132-5.028 3.132M236.48 281.446s-.27-4.82.656-5.64c0 0 1.05-.935 2.089-.74.947.177.652 1.526.652 1.526-.377 1.86-3.397 4.854-3.397 4.854M241.271 264.434s-.27-4.819.656-5.64c0 0 1.05-.934 2.089-.74.945.177.651 1.526.651 1.526-.376 1.861-3.396 4.854-3.396 4.854M251.269 267.682s2.767-2.452 2.933-3.617c.098-.684-1.467-4.302-1.467-4.302-.684 0-.097 4.693-.097 4.693s-2.151 2.737-1.369 3.226"/><path fill="none" stroke="#000" d="M251.269 267.682s2.767-2.452 2.933-3.617c.098-.684-1.467-4.302-1.467-4.302-.684 0-.097 4.693-.097 4.693s-2.151 2.737-1.369 3.226z"/><path d="M226.962 245.47c-.88 0-1.656-2.655-1.077-3.75 0 0 .653-1.244 1.694-1.428.948-.167 1.147 1.2 1.147 1.2.302 1.874-.001 3.979-1.764 3.979M235.565 235.791s-1.948-4.415-1.371-5.509c0 0 .654-1.246 1.695-1.429.948-.167 1.146 1.2 1.146 1.2.304 1.874-1.47 5.738-1.47 5.738M229.888 224.385c-2.896-.955-3.504-4.39-3.29-5.604 0 0 .24-1.386 1.174-1.881.85-.452 1.46.789 1.46.789.864 1.69 2.709 5.13.656 6.696M221.25 211.476s.668-3.636.081-4.655c-.345-.6-2.046-1.606-2.046-1.606-.539.423 1.055 2.877 1.055 2.877s-.007 3.48.91 3.384"/><path fill="none" stroke="#000" d="M221.25 211.476s.668-3.636.081-4.655c-.345-.6-2.046-1.606-2.046-1.606-.539.423 1.055 2.877 1.055 2.877s-.007 3.48.91 3.384z"/><path d="M208.345 208.935s1.157-4.712.57-5.732c-.344-.6-1.46-.137-1.46-.137-.538.42-.02 2.485-.02 2.485s-.007 3.48.91 3.384"/><path fill="none" stroke="#000" d="M208.345 208.935s1.157-4.712.57-5.732c-.344-.6-1.46-.137-1.46-.137-.538.42-.02 2.485-.02 2.485s-.007 3.48.91 3.384z"/><path d="M219.295 226.24s.473-3.148-.114-4.169c-.345-.598-1.46-.137-1.46-.137-.54.422-.02 2.485-.02 2.485s.677 1.917 1.594 1.82"/><path fill="none" stroke="#000" d="M219.295 226.24s.473-3.148-.114-4.169c-.345-.598-1.46-.137-1.46-.137-.54.422-.02 2.485-.02 2.485s.677 1.917 1.594 1.82z"/><path d="M214.247 241.44c-1.953-1.317-1.959-2.467-1.972-3.703 0 0-.018-1.405.81-2.064.754-.598 3.34.51 3.34.51 1.158 1.503-2.08 1.542-2.178 5.257M235.169 260.309c-1.953-1.317-1.958-1.097-1.971-3.701 0 0 .666-2.091 1.495-2.75.752-.597 1.579 1.292 1.579 1.292 1.159 1.502.559 4.67-1.103 5.159M249.546 249.87c-.88 0-1.656-2.657-1.078-3.75 0 0 .654-1.245 1.695-1.429.948-.168 1.147 1.2 1.147 1.2.302 1.874 0 3.978-1.764 3.978M243.484 242.342c-1.257-4.064-2.73-5.297-2.153-6.39 0 0 1.435-.364 2.477-.547.948-.17 1.146 1.198 1.146 1.198.304 1.874-1.177 1.34-1.47 5.739M209.264 195.002c-.88 0-1.656-2.655-1.078-3.749 0 0 .653-1.244 1.695-1.428.948-.167 1.146 1.199 1.146 1.199.304 1.874 0 3.978-1.763 3.978"/></g><g clip-path="url(#h)" transform="matrix(1.25 0 0 -1.25 0 625)"><g clip-path="url(#i)" opacity=".941"><path fill="#eace24" d="M535.705 187.201s7.586-25.056 2.074-33.32c-1.659-2.492-22.676-8.713-34.843-9.68 0 0 8.71-6.223 10.372-13.413 0 0 8.156 3.043 13.41-4.563 4.044 4.353 5.67 9.266 19.356 22.676 0 0-.275 1.108-.552 32.354l-9.817 5.946z"/></g></g><g clip-path="url(#j)" transform="matrix(1.25 0 0 -1.25 0 625)"><path fill="none" stroke="#806600" d="M535.705 187.201s7.586-25.056 2.074-33.32c-1.659-2.492-22.676-8.713-34.843-9.68 0 0 8.71-6.223 10.372-13.413 0 0 8.156 3.043 13.41-4.563 4.044 4.353 5.67 9.266 19.356 22.676 0 0-.275 1.108-.552 32.354l-9.817 5.946z"/></g><g clip-path="url(#k)" transform="matrix(1.25 0 0 -1.25 0 625)"><g clip-path="url(#l)" opacity=".941"><path fill="#eace24" d="M512.967 133.094l16.033 9.58-13.492-10.362"/></g></g><g clip-path="url(#m)" transform="matrix(1.25 0 0 -1.25 0 625)"><path fill="none" stroke="#806600" d="M512.967 133.094l16.033 9.58-13.492-10.362"/><path fill="#eace24" d="M529.783 210.33l-17.012 1.76c-24.05-40.868-29.917 20.923-28.45 31.091 0 0-.88 4.986-3.422 4.887 0 0-1.018-35.662-.588-44.582 5.868 1.37 13.463-9.188 16.813-12.778 1.315-.23 2.527-.372 4.18.112 17.325 12.157 34.23 5.255 34.23 5.255l-5.75 14.255z"/><path fill="none" stroke="#806600" d="M529.783 210.33l-17.012 1.76c-24.05-40.868-29.917 20.923-28.45 31.091 0 0-.88 4.986-3.422 4.887 0 0-1.018-35.662-.588-44.582 5.868 1.37 13.463-9.188 16.813-12.778 1.315-.23 2.527-.372 4.18.112 17.325 12.157 34.23 5.255 34.23 5.255l-5.75 14.255z"/><path fill="#eace24" d="M543.227 346.828l-17.799 3.75s-40.409-37.9-42.622-50.483c0 0 2.09-5.099 4.302-3.715l-.93 3.634c.968 2.49 18.06 13.68 29.535 18.242 14.38 12.72 14.561 15.497 29.077 20.751l-1.563 7.821z"/><path fill="none" stroke="#806600" d="M543.227 346.828l-17.799 3.75s-40.409-37.9-42.622-50.483c0 0 2.09-5.099 4.302-3.715l-.93 3.634c.968 2.49 18.06 13.68 29.535 18.242 14.38 12.72 14.561 15.497 29.077 20.751l-1.563 7.821z"/><path fill="none" stroke="#000" d="M484.685 299.84l.969 3.041 45.489 41.756M508.19 318.228s8.437 2.904 12.997 10.923"/><path fill="#fff" stroke="#000" d="M548.558 352.809s3.526 5.904 1.954 10.755c-1.368 3.324-26.79 28.916-28.548 18.184 0-1.368 17.794-11.341 17.599-26.397M544.254 356.72s-4.301 14.079-9.58 18.38"/><path fill="#fff" stroke="#000" d="M554.424 342.64l3.322 19.946c-2.54 5.866-11.26 23.7-17.988 20.336-.782-.391 10.168-12.906 8.017-27.376M551.1 350.853s2.932 9.581.195 16.62"/><path fill="#fff" stroke="#000" d="M555.206 327.975s4.114 2.868 9.188 19.358c1.566 5.084-2.346 29.331-9.776 29.331-.977 0 2.347-25.225-1.173-28.743M554.814 339.903s5.865 9.19 5.28 16.621"/><path fill="#fff" stroke="#000" d="M559.116 319.567s13.102 15.644 13.295 17.599c0 0 5.153 25.028-4.888 26.984-1.305-2.396-2.933-26.007-12.317-34.806M556.965 322.11s15.056 19.749 11.732 26.397"/><path fill="#fff" d="M555.987 271.466l14.86 27.18-16.423 32.654-12.71-18.771c4.3-5.084 1.758-39.108 1.758-39.108l12.515-1.955z"/><path fill="none" stroke="#000" d="M555.987 271.466l14.86 27.18-16.423 32.654-12.71-18.771c4.3-5.084 1.758-39.108 1.758-39.108l12.515-1.955zM551.49 299.036s4.302 4.498 2.736 8.995M551.882 293.562s7.234 7.43 5.669 11.928M552.468 289.65s8.017 3.716 6.453 8.214M549.144 283.98s5.866-.782 6.258 2.542"/><path fill="#fff" stroke="#000" d="M574.146 225.89l-42.49 40.032s-4.539 16.858-.04 26.635c0 0 30.53 28.062 26.033 51.624 0 0-1.58 18.112-19.08 18.112 0 0-18.88 4.39-16.73-14.38h4.84s-.78-8.724 8.017-10.093c10.885 7.774 4.98-9.817 4.98-9.817-21.017-26.822-55.295-38.92-53.925-70.792-1.083-30.793 52.771-53.272 51.988-80.746.555-2.68.693 2.444 1.383 2.904.292.195.364-4.01 1.244-4.01 1.08 0 .757 5.904 1.244 5.807 1.118-.224 1.032-4.425 1.522-4.425 1.093 0 1.569 4.075 2.35 4.564l1.66-5.255s2.723 16.093 8.295 23.229"/><path fill="#fff" stroke="#000" d="M555.012 199.407s19.896-16.573 23.073-18.577c1.76.586.197 4.105.197 4.105s7.625-6.06 10.95-6.06c1.97 1.172-.392 4.496-.392 4.496s9.895-7.286 13.297-4.693c.586 1.37-10.558 8.213-10.558 8.213s11.449-7.735 13.228-2.394c-5.8 3.691-17.736 16.31-17.736 16.31s8.073-1.287 3.92 3.292c-2.933 4.985-14.988 19.27-17.335 22.107"/><path fill="none" stroke="#000" d="M551.427 210.245c1.76-.978 9.854-12.435 11.927-13.18 1.06-.383 3.929 1.608 4.27 2.535 2.017-1.993 5.18-2.542 5.866-.39 1.628-1.594 6.16-1.467 6.16 1.857 1.564-2.402 7.43-1.857 6.16.196M578.66 199.2c6.084-4.839 15.382-13.895 15.382-13.895M572.547 198.13c6.085-4.84 18.316-16.143 18.316-16.143M564.9 197.41c6.085-4.84 14.21-13.21 14.21-13.21M572.03 216.714c6.082-4.84 15.168-15.667 15.168-15.667M563.747 215.727c8.726-6.206 16.36-14.969 16.36-14.969M558.576 214.809c10.972-8.455 14.57-15.358 14.57-15.358M555.848 212.214c7.549-5.426 11.725-12.665 11.725-12.665M579.248 187.932s-4.978 4.287-11.199 10.647M589.618 186.55s-6.36 5.115-12.582 11.476M591.002 192.91s-1.659.553-7.883 6.913"/><path fill="none" stroke="#000" d="M549.906 219.784c1.76-.977 4.064-7.296 6.26-7.097 1.886.171 1.99 2.44 2.332 3.368 2.015-1.994 6.98-4.755 5.867-.39 3.978-1.87 6.851-3.266 4.916 1.856 6.126-2.956 9.001 2.017 7.73 4.071M558.37 227.614l11.111-10.186M569.983 225.126l5.41-8.233M557.816 223.052l6.671-7.321M555.19 219.732l3.514-3.847M547.032 226.785s12.721-8.85 3.872 2.213M561.55 229.966c5.945-7.191.756-6.24.756-6.24M567.91 228.03c4.01-1.245-1.936 6.636-1.936 6.636M553.946 232.592l-1.66 2.627M573.994 210.885s-3.18 2.35-4.563 3.87M569.154 208.394s-2.627 2.49-5.668 4.84M558.648 206.184s1.382-1.66-4.84 4.7M561.965 209.363s-1.797 1.798-4.84 4.148"/><path fill="#fff" stroke="#000" d="M554.644 260.237s3.042-10.37 3.734-12.72c4.604-2.109 10.506-24.887 12.719-24.195 6.73 6.894.554 22.397-4.285 31.8M567.133 244.09c-2.742 7.04-10.36 12.123-7.822 12.123"/><path fill="#fff" stroke="#000" d="M545.518 251.112c4.426-.967 8.298-17.006 10.509-18.113 1.52.138 4.977 3.872 1.244 21.43M574.415 322.734l18.527 14.793s9.798 30.06 2.49 29.45c-1.66-.138-3.734-16.728-19.219-31.246M590.01 345.378c-3.91-7.626-11.341-13.296-11.341-13.296"/><path fill="#fff" stroke="#000" d="M582.435 314.438s18.252 16.454 19.496 21.708c0 0 9.003 19.054 1.935 21.845-1.935.69-4.702-20.049-27.653-32.769M598.223 338.338c-7.821-11.928-17.598-19.163-17.598-19.163"/><path fill="#fff" stroke="#000" d="M580.085 300.472c16.868 12.582 40.822 29.3 34.289 47.011-3.043 1.106-3.595-16.316-31.108-31.525M602.134 324.847c-7.823-11.928-20.336-16.425-20.336-16.425"/><path fill="#fff" stroke="#000" d="M580.36 289.412s19.357 8.02 31.11 18.94c0 0 14.517 18.668 7.605 21.295-2.97 1.138-14.519-21.154-38.439-28.76M605.653 309.79c-8.994-9.19-25.616-12.318-25.616-12.318"/><path fill="#fff" stroke="#000" d="M578.15 280.01s27.928 7.604 30.692 11.752c0 0 21.893 17.213 15.073 22.4-3.596.967-5.117-11.062-43.416-23.367M605.066 295.126c-8.213-6.648-27.57-6.258-27.57-6.258"/><path fill="#fff" stroke="#000" d="M573.863 269.225s18.527 1.106 32.215 8.987c0 0 22.14 13.547 17.56 19.772-2.904.692-8.296-10.093-44.937-17.836M595.68 279.874c-8.211-4.498-21.117-4.107-21.117-4.107M561.004 257.75l7.328-6.362c11.475-2.902 19.358-23.505 22.26-23.367 5.254 1.114-.553 18.667-10.785 28.07M581.21 246.828c-2.741 7.04-18.57 11.928-16.033 11.928"/><path fill="#fff" stroke="#000" d="M565.013 260.93s13.965-7.467 16.316-7.883c4.835-.851 18.113-14.655 21.43-13.55 2.152.718-2.626 13.966-17.558 25.165M589.227 251.716c-2.742 7.04-15.638 11.538-13.102 11.538"/><path fill="#fff" stroke="#000" d="M565.566 260.376l24.058 1.521c6.775-.692 37.522 13.247 30.418 21.569-.552 1.522-29.172-15.901-45.489-13.965M596.854 268.728c-8.994-4.106-28.742-3.911-28.742-3.911"/><path fill="#fff" stroke="#000" d="M539.953 247.61s10.363-1.175 10.363 1.956c0 0 7.04-.393 6.062 2.736 3.454-1.514 4.497 2.542 4.497 2.542 1.955-.39 6.844.98 3.911 4.107 2.41-.367 6.257-.587 4.693 2.347 2.52 1.153 5.28 1.956 2.932 5.67 2.934 1.206 8.995 2.541 5.671 5.671 2.123 2.062 6.258 4.888 2.543 6.843 1.465.207 5.671 4.888 1.563 7.822 3.285 1.398 5.476 4.888.784 6.648 0 0 9.384 8.994 1.172 7.821-1.822-.355 5.173 10.97-.195 8.017.586 3.324 1.565 8.017-1.173 8.408.807 3.767.978 8.8-2.346 7.627-.998 2.028 1.171 9.776-2.348 8.016-1.332-.666.782 9.19-.977 10.754 0 0-17.404-15.838-18.576-26.397-3.57-6.859 16.75-26.749-9.19-42.236-11.34 1.956-21.51 1.174-21.51 1.174-4.497-.39-4.497-9.58-4.497-9.58"/><path fill="none" stroke="#000" d="M564.875 306.695s-.554 4.424-3.457 7.328c1.852 5.199 2.352 8.987 2.352 8.987M569.096 314.994c2.54 0 4.692 5.67 4.692 5.67M572.411 324.456c2.543 0 5.28 9.582 5.28 9.582M576.714 320.35c2.54 0 3.324 6.257 3.324 6.257M578.082 312.92c2.543 0 4.692 5.67 4.692 5.67M579.255 305.294c2.543 0 4.89 5.083 4.89 5.083M577.496 295.908c2.541 0 6.453 6.256 6.453 6.256M576.519 290.237c2.54 0 6.647 3.52 6.647 3.52M575.54 283.589c2.542 0 6.648 3.52 6.648 3.52M572.608 276.94c2.541 0 8.603 2.934 8.603 2.934M569.089 272.444c2.54 0 9.385.586 9.385.586M564.614 267.66c2.541 0 8.28-.243 8.28-.243M561.573 262.129c3.095 1.107 8.002-.243 8.002-.243M557.01 258.95c3.096 1.104 8.003-.244 8.003-.244M553.276 257.013c3.372-1.382 8.142-2.04 8.142-2.04M551.202 253.28c3.372-1.384 5.376-.796 5.376-.796M545.672 251.482c3.372-1.384 5.1-1.486 5.1-1.486M569.096 314.994c2.54 0 4.692 5.67 4.692 5.67M570.34 307.942c2.54 0 4.693 5.67 4.693 5.67M572.137 303.932c2.542 0 5.246 3.735 5.246 3.735M571.17 296.466c2.54 0 5.246 3.735 5.246 3.735M568.957 291.627c2.541 0 5.522.693 5.522.693M569.51 286.649c2.542 0 3.173.14 3.173.14M567.437 322.598c2.54 0 2.204 3.182 2.204 3.182M564.058 277.92c-.56-2.48 2.62-2.85 2.62-2.85M566.407 283.588c-.558-2.48 4.97-4.094 4.97-4.094M559.356 277.644c-.56-2.48.407-8.934.407-8.934M555.07 273.219c-1.94-1.097-2.91-9.625-2.91-9.625M550.508 272.665c-1.941-.682-4.71-3.955-6.783-11.145M545.115 272.526c-1.942-.682-7.474-3.403-9.547-10.592M535.437 272.25c-1.942-.682-7.474-3.402-9.547-10.59M543.583 242.54s-3.457 6.775-10.923 9.54M541.936 356.261s.69-3.042-2.213-3.042c-2.35 0-3.042 1.383-5.115 1.383 0 0-4.15.83-8.157-6.776"/><path d="M530.184 352.666c-1.92-3.165-.596-6.81 3.457-6.083 2.206.157 2.777 3.588 2.777 3.588s-2.638.698-3.47 4.293c0 0-2.074-.968-2.764-1.798"/><path fill="#fff" d="M530.436 350.316c.13.443 1.018.543 1.977.221.96-.32 1.63-.942 1.5-1.386v-.002c-.133-.444-1.017-.543-1.976-.222-.961.322-1.632.943-1.503 1.387l.002.002"/><path fill="none" stroke="#000" d="M545.242 342.057s-.587 1.174-2.543 1.174M547.784 326.805c-.415-.69 2.2 2.538 1.37 4.89M551.098 346.914s-.137 3.734-2.073 3.734M535.752 314.699l2.764 3.595M534.231 304.466l2.901 3.32M521.51 292.853l3.456 3.733"/><path d="M502.153 280.27s-.802-1.124 0-1.66c.88-.585 2.211-.137 2.211-.137 1.174.391 2.817 4.93 2.817 4.93s-3.954-1.569-5.028-3.133M510.783 276.272s-.297-1.349.65-1.525c1.04-.195 2.09.74 2.09.74.924.82.656 5.639.656 5.639s-3.022-2.993-3.396-4.854M505.992 259.26s-.296-1.35.65-1.526c1.04-.193 2.09.74 2.09.74.924.822.656 5.64.656 5.64s-3.022-2.992-3.396-4.853M498.02 264.136s.587-4.692-.098-4.692c0 0-1.563 3.618-1.464 4.3.165 1.168 2.93 3.619 2.93 3.619.784-.49-1.367-3.227-1.367-3.227"/><path fill="none" stroke="#000" d="M498.02 264.136s.587-4.692-.098-4.692c0 0-1.563 3.618-1.464 4.3.165 1.168 2.93 3.619 2.93 3.619.784-.49-1.367-3.227-1.367-3.227z"/><path d="M521.933 241.172s.198-1.368 1.147-1.2c1.04.184 1.694 1.429 1.694 1.429.579 1.093-.197 3.75-1.077 3.75-1.763 0-2.07-2.106-1.764-3.98M513.622 229.733s.198-1.367 1.147-1.2c1.041.183 1.694 1.428 1.694 1.428.58 1.093-1.37 5.51-1.37 5.51s-1.776-3.864-1.47-5.738M521.427 217.37s.608-1.24 1.459-.79c.936.495 1.175 1.881 1.175 1.881.215 1.216-.393 4.65-3.29 5.604-2.053-1.565-.208-5.005.656-6.696M530.317 207.773s1.595-2.456 1.055-2.877c0 0-1.7 1.006-2.045 1.605-.588 1.02.08 4.655.08 4.655.918.096.91-3.384.91-3.384"/><path fill="none" stroke="#000" d="M530.317 207.773s1.595-2.456 1.055-2.877c0 0-1.7 1.006-2.045 1.605-.588 1.02.08 4.655.08 4.655.918.096.91-3.384.91-3.384z"/><path d="M543.224 205.23s.518-2.062-.021-2.483c0 0-1.115-.464-1.46.135-.585 1.021.57 5.733.57 5.733.918.097.91-3.385.91-3.385"/><path fill="none" stroke="#000" d="M543.224 205.23s.518-2.062-.021-2.483c0 0-1.115-.464-1.46.135-.585 1.021.57 5.733.57 5.733.918.097.91-3.385.91-3.385z"/><path d="M532.957 224.1s.52-2.063-.02-2.484c0 0-1.114-.463-1.46.136-.586 1.022-.115 4.168-.115 4.168.917.097 1.595-1.82 1.595-1.82"/><path fill="none" stroke="#000" d="M532.957 224.1s.52-2.063-.02-2.484c0 0-1.114-.463-1.46.136-.586 1.022-.115 4.168-.115 4.168.917.097 1.595-1.82 1.595-1.82z"/><path d="M534.234 235.863s2.584-1.108 3.34-.51c.827.658.81 2.064.81 2.064-.013 1.236-.022 2.384-1.973 3.703-.099-3.715-3.336-3.754-2.177-5.257M514.388 254.83s.825-1.889 1.578-1.292c.828.658 1.494 2.748 1.494 2.748-.012 2.606-.018 2.384-1.971 3.703-1.663-.488-2.26-3.657-1.101-5.159M499.349 245.57s.198-1.366 1.147-1.197c1.04.182 1.694 1.427 1.694 1.427.578 1.094-.197 3.75-1.078 3.75-1.762 0-2.068-2.104-1.763-3.98M505.703 236.283s.2-1.367 1.146-1.198c1.042.183 2.478.548 2.478.548.577 1.093-.897 2.324-2.153 6.388-.294-4.398-1.775-3.864-1.47-5.738M539.63 190.705s.199-1.366 1.148-1.199c1.04.183 1.694 1.428 1.694 1.428.579 1.093-.197 3.75-1.077 3.75-1.764 0-2.07-2.106-1.764-3.979"/></g><g clip-path="url(#n)" transform="matrix(1.25 0 0 -1.25 0 625)"><g clip-path="url(#o)" opacity=".6"><path d="M480.792 392.326H269.211v-14.981h211.581v14.981z"/></g></g><g clip-path="url(#p)" transform="matrix(1.25 0 0 -1.25 0 625)"><path fill="none" stroke="#520" d="M480.792 392.326H269.211v-14.981h211.581v14.981z"/><path fill="#eace24" d="M269.21 377.345L245.263 433.7l-4.025-1.223-8.792 20.14 16.15 4.771 3.657-9.454 7.797 2.311-3.337 9.268 16.448 3.794 2.924-9.656 8.097 1.56-2.802 9.75 16.496 2.875 2.258-9.823 10.913 1.546.948-4.965 4.05.513-.832 4.94 8.36 1.088.853-5.025 4.088.412-.615 5.065 8.306.758.698-5.06 8.079.62-1.473 14.984 16.736.855.547-9.859 7.98.122-.143 9.953h16.805l-.258-10.075 8.124-.166.59 10.026 16.698-.734-1.525-15.198 8.076-.559.7 5.01 8.28-.76-.656-5.018 4.175-.409.755 4.893 8.332-.892-.8-5 4.126-.573.998 4.996 10.79-1.596 2.287 9.903 16.474-2.875-2.555-9.932 7.776-1.526 3.013 9.777 16.419-3.719-3.417-9.647 7.823-2.137 3.78 9.653 16.21-4.623-8.791-20.14-6.94 2.285-24.385-57.578c-67.353 19.377-147.285 19.458-212.321 0"/><path fill="none" stroke="#806600" stroke-width="2" d="M269.21 377.345L245.263 433.7l-4.025-1.223-8.792 20.14 16.15 4.771 3.657-9.454 7.797 2.311-3.337 9.268 16.448 3.794 2.924-9.656 8.097 1.56-2.802 9.75 16.496 2.875 2.258-9.823 10.913 1.546.948-4.965 4.05.513-.832 4.94 8.36 1.088.853-5.025 4.088.412-.615 5.065 8.306.758.698-5.06 8.079.62-1.473 14.984 16.736.855.547-9.859 7.98.122-.143 9.953h16.805l-.258-10.075 8.124-.166.59 10.026 16.698-.734-1.525-15.198 8.076-.559.7 5.01 8.28-.76-.656-5.018 4.175-.409.755 4.893 8.332-.892-.8-5 4.126-.573.998 4.996 10.79-1.596 2.287 9.903 16.474-2.875-2.555-9.932 7.776-1.526 3.013 9.777 16.419-3.719-3.417-9.647 7.823-2.137 3.78 9.653 16.21-4.623-8.791-20.14-6.94 2.285-24.385-57.578c-67.353 19.377-147.285 19.458-212.321 0z"/><path fill="none" stroke="#806600" stroke-linecap="round" stroke-linejoin="round" d="M266.454 384.022c70.508 20.669 147.303 20.977 218.047.872M263.896 389.683c72.089 21.165 150.62 21.492 222.962.932M261.617 395.427c73.673 21.602 153.921 21.9 227.821.845"/></g><g clip-path="url(#q)" transform="matrix(1.25 0 0 -1.25 0 625)"><g clip-path="url(#r)" opacity=".98"><path fill="none" stroke="#806600" stroke-linecap="round" stroke-linejoin="round" d="M259.288 400.683c75.026 22.02 156.752 22.361 232.04.97"/></g></g><g clip-path="url(#s)" transform="matrix(1.25 0 0 -1.25 0 625)"><path fill="none" stroke="#806600" d="M445.205 418.543l6.43 29.845M256.854 406.854c76.739 22.491 160.323 22.793 237.292.86M448.007 448.872c22.127-3.341 43.713-9.835 64.85-16.234M405.445 445.724a465.972 465.972 0 0044.554-4.93M343.966 453.047a483.099 483.099 0 0066.479-.004M241.237 432.477c20.63 6.24 41.677 12.84 63.257 16.169M303.398 440.78c14.543 2.333 29.679 3.973 44.446 4.91M301.513 448.256l6.854-29.778M349.913 423.877l-2.787 29.38M405.85 453.318l-1.613-30.227"/></g><g clip-path="url(#t)" transform="matrix(1.25 0 0 -1.25 0 625)"><g clip-path="url(#u)" opacity=".6"><path d="M370.029 423.962v17.861c0 7.144 12.853 7.144 12.853 0v-17.86"/></g></g><g clip-path="url(#v)" transform="matrix(1.25 0 0 -1.25 0 625)"><path fill="none" stroke="#520" d="M370.029 423.962v17.861c0 7.144 12.853 7.144 12.853 0v-17.86"/></g><g clip-path="url(#w)" transform="matrix(1.25 0 0 -1.25 0 625)"><g clip-path="url(#x)" opacity=".6"><path d="M276.2 411.826l-5.544 17.252c-2.217 6.9 10.197 9.674 12.415 2.773l5.543-17.252"/></g></g><g clip-path="url(#y)" transform="matrix(1.25 0 0 -1.25 0 625)"><path fill="none" stroke="#520" d="M276.2 411.826l-5.544 17.252c-2.217 6.9 10.197 9.674 12.415 2.773l5.543-17.252"/></g><g clip-path="url(#z)" transform="matrix(1.25 0 0 -1.25 0 625)"><g clip-path="url(#A)" opacity=".6"><path d="M463.251 415.257l5.543 17.25c2.22 6.902 14.632 4.129 12.415-2.771l-5.545-17.252"/></g></g><g clip-path="url(#B)" transform="matrix(1.25 0 0 -1.25 0 625)"><path fill="none" stroke="#520" d="M463.251 415.257l5.543 17.25c2.22 6.902 14.632 4.129 12.415-2.771l-5.545-17.252"/><path fill="none" stroke="#806600" d="M439.965 401.007l-1.287-6.058M476.885 393.13l-2.084-5.662M461.303 396.92l-1.763-5.75M292.025 396.7l1.718-5.56M390.676 405.58l-.285-6.194M403.015 404.848l-.551-6.004M424.535 402.954l-.989-5.86M280.884 394.11l2.004-5.677M346.457 404.656l.632-6.072M361.638 405.325l.318-5.884M328.509 403.004l1.036-6.013M411.978 404.296l-.732-6.207M371.86 405.58l.109-5.977M306.646 399.677l1.44-5.93M286.347 401.827l1.88-5.812M300.722 404.79l1.55-5.75M309.682 406.367l1.36-5.942M322.732 408.336l1.11-5.865M340.708 410.11l.755-6.014M354.831 411.18l.471-6.158M367.414 411.609l.197-5.98M385.133 411.976l-.168-5.977M398.228 411.308l-.42-6.066M409.27 410.691l-.642-5.986M428.016 408.55l-1.027-5.784M439.059 407.204l-1.221-5.974M451.897 405.043l-1.577-5.733M466.533 402.072l-1.758-5.724M482.968 397.998l-2.176-5.671M272.659 398.426l2.187-5.796M463.078 408.58l-1.568-5.228M481.837 404.327l-2.03-5.472M474.734 405.998l-1.813-5.276M446.506 411.554l-1.301-5.432M436.854 413.375l-1.17-5.709M423.924 414.894l-.873-5.46M412.815 415.894l-.683-5.61M395.695 417.323l-.354-5.6M381.853 417.565l-.094-5.748M369.104 417.413l.147-5.52M357.45 416.957l.366-5.526M335.778 415.287l.785-5.6M318.841 413.375l1.074-5.392M307.003 411.633l1.324-5.492M293.103 409.067l1.542-5.277M272.4 404.63l2.079-5.62M302.16 458.299l2.1-9.743M343.474 457.788l.608-4.883M410.997 457.679l-.553-4.757M450.03 458.468l-2.023-9.596"/><path fill="#1353b4" d="M269.21 376.823c-.562-36.074-.53-72.153 0-108.227.51-34.755 2.214-61.877 17.517-83.085 18.434-25.545 49.142-43.98 88.645-62.093 39.5 18.113 70.21 36.548 88.645 62.093 15.3 21.208 17.006 48.33 17.515 83.085.53 36.074.563 72.153 0 108.227H269.21z"/><path fill="#1353b4" d="M481.835 300.91c.069 9.019.104 13.302.107 22.322.005 18.038-.128 36.076-.41 54.114H269.211a3437.35 3437.35 0 0 1-.41-54.114c.003-9.02.039-13.303.107-22.322h212.927z"/><path fill="none" stroke="#540" stroke-width="2" d="M268.908 300.91h212.927"/><path fill="#eace24" d="M370.06 328.331c.246 2.385.115 6.883-1.101 8.927-.411.69-1.42 1.495-2.204 1.461-.773-.034-1.838-.269-2.203-.973-.333-.646-.551-2.033-.472-2.76.11-1.01 1.259-3.083 1.259-3.083s-4.115.851-5.507 1.947c-1.377 1.085-2.866 3.14-3.305 4.87-.15.592-.738 2.511.004 4.814.43 1.336 1.728 3.124 2.732 4.014 2.62 2.327 7.709 1.651 8.75 1.073 1.377-.766 3.055-2.393 3.619-3.896.439-1.167 1.35-4.613 1.574-5.844.455-2.51.587-3.459.787-6.005.137-1.748.515-3.317.157-5.032-.193-.924-.433-3.043-.958-4.439-.525-1.403-1.335-2.083-2.032-2.703-1.424-1.268-5.98-1.948-5.98-1.948s2.503 3.258 3.148 4.707c.765 1.723 1.538 2.986 1.732 4.87"/><path fill="none" stroke="#806600" d="M370.06 328.331c.246 2.385.115 6.883-1.101 8.927-.411.69-1.42 1.495-2.204 1.461-.773-.034-1.838-.269-2.203-.973-.333-.646-.551-2.033-.472-2.76.11-1.01 1.259-3.083 1.259-3.083s-4.115.851-5.507 1.947c-1.377 1.085-2.866 3.14-3.305 4.87-.15.592-.738 2.511.004 4.814.43 1.336 1.728 3.124 2.732 4.014 2.62 2.327 7.709 1.651 8.75 1.073 1.377-.766 3.055-2.393 3.619-3.896.439-1.167 1.35-4.613 1.574-5.844.455-2.51.587-3.459.787-6.005.137-1.748.515-3.317.157-5.032-.193-.924-.433-3.043-.958-4.439-.525-1.403-1.335-2.083-2.032-2.703-1.424-1.268-5.98-1.948-5.98-1.948s2.503 3.258 3.148 4.707c.765 1.723 1.538 2.986 1.732 4.87z"/><path fill="#eace24" d="M381.217 328.331c-.246 2.385-.115 6.883 1.1 8.927.413.69 1.42 1.495 2.205 1.461.772-.034 1.837-.269 2.202-.973.334-.646.552-2.033.472-2.76-.11-1.01-1.258-3.083-1.258-3.083s4.114.851 5.507 1.947c1.377 1.085 2.864 3.14 3.304 4.87.15.592.739 2.511-.005 4.814-.43 1.336-1.727 3.124-2.731 4.014-2.621 2.327-7.71 1.651-8.751 1.073-1.377-.766-3.054-2.393-3.62-3.896-.44-1.167-1.35-4.613-1.571-5.844-.456-2.51-.588-3.459-.79-6.005-.136-1.748-.513-3.317-.157-5.032.195-.924.435-3.043.959-4.439.526-1.403 1.334-2.083 2.032-2.703 1.424-1.268 5.979-1.948 5.979-1.948s-2.502 3.258-3.145 4.707c-.767 1.723-1.54 2.986-1.732 4.87"/><path fill="none" stroke="#806600" d="M381.217 328.331c-.246 2.385-.115 6.883 1.1 8.927.413.69 1.42 1.495 2.205 1.461.772-.034 1.837-.269 2.202-.973.334-.646.552-2.033.472-2.76-.11-1.01-1.258-3.083-1.258-3.083s4.114.851 5.507 1.947c1.377 1.085 2.864 3.14 3.304 4.87.15.592.739 2.511-.005 4.814-.43 1.336-1.727 3.124-2.731 4.014-2.621 2.327-7.71 1.651-8.751 1.073-1.377-.766-3.054-2.393-3.62-3.896-.44-1.167-1.35-4.613-1.571-5.844-.456-2.51-.588-3.459-.79-6.005-.136-1.748-.513-3.317-.157-5.032.195-.924.435-3.043.959-4.439.526-1.403 1.334-2.083 2.032-2.703 1.424-1.268 5.979-1.948 5.979-1.948s-2.502 3.258-3.145 4.707c-.767 1.723-1.54 2.986-1.732 4.87z"/><path fill="#eace24" d="M370.06 328.331c.246 2.385.115 6.883-1.101 8.927-.411.69-1.42 1.495-2.204 1.461-.773-.034-1.838-.269-2.203-.973-.333-.646-.551-2.033-.472-2.76.11-1.01 1.259-3.083 1.259-3.083s-4.115.851-5.507 1.947c-1.377 1.085-2.866 3.14-3.305 4.87-.15.592-.738 2.511.004 4.814.43 1.336 1.728 3.124 2.732 4.014 2.62 2.327 7.709 1.651 8.75 1.073 1.377-.766 3.055-2.393 3.619-3.896.439-1.167 1.35-4.613 1.574-5.844.455-2.51.587-3.459.787-6.005.137-1.748.515-3.317.157-5.032-.193-.924-.433-3.043-.958-4.439-.525-1.403-1.335-2.083-2.032-2.703-1.424-1.268-5.98-1.948-5.98-1.948s2.503 3.258 3.148 4.707c.765 1.723 1.538 2.986 1.732 4.87"/><path fill="none" stroke="#806600" d="M370.06 328.331c.246 2.385.115 6.883-1.101 8.927-.411.69-1.42 1.495-2.204 1.461-.773-.034-1.838-.269-2.203-.973-.333-.646-.551-2.033-.472-2.76.11-1.01 1.259-3.083 1.259-3.083s-4.115.851-5.507 1.947c-1.377 1.085-2.866 3.14-3.305 4.87-.15.592-.738 2.511.004 4.814.43 1.336 1.728 3.124 2.732 4.014 2.62 2.327 7.709 1.651 8.75 1.073 1.377-.766 3.055-2.393 3.619-3.896.439-1.167 1.35-4.613 1.574-5.844.455-2.51.587-3.459.787-6.005.137-1.748.515-3.317.157-5.032-.193-.924-.433-3.043-.958-4.439-.525-1.403-1.335-2.083-2.032-2.703-1.424-1.268-5.98-1.948-5.98-1.948s2.503 3.258 3.148 4.707c.765 1.723 1.538 2.986 1.732 4.87z"/><path fill="#eace24" d="M381.217 328.331c-.246 2.385-.115 6.883 1.1 8.927.413.69 1.42 1.495 2.205 1.461.772-.034 1.837-.269 2.202-.973.334-.646.552-2.033.472-2.76-.11-1.01-1.258-3.083-1.258-3.083s4.114.851 5.507 1.947c1.377 1.085 2.864 3.14 3.304 4.87.15.592.739 2.511-.005 4.814-.43 1.336-1.727 3.124-2.731 4.014-2.621 2.327-7.71 1.651-8.751 1.073-1.377-.766-3.054-2.393-3.62-3.896-.44-1.167-1.35-4.613-1.571-5.844-.456-2.51-.588-3.459-.79-6.005-.136-1.748-.513-3.317-.157-5.032.195-.924.435-3.043.959-4.439.526-1.403 1.334-2.083 2.032-2.703 1.424-1.268 5.979-1.948 5.979-1.948s-2.502 3.258-3.145 4.707c-.767 1.723-1.54 2.986-1.732 4.87"/><path fill="none" stroke="#806600" d="M381.217 328.331c-.246 2.385-.115 6.883 1.1 8.927.413.69 1.42 1.495 2.205 1.461.772-.034 1.837-.269 2.202-.973.334-.646.552-2.033.472-2.76-.11-1.01-1.258-3.083-1.258-3.083s4.114.851 5.507 1.947c1.377 1.085 2.864 3.14 3.304 4.87.15.592.739 2.511-.005 4.814-.43 1.336-1.727 3.124-2.731 4.014-2.621 2.327-7.71 1.651-8.751 1.073-1.377-.766-3.054-2.393-3.62-3.896-.44-1.167-1.35-4.613-1.571-5.844-.456-2.51-.588-3.459-.79-6.005-.136-1.748-.513-3.317-.157-5.032.195-.924.435-3.043.959-4.439.526-1.403 1.334-2.083 2.032-2.703 1.424-1.268 5.979-1.948 5.979-1.948s-2.502 3.258-3.145 4.707c-.767 1.723-1.54 2.986-1.732 4.87z"/><path fill="#eace24" d="M375.608 310.616s3.676 3.11 4.283 6.629c.548 3.166-1.888 6.873-2.072 8.364-.738 5.963.826 13.907.967 14.556.56 2.579 1.266 3.683 1.641 4.528.27.608 1.042 1.817 1.816 2.988.441.673 1.428 1.925 1.931 3.199.535 1.35.57 2.724.58 3.457.011 1.249-.218 2.312-.539 3.329-.306.967-1.3 2.549-2.744 3.458-1.556.98-2.812 1.769-3.29 2.08-1.58 1.032-2.553 4.423-2.573 4.423-.019 0-.99-3.39-2.572-4.422-.478-.312-1.678-1.1-3.233-2.081-1.442-.91-2.438-2.491-2.743-3.458-.322-1.017-.55-2.08-.536-3.33.006-.732.043-2.106.576-3.456.502-1.274 1.49-2.525 1.932-3.2.773-1.17 1.545-2.38 1.815-2.987.375-.845 1.081-1.95 1.64-4.528.142-.65 1.707-8.593.97-14.556-.186-1.491-2.68-5.198-2.134-8.364.61-3.52 4.285-6.63 4.285-6.63"/><path fill="none" stroke="#806600" d="M375.608 310.616s3.676 3.11 4.283 6.629c.548 3.166-1.888 6.873-2.072 8.364-.738 5.963.826 13.907.967 14.556.56 2.579 1.266 3.683 1.641 4.528.27.608 1.042 1.817 1.816 2.988.441.673 1.428 1.925 1.931 3.199.535 1.35.57 2.724.58 3.457.011 1.249-.218 2.312-.539 3.329-.306.967-1.3 2.549-2.744 3.458-1.556.98-2.812 1.769-3.29 2.08-1.58 1.032-2.553 4.423-2.573 4.423-.019 0-.99-3.39-2.572-4.422-.478-.312-1.678-1.1-3.233-2.081-1.442-.91-2.438-2.491-2.743-3.458-.322-1.017-.55-2.08-.536-3.33.006-.732.043-2.106.576-3.456.502-1.274 1.49-2.525 1.932-3.2.773-1.17 1.545-2.38 1.815-2.987.375-.845 1.081-1.95 1.64-4.528.142-.65 1.707-8.593.97-14.556-.186-1.491-2.68-5.198-2.134-8.364.61-3.52 4.285-6.63 4.285-6.63z"/><path fill="#eace24" stroke="#806600" d="M375.608 310.616l-.005 56.549"/><path fill="#eace24" d="M375.608 310.616s3.676 3.11 4.285 6.629c.546 3.165-1.889 6.873-2.074 8.364-.738 5.962.826 13.906.967 14.555.56 2.58 1.266 3.683 1.641 4.529.27.608 1.042 1.816 1.816 2.988.441.673 1.428 1.925 1.931 3.198.535 1.35.571 2.724.58 3.458.01 1.249-.218 2.31-.539 3.328-.307.966-1.3 2.549-2.744 3.458-1.554.98-2.812 1.769-3.29 2.08-1.58 1.032-2.553 4.424-2.573 4.424-.019 0-.993-3.392-2.572-4.423-.479-.312-1.679-1.1-3.233-2.081-1.442-.91-2.438-2.492-2.744-3.458-.322-1.017-.55-2.08-.537-3.328.008-.734.045-2.108.577-3.458.502-1.273 1.49-2.525 1.933-3.198.772-1.172 1.545-2.381 1.814-2.988.375-.846 1.081-1.95 1.64-4.53.143-.648 1.707-8.592.97-14.554-.186-1.491-2.68-5.2-2.133-8.364.61-3.52 4.285-6.63 4.285-6.63"/><path fill="none" stroke="#806600" d="M375.608 310.616s3.676 3.11 4.285 6.629c.546 3.165-1.889 6.873-2.074 8.364-.738 5.962.826 13.906.967 14.555.56 2.58 1.266 3.683 1.641 4.529.27.608 1.042 1.816 1.816 2.988.441.673 1.428 1.925 1.931 3.198.535 1.35.571 2.724.58 3.458.01 1.249-.218 2.31-.539 3.328-.307.966-1.3 2.549-2.744 3.458-1.554.98-2.812 1.769-3.29 2.08-1.58 1.032-2.553 4.424-2.573 4.424-.019 0-.993-3.392-2.572-4.423-.479-.312-1.679-1.1-3.233-2.081-1.442-.91-2.438-2.492-2.744-3.458-.322-1.017-.55-2.08-.537-3.328.008-.734.045-2.108.577-3.458.502-1.273 1.49-2.525 1.933-3.198.772-1.172 1.545-2.381 1.814-2.988.375-.846 1.081-1.95 1.64-4.53.143-.648 1.707-8.592.97-14.554-.186-1.491-2.68-5.2-2.133-8.364.61-3.52 4.285-6.63 4.285-6.63z"/><path fill="#eace24" d="M383.868 329.743l-1.769 2.527h-12.917l-1.775-2.527 1.775-2.516H382.1l1.77 2.516z"/><path fill="none" stroke="#806600" d="M383.868 329.743l-1.769 2.527h-12.917l-1.775-2.527 1.775-2.516H382.1l1.77 2.516z"/><path fill="#eace24" d="M383.868 329.743l-1.769 2.527h-12.917l-1.775-2.527 1.775-2.516H382.1l1.77 2.516z"/><path fill="none" stroke="#806600" d="M383.868 329.743l-1.769 2.527h-12.917l-1.775-2.527 1.775-2.516H382.1l1.77 2.516z"/><path fill="#eace24" d="M439.56 328.233c.247 2.384.115 6.882-1.1 8.926-.412.691-1.42 1.495-2.204 1.462-.772-.034-1.838-.269-2.202-.974-.334-.646-.552-2.032-.471-2.759.108-1.01 1.256-3.085 1.256-3.085s-4.114.852-5.507 1.948c-1.376 1.085-2.864 3.141-3.304 4.87-.15.593-.739 2.511.005 4.814.43 1.335 1.727 3.123 2.73 4.014 2.622 2.327 7.71 1.651 8.753 1.072 1.375-.765 3.054-2.392 3.618-3.895.44-1.167 1.352-4.614 1.574-5.844.456-2.512.588-3.459.788-6.006.137-1.747.514-3.317.158-5.032-.196-.924-.434-3.043-.958-4.439-.527-1.403-1.337-2.082-2.033-2.703-1.425-1.267-5.98-1.946-5.98-1.946s2.503 3.257 3.147 4.706c.766 1.723 1.538 2.987 1.73 4.871"/><path fill="none" stroke="#806600" d="M439.56 328.233c.247 2.384.115 6.882-1.1 8.926-.412.691-1.42 1.495-2.204 1.462-.772-.034-1.838-.269-2.202-.974-.334-.646-.552-2.032-.471-2.759.108-1.01 1.256-3.085 1.256-3.085s-4.114.852-5.507 1.948c-1.376 1.085-2.864 3.141-3.304 4.87-.15.593-.739 2.511.005 4.814.43 1.335 1.727 3.123 2.73 4.014 2.622 2.327 7.71 1.651 8.753 1.072 1.375-.765 3.054-2.392 3.618-3.895.44-1.167 1.352-4.614 1.574-5.844.456-2.512.588-3.459.788-6.006.137-1.747.514-3.317.158-5.032-.196-.924-.434-3.043-.958-4.439-.527-1.403-1.337-2.082-2.033-2.703-1.425-1.267-5.98-1.946-5.98-1.946s2.503 3.257 3.147 4.706c.766 1.723 1.538 2.987 1.73 4.871z"/><path fill="#eace24" d="M450.718 328.233c-.246 2.384-.113 6.882 1.102 8.926.412.691 1.419 1.495 2.203 1.462.774-.034 1.837-.269 2.202-.974.335-.646.553-2.032.473-2.759-.11-1.01-1.26-3.085-1.26-3.085s4.116.852 5.508 1.948c1.378 1.085 2.865 3.141 3.305 4.87.15.593.738 2.511-.005 4.814-.431 1.335-1.727 3.123-2.73 4.014-2.621 2.327-7.711 1.651-8.752 1.072-1.377-.765-3.054-2.392-3.618-3.895-.44-1.167-1.351-4.614-1.574-5.844-.456-2.512-.586-3.459-.787-6.006-.136-1.747-.516-3.317-.158-5.032.195-.924.436-3.043.958-4.439.527-1.403 1.335-2.082 2.032-2.703 1.425-1.267 5.98-1.946 5.98-1.946s-2.503 3.257-3.147 4.706c-.766 1.723-1.536 2.987-1.732 4.871"/><path fill="none" stroke="#806600" d="M450.718 328.233c-.246 2.384-.113 6.882 1.102 8.926.412.691 1.419 1.495 2.203 1.462.774-.034 1.837-.269 2.202-.974.335-.646.553-2.032.473-2.759-.11-1.01-1.26-3.085-1.26-3.085s4.116.852 5.508 1.948c1.378 1.085 2.865 3.141 3.305 4.87.15.593.738 2.511-.005 4.814-.431 1.335-1.727 3.123-2.73 4.014-2.621 2.327-7.711 1.651-8.752 1.072-1.377-.765-3.054-2.392-3.618-3.895-.44-1.167-1.351-4.614-1.574-5.844-.456-2.512-.586-3.459-.787-6.006-.136-1.747-.516-3.317-.158-5.032.195-.924.436-3.043.958-4.439.527-1.403 1.335-2.082 2.032-2.703 1.425-1.267 5.98-1.946 5.98-1.946s-2.503 3.257-3.147 4.706c-.766 1.723-1.536 2.987-1.732 4.871z"/><path fill="#eace24" d="M439.56 328.233c.247 2.384.115 6.882-1.1 8.926-.412.691-1.42 1.495-2.204 1.462-.772-.034-1.838-.269-2.202-.974-.334-.646-.552-2.032-.471-2.759.108-1.01 1.256-3.085 1.256-3.085s-4.114.852-5.507 1.948c-1.376 1.085-2.864 3.141-3.304 4.87-.15.593-.739 2.511.005 4.814.43 1.335 1.727 3.123 2.73 4.014 2.622 2.327 7.71 1.651 8.753 1.072 1.375-.765 3.054-2.392 3.618-3.895.44-1.167 1.352-4.614 1.574-5.844.456-2.512.588-3.459.788-6.006.137-1.747.514-3.317.158-5.032-.196-.924-.434-3.043-.958-4.439-.527-1.403-1.337-2.082-2.033-2.703-1.424-1.267-5.98-1.946-5.98-1.946s2.503 3.257 3.147 4.706c.766 1.723 1.538 2.987 1.73 4.871"/><path fill="none" stroke="#806600" d="M439.56 328.233c.247 2.384.115 6.882-1.1 8.926-.412.691-1.42 1.495-2.204 1.462-.772-.034-1.838-.269-2.202-.974-.334-.646-.552-2.032-.471-2.759.108-1.01 1.256-3.085 1.256-3.085s-4.114.852-5.507 1.948c-1.376 1.085-2.864 3.141-3.304 4.87-.15.593-.739 2.511.005 4.814.43 1.335 1.727 3.123 2.73 4.014 2.622 2.327 7.71 1.651 8.753 1.072 1.375-.765 3.054-2.392 3.618-3.895.44-1.167 1.352-4.614 1.574-5.844.456-2.512.588-3.459.788-6.006.137-1.747.514-3.317.158-5.032-.196-.924-.434-3.043-.958-4.439-.527-1.403-1.337-2.082-2.033-2.703-1.424-1.267-5.98-1.946-5.98-1.946s2.503 3.257 3.147 4.706c.766 1.723 1.538 2.987 1.73 4.871z"/><path fill="#eace24" d="M450.718 328.233c-.246 2.384-.114 6.882 1.102 8.926.412.691 1.419 1.495 2.203 1.462.774-.034 1.837-.269 2.202-.974.335-.646.553-2.032.473-2.759-.11-1.01-1.26-3.085-1.26-3.085s4.116.852 5.508 1.948c1.378 1.085 2.865 3.141 3.305 4.87.15.593.738 2.511-.005 4.814-.431 1.335-1.727 3.123-2.73 4.014-2.621 2.327-7.711 1.651-8.752 1.072-1.377-.765-3.054-2.392-3.62-3.895-.44-1.167-1.35-4.614-1.573-5.844-.455-2.512-.585-3.459-.786-6.006-.138-1.747-.516-3.317-.158-5.032.193-.924.435-3.043.956-4.439.528-1.403 1.337-2.082 2.034-2.703 1.423-1.267 5.98-1.946 5.98-1.946s-2.503 3.257-3.148 4.706c-.765 1.723-1.535 2.987-1.731 4.871"/><path fill="none" stroke="#806600" d="M450.718 328.233c-.246 2.384-.114 6.882 1.102 8.926.412.691 1.419 1.495 2.203 1.462.774-.034 1.837-.269 2.202-.974.335-.646.553-2.032.473-2.759-.11-1.01-1.26-3.085-1.26-3.085s4.116.852 5.508 1.948c1.378 1.085 2.865 3.141 3.305 4.87.15.593.738 2.511-.005 4.814-.431 1.335-1.727 3.123-2.73 4.014-2.621 2.327-7.711 1.651-8.752 1.072-1.377-.765-3.054-2.392-3.62-3.895-.44-1.167-1.35-4.614-1.573-5.844-.455-2.512-.585-3.459-.786-6.006-.138-1.747-.516-3.317-.158-5.032.193-.924.435-3.043.956-4.439.528-1.403 1.337-2.082 2.034-2.703 1.423-1.267 5.98-1.946 5.98-1.946s-2.503 3.257-3.148 4.706c-.765 1.723-1.535 2.987-1.731 4.871z"/><path fill="#eace24" d="M445.111 310.518s3.675 3.11 4.283 6.63c.548 3.165-1.888 6.872-2.073 8.362-.739 5.963.826 13.907.967 14.556.56 2.58 1.266 3.683 1.64 4.528.271.608 1.043 1.817 1.817 2.99.441.671 1.43 1.924 1.933 3.198.531 1.35.57 2.723.576 3.457.013 1.248-.215 2.312-.538 3.33-.305.965-1.298 2.547-2.742 3.457-1.555.981-2.813 1.77-3.293 2.081-1.58 1.031-2.552 4.422-2.57 4.422-.02 0-.992-3.39-2.572-4.422-.479-.312-1.679-1.1-3.234-2.08-1.442-.91-2.437-2.492-2.743-3.459-.32-1.017-.55-2.08-.537-3.329.01-.734.044-2.107.577-3.457.503-1.274 1.49-2.526 1.932-3.199.773-1.172 1.546-2.38 1.814-2.989.376-.845 1.082-1.948 1.642-4.528.142-.648 1.707-8.592.967-14.556-.184-1.49-2.679-5.197-2.13-8.363.607-3.519 4.284-6.629 4.284-6.629"/><path fill="none" stroke="#806600" d="M445.111 310.518s3.675 3.11 4.283 6.63c.548 3.165-1.888 6.872-2.073 8.362-.739 5.963.826 13.907.967 14.556.56 2.58 1.266 3.683 1.64 4.528.271.608 1.043 1.817 1.817 2.99.441.671 1.43 1.924 1.933 3.198.531 1.35.57 2.723.576 3.457.013 1.248-.215 2.312-.538 3.33-.305.965-1.298 2.547-2.742 3.457-1.555.981-2.813 1.77-3.293 2.081-1.58 1.031-2.552 4.422-2.57 4.422-.02 0-.992-3.39-2.572-4.422-.479-.312-1.679-1.1-3.234-2.08-1.442-.91-2.437-2.492-2.743-3.459-.32-1.017-.55-2.08-.537-3.329.01-.734.044-2.107.577-3.457.503-1.274 1.49-2.526 1.932-3.199.773-1.172 1.546-2.38 1.814-2.989.376-.845 1.082-1.948 1.642-4.528.142-.648 1.707-8.592.967-14.556-.184-1.49-2.679-5.197-2.13-8.363.607-3.519 4.284-6.629 4.284-6.629z"/><path fill="#eace24" stroke="#806600" d="M445.111 310.518l-.006 56.55"/><path fill="#eace24" d="M445.111 310.518s3.676 3.11 4.283 6.628c.548 3.167-1.888 6.874-2.073 8.365-.739 5.962.826 13.905.968 14.555.561 2.58 1.265 3.682 1.641 4.528.27.608 1.041 1.817 1.816 2.99.441.671 1.43 1.924 1.932 3.197.531 1.35.57 2.723.578 3.458.011 1.248-.218 2.311-.54 3.328-.305.966-1.298 2.55-2.742 3.46-1.555.98-2.812 1.767-3.293 2.078-1.578 1.032-2.552 4.423-2.57 4.423-.018 0-.992-3.39-2.572-4.423-.478-.31-1.679-1.099-3.234-2.079-1.442-.91-2.437-2.493-2.743-3.459-.322-1.017-.55-2.08-.537-3.328.01-.735.043-2.109.575-3.458.505-1.273 1.491-2.526 1.934-3.198.773-1.172 1.545-2.38 1.814-2.989.376-.846 1.08-1.948 1.642-4.528.142-.65 1.705-8.593.967-14.555-.184-1.49-2.677-5.198-2.13-8.365.607-3.519 4.284-6.628 4.284-6.628"/><path fill="none" stroke="#806600" d="M445.111 310.518s3.676 3.11 4.283 6.628c.548 3.167-1.888 6.874-2.073 8.365-.739 5.962.826 13.905.968 14.555.561 2.58 1.265 3.682 1.641 4.528.27.608 1.041 1.817 1.816 2.99.441.671 1.43 1.924 1.932 3.197.531 1.35.57 2.723.578 3.458.011 1.248-.218 2.311-.54 3.328-.305.966-1.298 2.55-2.742 3.46-1.555.98-2.812 1.767-3.293 2.078-1.578 1.032-2.552 4.423-2.57 4.423-.018 0-.992-3.39-2.572-4.423-.478-.31-1.679-1.099-3.234-2.079-1.442-.91-2.437-2.493-2.743-3.459-.322-1.017-.55-2.08-.537-3.328.01-.735.043-2.109.575-3.458.505-1.273 1.491-2.526 1.934-3.198.773-1.172 1.545-2.38 1.814-2.989.376-.846 1.08-1.948 1.642-4.528.142-.65 1.705-8.593.967-14.555-.184-1.49-2.677-5.198-2.13-8.365.607-3.519 4.284-6.628 4.284-6.628z"/><path fill="#eace24" d="M453.371 329.646l-1.77 2.527h-12.918l-1.773-2.527 1.773-2.516h12.918l1.77 2.516z"/><path fill="none" stroke="#806600" d="M453.371 329.646l-1.77 2.527h-12.918l-1.773-2.527 1.773-2.516h12.918l1.77 2.516z"/><path fill="#eace24" d="M453.371 329.646l-1.77 2.527h-12.918l-1.773-2.527 1.773-2.516h12.918l1.77 2.516z"/><path fill="none" stroke="#806600" d="M453.371 329.646l-1.77 2.527h-12.918l-1.773-2.527 1.773-2.516h12.918l1.77 2.516z"/><path fill="#eace24" d="M300.508 328.331c.247 2.385.115 6.883-1.1 8.927-.412.69-1.419 1.495-2.205 1.461-.773-.034-1.838-.269-2.202-.973-.334-.646-.55-2.033-.472-2.76.11-1.01 1.258-3.083 1.258-3.083s-4.114.851-5.507 1.947c-1.377 1.085-2.865 3.14-3.304 4.87-.15.592-.739 2.511.004 4.814.431 1.336 1.727 3.124 2.732 4.014 2.621 2.327 7.71 1.651 8.751 1.073 1.375-.766 3.053-2.393 3.618-3.896.44-1.167 1.351-4.613 1.574-5.844.454-2.51.587-3.458.786-6.005.137-1.748.516-3.317.157-5.032-.193-.924-.433-3.043-.957-4.439-.526-1.403-1.336-2.083-2.033-2.703-1.424-1.268-5.978-1.948-5.978-1.948s2.502 3.258 3.146 4.707c.766 1.723 1.538 2.986 1.732 4.87"/><path fill="none" stroke="#806600" d="M300.508 328.331c.247 2.385.115 6.883-1.1 8.927-.412.69-1.419 1.495-2.205 1.461-.773-.034-1.838-.269-2.202-.973-.334-.646-.55-2.033-.472-2.76.11-1.01 1.258-3.083 1.258-3.083s-4.114.851-5.507 1.947c-1.377 1.085-2.865 3.14-3.304 4.87-.15.592-.739 2.511.004 4.814.431 1.336 1.727 3.124 2.732 4.014 2.621 2.327 7.71 1.651 8.751 1.073 1.375-.766 3.053-2.393 3.618-3.896.44-1.167 1.351-4.613 1.574-5.844.454-2.51.587-3.458.786-6.005.137-1.748.516-3.317.157-5.032-.193-.924-.433-3.043-.957-4.439-.526-1.403-1.336-2.083-2.033-2.703-1.424-1.268-5.978-1.948-5.978-1.948s2.502 3.258 3.146 4.707c.766 1.723 1.538 2.986 1.732 4.87z"/><path fill="#eace24" d="M311.666 328.331c-.246 2.385-.115 6.883 1.1 8.927.411.69 1.42 1.495 2.204 1.461.773-.034 1.837-.269 2.202-.973.335-.646.552-2.033.472-2.76-.11-1.01-1.259-3.083-1.259-3.083s4.115.851 5.51 1.947c1.377 1.085 2.863 3.14 3.303 4.87.15.592.739 2.511-.004 4.814-.432 1.336-1.73 3.124-2.732 4.014-2.622 2.327-7.71 1.651-8.752 1.073-1.377-.766-3.054-2.393-3.619-3.896-.439-1.167-1.35-4.613-1.574-5.844-.454-2.51-.586-3.458-.786-6.005-.138-1.748-.517-3.317-.158-5.032.194-.924.435-3.043.958-4.439.525-1.403 1.336-2.083 2.033-2.703 1.423-1.268 5.98-1.948 5.98-1.948s-2.503 3.258-3.147 4.707c-.765 1.723-1.536 2.986-1.731 4.87"/><path fill="none" stroke="#806600" d="M311.666 328.331c-.246 2.385-.115 6.883 1.1 8.927.411.69 1.42 1.495 2.204 1.461.773-.034 1.837-.269 2.202-.973.335-.646.552-2.033.472-2.76-.11-1.01-1.259-3.083-1.259-3.083s4.115.851 5.51 1.947c1.377 1.085 2.863 3.14 3.303 4.87.15.592.739 2.511-.004 4.814-.432 1.336-1.73 3.124-2.732 4.014-2.622 2.327-7.71 1.651-8.752 1.073-1.377-.766-3.054-2.393-3.619-3.896-.439-1.167-1.35-4.613-1.574-5.844-.454-2.51-.586-3.458-.786-6.005-.138-1.748-.517-3.317-.158-5.032.194-.924.435-3.043.958-4.439.525-1.403 1.336-2.083 2.033-2.703 1.423-1.268 5.98-1.948 5.98-1.948s-2.503 3.258-3.147 4.707c-.765 1.723-1.536 2.986-1.731 4.87z"/><path fill="#eace24" d="M300.508 328.331c.247 2.385.115 6.883-1.1 8.927-.412.69-1.419 1.495-2.205 1.461-.773-.034-1.838-.269-2.202-.973-.334-.646-.55-2.033-.472-2.76.11-1.01 1.258-3.083 1.258-3.083s-4.114.851-5.507 1.947c-1.377 1.085-2.865 3.14-3.304 4.87-.15.592-.739 2.511.004 4.814.431 1.336 1.727 3.124 2.732 4.014 2.621 2.327 7.71 1.651 8.751 1.073 1.375-.766 3.053-2.393 3.618-3.896.44-1.167 1.351-4.613 1.574-5.844.454-2.51.587-3.458.786-6.005.137-1.748.516-3.317.157-5.032-.193-.924-.433-3.043-.957-4.439-.526-1.403-1.336-2.083-2.033-2.703-1.424-1.268-5.978-1.948-5.978-1.948s2.502 3.258 3.146 4.707c.766 1.723 1.538 2.986 1.732 4.87"/><path fill="none" stroke="#806600" d="M300.508 328.331c.247 2.385.115 6.883-1.1 8.927-.412.69-1.419 1.495-2.205 1.461-.773-.034-1.838-.269-2.202-.973-.334-.646-.55-2.033-.472-2.76.11-1.01 1.258-3.083 1.258-3.083s-4.114.851-5.507 1.947c-1.377 1.085-2.865 3.14-3.304 4.87-.15.592-.739 2.511.004 4.814.431 1.336 1.727 3.124 2.732 4.014 2.621 2.327 7.71 1.651 8.751 1.073 1.375-.766 3.053-2.393 3.618-3.896.44-1.167 1.351-4.613 1.574-5.844.454-2.51.587-3.458.786-6.005.137-1.748.516-3.317.157-5.032-.193-.924-.433-3.043-.957-4.439-.526-1.403-1.336-2.083-2.033-2.703-1.424-1.268-5.978-1.948-5.978-1.948s2.502 3.258 3.146 4.707c.766 1.723 1.538 2.986 1.732 4.87z"/><path fill="#eace24" d="M311.666 328.331c-.246 2.385-.116 6.883 1.101 8.927.411.69 1.42 1.495 2.204 1.461.773-.034 1.837-.269 2.202-.973.335-.646.552-2.033.472-2.76-.11-1.01-1.259-3.083-1.259-3.083s4.115.851 5.508 1.947c1.377 1.085 2.865 3.14 3.304 4.87.151.592.738 2.511-.004 4.814-.432 1.336-1.729 3.124-2.732 4.014-2.62 2.327-7.71 1.651-8.752 1.073-1.376-.766-3.053-2.393-3.618-3.896-.44-1.167-1.35-4.613-1.574-5.844-.454-2.51-.587-3.458-.787-6.005-.137-1.748-.515-3.317-.157-5.032.193-.924.434-3.043.957-4.439.526-1.403 1.336-2.083 2.033-2.703 1.424-1.268 5.98-1.948 5.98-1.948s-2.503 3.258-3.148 4.707c-.764 1.723-1.537 2.986-1.73 4.87"/><path fill="none" stroke="#806600" d="M311.666 328.331c-.246 2.385-.116 6.883 1.101 8.927.411.69 1.42 1.495 2.204 1.461.773-.034 1.837-.269 2.202-.973.335-.646.552-2.033.472-2.76-.11-1.01-1.259-3.083-1.259-3.083s4.115.851 5.508 1.947c1.377 1.085 2.865 3.14 3.304 4.87.151.592.738 2.511-.004 4.814-.432 1.336-1.729 3.124-2.732 4.014-2.62 2.327-7.71 1.651-8.752 1.073-1.376-.766-3.053-2.393-3.618-3.896-.44-1.167-1.35-4.613-1.574-5.844-.454-2.51-.587-3.458-.787-6.005-.137-1.748-.515-3.317-.157-5.032.193-.924.434-3.043.957-4.439.526-1.403 1.336-2.083 2.033-2.703 1.424-1.268 5.98-1.948 5.98-1.948s-2.503 3.258-3.148 4.707c-.764 1.723-1.537 2.986-1.73 4.87z"/><path fill="#eace24" d="M306.058 310.616s3.675 3.11 4.285 6.629c.546 3.166-1.89 6.873-2.075 8.364-.737 5.963.827 13.907.968 14.556.561 2.579 1.265 3.683 1.641 4.528.271.608 1.043 1.817 1.815 2.988.443.673 1.43 1.925 1.933 3.199.533 1.35.568 2.724.577 3.457.013 1.249-.217 2.312-.538 3.329-.305.967-1.3 2.549-2.743 3.458-1.555.98-2.812 1.769-3.29 2.08-1.58 1.032-2.554 4.423-2.573 4.423-.019 0-.992-3.39-2.572-4.422-.478-.312-1.678-1.1-3.234-2.081-1.442-.91-2.438-2.491-2.742-3.458-.322-1.017-.55-2.08-.537-3.33.007-.732.043-2.106.577-3.456.502-1.274 1.49-2.525 1.933-3.2.773-1.17 1.544-2.38 1.814-2.987.376-.845 1.081-1.95 1.641-4.528.141-.65 1.706-8.593.967-14.556-.185-1.491-2.678-5.198-2.13-8.364.607-3.52 4.283-6.63 4.283-6.63"/><path fill="none" stroke="#806600" d="M306.058 310.616s3.675 3.11 4.285 6.629c.546 3.166-1.89 6.873-2.075 8.364-.737 5.963.827 13.907.968 14.556.561 2.579 1.265 3.683 1.641 4.528.271.608 1.043 1.817 1.815 2.988.443.673 1.43 1.925 1.933 3.199.533 1.35.568 2.724.577 3.457.013 1.249-.217 2.312-.538 3.329-.305.967-1.3 2.549-2.743 3.458-1.555.98-2.812 1.769-3.29 2.08-1.58 1.032-2.554 4.423-2.573 4.423-.019 0-.992-3.39-2.572-4.422-.478-.312-1.678-1.1-3.234-2.081-1.442-.91-2.438-2.491-2.742-3.458-.322-1.017-.55-2.08-.537-3.33.007-.732.043-2.106.577-3.456.502-1.274 1.49-2.525 1.933-3.2.773-1.17 1.544-2.38 1.814-2.987.376-.845 1.081-1.95 1.641-4.528.141-.65 1.706-8.593.967-14.556-.185-1.491-2.678-5.198-2.13-8.364.607-3.52 4.283-6.63 4.283-6.63z"/><path fill="#eace24" stroke="#806600" d="M306.058 310.616l-.004 56.549"/><path fill="#eace24" d="M306.058 310.616s3.675 3.11 4.284 6.628c.547 3.166-1.889 6.874-2.074 8.365-.738 5.962.827 13.906.968 14.556.56 2.578 1.265 3.682 1.641 4.528.271.608 1.042 1.816 1.815 2.988.443.672 1.43 1.925 1.933 3.198.533 1.35.568 2.724.577 3.458.013 1.25-.216 2.311-.538 3.33-.305.966-1.3 2.548-2.743 3.456-1.555.981-2.81 1.77-3.29 2.082-1.582 1.031-2.554 4.421-2.573 4.421-.019 0-.992-3.39-2.572-4.42-.478-.313-1.678-1.102-3.234-2.083-1.44-.908-2.438-2.49-2.742-3.457-.322-1.018-.55-2.08-.537-3.329.008-.733.044-2.108.577-3.458.502-1.273 1.49-2.526 1.932-3.198.772-1.172 1.545-2.38 1.815-2.988.375-.846 1.081-1.949 1.641-4.528.141-.65 1.706-8.594.968-14.556-.185-1.49-2.679-5.199-2.132-8.365.608-3.519 4.284-6.628 4.284-6.628"/><path fill="none" stroke="#806600" d="M306.058 310.616s3.675 3.11 4.284 6.628c.547 3.166-1.889 6.874-2.074 8.365-.738 5.962.827 13.906.968 14.556.56 2.578 1.265 3.682 1.641 4.528.271.608 1.042 1.816 1.815 2.988.443.672 1.43 1.925 1.933 3.198.533 1.35.568 2.724.577 3.458.013 1.25-.216 2.311-.538 3.33-.305.966-1.3 2.548-2.743 3.456-1.555.981-2.81 1.77-3.29 2.082-1.582 1.031-2.554 4.421-2.573 4.421-.019 0-.992-3.39-2.572-4.42-.478-.313-1.678-1.102-3.234-2.083-1.44-.908-2.438-2.49-2.742-3.457-.322-1.018-.55-2.08-.537-3.329.008-.733.044-2.108.577-3.458.502-1.273 1.49-2.526 1.932-3.198.772-1.172 1.545-2.38 1.815-2.988.375-.846 1.081-1.949 1.641-4.528.141-.65 1.706-8.594.968-14.556-.185-1.49-2.679-5.199-2.132-8.365.608-3.519 4.284-6.628 4.284-6.628z"/><path fill="#eace24" d="M314.318 329.744l-1.77 2.528H299.63l-1.774-2.528 1.774-2.515h12.917l1.77 2.515z"/><path fill="none" stroke="#806600" d="M314.318 329.744l-1.77 2.528H299.63l-1.774-2.528 1.774-2.515h12.917l1.77 2.515z"/><path fill="#eace24" d="M314.318 329.744l-1.77 2.528H299.63l-1.774-2.528 1.774-2.515h12.917l1.77 2.515z"/><path fill="none" stroke="#806600" d="M314.318 329.744l-1.77 2.528H299.63l-1.774-2.528 1.774-2.515h12.917l1.77 2.515z"/><path fill="#ce0f25" d="M478.573 224.001c.07 9.019 1.946 13.303 1.947 22.321.935 18.101 1.294 36.077 1.012 54.115h-212.32c-.284-18.038.074-35.854 1.01-54.115.002-9.018 1.932-13.302 2-22.321h206.351z"/><path fill="none" stroke="#540" stroke-width="2" d="M272.084 224.001h206.49"/><path fill="#fff" d="M348.912 251.155l25.782 10.504-10.504-25.783 11.459 7.638 11.46-7.638-10.505 25.783 25.783-10.504-7.64 11.458 7.64 11.46-25.783-10.505 10.505 25.782-11.46-7.639-11.46 7.64 10.505-25.783-25.782 10.504 7.639-11.459-7.64-11.458z"/><path fill="none" stroke="#000" stroke-width=".805" d="M348.912 251.155l25.782 10.504-10.504-25.783 11.459 7.638 11.46-7.638-10.505 25.783 25.783-10.504-7.64 11.458 7.64 11.46-25.783-10.505 10.505 25.782-11.46-7.639-11.46 7.64 10.505-25.783-25.782 10.504 7.639-11.459-7.64-11.458z"/><path fill="none" stroke="#540" stroke-width="2" d="M269.21 377.346c-.562-36.074-.53-72.153 0-108.227.51-34.754 2.214-61.877 17.517-83.084 18.434-25.546 49.142-43.982 88.645-62.093 39.5 18.11 70.21 36.547 88.645 62.093 15.3 21.207 17.006 48.33 17.515 83.084.53 36.074.563 72.152 0 108.227H269.21z"/><path fill="#eace24" d="M317.022 192.449h38.946v-9.115h-38.946v9.115zm-.002 1.982c-.066 8.562-1.269 17.387-4.92 24.904a4.984 4.984 0 0 0 6.412-4.774c0-.682-.136-1.33-.382-1.921a4.99 4.99 0 0 0 2.107.464 4.984 4.984 0 1 0-1.043-9.86c.374-3.366 2.1-5.913 4.173-5.913 1.601 0 2.993 1.518 3.717 3.757.725-2.239 2.119-3.757 3.72-3.757 2.227 0 4.055 2.945 4.233 6.687a4.983 4.983 0 1 0-2.865 9.086 4.985 4.985 0 1 0 8.647 0 4.985 4.985 0 0 0-.037-9.968 4.937 4.937 0 0 0-2.827.882c.177-3.742 2.005-6.687 4.233-6.687 1.6 0 2.994 1.518 3.718 3.757.725-2.239 2.118-3.757 3.718-3.757 2.074 0 3.799 2.547 4.172 5.913a4.984 4.984 0 1 0-1.042 9.86c.754 0 1.469-.167 2.108-.464a4.984 4.984 0 0 0 6.03 6.695c-3.651-7.517-4.855-16.342-4.92-24.904H317.02z"/><path fill="none" stroke="#806600" d="M317.022 192.449h38.946v-9.115h-38.946v9.115zm-.002 1.982c-.066 8.562-1.269 17.387-4.92 24.904a4.984 4.984 0 0 0 6.412-4.774c0-.682-.136-1.33-.382-1.921a4.99 4.99 0 0 0 2.107.464 4.984 4.984 0 1 0-1.043-9.86c.374-3.366 2.1-5.913 4.173-5.913 1.601 0 2.993 1.518 3.717 3.757.725-2.239 2.119-3.757 3.72-3.757 2.227 0 4.055 2.945 4.233 6.687a4.983 4.983 0 1 0-2.865 9.086 4.985 4.985 0 1 0 8.647 0 4.985 4.985 0 0 0-.037-9.968 4.937 4.937 0 0 0-2.827.882c.177-3.742 2.005-6.687 4.233-6.687 1.6 0 2.994 1.518 3.718 3.757.725-2.239 2.118-3.757 3.718-3.757 2.074 0 3.799 2.547 4.172 5.913a4.984 4.984 0 1 0-1.042 9.86c.754 0 1.469-.167 2.108-.464a4.984 4.984 0 0 0 6.03 6.695c-3.651-7.517-4.855-16.342-4.92-24.904H317.02z"/><path fill="#806600" d="M337.64 208.143l5.307.832-5.576.876-.875 5.576-.874-5.576-5.577-.876 5.309-.832h2.286zM316.844 190.948a.79.79 0 00.742-.512l.92-2.019a.803.803 0 000-.653l-.938-2.06a.793.793 0 00-.724-.468v5.712zM317.303 206.737l5.088 1.72-5.642-.082-1.809 5.345 1.357-6.72 1.006-.263z"/><path fill="#806600" d="M315.867 209.364h.055a2.3 2.3 0 0 0 .126-.01.548.548 0 0 0 .281-.115l.002-.002.003-.003c.095-.07.185-.144.267-.22l.028-.03c.087-.08.164-.163.23-.242l.025-.034c.391-.49.627-1.112.627-1.787h.002v-.008h-.002c0-.26-.035-.506-.097-.736l-.008-.024-.023-.079-.016-.046-.003-.005-.002-.006a2.898 2.898 0 0 0-.223-.504.551.551 0 0 0-.2-.203l-.005-.004-.004-.004h-.004a1.758 1.758 0 0 0-.13-.074l-.105-.05a54.404 54.404 0 0 1-.929 4.185l.034.001v.002h.005c.023 0 .043 0 .066-.003v.001z"/><path fill="#ccc" d="M336.496 210.596a1.63 1.63 0 1 0-.001-3.26 1.63 1.63 0 0 0 0 3.26"/><path fill="none" stroke="#9e7800" d="M336.496 210.596a1.63 1.63 0 1 0-.001-3.26 1.63 1.63 0 0 0 0 3.26z"/><path fill="#ff8080" d="M332.781 188.01l3.493 2.063 3.492-2.063-3.492-2.063-3.493 2.063z"/><path fill="none" stroke="#9e7800" stroke-linejoin="round" d="M332.781 188.01l3.493 2.063 3.492-2.063-3.492-2.063-3.493 2.063z"/><path fill="#ff8080" d="M332.781 188.01l3.493 2.063 3.492-2.063-3.492-2.063-3.493 2.063z"/><path fill="#ba0028" d="M339.766 188.01l-3.432-2.028-.06-.035v2.063h3.492z"/><path fill="#cf1e45" d="M336.273 188.01v-2.063l-3.492 2.063h3.492z"/><path fill="#ff083c" d="M336.273 190.073V188.01h3.493l-.082.047-3.16 1.868-.251.148z"/><path fill="#f9c" d="M314.959 188.081l2.063 2.062.938-2.062-.938-2.063-2.063 2.063z"/><path fill="red" d="M314.959 188.081h3.001l-.938-2.063-2.063 2.063z"/><path fill="#ccc" d="M315.8 208.808c.063 0 .124-.003.185-.01a2.304 2.304 0 0 0 .67-3.01 1.631 1.631 0 1 0-.854 3.02"/><path fill="none" stroke="#9e7800" d="M315.8 208.808c.063 0 .124-.003.185-.01a2.304 2.304 0 0 0 .67-3.01 1.631 1.631 0 1 0-.854 3.02z"/><path fill="#fff" d="M315.02 208.16a.78.78 0 1 0 0-1.558.78.78 0 0 0 0 1.558"/><path fill="#806600" d="M355.688 206.737l-5.088 1.72 5.642-.082 1.808 5.345-1.356-6.72-1.006-.263z"/><path fill="#806600" d="M357.125 209.364h-.054a2.26 2.26 0 0 1-.127-.01.538.538 0 0 1-.28-.115l-.002-.002-.004-.003a3.246 3.246 0 0 1-.268-.22l-.028-.03a2.648 2.648 0 0 1-.228-.242l-.025-.034a2.848 2.848 0 0 1-.628-1.787h-.002v-.008h.002c0-.26.036-.506.098-.736l.007-.024.024-.079c.004-.016.01-.029.015-.046l.003-.005v-.006c.062-.177.136-.348.225-.504a.549.549 0 0 1 .2-.203l.004-.004.004-.004h.005c.036-.023.079-.048.13-.074l.105-.05a54.88 54.88 0 0 0 .929 4.185l-.035.001v.002h-.005c-.022 0-.043 0-.066-.003v.001z"/><path fill="#ccc" d="M357.191 208.808c-.062 0-.124-.003-.184-.01a2.302 2.302 0 0 1-.669-3.01 1.63 1.63 0 1 1 .853 3.02"/><path fill="none" stroke="#9e7800" d="M357.191 208.808c-.062 0-.124-.003-.184-.01a2.302 2.302 0 0 1-.669-3.01 1.63 1.63 0 1 1 .853 3.02z"/><path fill="#fff" d="M357.478 208.469a.777.777 0 1 1 0-1.556.779.779 0 1 1 0 1.556"/><path fill="#806600" d="M356.147 190.948a.79.79 0 0 1-.743-.512l-.919-2.019a.799.799 0 0 1 .001-.653l.938-2.06a.792.792 0 0 1 .724-.468v5.712z"/><path fill="#ff083c" d="M358.033 188.081l-2.064 2.062-.938-2.062.938-2.063 2.064 2.063z"/><path fill="#ba0028" d="M358.033 188.081h-3.002l.938-2.063 2.064 2.063z"/><path fill="#ccc" d="M336.496 210.596a1.63 1.63 0 1 0-.001-3.26 1.63 1.63 0 0 0 0 3.26"/><path fill="#fff" d="M336.167 210.309a.777.777 0 1 0 0-1.556.78.78 0 0 0 0 1.556"/><path fill="#ccc" d="M327.364 190.866a1.134 1.134 0 1 0-.003-2.269 1.134 1.134 0 0 0 .003 2.27"/><path fill="none" stroke="#9e7800" d="M327.364 190.866a1.134 1.134 0 1 0-.003-2.269 1.134 1.134 0 0 0 .003 2.27z"/><path fill="#ccc" d="M327.364 190.866a1.134 1.134 0 1 0-.003-2.269 1.134 1.134 0 0 0 .003 2.27"/><path fill="#fff" d="M327.135 190.667a.543.543 0 0 0 .542-.542.543.543 0 0 0-1.084 0c0 .299.244.542.542.542"/><path fill="#ccc" d="M327.364 187.185a1.134 1.134 0 1 0-.003-2.268 1.134 1.134 0 0 0 .003 2.268"/><path fill="none" stroke="#9e7800" d="M327.364 187.185a1.134 1.134 0 1 0-.003-2.268 1.134 1.134 0 0 0 .003 2.268z"/><path fill="#ccc" d="M327.364 187.185a1.134 1.134 0 1 0-.003-2.268 1.134 1.134 0 0 0 .003 2.268"/><path fill="#fff" d="M327.135 186.984a.542.542 0 1 0 0-1.083.542.542 0 0 0 0 1.083"/><path fill="#ccc" d="M345.629 187.185a1.136 1.136 0 1 0-1.135-1.135c0 .626.508 1.135 1.135 1.135"/><path fill="none" stroke="#9e7800" d="M345.629 187.185a1.136 1.136 0 1 0-1.135-1.135c0 .626.508 1.135 1.135 1.135z"/><path fill="#ccc" d="M345.629 187.185a1.136 1.136 0 1 0-1.135-1.135c0 .626.508 1.135 1.135 1.135"/><path fill="#fff" d="M345.4 186.984a.54.54 0 1 0 .002-1.081.54.54 0 0 0-.003 1.081"/><path fill="#ccc" d="M345.629 190.866a1.136 1.136 0 1 0-1.135-1.135c0 .626.508 1.135 1.135 1.135"/><path fill="none" stroke="#9e7800" d="M345.629 190.866a1.136 1.136 0 1 0-1.135-1.135c0 .626.508 1.135 1.135 1.135z"/><path fill="#ccc" d="M345.629 190.866a1.136 1.136 0 1 0-1.135-1.135c0 .626.508 1.135 1.135 1.135"/><path fill="#fff" d="M345.4 190.667a.542.542 0 1 0-.001-1.085.542.542 0 0 0 0 1.085"/><path fill="#eace24" d="M391.846 192.517h38.945v-9.116h-38.945v9.116zm-.002 1.981c-.067 8.563-1.271 17.388-4.92 24.904a4.983 4.983 0 0 0 6.028-6.696 4.986 4.986 0 1 0 1.066-9.394c.373-3.365 2.099-5.914 4.173-5.914 1.599 0 2.993 1.518 3.716 3.757.726-2.239 2.119-3.757 3.719-3.757 2.228 0 4.057 2.946 4.233 6.685a4.984 4.984 0 0 0-7.81 4.104c0 2.74 2.21 4.964 4.946 4.985a4.984 4.984 0 0 0 4.324 7.466 4.986 4.986 0 0 0 4.324-7.466 4.986 4.986 0 0 0-.038-9.97c-1.05 0-2.024.325-2.827.881.178-3.739 2.005-6.685 4.233-6.685 1.601 0 2.995 1.518 3.718 3.757.725-2.239 2.119-3.757 3.718-3.757 2.074 0 3.8 2.549 4.173 5.914a4.985 4.985 0 1 0 1.066 9.394 4.983 4.983 0 0 0 6.029 6.696c-3.652-7.516-4.856-16.341-4.921-24.904h-38.95z"/><path fill="none" stroke="#806600" d="M391.846 192.517h38.945v-9.116h-38.945v9.116zm-.002 1.981c-.067 8.563-1.271 17.388-4.92 24.904a4.983 4.983 0 0 0 6.028-6.696 4.986 4.986 0 1 0 1.066-9.394c.373-3.365 2.099-5.914 4.173-5.914 1.599 0 2.993 1.518 3.716 3.757.726-2.239 2.119-3.757 3.719-3.757 2.228 0 4.057 2.946 4.233 6.685a4.984 4.984 0 0 0-7.81 4.104c0 2.74 2.21 4.964 4.946 4.985a4.984 4.984 0 0 0 4.324 7.466 4.986 4.986 0 0 0 4.324-7.466 4.986 4.986 0 0 0-.038-9.97c-1.05 0-2.024.325-2.827.881.178-3.739 2.005-6.685 4.233-6.685 1.601 0 2.995 1.518 3.718 3.757.725-2.239 2.119-3.757 3.718-3.757 2.074 0 3.8 2.549 4.173 5.914a4.985 4.985 0 1 0 1.066 9.394 4.983 4.983 0 0 0 6.029 6.696c-3.652-7.516-4.856-16.341-4.921-24.904h-38.95z"/><path fill="#806600" d="M412.463 208.21l5.308.832-5.576.876-.876 5.575-.875-5.575-5.577-.876 5.309-.832h2.287zM391.668 191.015a.787.787 0 00.741-.51l.919-2.02a.791.791 0 000-.653l-.936-2.062a.793.793 0 00-.724-.467v5.712zM392.126 206.804l5.089 1.72-5.643-.081-1.808 5.347 1.358-6.723 1.004-.263z"/><path fill="#806600" d="M390.69 209.432h.056c.048-.003.091-.008.125-.011a.557.557 0 0 0 .28-.113l.003-.003.003-.003c.095-.07.185-.144.267-.221l.03-.03a2.78 2.78 0 0 0 .227-.241l.026-.034c.392-.49.628-1.113.628-1.786h.002v-.01h-.002a3.022 3.022 0 0 0-.097-.736l-.01-.023-.02-.08c-.008-.016-.012-.03-.018-.044l-.003-.006-.002-.006a2.975 2.975 0 0 0-.223-.504.537.537 0 0 0-.2-.203l.001-.002-.006-.003-.003-.001-.004-.002a3.462 3.462 0 0 0-.13-.076l-.106-.05a53.81 53.81 0 0 1-.929 4.186l.034.002h.004c.022 0 .045 0 .067-.002v.002z"/><path fill="#ccc" d="M411.32 210.662a1.63 1.63 0 1 0-.001-3.258 1.63 1.63 0 0 0 0 3.258"/><path fill="none" stroke="#9e7800" d="M411.32 210.662a1.63 1.63 0 1 0-.001-3.258 1.63 1.63 0 0 0 0 3.258z"/><path fill="#ff8080" d="M407.603 188.076l3.493 2.063 3.493-2.063-3.493-2.062-3.493 2.062z"/><path fill="none" stroke="#9e7800" stroke-linejoin="round" d="M407.603 188.076l3.493 2.063 3.493-2.063-3.493-2.062-3.493 2.062z"/><path fill="#ff8080" d="M407.603 188.076l3.493 2.063 3.493-2.063-3.493-2.062-3.493 2.062z"/><path fill="#ba0028" d="M414.59 188.076l-3.432-2.027-.061-.035v2.062h3.493z"/><path fill="#cf1e45" d="M411.097 188.076v-2.062l-3.493 2.062h3.493z"/><path fill="#ff083c" d="M411.097 190.142v-2.065h3.493l-.082.047-3.16 1.869-.251.149z"/><path fill="#f9c" d="M389.782 188.148l2.063 2.062.94-2.062-.94-2.063-2.063 2.063z"/><path fill="red" d="M389.782 188.148h3.002l-.939-2.063-2.063 2.063z"/><path fill="#ccc" d="M390.623 208.875c.063 0 .124-.003.186-.011a2.297 2.297 0 0 0 .668-3.008 1.624 1.624 0 0 0-.854-.243 1.632 1.632 0 0 0 0 3.262"/><path fill="none" stroke="#9e7800" d="M390.623 208.875c.063 0 .124-.003.186-.011a2.297 2.297 0 0 0 .668-3.008 1.624 1.624 0 0 0-.854-.243 1.632 1.632 0 0 0 0 3.262z"/><path fill="#fff" d="M389.842 208.228a.78.78 0 1 0 0-1.559.78.78 0 0 0 0 1.56"/><path fill="#806600" d="M430.512 206.804l-5.09 1.72 5.644-.081 1.808 5.347-1.356-6.723-1.006-.263z"/><path fill="#806600" d="M431.947 209.432h-.054c-.049-.003-.092-.008-.127-.011a.554.554 0 0 1-.28-.113l-.002-.003-.003-.003a3.246 3.246 0 0 1-.268-.221l-.029-.03a2.76 2.76 0 0 1-.227-.241l-.026-.034a2.856 2.856 0 0 1-.629-1.786v-.01c.002-.258.037-.505.098-.736l.01-.023.022-.08c.003-.016.01-.03.016-.044l.003-.006.001-.006c.061-.177.133-.348.223-.504a.544.544 0 0 1 .201-.203v-.002l.003-.003.005-.001.003-.002c.04-.023.08-.048.132-.076l.105-.05c.257 1.415.565 2.81.927 4.186l-.034.002h-.003c-.024 0-.045 0-.067-.002v.002z"/><path fill="#ccc" d="M432.016 208.875c-.063 0-.125-.003-.185-.011a2.296 2.296 0 0 1-.67-3.008c.25-.153.54-.243.855-.243a1.632 1.632 0 0 1 0 3.262"/><path fill="none" stroke="#9e7800" d="M432.016 208.875c-.063 0-.125-.003-.185-.011a2.296 2.296 0 0 1-.67-3.008c.25-.153.54-.243.855-.243a1.632 1.632 0 0 1 0 3.262z"/><path fill="#fff" d="M432.3 208.538a.78.78 0 1 1 .003-1.558.78.78 0 0 1-.002 1.558"/><path fill="#806600" d="M430.97 191.015a.79.79 0 0 1-.741-.51l-.92-2.02a.795.795 0 0 1 0-.653l.937-2.062a.795.795 0 0 1 .724-.467v5.712z"/><path fill="#ff083c" d="M432.856 188.148l-2.065 2.062-.937-2.062.937-2.063 2.065 2.063z"/><path fill="#ba0028" d="M432.856 188.148h-3.002l.937-2.063 2.065 2.063z"/><path fill="#ccc" d="M411.32 210.662a1.63 1.63 0 1 0-.001-3.258 1.63 1.63 0 0 0 0 3.258"/><path fill="#fff" d="M410.991 210.378a.78.78 0 0 0 0-1.56.78.78 0 0 0 0 1.56"/><path fill="#ccc" d="M402.187 190.934a1.135 1.135 0 1 0-.002-2.27 1.135 1.135 0 0 0 .002 2.27"/><path fill="none" stroke="#9e7800" d="M402.187 190.934a1.135 1.135 0 1 0-.002-2.27 1.135 1.135 0 0 0 .002 2.27z"/><path fill="#ccc" d="M402.187 190.934a1.135 1.135 0 1 0-.002-2.27 1.135 1.135 0 0 0 .002 2.27"/><path fill="#fff" d="M401.958 190.733a.542.542 0 1 0 0-1.084.542.542 0 0 0 0 1.084"/><path fill="#ccc" d="M402.187 187.253a1.135 1.135 0 1 0-.002-2.27 1.135 1.135 0 0 0 .002 2.27"/><path fill="none" stroke="#9e7800" d="M402.187 187.253a1.135 1.135 0 1 0-.002-2.27 1.135 1.135 0 0 0 .002 2.27z"/><path fill="#ccc" d="M402.187 187.253a1.135 1.135 0 1 0-.002-2.27 1.135 1.135 0 0 0 .002 2.27"/><path fill="#fff" d="M401.958 187.053a.543.543 0 0 0 0-1.083.541.541 0 0 0 0 1.083"/><path fill="#ccc" d="M420.453 187.253a1.136 1.136 0 0 0 0-2.27 1.135 1.135 0 1 0 0 2.27"/><path fill="none" stroke="#9e7800" d="M420.453 187.253a1.136 1.136 0 0 0 0-2.27 1.135 1.135 0 1 0 0 2.27z"/><path fill="#ccc" d="M420.453 187.253a1.136 1.136 0 0 0 0-2.27 1.135 1.135 0 1 0 0 2.27"/><path fill="#fff" d="M420.224 187.053a.542.542 0 1 0-.004-1.083.542.542 0 0 0 .004 1.083"/><path fill="#ccc" d="M420.453 190.934c.623 0 1.133-.51 1.133-1.135a1.136 1.136 0 1 0-1.133 1.135"/><path fill="none" stroke="#9e7800" d="M420.453 190.934c.623 0 1.133-.51 1.133-1.135a1.136 1.136 0 1 0-1.133 1.135z"/><path fill="#ccc" d="M420.453 190.934c.623 0 1.133-.51 1.133-1.135a1.136 1.136 0 1 0-1.133 1.135"/><path fill="#fff" d="M420.224 190.733a.541.541 0 1 0-.003-1.082.541.541 0 0 0 .003 1.082"/><path fill="#eace24" d="M356.121 148.485h38.947v-9.116h-38.947v9.116zm-.002 1.983c-.065 8.561-1.269 17.387-4.92 24.904a4.983 4.983 0 0 0 6.03-6.696 4.986 4.986 0 1 0 1.065-9.395c.374-3.364 2.1-5.913 4.173-5.913 1.6 0 2.992 1.518 3.718 3.757.724-2.239 2.118-3.757 3.718-3.757 2.228 0 4.055 2.945 4.233 6.685a4.948 4.948 0 0 0-2.826-.882 4.986 4.986 0 0 0-.039 9.971 4.984 4.984 0 0 0 4.324 7.465 4.985 4.985 0 0 0 4.324-7.465 4.986 4.986 0 0 0-.038-9.971c-1.05 0-2.023.326-2.827.882.177-3.74 2.005-6.685 4.234-6.685 1.6 0 2.993 1.518 3.718 3.757.725-2.239 2.117-3.757 3.717-3.757 2.074 0 3.799 2.549 4.174 5.913a4.985 4.985 0 1 0 1.064 9.395 4.983 4.983 0 0 0 6.031 6.696c-3.652-7.517-4.855-16.343-4.921-24.904h-38.952z"/><path fill="none" stroke="#806600" d="M356.121 148.485h38.947v-9.116h-38.947v9.116zm-.002 1.983c-.065 8.561-1.269 17.387-4.92 24.904a4.983 4.983 0 0 0 6.03-6.696 4.986 4.986 0 1 0 1.065-9.395c.374-3.364 2.1-5.913 4.173-5.913 1.6 0 2.992 1.518 3.718 3.757.724-2.239 2.118-3.757 3.718-3.757 2.228 0 4.055 2.945 4.233 6.685a4.948 4.948 0 0 0-2.826-.882 4.986 4.986 0 0 0-.039 9.971 4.984 4.984 0 0 0 4.324 7.465 4.985 4.985 0 0 0 4.324-7.465 4.986 4.986 0 0 0-.038-9.971c-1.05 0-2.023.326-2.827.882.177-3.74 2.005-6.685 4.234-6.685 1.6 0 2.993 1.518 3.718 3.757.725-2.239 2.117-3.757 3.717-3.757 2.074 0 3.799 2.549 4.174 5.913a4.985 4.985 0 1 0 1.064 9.395 4.983 4.983 0 0 0 6.031 6.696c-3.652-7.517-4.855-16.343-4.921-24.904h-38.952z"/><path fill="#806600" d="M376.74 164.18l5.306.832-5.576.876-.876 5.575-.873-5.575-5.577-.876 5.308-.832h2.287zM355.944 146.984a.786.786 0 00.742-.51l.92-2.022a.79.79 0 00-.002-.65h.001l-.938-2.064a.791.791 0 00-.723-.466v5.712zM356.402 162.773l5.09 1.721-5.644-.082-1.808 5.345 1.357-6.72 1.005-.264z"/><path fill="#806600" d="M354.967 165.401h.054l.126-.01a.56.56 0 0 0 .281-.114l.002-.003.004-.003c.095-.07.185-.144.267-.22l.027-.03a2.52 2.52 0 0 0 .23-.242l.026-.034a2.86 2.86 0 0 0 .626-1.788h.003v-.007h-.003c0-.26-.034-.506-.097-.736l-.007-.024-.024-.08-.015-.045-.003-.006-.003-.007a2.833 2.833 0 0 0-.222-.502.56.56 0 0 0-.202-.205h.001l-.005-.003h-.003l-.004-.005c-.037-.02-.08-.046-.132-.074l-.104-.05a55.359 55.359 0 0 1-.928 4.186l.034.002v.001h.004a.75.75 0 0 0 .067-.003v.002z"/><path fill="#ccc" d="M375.595 166.632a1.63 1.63 0 1 0 0-3.262 1.63 1.63 0 0 0 0 3.262"/><path fill="none" stroke="#9e7800" d="M375.595 166.632a1.63 1.63 0 1 0 0-3.262 1.63 1.63 0 0 0 0 3.262z"/><path fill="#ff8080" d="M371.88 144.046l3.493 2.063 3.492-2.063-3.492-2.063-3.492 2.063z"/><path fill="none" stroke="#9e7800" stroke-linejoin="round" d="M371.88 144.046l3.493 2.063 3.492-2.063-3.492-2.063-3.492 2.063z"/><path fill="#ff8080" d="M371.88 144.046l3.493 2.063 3.492-2.063-3.492-2.063-3.492 2.063z"/><path fill="#ba0028" d="M378.865 144.046l-3.43-2.027-.062-.036v2.063h3.492z"/><path fill="#cf1e45" d="M375.373 144.046v-2.063l-3.493 2.063h3.493z"/><path fill="#ff083c" d="M375.373 146.111v-2.065h3.492l-.082.05-3.16 1.866-.25.15z"/><path fill="#f9c" d="M354.06 144.118l2.061 2.062.94-2.062-.94-2.063-2.062 2.063z"/><path fill="red" d="M354.06 144.118h3l-.939-2.063-2.062 2.063z"/><path fill="#ccc" d="M354.9 164.845c.063 0 .123-.003.184-.011a2.3 2.3 0 0 0 .67-3.008 1.632 1.632 0 1 0-.853 3.019"/><path fill="none" stroke="#9e7800" d="M354.9 164.845c.063 0 .123-.003.184-.011a2.3 2.3 0 0 0 .67-3.008 1.632 1.632 0 1 0-.853 3.019z"/><path fill="#fff" d="M354.12 164.197a.78.78 0 1 0-.003-1.558.78.78 0 0 0 .002 1.558"/><path fill="#806600" d="M394.788 162.773l-5.088 1.721 5.641-.082 1.808 5.345-1.356-6.72-1.005-.264z"/><path fill="#806600" d="M396.225 165.401h-.056l-.125-.01a.554.554 0 0 1-.28-.114l-.003-.003-.003-.003a2.929 2.929 0 0 1-.267-.22l-.03-.03a2.487 2.487 0 0 1-.227-.242l-.027-.034a2.857 2.857 0 0 1-.628-1.788h-.001v-.007a2.82 2.82 0 0 1 .1-.736l.009-.024.022-.08c.004-.016.01-.03.015-.045l.003-.006.003-.007c.059-.175.133-.347.223-.502a.55.55 0 0 1 .2-.205l.004-.003h.005l.003-.005c.037-.02.08-.046.132-.074l.103-.05a54.88 54.88 0 0 0 .929 4.186l-.034.002v.001h-.005a.786.786 0 0 1-.067-.003l.002.002z"/><path fill="#ccc" d="M396.292 164.845c-.063 0-.126-.003-.186-.011a2.3 2.3 0 0 1-.669-3.008 1.63 1.63 0 1 1 .855 3.019"/><path fill="none" stroke="#9e7800" d="M396.292 164.845c-.063 0-.126-.003-.186-.011a2.3 2.3 0 0 1-.669-3.008 1.63 1.63 0 1 1 .855 3.019z"/><path fill="#fff" d="M396.578 164.506a.778.778 0 1 1-.001-1.557.778.778 0 0 1 .001 1.557"/><path fill="#806600" d="M395.247 146.984a.79.79 0 0 1-.743-.51l-.919-2.022a.79.79 0 0 1 .002-.65h-.002l.938-2.064a.793.793 0 0 1 .724-.466v5.712z"/><path fill="#ff083c" d="M397.132 144.118l-2.063 2.062-.94-2.062.94-2.063 2.063 2.063z"/><path fill="#ba0028" d="M397.132 144.118h-3.002l.939-2.063 2.063 2.063z"/><path fill="#ccc" d="M375.595 166.632a1.63 1.63 0 1 0 0-3.262 1.63 1.63 0 0 0 0 3.262"/><path fill="#fff" d="M375.267 166.348a.78.78 0 0 0 0-1.56.78.78 0 0 0 0 1.56"/><path fill="#ccc" d="M366.463 146.903a1.135 1.135 0 0 0 0-2.27 1.135 1.135 0 0 0 0 2.27"/><path fill="none" stroke="#9e7800" d="M366.463 146.903a1.135 1.135 0 0 0 0-2.27 1.135 1.135 0 0 0 0 2.27z"/><path fill="#ccc" d="M366.463 146.903a1.135 1.135 0 0 0 0-2.27 1.135 1.135 0 0 0 0 2.27"/><path fill="#fff" d="M366.234 146.703a.542.542 0 1 0 0-1.084.542.542 0 0 0 0 1.084"/><path fill="#ccc" d="M366.463 143.222a1.135 1.135 0 1 0-.001-2.27 1.135 1.135 0 0 0 0 2.27"/><path fill="none" stroke="#9e7800" d="M366.463 143.222a1.135 1.135 0 1 0-.001-2.27 1.135 1.135 0 0 0 0 2.27z"/><path fill="#ccc" d="M366.463 143.222a1.135 1.135 0 1 0-.001-2.27 1.135 1.135 0 0 0 0 2.27"/><path fill="#fff" d="M366.234 143.023a.541.541 0 1 0 .001-1.083.541.541 0 0 0-.001 1.083"/><path fill="#ccc" d="M384.728 143.222a1.135 1.135 0 1 0-.002-2.27 1.135 1.135 0 0 0 .002 2.27"/><path fill="none" stroke="#9e7800" d="M384.728 143.222a1.135 1.135 0 1 0-.002-2.27 1.135 1.135 0 0 0 .002 2.27z"/><path fill="#ccc" d="M384.728 143.222a1.135 1.135 0 1 0-.002-2.27 1.135 1.135 0 0 0 .002 2.27"/><path fill="#fff" d="M384.5 143.023a.54.54 0 1 0-.002-1.084.54.54 0 0 0 .002 1.084"/><path fill="#ccc" d="M384.728 146.903a1.136 1.136 0 0 0 0-2.27 1.135 1.135 0 0 0 0 2.27"/><path fill="none" stroke="#9e7800" d="M384.728 146.903a1.136 1.136 0 0 0 0-2.27 1.135 1.135 0 0 0 0 2.27z"/><path fill="#ccc" d="M384.728 146.903a1.136 1.136 0 0 0 0-2.27 1.135 1.135 0 0 0 0 2.27"/><path fill="#fff" d="M384.5 146.703a.542.542 0 1 0-.004-1.083.542.542 0 0 0 .004 1.083"/></g></svg>