<svg xmlns="http://www.w3.org/2000/svg" width="600" height="400" version="1.0" viewBox="0 0 600 400"><path fill="#002488" d="M0 0v133.492h599.986V0H0z"/><path fill="green" d="M380.08 303.954c0 .927 3.148 2.966 7.037 4.635 6.481 2.781 14.259 5.562 71.665 26.142 24.629 8.9 34.258 11.496 34.258 9.085 0-.927-22.221-9.085-49.443-17.984-27.407-9.085-52.777-17.985-56.48-20.024-3.889-1.854-7.037-2.596-7.037-1.854zM406.19 320.032c1.112 1.854 69.073 29.664 80.555 33.002 4.259 1.298 6.11-2.225 1.851-3.708-1.296-.371-14.073-5.006-28.332-10.198-21.852-7.972-32.777-12.051-52.592-20.024-1.666-.556-2.222-.185-1.481.928z"/><path d="M.013 133.015V400H600V133.015H.013z"/><path fill="green" d="M198.676 209.028c2.087 5.102 9.49 8.589 19.426 9.447 6.723.477 3.64-2.423-5.758-5.847-4.413-1.41-9.554-4.074-11.737-5.658-3.844-2.98-3.844-2.98-1.93 2.058z"/><g fill="#fcdd09"><path d="M105.448 14.945c-7.326 12.081-8.2 21.744-3.2 38.431 2.408 7.787 5.052 19.416 6.163 25.72 1.482 8.899 1.326 9.745 1.534 11.68 1.852 0 6.06.007 8.006-.005.28-3.08.506-6.637 1.163-11.527.766-5.702 3.038-17.628 5.482-25.91 4.882-16.553 4.555-26.708-3.037-38.204-2.778-4.264-6.481-7.787-8.148-7.787-1.667 0-5.437 3.256-7.963 7.602zM141.425 49.126c-10.37 4.45-16.607 16.768-20.014 33.744-.63 3.188-.783 4.313-1.098 7.906 2.244.009 3.127.024 5.315.011.479-2.417.823-3.693 1.88-7.123 4.184-13.268 16.51-18.593 15.954-6.17-.185 3.43-1.63 5.345-3.24 7.184 1.99-.497 6.214-2.471 9.64-4.418 19.074-11.495 11.563-39.662-8.437-31.134zM99.05 95.106c8.37.037 22.834.104 29.781.067.009-1.787.034-.875.051-2.319-5.114-.043-24.7.028-29.792.028.012.934-.012 1.386-.04 2.224zM101.512 104.918c-3.017 3.256-7.73 5.69-7.73 5.69s4.169.47 8.057.185c3.888-.284 6.045-.77 8.343-1.887-.624 4.639-.66 9.118-.66 9.118.566 5.97 1.205 7.497 2.498 10.403 1.755 2.423 2.775 2.437 4.064-.122 1.394-2.866 2.312-5.813 2.603-10.309-.101-3.37-.29-4.913-1.087-9.032 2.69 1.165 4.39 1.467 8.403 1.83 4.107.37 7.882.188 7.882.188s-5.548-2.787-7.99-6.206c-2.41-3.375-1.896-2.801-3.648-7.148-2.13-.101-12.927-.002-16.353-.002-1.876 3.963-2.065 4.791-4.382 7.292zM86.266 49.12c10.37 4.45 16.608 16.768 20.015 33.744.629 3.188.782 4.313 1.098 7.906-2.245.009-3.127.024-5.315.011-.48-2.417-.824-3.693-1.88-7.123C96 70.39 83.674 65.065 84.23 77.488c.185 3.43 1.631 5.345 3.24 7.183-1.989-.496-6.214-2.47-9.64-4.417-19.073-11.495-11.562-39.662 8.437-31.134z"/></g><g fill="#fcdd09"><path d="M290.372 14.945c-7.326 12.081-8.2 21.745-3.2 38.431 2.408 7.787 5.052 19.416 6.163 25.72 1.482 8.9 1.326 9.745 1.535 11.68 1.851 0 6.06.007 8.006-.004.28-3.081.506-6.638 1.163-11.528.766-5.702 3.037-17.627 5.48-25.91 4.883-16.553 4.556-26.708-3.036-38.203-2.778-4.265-6.481-7.787-8.148-7.787-1.667 0-5.437 3.256-7.963 7.601zM326.35 49.127c-10.37 4.45-16.608 16.768-20.015 33.744-.63 3.187-.783 4.313-1.098 7.905 2.244.01 3.127.025 5.315.012.479-2.417.824-3.693 1.88-7.124 4.184-13.267 16.51-18.592 15.954-6.17-.185 3.43-1.63 5.345-3.24 7.184 1.99-.497 6.214-2.471 9.64-4.418 19.074-11.495 11.563-39.662-8.437-31.133zM283.974 95.106c8.37.038 22.834.104 29.781.067.009-1.787.035-.875.052-2.319-5.115-.042-24.7.028-29.793.028.012.934-.012 1.387-.04 2.224zM286.436 104.918c-3.017 3.256-7.73 5.69-7.73 5.69s4.169.47 8.057.186c3.888-.284 6.045-.77 8.343-1.888-.624 4.639-.66 9.118-.66 9.118.566 5.97 1.206 7.498 2.499 10.403 1.754 2.424 2.774 2.437 4.064-.122 1.393-2.866 2.311-5.813 2.602-10.308-.101-3.37-.29-4.914-1.086-9.033 2.69 1.166 4.389 1.468 8.402 1.83 4.107.37 7.882.188 7.882.188s-5.547-2.787-7.99-6.206c-2.41-3.374-1.895-2.8-3.648-7.148-2.13-.1-12.927-.002-16.353-.002-1.876 3.964-2.065 4.791-4.382 7.292zM271.19 49.12c10.37 4.45 16.608 16.769 20.015 33.745.629 3.187.782 4.312 1.098 7.905-2.245.01-3.127.025-5.315.012-.479-2.417-.824-3.693-1.88-7.124-4.184-13.268-16.51-18.592-15.955-6.17.186 3.43 1.631 5.345 3.24 7.184-1.989-.497-6.214-2.471-9.64-4.418-19.073-11.495-11.562-39.662 8.437-31.133z"/></g><g fill="#fcdd09"><path d="M481.49 14.295c-7.325 12.08-8.2 21.744-3.2 38.43 2.408 7.788 5.053 19.416 6.164 25.72 1.481 8.9 1.326 9.746 1.534 11.68 1.852 0 6.06.008 8.006-.004.28-3.081.506-6.637 1.163-11.528.766-5.702 3.038-17.627 5.481-25.91 4.883-16.552 4.556-26.708-3.036-38.203-2.778-4.264-6.482-7.787-8.148-7.787-1.667 0-5.437 3.256-7.963 7.602zM517.468 48.476c-10.37 4.45-16.608 16.768-20.015 33.744-.629 3.188-.782 4.313-1.098 7.906 2.245.009 3.127.024 5.315.01.48-2.416.824-3.692 1.88-7.122 4.185-13.268 16.51-18.593 15.955-6.17-.185 3.43-1.631 5.344-3.24 7.183 1.989-.496 6.214-2.47 9.64-4.417 19.073-11.496 11.562-39.663-8.437-31.134zM475.093 94.456c8.37.037 22.834.104 29.781.067.008-1.787.034-.875.051-2.32-5.115-.042-24.7.028-29.793.028.012.935-.011 1.387-.04 2.225zM477.554 104.268c-3.017 3.255-7.73 5.69-7.73 5.69s4.17.469 8.057.185c3.888-.284 6.046-.77 8.343-1.887-.623 4.638-.66 9.118-.66 9.118.566 5.97 1.206 7.497 2.499 10.402 1.754 2.424 2.774 2.437 4.064-.122 1.394-2.865 2.311-5.812 2.603-10.308-.102-3.37-.29-4.914-1.087-9.033 2.69 1.166 4.39 1.468 8.403 1.83 4.107.37 7.882.189 7.882.189s-5.548-2.788-7.99-6.206c-2.41-3.375-1.896-2.801-3.649-7.149-2.13-.1-12.926-.001-16.352-.001-1.877 3.963-2.065 4.79-4.383 7.292zM462.309 48.47c10.37 4.45 16.607 16.768 20.014 33.744.63 3.188.783 4.313 1.098 7.905-2.244.01-3.126.025-5.315.012-.478-2.417-.823-3.693-1.879-7.124-4.185-13.267-16.51-18.592-15.955-6.17.185 3.43 1.63 5.345 3.24 7.184-1.99-.497-6.214-2.47-9.64-4.418-19.074-11.495-11.563-39.662 8.437-31.133z"/></g><path fill="green" d="M105.087 170.86c5.37 7.972 11.481 13.72 23.333 21.692 8.703 5.933 16.296 10.568 16.666 10.197.74-.927-42.591-41.16-45.554-42.272-1.111-.371 1.296 4.264 5.555 10.383zM216.576 213.31c4.02 1.877 9.154 3.356 11.743 3.443 3.06.103 2.248-.65-3.463-2.873-4.47-1.747-9.816-4.684-12.189-6.506-4.254-3.48-4.254-3.48-3.808-.418.254 1.75 3.461 4.47 7.717 6.354z"/><path fill="green" d="M191.566 177.137c2.593 10.382 13.333 29.48 17.037 30.22 3.333.557 3.333.372.555-2.78-4.63-5.377-14.629-25.03-14.629-28.738 0-2.04-.926-3.523-2.037-3.523-1.296 0-1.667 1.854-.926 4.82zM80.259 164.118c-.064.365 3.412 3.05 7.767 6.078 4.356 3.028 9.43 7.313 11.115 9.493 2.886 3.898 19.236 13.562 20.77 12.327 1.501-1.053-19.559-18.138-28.463-23.099-10.6-6.013-10.964-6.077-11.19-4.799z"/><path fill="green" d="M86.225 178.382c0 .37 3.889 2.41 8.703 4.635 4.815 2.225 10.556 5.562 12.593 7.416 3.518 3.338 21.295 10.012 22.592 8.529 1.296-1.298-22.407-14.462-32.037-17.8-11.48-4.078-11.851-4.078-11.851-2.78zM168.815 184.924c7.037 12.978 14.26 21.507 17.222 20.58 1.482-.556-1.852-5.933-9.074-14.647-6.48-7.602-12.036-14.276-12.592-14.833-.555-.556 1.482 3.523 4.444 8.9zM177.916 179.865c0 2.04 7.222 16.13 11.481 22.063 2.407 3.338 5.185 5.192 8.333 5.192 4.63 0 4.63 0-2.407-7.973-4.074-4.264-9.444-10.753-12.222-14.276-2.778-3.523-5.185-5.748-5.185-5.006zM160.89 185.851c0 2.781 13.537 21.322 15.634 21.322.954 0-1.334-4.45-5.338-9.827-8.961-12.236-10.296-13.534-10.296-11.495zM148.102 236.943c-12.222 4.82-14.814 6.489-14.814 9.085 0 1.112 1.296.927 3.333-.742 1.666-1.669 7.777-3.893 13.333-5.191 5.555-1.298 12.222-3.523 14.814-4.82l4.63-2.411h-5.556c-2.962.185-10.185 2.04-15.74 4.079z"/><path fill="green" d="M113.398 205.447c9.131 8.314 39.67 24.018 55.145 28.64 4.193 1.234 10.996 1.517 14.84.708l7.167-1.428-7.073-3.736c-11.409-5.905-30.145-18.414-36.87-24.447-7.328-6.603-7.09-4.322.365 4.8 2.912 3.674 11.52 10.007 19.068 13.965 7.612 4.132 12.929 7.917 12.058 8.234-2.262.824-23.15-11.098-39.037-22.276-17.264-12.255-17.976-12.588-11.55-4.67 3.149 3.785 8.973 8.963 13.198 11.37 4.114 2.644 6.93 4.972 6.06 5.289-1.74.634-12.563-5.287-26.694-14.344-3.94-2.707-9.304-6.08-11.63-7.6-2.564-1.63-.27.887 4.953 5.495z"/><path fill="green" d="M114.743 202.855l-7.407 2.41 5.555.927c2.963.742 6.852.37 8.704-.556 1.666-.927 5-1.669 7.407-1.854 4.074 0 4.074-.186.555-1.669-4.63-2.04-5.74-2.04-14.814.742zM123.87 207.887c-3.148 2.41-2.963 2.596 3.889 1.483 4.074-.556 10-1.668 12.962-2.41 4.815-1.298 4.445-1.483-3.888-1.669-5.556-.185-10.74.927-12.963 2.596z"/><path fill="green" d="M77.865 188.393c30.555 5.562 91.85 26.143 88.146 29.665-.926.927-18.148-3.337-20.555-5.006-.926-.927-10-.556-20 .742-18.703 2.04-21.85 3.708-21.48 11.31.185 3.708.185 3.708 1.11 0 1.667-6.86 4.445-8.344 15-8.344 11.481 0 42.962 4.636 56.85 8.344 18.519 5.191 19.074 5.191 12.963 1.854-7.962-4.45-20-12.608-22.221-15.018-4.074-4.635-77.961-25.03-88.702-24.66-5 .372-5.185.372-1.111 1.113z"/><path fill="green" d="M91.913 198.273c-2.223 1.668-4.63 5.562-5.185 8.714-1.112 5.376-1.112 5.376 1.851 1.854 7.778-9.827 8.334-10.198 17.963-10.383 7.778-.185 8.889-.556 5.185-1.669-7.778-2.41-15.555-1.854-19.814 1.484zM186.302 209.714c1.482 2.596 15.926 9.827 17.037 8.715.555-.557-1.111-2.04-3.333-3.338-2.408-1.298-5.556-3.337-6.852-4.82-2.963-2.781-8.518-3.338-6.852-.557zM187.416 227.33c1.482 2.595 15.926 9.826 17.037 8.714.556-.557-1.111-2.04-3.333-3.338-2.408-1.297-5.556-3.337-6.852-4.82-2.963-2.781-8.518-3.337-6.852-.556z"/><path fill="green" d="M166.714 205.254c.266-.258 4.433 1.126 9.376 3.049 4.943 1.922 11.328 3.738 14.075 3.917 4.842.216 21.987 8.383 21.822 10.346-.032 1.836-25.956-6.091-35.042-10.708-10.907-5.436-11.164-5.702-10.231-6.604z"/><path fill="green" d="M197.386 218.804c-3.455 1.337-6.929 3.754-8.008 5.484-1.276 2.044-.196 2.064 4.26-.177 3.493-1.75 8.538-3.185 11.305-3.421 5.182-.256 5.182-.256 1.885-2.32-1.885-1.178-5.89-1.06-9.442.434z"/><path fill="green" d="M176.06 232.11c-10.554 9.477-12.888 16.084-9.508 25.902l2.923 8.406-.814-8.508c-1.258-11.677 1.886-16.989 14.664-26.214 6.006-4.293 10.778-8.185 10.664-8.538-.63-1.94-12.562 3.892-17.929 8.952zM110.722 156.318c5.74 10.94 29.073 36.154 42.036 45.796 3.519 2.595 9.815 5.19 13.704 5.747l7.222 1.113-5.37-5.933c-8.704-9.456-22.037-27.626-26.296-35.598-4.63-8.714-5.185-6.49-1.297 4.635 1.482 4.45 7.408 13.349 13.148 19.653 5.74 6.489 9.444 11.866 8.519 11.866-2.408 0-17.963-18.355-29.074-34.3-12.037-17.428-12.592-17.985-9.259-8.344 1.667 4.636 5.37 11.496 8.518 15.204 2.963 3.893 4.815 7.045 3.89 7.045-1.853 0-10-9.27-20.186-22.62-2.777-3.893-6.666-8.899-8.333-11.124-1.851-2.41-.555.742 2.778 6.86z"/><path fill="green" d="M170.455 208.232c0 1.298 2.778 4.635 6.111 7.23 9.815 7.417 35.926 19.839 39.259 18.541 2.037-.741-1.111-2.781-10-6.118-15.555-6.119-29.814-14.277-29.814-17.058 0-1.483 6.11-1.668 21.296-.741 22.777 1.298 29.629-1.298 8.888-3.152-21.85-2.225-35.74-1.669-35.74 1.298zM121.568 228.07c-7.963 1.854-12.222 4.635-12.222 7.973 0 1.297.74 1.112 1.666-.371 1.482-2.41 16.667-6.86 18.148-5.377.37.37-.185 3.152-1.296 5.933-1.111 2.781-1.482 5.562-.926 6.118.555.742 1.481-.741 2.037-2.78 2.222-7.973 9.074-10.383 25.555-8.9 8.333.741 17.592 1.668 20.555 1.854 3.148.185 7.407 1.298 9.63 2.596 4.814 2.595 23.517 2.78 21.85.185-.555-.927-4.073-2.225-7.962-2.781-3.704-.556-11.481-2.41-17.222-3.894-11.481-2.966-48.147-3.337-59.813-.556zM189.19 249.472c-13.957-2.493-20.594-.266-26.24 8.445l-4.817 7.482 6.196-5.88c8.416-8.182 14.532-8.972 29.66-4.57 7.076 2.095 13.078 3.464 13.285 3.157 1.139-1.691-10.797-7.515-18.084-8.634z"/><path fill="green" d="M171.118 244.306c-25.74 7.046-28.703 9.641-25 21.322 1.482 4.45 1.482 4.264 1.667-1.483.185-3.152 1.852-7.602 3.704-9.456 3.333-3.337 18.333-7.602 36.666-10.568 4.444-.556 7.407-1.854 6.851-2.781-1.481-2.41-7.407-1.669-23.888 2.966zM192.995 253.365c-12.963 5.747-17.222 11.31-17.037 21.692l.185 8.9 1.852-8.344c2.407-11.495 7.037-15.574 22.036-20.394 7.037-2.225 12.778-4.45 12.778-4.82 0-2.04-13.148-.186-19.814 2.966z"/><path fill="green" d="M190.534 269.283c-2.222 2.966-3.888 6.86-3.888 8.899 0 2.41.925 1.854 3.518-2.41 2.037-3.338 5.555-7.231 7.778-8.9 4.259-2.966 4.259-2.966.37-2.966-2.222 0-5.556 2.225-7.778 5.377zM390.745 299.497c6.014 2.61 37.212 10.487 59.286 16.959 22.074 6.472 47.883 13.923 53.596 14.726 8.165-17.82-6.695 15.51 1.786-4.69-11.025-2.81-54.48-13.046-71.918-18.063-15.034-4.215-36.36-10.789-41.823-11.993-5.462-1.204-5.537 1.054-.927 3.061z"/><path fill="green" d="M394.56 294.871c6.1 2.398 37.554 9.18 59.84 14.877 22.287 5.697 48.34 12.242 54.077 12.845 7.54-18.094-6.15 15.735 1.621-4.75-11.115-2.422-54.9-11.135-72.503-15.54-15.172-3.686-36.715-9.51-42.215-10.523-5.501-1.013-5.497 1.247-.82 3.091zM385.923 302.859c5.868 2.92 36.612 12.422 58.317 20.042 21.706 7.62 47.09 16.413 52.753 17.514 9.086-17.367-7.496 15.138 2.029-4.59-10.863-3.383-53.723-15.883-70.876-21.807-14.792-4.997-35.746-12.68-41.138-14.168-5.391-1.489-5.584.763-1.085 3.009z"/><path fill="green" d="M382.178 306.655c5.708 3.224 35.913 14.324 57.19 23.07 21.277 8.747 46.167 18.859 51.765 20.255 9.98-16.867-8.278 14.725 2.266-4.477-10.671-3.948-52.82-18.676-69.639-25.491-14.51-5.765-35.034-14.535-40.34-16.304-5.307-1.77-5.618.469-1.242 2.947z"/><path fill="green" d="M378.65 311.438c5.593 3.421 35.393 15.57 56.352 25.054 20.96 9.486 45.482 20.46 51.027 22.051 10.563-16.508-8.785 14.427 2.42-4.395-10.526-4.318-52.135-20.51-68.706-27.909-14.302-6.268-34.507-15.75-39.749-17.703-5.241-1.954-5.63.272-1.343 2.902z"/><path fill="green" d="M374.67 315.796c5.406 3.71 34.53 17.403 54.965 27.973 20.435 10.57 44.35 22.815 49.804 24.695 11.412-15.932-9.527 13.946 2.647-4.263-10.286-4.864-50.992-23.214-67.154-31.47-13.954-7.01-33.636-17.537-38.768-19.763-5.133-2.225-5.637-.023-1.494 2.828z"/><path fill="#fcdd09" d="M310.185 355.21l5.997 4.288c8.599 5.997 13.327 14.332 12.859 22.934l-.318 7.104 2.822-6.99c3.088-7.314 2.663-18.39-.984-26.593l-2.128-4.783 6.757 2.945c9.655 4.077 16.012 11.244 17.34 19.758l1.164 7.015 1.31-7.426c1.5-7.799-1.214-18.54-6.486-25.804l-3.075-4.238 7.221 1.474c10.29 1.978 17.997 7.666 21.065 15.719l2.595 6.62-.262-7.538c-.15-7.94-5.038-17.883-11.702-23.891l-3.888-3.506 7.37-.06c10.476-.206 19.196 3.753 23.868 10.992l3.912 5.933-1.82-7.317c-1.797-7.732-8.641-16.441-16.408-20.93l-4.53-2.62 7.196-1.592c10.204-2.386 19.556-.326 25.628 5.78l5.059 4.99-3.302-6.778c-3.362-7.191-11.865-14.287-20.395-17.061l-4.975-1.616 6.708-3.056c9.485-4.457 19.06-4.39 26.268.318l5.986 3.829-4.636-5.944c-4.783-6.335-14.574-11.503-23.493-12.44l-5.201-.546 5.927-4.387c8.352-6.332 17.732-8.263 25.76-5.156l6.65 2.497-5.768-4.847c-5.995-5.2-16.645-8.218-25.564-7.278l-5.201.546 4.886-5.525c6.855-7.933 15.63-11.771 24.127-10.403l7.023 1.057-6.65-3.54c-6.943-3.838-17.986-4.573-26.516-1.799l-4.976 1.617 3.632-6.419c5.058-9.187 12.843-14.767 21.44-15.201l7.089-.426-7.24-2.077c-7.589-2.31-18.543-.729-26.31 3.758l-4.531 2.62 2.22-7.037c3.04-10.038 9.496-17.117 17.815-19.33l6.847-1.893-7.514-.525c-7.902-.68-18.29 3.144-24.954 9.153l-3.887 3.505.711-7.344c.888-10.455 5.733-18.72 13.41-22.619l6.304-3.275-7.458 1.05c-7.87.979-17.236 6.883-22.508 14.147l-3.074 4.239-.83-7.332c-1.302-10.408 1.72-19.507 8.42-24.914l5.485-4.517-7.078 2.578c-7.494 2.597-15.428 10.322-19.076 18.525l-2.128 4.786-2.334-7c-3.436-9.91-2.369-19.437 3.063-26.121l4.428-5.56-6.388 3.994c-6.792 4.1-12.95 13.308-14.814 22.09l-1.087 5.125-3.737-6.36c-5.418-8.98-6.353-18.519-2.429-26.19l3.176-6.36-5.418 5.236c-5.792 5.427-9.903 15.717-9.903 24.695v5.237l-4.976-5.443c-7.163-7.653-10.058-16.793-7.813-25.112l1.784-6.883-4.212 6.253c-4.539 6.51-6.423 17.43-4.558 26.216l1.086 5.122-5.996-4.289c-8.598-5.997-13.327-14.332-12.858-22.937l.316-7.104-2.822 6.993c-3.087 7.314-2.662 18.387.984 26.59l2.128 4.786-6.757-2.946c-9.655-4.076-16.012-11.244-17.34-19.757l-1.164-7.015-1.308 7.425c-1.5 7.797 1.212 18.541 6.486 25.805l3.073 4.236-7.22-1.475c-10.29-1.977-17.997-7.664-21.064-15.717l-2.596-6.62.263 7.537c.15 7.94 5.037 17.883 11.702 23.89l3.887 3.505-7.37.06c-10.476.208-19.195-3.752-23.867-10.988l-3.914-5.935 1.822 7.316c1.796 7.735 8.64 16.444 16.407 20.934l4.53 2.62-7.196 1.59c-10.204 2.384-19.555.328-25.628-5.779l-5.06-4.99 3.302 6.778c3.363 7.191 11.867 14.284 20.396 17.058l4.976 1.62-6.709 3.055c-9.486 4.458-19.06 4.389-26.269-.32l-5.986-3.828 4.636 5.942c4.783 6.335 14.574 11.503 23.493 12.441l5.203.549-5.928 4.384c-8.353 6.335-17.732 8.262-25.76 5.156l-6.651-2.496 5.769 4.846c5.994 5.202 16.644 8.219 25.563 7.28l5.202-.546-4.887 5.522c-6.854 7.935-15.629 11.771-24.127 10.405l-7.023-1.059 6.65 3.542c6.944 3.84 17.988 4.573 26.517 1.799l4.976-1.618-3.633 6.421c-5.058 9.186-12.843 14.768-21.439 15.2l-7.09.424 7.24 2.08c7.589 2.309 18.544.728 26.31-3.76l4.531-2.62-2.22 7.036c-3.04 10.04-9.495 17.12-17.814 19.332l-6.846 1.893 7.513.526c7.902.678 18.29-3.147 24.954-9.156l3.887-3.505-.71 7.347c-.888 10.451-5.733 18.72-13.411 22.616l-6.304 3.277 7.459-1.048c7.87-.98 17.236-6.887 22.507-14.151l3.075-4.236.83 7.333c1.302 10.408-1.72 19.503-8.42 24.913l-5.487 4.516 7.078-2.578c7.495-2.595 15.43-10.324 19.078-18.526l2.126-4.784 2.334 6.997c3.436 9.913 2.369 19.437-3.063 26.124l-4.428 5.56 6.388-3.996c6.792-4.1 12.95-13.309 14.814-22.092l1.087-5.122 3.737 6.36c5.419 8.98 6.353 18.52 2.43 26.19l-3.177 6.36 5.418-5.239c5.792-5.422 9.903-15.712 9.903-24.691v-5.238l4.976 5.443c7.163 7.655 10.058 16.793 7.814 25.112l-1.786 6.883 4.212-6.253c4.539-6.512 6.423-17.43 4.559-26.214l-1.087-5.122"/></svg>