<svg xmlns="http://www.w3.org/2000/svg" xmlns:xlink="http://www.w3.org/1999/xlink" width="960" height="600" viewBox="0 0 960 600"><defs><radialGradient id="a"><stop offset=".216" stop-color="#f9f0aa"/><stop offset="1" stop-color="#b07e09"/></radialGradient><radialGradient id="d" cx="447.418" cy="308.269" r="16.534" gradientUnits="userSpaceOnUse" xlink:href="#a"/><radialGradient id="e" cx="451.558" cy="312.995" r="10.911" gradientUnits="userSpaceOnUse" xlink:href="#a"/><radialGradient id="f" cx="454.11" cy="308.643" r="9.78" gradientUnits="userSpaceOnUse" xlink:href="#a"/><radialGradient id="g" cx="458.39" cy="307.057" r="17.354" gradientUnits="userSpaceOnUse" xlink:href="#a"/><radialGradient id="j" cx="445.976" cy="252.363" r="13.018" gradientUnits="userSpaceOnUse" xlink:href="#a"/><radialGradient id="m" cx="477.858" cy="215.266" r=".345" gradientUnits="userSpaceOnUse"><stop offset=".259" stop-color="#a50a0a"/><stop offset="1" stop-color="#4c0505"/></radialGradient><radialGradient id="n"><stop offset="0" stop-color="#fff"/><stop offset="1" stop-color="#fff" stop-opacity="0"/></radialGradient><linearGradient id="h" x1="473.906" x2="472.357" y1="259.171" y2="231.963" gradientUnits="userSpaceOnUse"><stop offset=".216" stop-color="#b07e09" stop-opacity="0"/><stop offset="1" stop-color="#b07e09"/></linearGradient><linearGradient id="i" x1="483.126" x2="485.495" y1="296.656" y2="326.583" gradientUnits="userSpaceOnUse"><stop offset=".216" stop-color="#b07e09" stop-opacity="0"/><stop offset="1" stop-color="#b07e09"/></linearGradient><linearGradient id="k" x1="451.541" x2="455.366" y1="249.523" y2="240.576" gradientUnits="userSpaceOnUse"><stop offset=".216" stop-color="#f9f0aa"/><stop offset="1" stop-color="#b07e09"/></linearGradient><linearGradient id="l" x1="473.314" x2="475.929" y1="237.247" y2="270.446" gradientUnits="userSpaceOnUse"><stop offset=".216" stop-color="#f9f0aa"/><stop offset="1" stop-color="#b07e09"/></linearGradient></defs><path fill="#4997d0" d="M0 0h960v600H0z"/><path fill="#fff" d="M320 0h320v600H320z"/><g stroke="#24420e"><g fill="none" stroke-width=".437"><path d="M452.12 377.48c2.67-.407 4.208-1.138 6.035-1.786M460.37 371.64c1.347 1.429 2.417 2.95 2.993 4.635M455.25 371.2c1.405 1.313 2.376 2.712 3.138 4.152M408.81 238.77c-1.044 1.602-3.092 2.726-4.78 3.428M403.69 242c.035-1.368-.236-3.026.05-4.394M401.76 242.63c.114.37.435 1.401.676 2.028M404.46 245.58c-.378.082-1.52.257-2.028.338M398.48 245.04c-.013 2.52.286 5.553.531 7.821M397.22 251.9c.472.757.947 1.504 1.545 1.883M394.18 260.25c.489.94.943 2.122 1.304 3.959M399.2 259.58c-.414.205-1.215.93-1.931 1.545M398.86 265.52c-.979.872-2.198 1.504-3.428 2.124M391.62 308.05c1.153 1.893 2.42 3.56 3.959 4.684M396.16 314.42c-1.294-.166-2.16-.545-2.945-.966M397.61 321.86l1.69.966M398.86 326.3c1.255.816 2.51 2.283 3.765 3.862M401.18 333.01c1.385.293 2.493.641 3.235 1.062M403.35 336.49l2.124.072M406.68 331.18c-.102 1.534-.253 2.972-.483 4.249M407.21 337.02l.434-1.642M412.33 341.37l-.146 3.236M451.39 372.51l-1.159 1.593M447.82 370.19l-.676-1.834"/></g><g stroke-width=".164"><path fill="#406325" d="M486.11 384.93c-.797-1.256-2.108-2.028-3.277-2.656-7.727-4.056-15.406-5.843-24.116-7.244-2.013-.337-4.027-2.221-6.087-3.187-4.963-2.365-10.49-3.284-15.311-5.697-.328-.146-1.545-.87-2.108-1.545-1.92-2.222-5.385-2.899-7.538-4.975-8.335-7.87-17.184-15.116-21.772-25.547-5.573-12.7-12.504-25.786-11.567-40.226.608-9.126-.75-18.35 1.497-27.043 3.325-12.894 7.587-25.64 15.406-36.314l-1.311.82c-7.867 10.675-12.127 23.423-15.452 36.316-2.248 8.692-.89 17.916-1.499 27.043-.936 14.439 5.995 27.526 11.567 40.274 4.588 10.383 13.485 17.626 21.774 25.547 2.154 2.027 5.62 2.703 7.539 4.973.562.627 1.825 1.401 2.106 1.545 4.824 2.415 10.35 3.332 15.313 5.65 2.06 1.014 4.074 2.849 6.087 3.188 8.71 1.4 16.388 3.235 24.115 7.242 1.217.628 2.482 1.401 3.279 2.657l1.357-.822"/><g fill="#67923d"><path d="M406.34 331.62c-2.794-6.3-1.365-21.608-.198-23.53 6.633 13.006 4.425 23.741.198 23.53zM452.2 377.01c-7.092.364-20.61 9.295-21.864 11.396 15.085.116 24.02-7.315 21.864-11.396zM459.66 372.72c-6.845-5.45-14.189-23.661-14.032-26.501 15.11 10.834 18.936 24.281 14.032 26.501z"/><path d="M454.61 372.78c-6.95-4.235-15.786-20.115-15.938-22.754 15.202 8.194 20.198 20.129 15.938 22.754zM439.05 366c.984-7.822-5.666-24.241-7.585-25.979-2.95 16.467 2.997 27.573 7.585 25.979zM411.74 341.72c-2.304-5.646-.613-19.321.47-20.998 5.52 11.696 3.264 21.218-.47 20.998zM398.03 264.89c3.59-6.648 18.381-15.712 20.99-15.931-6.77 14.569-18.037 19.829-20.99 15.931z"/><path d="M398.74 259.33c2.148-7.282 14.874-19.265 17.36-20.034-3.727 15.676-13.678 23.179-17.36 20.034zM426.55 358.48c-4.992-6.176-8.011-23.865-7.29-26.361 11.27 12.515 12.029 25.234 7.29 26.361zM397.9 322.02c-6.909 1.089-21.36-4.636-22.921-6.337 14.533-3.15 24.288 2.072 22.921 6.337zM395.68 312.34c.823-5.577 8.665-15.809 10.361-16.66-1.11 11.958-7.449 18.6-10.361 16.66zM447.01 370.88c-8.475.435-24.63 11.107-26.128 13.618 18.028.143 28.705-8.74 26.128-13.618z"/></g><g fill="#406325"><path d="M406.41 331.47c4.227.21 6.405-10.396-.269-23.379 1.211 12.319 1.208 22.309.269 23.379zM417.59 351.46c-4.474-5.47-19.381-11.328-21.712-11.141 8.885 12.081 19.88 15.097 21.712 11.141zM393.17 298.48c-1.147-8.043-12.334-22.713-14.743-23.969 1.517 17.175 10.548 26.697 14.743 23.969zM401.56 332.77c-4.993-3.681-18.971-5.344-20.94-4.723 10.137 8.305 20.212 8.458 20.94 4.723zM392.2 307.94c-2.885-5.69-14.812-13.482-16.892-13.701 5.517 12.387 14.558 16.939 16.892 13.701zM394.93 260.4c.905-7.573-5.533-23.446-7.345-25.158-2.866 15.925 2.918 26.664 7.345 25.158zM399.4 245.48c2.658-6.496.756-22.429-.522-24.417-6.403 13.509-3.827 24.648.522 24.417z"/><path d="M404.42 237.83c3.136-4.771 4.162-17.685 3.485-19.47-7.236 9.715-6.958 18.944-3.485 19.47zM410.37 231.69c4.402-3.477 9.224-15.501 9.084-17.433-9.74 6.954-12.221 15.841-9.084 17.433zM394.32 274.89c.108.868-.978-8.18-10.054-18.314.409 14.818 6.25 20.421 10.054 18.314zM426.88 360.67c-6.176-4.56-23.385-6.729-25.767-5.927 12.562 10.355 24.878 10.551 25.767 5.927zM438.95 365.91c-4.542 1.593-10.443-9.417-7.54-25.883 2.81 13.955 6.181 25.063 7.54 25.883zM452.25 377.06c2.116 4.082-6.7 11.436-21.787 11.315 11.952-4.89 21.239-9.861 21.787-11.315zM459.64 372.59c4.865-2.25 1.1-15.536-14.009-26.369 8.595 13.214 14.455 24.609 14.009 26.369z"/><path d="M454.57 372.67c4.278-2.666-.69-14.444-15.891-22.639 9.404 11.183 16.095 20.967 15.891 22.639zM411.78 341.68c3.735.222 5.957-9.262.477-20.924.718 10.974.418 19.978-.477 20.924zM398.02 264.94c2.951 3.897 14.055-1.31 20.837-15.923-10.165 9.338-19.225 16.064-20.837 15.923z"/><path d="M398.86 259.33c3.682 3.145 13.542-4.302 17.269-19.977-8.096 11.245-15.644 19.736-17.269 19.977zM426.58 358.42c4.74-1.125 3.954-13.784-7.254-26.272 5.013 13.416 8.016 24.756 7.254 26.272zM397.71 321.96c1.407-4.24-8.297-9.37-22.803-6.259 12.261 2.195 22.043 5.042 22.803 6.259zM395.77 312.35c2.903 1.887 9.178-4.66 10.286-16.617-4.674 9.181-9.166 16.265-10.286 16.617zM446.97 371.03c2.576 4.876-7.96 13.667-26.035 13.522 14.283-5.844 25.38-11.783 26.035-13.522z"/><path d="M399.36 326.3c-2.658-6.262-14.798-15.462-16.982-15.841 4.946 13.638 14.248 19.146 16.982 15.841z"/></g><g fill="#67923d"><path d="M392.42 273.92c4.074-4.666 17.469-9.134 19.599-8.865-8.042 10.41-17.941 12.515-19.599 8.865zM417.49 351.51c-1.807 3.918-12.696.916-21.646-11.152 10.885 6.83 20.244 11.511 21.646 11.152zM393.1 298.46c-4.195 2.727-13.128-6.738-14.685-23.884 6.623 13.203 13.037 23.384 14.685 23.884zM401.52 332.8c-.769 3.731-10.688 3.59-20.864-4.717 10.729 3.406 19.739 5.332 20.864 4.717zM392.07 307.85c-2.333 3.24-11.289-1.27-16.807-13.657 8.192 7.967 15.492 13.744 16.807 13.657zM394.83 260.3c-4.427 1.556-10.16-9.079-7.294-25.005 2.667 13.488 5.935 24.175 7.294 25.005zM399.3 245.44c-4.304.227-6.871-10.815-.468-24.322-.822 12.797-.507 23.234.468 24.322zM404.34 237.77c-3.473-.525-3.717-9.655 3.52-19.369-2.739 9.976-4.15 18.366-3.52 19.369zM410.32 231.69c-3.136-1.643-.701-10.431 9.038-17.337-5.526 8.644-9.318 16.178-9.038 17.337z"/><path d="M394.25 274.9c-3.804 2.106-9.577-3.503-9.987-18.322 5.102 11.684 8.603 17.807 9.987 18.322zM426.82 360.7c-.886 4.625-13.144 4.401-25.678-5.895 13.168 4.274 24.246 6.694 25.678 5.895zM418.65 351.22c-4.023-4.343-7.158-17.347-6.747-19.242 9.012 8.743 10.215 18.165 6.747 19.242zM401.77 326.23c-3.57-5.786-3.876-20.907-2.92-22.956 8.264 11.809 7.254 22.585 2.92 22.956zM399.14 326.32c-2.736 3.305-11.93-2.159-16.872-15.833 8.132 9.11 15.474 15.812 16.872 15.833z"/></g><g fill="#406325"><path d="M392.37 274c1.617 3.623 11.45 1.53 19.493-8.88-11.97 6.793-16.711 9.741-19.493 8.88zM401.71 326.07c4.332-.37 5.331-11.037-2.933-22.846 2.664 11.854 3.791 21.678 2.933 22.846zM418.67 351.18c3.47-1.07 2.25-10.451-6.713-19.178 4.403 9.727 7.205 18.011 6.713 19.178z"/><path d="M394.23 291.77c2.058-8.386-1.702-22.601-4.3-25.559-4.716 15.427-.245 26.599 4.3 25.559z"/></g><path fill="#67923d" d="M393.93 293.77c-5.895 1.34-8.645-12.034-4.08-27.078 1.071 13.546 2.834 26.147 4.08 27.078z"/><path fill="#67923d" d="M392.73 293.72c-.558-7.527 6.934-23.087 8.915-24.707 2.015 15.803-4.462 26.308-8.915 24.707z"/><path fill="#406325" d="M392.84 293.61c4.413 1.636 10.851-8.761 8.835-24.564-3.51 13.267-7.445 23.764-8.835 24.564z"/><path fill="#67923d" d="M394.13 303.26c.005-7.61 8.47-22.23 10.562-23.619.834 16.162-6.332 25.829-10.562 23.619z"/><path fill="#406325" d="M394.21 303.41c4.23 2.21 11.306-7.364 10.471-23.525-4.41 12.857-9.048 22.899-10.471 23.525z"/></g><g fill="#ba1f3e" stroke="#511124" stroke-width=".218"><circle cx="396.835" cy="251.27" r="1.085" stroke-width=".186"/><circle cx="405.205" cy="245.07" r="1.085" stroke-width=".186"/><circle cx="401.564" cy="241.71" r="1.086" stroke-width=".186"/><circle cx="392.503" cy="313.12" r="1.277"/><circle cx="395.033" cy="297.13" r="1.277"/><circle cx="408.213" cy="334.46" r="1.277"/><circle cx="402.393" cy="336.43" r="1.277"/><circle cx="446.703" cy="367.63" r="1.277"/><circle cx="449.613" cy="374.71" r="1.277"/></g></g><g stroke="#24420e"><g fill="none" stroke-width=".437"><path d="M561.15 258.97c.623.621 1.174.808 2.295 1.895M556.82 241.92c-.035-1.368-.633-3.605-.918-4.973M559.35 239.93c.055 1.952-.218 3.81-1.062 5.504M554.13 244.9c1.753 1.576 3.505 3.077 5.258 3.892M563.21 250.02c.105 1.98-.142 3.96-.683 5.94M562.85 257.47l1.314-2.262M562.3 267.43c1.4.291 2.81 1.946 3.505 3.482M566.28 269.62l1.639-2.185M569.63 298.16c-.748 1.304-1.581 2.435-2.458 3.483M563.21 301.57c.79 1.456 1.556 2.946 2.595 4.029M568.26 311.47c-1.307 1.773-2.766 3.165-4.438 4.029M563.96 320c-1.093.751-2.426 2.953-3.687 4.712M568.71 304.53l-2.124.869M565.19 297.91l1.256 1.11M557.15 336.41c-.84-.108-1.456.009-2.124.072M553.03 334.55l.615 1.639M545.93 341.31c-.262 1.866-.072 3.733.204 5.599M550.44 337.89l1.024 2.254M555.29 339.94l-2.526.41M521.91 365.62l-.917 1.738M532.89 363.43c-1.492.187-2.778-.043-4.097-.204M523.33 369.17a27.282 27.282 0 00-2.936-.956M505.65 370.87c-.906.773-1.99 2.435-3.073 4.097M502.03 370.4c-2.433 1.253-3.182 3.71-4.438 5.804M500.39 379.07c-1.553-.46-3.412-1.228-5.326-2.048M511.83 376.34c-2.321-1.205-4.748-1.087-7.135-1.468M515.45 374.53c-3.628-.707-7.01-.61-10.276-.137M512.95 371.79l-1.399-.58M506.02 376.71l-2.323-1.296M561.64 326.22c-1.256.816-2.51 2.283-3.766 3.863M559.7 250.46l-2.153-.724"/></g><g stroke-width=".164"><path fill="#406325" d="M474.39 384.85c.797-1.256 2.108-2.028 3.277-2.656 7.726-4.056 15.406-5.843 24.117-7.244 2.013-.337 4.027-2.221 6.087-3.187 4.963-2.365 10.489-3.284 15.311-5.697.328-.146 1.545-.87 2.108-1.545 1.92-2.222 5.385-2.899 7.539-4.975 8.334-7.87 17.184-15.116 21.772-25.546 5.572-12.7 12.503-25.787 11.567-40.225-.609-9.126.75-18.35-1.498-27.043-3.326-12.893-7.589-25.643-15.408-36.314l1.311.82c7.867 10.675 12.127 23.424 15.452 36.315 2.248 8.692.89 17.916 1.499 27.043.936 14.439-5.995 27.526-11.566 40.275-4.589 10.383-13.486 17.626-21.774 25.546-2.154 2.027-5.62 2.703-7.54 4.973-.561.627-1.825 1.401-2.106 1.545-4.823 2.415-10.349 3.332-15.313 5.65-2.06 1.014-4.073 2.849-6.087 3.188-8.709 1.4-16.388 3.235-24.113 7.242-1.217.628-2.482 1.401-3.278 2.657l-1.358-.822"/><g fill="#406325"><path d="M553.65 334.6c2.741-7.416-.009-24.838-1.49-26.951-6.648 15.372-3.34 27.502 1.49 26.951z"/><path d="M546.54 341.64c2.304-5.646.613-19.321-.47-20.998-5.52 11.696-3.265 21.218.47 20.998zM563.35 267.49c-3.293-6.1-16.867-14.418-19.261-14.618 6.213 13.368 16.552 18.195 19.261 14.618z"/><path d="M561.76 259.47c-1.79-6.068-12.395-16.053-14.466-16.694 3.105 13.063 11.398 19.315 14.466 16.694zM566.5 274.43c-3.537-4.05-15.164-7.928-17.013-7.695 6.98 9.036 15.572 10.864 17.013 7.695zM563.7 320.76c6.132.966 18.959-4.115 20.345-5.625-12.9-2.797-21.559 1.84-20.345 5.625zM563.55 315.12c-.043-5.638-6.395-16.856-7.956-17.933-.556 11.996 4.803 19.453 7.956 17.933z"/><path d="M563.96 301.44c-.005-7.61-8.47-22.23-10.562-23.619-.834 16.161 6.332 25.828 10.562 23.619zM511.07 376.71c4.477 5.503 19.653 11.133 22.088 10.904-8.805-12.233-20.07-15.05-22.088-10.904z"/></g><g fill="#67923d"><path d="M553.56 334.43c-4.824.55-8.09-11.437-1.395-26.785-.49 14.192.239 25.629 1.395 26.785zM500.19 378.09c7.093.363 20.61 9.295 21.865 11.396-15.086.117-24.021-7.315-21.865-11.396zM500.19 370.15c2.098-7.967 15.006-21.21 17.514-22.151-3.603 17.134-13.74 25.535-17.514 22.151zM521.46 365.92c-.985-7.822 5.665-24.24 7.585-25.979 2.95 16.466-2.997 27.574-7.585 25.979zM542.92 351.38c4.474-5.47 19.381-11.328 21.712-11.141-8.885 12.081-19.88 15.097-21.712 11.141zM568.71 298.12c.903-6.332 9.71-17.881 11.606-18.87-1.194 13.521-8.304 21.018-11.606 18.87z"/><path d="M557.02 336.18c5.817-4.29 22.105-6.228 24.399-5.504-11.813 9.676-23.552 9.855-24.399 5.504zM567.29 311.66c3.033-5.98 15.566-14.169 17.754-14.399-5.8 13.019-15.301 17.802-17.754 14.399zM565.81 266.1c-.098-7.625 7.984-22.728 9.966-24.24 1.165 16.139-5.723 26.206-9.965 24.24zM558.88 240.18c-2.322-5.28-1.101-18.414-.093-20.074 5.55 10.963 3.672 20.17.093 20.074zM554.65 238c-5.274-4.683-10.645-19.756-10.411-22.103 11.751 9.263 14.386 20.361 10.411 22.103z"/><path d="M566.28 272.54c-.317.815 2.945-7.695 14.219-15.308-4.012 14.271-11.044 18.279-14.219 15.308zM532.18 362.44c7.006-5.173 26.532-7.634 29.232-6.724-14.253 11.748-28.225 11.97-29.232 6.724zM546.51 341.6c-3.735.222-5.957-9.262-.477-20.924-.719 10.974-.418 19.978.477 20.924zM563.36 267.53c-2.708 3.576-12.897-1.202-19.121-14.611 9.328 8.57 17.642 14.742 19.121 14.611zM561.66 259.47c-3.068 2.62-11.285-3.583-14.391-16.646 6.746 9.37 13.036 16.446 14.391 16.646zM566.55 274.5c-1.405 3.145-9.94 1.328-16.92-7.708 10.389 5.896 14.505 8.455 16.92 7.708zM563.86 320.71c-1.25-3.764 7.365-8.317 20.241-5.556-10.884 1.949-19.567 4.477-20.241 5.556zM563.46 315.11c-3.136 1.467-8.445-5.885-7.888-17.881 3.36 9.74 6.828 17.376 7.888 17.881z"/><path d="M563.88 301.59c-4.23 2.21-11.305-7.364-10.471-23.525 4.41 12.857 9.048 22.898 10.471 23.525zM511.19 376.66c2.018-4.146 13.15-1.378 21.976 10.888-10.995-6.75-20.482-11.305-21.976-10.888z"/></g><g fill="#406325"><path d="M521.55 365.83c4.542 1.593 10.443-9.417 7.54-25.883-2.81 13.955-6.181 25.064-7.54 25.883z"/><path d="M531.83 360.59c4.339-6.65 5.55-24.554 4.579-26.967-9.943 13.594-9.409 26.324-4.579 26.967zM500.14 378.13c-2.116 4.081 6.7 11.436 21.787 11.315-11.951-4.89-21.238-9.86-21.787-11.315zM500.3 370.08c3.785 3.338 13.808-4.948 17.409-22.083-8.127 12.423-15.723 21.799-17.409 22.083zM543.01 351.43c1.807 3.918 12.696.916 21.646-11.152-10.885 6.83-20.244 11.512-21.646 11.152zM568.76 298.1c3.303 2.147 10.335-5.303 11.561-18.803-5.214 10.395-10.263 18.409-11.561 18.803zM557.07 336.21c.895 4.348 12.454 4.183 24.312-5.496-12.502 3.97-23.001 6.214-24.312 5.496zM567.43 311.57c2.453 3.405 11.865-1.334 17.664-14.352-8.61 8.373-16.281 14.445-17.664 14.352zM565.92 266.01c4.238 2.016 11.064-7.952 9.899-24.093-4.08 13.13-8.46 23.412-9.899 24.093zM558.96 240.14c3.542.093 5.415-9.033-.134-19.995.95 10.498.913 19.08.134 19.995zM554.73 237.9c3.972-1.742 1.33-12.711-10.422-21.972 6.472 11.02 10.853 20.573 10.422 21.972zM566.34 272.57c3.175 2.97 10.143-1.06 14.155-15.33-7.798 10.084-12.688 15.169-14.155 15.33zM532.25 362.48c1.005 5.247 14.913 4.994 29.132-6.688-14.94 4.85-27.508 7.595-29.132 6.688z"/><path d="M539.14 354.75c3.272-4.934 4.274-18.274 3.564-20.077-7.488 10.079-7.16 19.572-3.564 20.077zM558.74 326.14c3.57-5.786 3.876-20.908 2.92-22.957-8.264 11.81-7.255 22.586-2.92 22.957z"/></g><g fill="#67923d"><path d="M531.79 360.54c-4.83-.638-5.331-13.312 4.552-26.873-3.626 13.856-5.464 25.442-4.552 26.873zM566.95 292.21c-.943-7.765 3.976-20.143 6.632-22.522 2.573 14.385-2.66 23.949-6.632 22.522zM539.11 354.7c-3.597-.499-3.901-9.954 3.54-20.007-2.78 10.308-4.213 18.935-3.54 20.007zM562.47 250.46c-2.167-5.881.03-20.041 1.236-21.774 5.289 12.257 2.638 22.116-1.236 21.774zM504.39 370.61c2.474-8.091 16.191-21.081 18.807-21.915-4.335 17.421-15.065 25.529-18.807 21.915zM558.92 329.02c2.658-6.262 14.798-15.462 16.981-15.841-4.945 13.638-14.248 19.146-16.981 15.841zM558.8 325.99c-4.333-.37-5.331-11.037 2.933-22.846-2.664 11.854-3.791 21.678-2.933 22.846z"/></g><path fill="#406325" d="M567 294.04c5.158 1.842 9.078-9.89 6.598-23.914-2.428 12.067-5.377 23.211-6.598 23.914z"/><path fill="#406325" d="M567.77 293.64c.557-7.527-6.935-23.086-8.915-24.707-2.015 15.803 4.463 26.309 8.915 24.707zM562.55 250.42c3.834.337 6.473-9.435 1.187-21.69.33 11.446-.283 20.75-1.187 21.69zM504.5 370.53c3.787 3.62 14.369-4.417 18.704-21.838-8.839 12.353-16.968 21.612-18.704 21.838zM559.14 329.04c2.735 3.305 11.93-2.158 16.872-15.833-8.133 9.111-15.474 15.812-16.872 15.833z"/><path fill="#67923d" d="M567.66 293.53c-4.413 1.636-10.851-8.761-8.835-24.563 3.51 13.267 7.445 23.763 8.835 24.563z"/></g><g fill="#ba1f3e" stroke="#511124" stroke-width=".218"><circle cx="564.625" cy="254.9" r="1.085"/><circle cx="568.415" cy="266.82" r="1.085"/><circle cx="569.757" cy="304.3" r="1.277"/><circle cx="564.647" cy="297.29" r="1.277"/><circle cx="549.907" cy="337.17" r="1.277"/><circle cx="556.197" cy="339.9" r="1.277"/><circle cx="513.797" cy="372.26" r="1.277"/><circle cx="506.797" cy="377.29" r="1.277"/><circle cx="557.054" cy="249.25" r="1.084"/></g></g><g id="b" fill="#8c959d" stroke="#485654" stroke-width=".109"><path d="M434.25 336.27c-.134 1.066.842 2.339 2.128 2.07.386-.079.624-.581.132-.49-.425.108-.88-.07-1.202-.374a1.677 1.677 0 0 1-.396-1.919l-.66.712h-.002z"/><path stroke="none" d="M437.24 338.34c-1.016 1.165-2.568 1.676-3.427.834-.573-.565-.777-1.205-.468-1.912-.443.482-.822.897-1.121 1.231.047.09.715 1.309 1.708 1.758 1.223.551 2.972-.28 4.018-1.564.738-.909 1.561-2.428.967-3.609-.365-.729-1.239-1.424-1.967-1.7-.351.376-.695.748-1.027 1.102.51-.24 1.148-.135 1.695.312 1.274 1.035.537 2.5-.378 3.546v.002z"/><path fill="#485654" stroke="none" d="M437.24 338.34a4.006 4.006 0 0 1-1.162.956c-.444.235-.957.39-1.473.318a1.48 1.48 0 0 1-.711-.296 2.364 2.364 0 0 1-.51-.58 1.61 1.61 0 0 1-.247-.737 1.664 1.664 0 0 1 .14-.768l.123.08-1.11 1.239.013-.1c.276.48.624.938 1.042 1.3.21.18.442.336.694.437.25.1.524.141.797.134.549-.016 1.088-.206 1.573-.477a5.1 5.1 0 0 0 1.298-1.042c.371-.417.69-.887.935-1.388.24-.5.41-1.049.374-1.595a1.833 1.833 0 0 0-.224-.775 3.063 3.063 0 0 0-.5-.655 4.185 4.185 0 0 0-1.371-.933l.092-.022-1.035 1.093-.085-.116c.236-.107.5-.145.754-.118.254.03.498.117.715.245.427.257.798.65.925 1.145.13.494.002 1.008-.208 1.448-.213.446-.51.842-.838 1.205v.002zm0-.002c.314-.375.595-.78.794-1.225.196-.44.302-.942.167-1.404-.132-.46-.493-.826-.9-1.063-.408-.238-.925-.305-1.346-.1l-.084-.117 1.017-1.109.039-.042.054.021c.55.21 1.033.55 1.446.96.204.208.39.436.536.697.146.257.23.557.251.852.042.598-.139 1.177-.384 1.699a6.391 6.391 0 0 1-.962 1.442c-.39.432-.849.8-1.358 1.08-.51.28-1.076.48-1.67.494a2.202 2.202 0 0 1-.876-.153 2.734 2.734 0 0 1-.744-.473 4.999 4.999 0 0 1-1.073-1.363l-.03-.054.042-.046 1.132-1.221.123.08c-.1.22-.155.46-.142.7.012.239.093.473.217.681.125.207.289.403.473.557.187.154.416.253.657.294.487.082.992-.053 1.436-.273.446-.225.846-.541 1.185-.912z"/><path fill="#6c301e" stroke="#351710" stroke-linejoin="round" stroke-width=".218" d="M515.24 249.25l-40.137 39.515c-3.053 3.032-37.963 36.379-41.105 39.384-1.103 1.323-4.233 4.858-4.561 5.353-2.13 2.31-4.439 5.33-7.197 8.03-.491.619-1.142.394-1.734.737-1.814 1.05-3.697 2.87-5.053 4.37l-12.208 13.506c-.786.854-.996 1.38-.464 1.871l6.623 8.85c1.229 1.213 2.644 1.837 3.195.818 3.147-5.446 10.962-13.759 13.915-20.334 1.764-3.929 3.978-11.058 5.558-12.782 1.939-2.157 7.17-7.73 11.806-12.705.314-.335.624-.668.93-.997l.947-1.019c23.506-23.95 50.715-53.046 70.526-73.558-.778-.775-.286-.311-1.042-1.04z"/><path d="M431.89 328.11c-1.225.043-2.022-.707-2.848-1.4 1.169.346 2.345.797 3.452.338l-.604 1.062z"/><path fill="#b2b6ba" stroke-width=".218" d="M557.05 220.1l-31.804 26.219c-.306.374-.624.267-.929 0l-2.895-2.417c.004-.037.014-.073.014-.11 0-.162-.032-.318-.082-.464l1.42-1.447c.177-.22.12-.31-.123-.546-.183-.191-.343-.365-.587-.601-.228-.176-.416-.036-.642.177l-1.434 1.475c-.734.03-1.331.63-1.352 1.366-19.238 18.73-35.794 35.435-54.938 53.872l-22.573 21.549c-.806 1.043-4.29 2.907-6.596 4.41-.817.533-1.523 1.017-1.816 1.544l-1.844 5.435c-.582 1.194-2.43 4.003-2.513 4.193 2.369 2.386 2.248 2.212 3.865 3.728 1.818-2.023 6.69-7.112 11.116-11.853.357-.382.379-.422.833-.97-.346-.488-.927-1.205-1.393-1.652a34.105 34.105 0 0 0-1.201-1.093c-.245-.212-.468-.391-.628-.546-.163-.156.24-.444.423-.642 26.464-25.58 54.962-53.695 78.276-76.595a1.41 1.41 0 0 0 1.025-.096l2.785 3.21c.655.652 1.209.639 1.735.395l31.859-28.542z"/><path fill="#485654" stroke="none" d="M430.95 330.39c.201.029.405.048.606.031a1.5 1.5 0 0 0 .574-.162l-.017.02c.229-.797.472-1.588.715-2.38.247-.79.497-1.579.759-2.365l.006.027c-.195-.223-.436-.421-.731-.496.3.057.559.244.77.46l.012.01-.005.016c-.228.797-.467 1.589-.709 2.38-.247.791-.493 1.58-.754 2.367l-.005.014-.012.006a1.407 1.407 0 0 1-.601.14 2.87 2.87 0 0 1-.609-.068z"/><circle cx="438.179" cy="328.135" r=".619" fill="none" stroke-width=".164"/><circle cx="434.436" cy="331.878" r=".619" fill="none" stroke-width=".164"/><path fill="#485654" stroke="none" d="M440.97 322.38c-.319-.24-.615-.505-.906-.775a11.581 11.581 0 0 1-.832-.854c.319.24.615.505.906.775.288.273.571.551.832.854z"/><path d="M502.17 259.06l3.487 3.41.645-.586-3.487-3.41-.645.586z"/></g><use transform="scale(-1 1) rotate(-2.841 -9.258 19640.241)" xlink:href="#b"/><g stroke="#24420e" stroke-width=".164"><path fill="#67923d" d="M433.91 365.36c-7.866-3.321-26.89-.67-29.219.932 16.285 8.011 29.54 4.574 29.219-.932zM522.93 368.68c7.866-3.32 26.89-.67 29.219.933-16.285 7.982-29.54 4.573-29.219-.933z"/><path fill="#406325" d="M433.76 365.48c.32 5.506-12.789 8.885-29.075.903 15.295.932 27.793.378 29.075-.903zM523.08 368.77c-.32 5.506 12.789 8.885 29.075.903-15.295.933-27.793.408-29.075-.903z"/></g><g id="c"><path fill="#b2b6ba" stroke="#485654" stroke-width=".218" d="M508.49 359.99c-20.733-30.119-51.995-54.611-76.102-67.991 3.557-.166 11.46 3.88 14.67 5.949 23.94 15.427 44.3 35.803 65.664 59.822-1.258 1.245-2.082 1.98-3.446 3.051l-.786-.83z"/><path fill="#8c959d" d="M510.55 359.75l-1.45 1.394c-23.01-29.62-55.094-57.945-76.669-69.13 30.08 13.855 55.391 41.77 78.033 67.65l.085.085z"/><path fill="#485654" d="M510.56 359.75l-1.448 1.397-.004.003-.003-.004c-5.325-6.824-10.975-13.39-16.864-19.73a336.016 336.016 0 0 0-18.367-18.337c-6.36-5.868-12.943-11.495-19.81-16.76a195.858 195.858 0 0 0-10.542-7.563c-3.601-2.393-7.297-4.652-11.133-6.644l.095-.196c7.892 3.644 15.34 8.195 22.375 13.281 7.039 5.09 13.677 10.715 20.03 16.631 6.351 5.92 12.421 12.135 18.327 18.497 5.902 6.367 11.63 12.892 17.343 19.425zc-5.74-6.51-11.494-13.012-17.42-19.353-5.916-6.35-11.991-12.556-18.349-18.463-6.357-5.904-12.999-11.515-20.037-16.591-7.036-5.07-14.478-9.604-22.36-13.229l.096-.196c3.845 2 7.541 4.27 11.144 6.67a196.153 196.153 0 0 1 10.542 7.586c6.864 5.278 13.444 10.918 19.798 16.798a336.06 336.06 0 0 1 18.35 18.369c5.867 6.364 11.489 12.957 16.789 19.8h-.006l1.453-1.39z"/><g fill="#fab81c" stroke="#6c301e" stroke-width=".109"><path stroke-width=".218" d="M517.5 355.07c-1.974.511-3.726 1.253-5.258 2.226-.228 1.397-1.953 2.957-3.587 3.311-.297-.378-.367-.488-.592-.771a.129.129 0 0 0-.169-.038c-.142.076-.332.18-.573.34-.61-.103-1.337.197-1.66.975-.378.97.385 2.248 1.224 3.084.924.73 1.387 1.07 2.458.92 1.083-.224 1.68-1.213 1.925-1.528 3.72 4.503 6.517 6.933 11.23 10.64 2.098.017 3.224-1.306 2.52-2.802-.233-.502-.841-.836-1.333-.652.041-.151.024-.305 0-.451 2.463-2.264 3.514-5.088.915-9.873-2.224-4.03-4.712-5.397-7.088-5.38l-.012-.001zm6.246 4.53c.438.742.692 1.38 1.024 2.054 1.483 2.999.196 6.602-2.334 7.706-.123-.005-.085-.021-.213.022.413-.687-.827-2.154-1.46-1.639.299-.759-.67-2.019-1.462-1.694.414-.705-.533-1.905-1.42-1.515.458-.767-.324-1.866-1.243-1.666.277-.818-.418-1.753-1.352-1.598.079-.723-.157-1.12-.507-1.45 1.112-.846 2.347-2.15 3.438-2.738 2.721-1.178 4.403 1.073 5.527 2.518h0v0h.001z"/><path d="M524.89 362.77c-.515-.253-.756-.76-.587-1.105.169-.342.702-.432 1.217-.178.516.254.802.744.633 1.088-.172.343-.747.45-1.264.196v-.001z"/><path d="M524.59 361.75c-.515-.253-.756-.76-.587-1.105.169-.342.702-.432 1.218-.177.515.253.801.744.632 1.088-.172.343-.747.45-1.263.195v-.001z"/><path d="M523.97 360.62c-.515-.253-.756-.76-.587-1.105.168-.342.701-.433 1.217-.178.516.254.802.744.633 1.088-.172.343-.748.45-1.264.196v-.001z"/><path d="M523.19 359.6c-.516-.253-.756-.76-.587-1.105.169-.342.701-.432 1.217-.178.516.253.802.744.633 1.088-.172.343-.748.45-1.263.196v-.001z"/><path d="M522.16 358.61c-.515-.253-.756-.76-.587-1.105.023-.046.007-.136.055-.114.21.108.644.187.597-.137-.065-.113-.146-.227-.07-.142.149.004.464.134.636.222.516.253.802.744.633 1.088-.172.343-.747.45-1.264.195v-.007z"/></g><g fill="#fab81c"><path d="M511.27 363.6c.682-1.774 2.047-3.414 3.508-3.806M511.5 363.85c1.263.262 3.309-1.243 3.806-2.588M512.69 365.3c1.656.381 3.291-1.218 3.934-2.409M514.18 366.88c1.957.064 3.164-1.326 3.739-2.39M515.69 368.41c1.661.011 3.172-1.36 3.646-2.424M517.15 369.81c1.808-.073 3.084-.895 3.62-2.075M518.79 371.23c1.661.096 3.003-.896 3.443-1.862M520.57 372.68c1.661.096 2.695-.93 3.136-1.897"/></g><g fill="#6c301e"><path d="M511.27 363.6c.14-.423.326-.833.544-1.224.219-.39.478-.76.765-1.105.294-.339.617-.655.985-.915.367-.26.776-.467 1.214-.562-.424.14-.813.361-1.164.63-.35.268-.669.578-.952.917-.577.673-1.028 1.446-1.392 2.259zM511.5 363.85c.405.057.809-.045 1.18-.193a4.879 4.879 0 001.048-.592c.328-.233.63-.505.901-.802.27-.298.512-.628.677-1-.123.39-.351.74-.613 1.055-.264.315-.572.59-.901.835a4.573 4.573 0 01-1.083.582c-.384.136-.81.218-1.209.115zM512.69 365.3c.405.071.818.035 1.204-.086.385-.12.747-.311 1.076-.548.333-.23.634-.506.911-.804.278-.298.527-.623.743-.971a4.681 4.681 0 01-.68 1.027 5.204 5.204 0 01-.911.837c-.341.234-.714.432-1.116.539a2.276 2.276 0 01-1.227.006zM514.18 366.88c.39-.013.778-.065 1.146-.183a3.833 3.833 0 001.033-.507c.321-.214.606-.477.866-.764.26-.287.487-.605.694-.936a4.552 4.552 0 01-1.498 1.79c-.328.22-.69.395-1.07.497-.383.104-.782.136-1.17.103zM515.69 368.41c.767-.042 1.493-.332 2.113-.765.314-.212.6-.463.86-.739.261-.276.493-.58.672-.92a3.376 3.376 0 01-.609.976 4.764 4.764 0 01-.861.773 4.252 4.252 0 01-1.036.517c-.368.12-.756.183-1.139.158zM517.15 369.81a7.09 7.09 0 001.078-.187c.35-.093.695-.216 1.013-.388.322-.164.618-.378.878-.63a3.51 3.51 0 00.651-.87 2.886 2.886 0 01-.591.93c-.255.27-.561.49-.888.667a4.51 4.51 0 01-2.141.478zM518.79 371.23c.345-.004.687-.04 1.02-.12a4 4 0 00.952-.36c.303-.155.583-.353.834-.583s.47-.496.636-.8a2.524 2.524 0 01-.578.861 3.576 3.576 0 01-.842.619 3.715 3.715 0 01-.986.344c-.342.065-.693.08-1.036.039zM520.57 372.68c.326-.005.65-.036.96-.12a3.305 3.305 0 001.617-.986 4.03 4.03 0 00.56-.79 3.056 3.056 0 01-1.24 1.495c-.284.17-.594.297-.918.363a3.018 3.018 0 01-.979.038z"/></g></g><use transform="scale(-1 1) rotate(-3.408 -13.797 16470.838)" xlink:href="#c"/><g stroke="#24420e" stroke-width=".164"><path fill="#406325" d="M409.24 240.02c7.21-2.367 18.73-15.453 19.478-17.917-15.593 4.154-22.757 14.343-19.478 17.917zM554.98 244.72c-1.702-7.045-13.279-19.011-15.568-19.911 2.763 15.161 11.916 22.759 15.568 19.911z"/><path fill="#67923d" d="M409.24 240.02c-3.325-3.574 3.792-13.666 19.339-17.82-10.957 8.403-19.199 16.178-19.339 17.82zM554.98 244.72c-3.656 2.892-12.72-4.654-15.486-19.77 7.163 11.072 13.934 19.511 15.486 19.77z"/></g><g stroke="#999270" stroke-width=".164"><path fill="url(#d)" d="M452.21 318.1s-6.158.662-7.884-7.833c-1.846-9.087 5.306-10.052 5.306-10.052s8.103-.781 13.15-.91l2.24 17.954-12.812.841z"/><path fill="url(#e)" d="M453.02 315.36s-3.985.762-4.807-5.553c-.583-4.473 2.185-5.108 2.185-5.108l9.236 1.564.05 8.241-6.664.856z"/><path fill="url(#f)" d="M450.4 304.7s5.905-.43 8.989-.83l1.28 5.711-7.1.445s-.488-5.155-3.169-5.326z"/><path fill="url(#g)" d="M449.16 300.36s7.575-1.857 8.517 6.489c.245 2.181-.942 7.167-4.656 8.514l13.874-1.456-1.256-15.007-4.674.39s-9.923.341-11.805 1.07z"/><path fill="#f9f0aa" d="M452.2 318.1c.047 0 51.903-3.491 57.217-3.274 15.743-8.638-.076-42.559-13.342-61.532 1.515-4.276-29.858-13.892-44.047-13.024-1.782.11-3.505.227-5.154.354-7.696.816-7.775 10.694-4.637 16.923 3.045 6.043 30.315 55.126 11.14 60.317l-1.176.236z"/><path fill="url(#h)" d="M507.79 273.34c-3.52-7.304-7.734-14.349-11.718-20.046 1.514-4.276-29.859-13.892-44.047-13.024-1.782.109-3.505.227-5.154.354-7.696.816-7.775 10.694-4.637 16.923.956 1.898 4.301 8.04 7.847 15.733"/><path fill="url(#i)" d="M455.04 284.95c5.555 14.65 8.664 30.117-1.641 32.907l-1.177.236c.047 0 51.903-3.491 57.216-3.274 8.538-4.684 7.793-16.804 3.207-29.943"/><path fill="url(#j)" d="M447.4 243.49c-3.705 0-4.656 3.562-4.605 5.817.134 5.909 4.605 6.192 4.605 6.192l5.965-.332 2.857-12.163-8.822.486z"/><path fill="url(#k)" d="M447.4 243.53l8.822-.486.908 9.086-7.696.337s2.491-7.274-2.034-8.937z"/><path fill="url(#l)" d="M496.12 253.29c6.686-1.074 6.595-10.069 2.026-13.673-15.498-.57-35.895-.143-50.63.96 1.676-.049 6.337.376 6.855 6.51.242 2.863-1.165 5.492-3.06 6.986-1.854 1.462-3.906 1.462-3.906 1.462.247.095 2.162.007 3.598-.087.739-.048 2.552-.264 3.055-.33 21.012-2.762 41.987-1.823 41.987-1.823l.08.003-.005-.008z"/><g fill="#b07e09" stroke="none"><path d="M458.47 267.42c-.143-.331-.323-.749-.73-.805-.249.014-.645-.052-.567-.392.235-.113.533-.041.794-.065.561.01 1.113-.114 1.671-.148.337.092.261.537-.105.463-.408.093-.175.563-.075.81.444 1.034.872 2.075 1.328 3.104.127.303.38.571.722.605.362.036.756.045 1.09-.116.311-.2.242-.624.2-.937-.124-.363.54-.281.495.044.13.43.28.854.447 1.269-.022.2-.275.144-.42.169-.993.076-1.988.131-2.979.223-.318-.017-.796.28-.99-.096-.12-.386.51-.17.595-.463-.003-.327-.195-.615-.307-.916l-1.17-2.75zM463.3 267.08c-.14-.32-.302-.72-.687-.796-.247-.022-.653-.017-.616-.374.157-.162.457-.058.67-.092.592.02 1.175-.09 1.76-.144.291-.027.399.518.026.444-.358.012-.383.405-.233.651.47 1.142.959 2.277 1.437 3.415.105.245.24.548.54.586.252.05.648-.029.705.316-.04.267-.434.119-.63.16-.522-.036-1.042.032-1.556.12-.226.064-.55.027-.559-.27.053-.273.584-.069.61-.402-.04-.326-.216-.615-.33-.92-.38-.898-.76-1.797-1.137-2.694zM467.76 267.79c.09.227.404.064.586.075.263-.025.543-.215.519-.509-.043-.45-.264-.908-.632-1.183-.341-.24-.78-.213-1.172-.162-.023.155.098.304.145.453l.554 1.326zm.668 1.596c.164.35.28.745.565 1.017.244.172.569.093.843.066.302-.02.48-.331.386-.609-.142-.635-.554-1.3-1.238-1.437a2.431 2.431 0 00-.915 0c-.024.143.091.288.135.429l.224.534zm-2.034-2.371c-.158-.348-.31-.768-.688-.926-.245-.081-.643.03-.696-.323.065-.303.562-.09.801-.16.864-.022 1.743-.263 2.594-.003.734.182 1.391.81 1.45 1.587.024.377-.262.684-.582.837-.04-.135.367.061.506.082.583.187 1.12.576 1.378 1.144.201.398.357.93.04 1.314-.362.396-.94.413-1.438.438-.75.02-1.505.025-2.244.172-.267.047-.458-.482-.09-.449.37-.013.404-.413.244-.668l-1.275-3.046zM473.81 265.11c.327-.054.358.316.458.532.098.284.276.542.348.831-.277.276-.501-.145-.624-.36-.144-.247-.383-.475-.69-.45a8.31 8.31 0 00-1.219.072c-.144.158.065.393.113.576.189.446.36.901.561 1.34.27-.022.62.015.814-.208.075-.229-.27-.747.21-.64.297.17.263.602.415.882.127.388.384.724.492 1.115-.263.289-.524-.13-.62-.363-.187-.347-.624-.306-.959-.296-.24-.05-.075.171-.04.283.215.493.383 1.01.659 1.475.207.343.65.292.993.28.328-.018.733-.025.926-.338.216-.252-.274-.752.132-.831.347-.03.337.376.429.607.073.281.185.551.284.823-.026.199-.277.14-.423.163-1.02.065-2.041.109-3.06.19-.3.001-.804.24-.9-.198.025-.287.645-.135.553-.544-.073-.347-.249-.662-.373-.994-.376-.896-.731-1.801-1.122-2.691-.141-.296-.368-.62-.73-.629-.239.047-.602-.129-.463-.407.347-.067.712-.02 1.065-.056l2.77-.164zM476.12 266.43c-.154-.348-.302-.769-.679-.93-.257-.076-.726.014-.697-.394.247-.19.66-.031.969-.09.8-.01 1.62-.237 2.407 0 .825.23 1.515.973 1.573 1.842.027.416-.307.753-.685.864-.296.015.229.1.31.196.632.304 1.069.877 1.406 1.474.075.225.519.696.586.246-.027-.49.638-.075.488.264.002.356-.352.587-.682.583-.464.036-.904-.232-1.138-.624-.421-.554-.708-1.224-1.265-1.663-.23-.166-.559-.27-.83-.152-.058.14.069.28.105.416.18.409.305.845.547 1.223.2.309.593.358.93.356.36.089.26.575-.123.432-.585 0-1.175-.044-1.753.077-.269.126-.865.01-.65-.37.284-.017.676-.173.48-.525-.33-.872-.698-1.73-1.044-2.598l-.255-.627zm1.404.893c.134.326.595.145.861.114.358-.079.348-.508.234-.777-.163-.47-.373-1.03-.89-1.195-.262-.035-.845-.202-.885.152.189.535.423 1.054.63 1.583l.05.123zM484.74 269.04c.11.26.213.61.538.656.255.059.665-.024.717.33-.05.265-.44.105-.636.143-.538-.05-1.076.012-1.608.084-.231.07-.551-.03-.519-.32.125-.209.648-.037.62-.402-.086-.4-.276-.768-.416-1.151-.383-.962-.762-1.925-1.148-2.885-.095-.305-.443-.297-.702-.28-.274.002-.683.061-.684.416-.087.23.218.616-.044.735-.301.064-.362-.275-.426-.487-.098-.321-.26-.618-.385-.926.036-.214.32-.176.493-.194 1.377-.057 2.754-.12 4.131-.173.303-.047.503.191.518.477.108.336.27.653.414.974-.114.33-.508.047-.554-.196-.199-.348-.51-.692-.939-.71-.257.012-.642-.086-.815.145.007.24.145.453.22.678l1.225 3.086zM488.47 268.13c-.192.001-.097.242-.118.367.012.282-.017.569.03.848.132.31.527.234.784.318.23.131.173.502-.136.388-.422-.026-.85-.069-1.267.033-.249.133-.713-.123-.493-.392.201-.034.448-.1.494-.334.072-.414.034-.838.048-1.256l.022-3.714c.12-.279.514-.044.603.166 1.192 1.516 2.369 3.045 3.593 4.535.192.233.462.4.768.418.26.002.402.531.027.426-.51-.028-1.026-.062-1.535.023-.228.006-.492.112-.696-.022-.243-.178-.07-.435.196-.403.352-.1-.005-.477-.117-.653-.19-.255-.379-.513-.59-.752-.17-.084-.373-.022-.558-.031-.351.012-.706.022-1.055.035zm1.173-.512c.182.012-.057-.155-.087-.235l-1.273-1.663c.084-.013.017.175.039.255-.002.562.004 1.123-.002 1.684.44-.01.884-.026 1.324-.04zM492.7 265.77c-.15-.398-.35-.887-.818-.981-.243.044-.702-.177-.452-.439.55-.008 1.103.03 1.653-.017.698-.06 1.416-.042 2.08.205 1.46.492 2.672 1.778 2.914 3.321.107.605-.079 1.303-.625 1.641-.735.467-1.642.38-2.47.334-.47-.023-.938.04-1.404.086-.304-.042-.337-.513.023-.457.372-.012.365-.422.228-.668l-1.129-3.025zm1.97 2.494c.149.34.24.755.563.976.302.143.657.116.981.08.44-.06.713-.493.717-.911.027-.754-.282-1.474-.632-2.125-.374-.7-1.055-1.233-1.844-1.372-.324-.053-.665-.103-.99-.05-.071.124.059.273.086.402l1.119 3zM473.56 280.68c.116.35.44.6.805.634.257.045.7-.016.713.354-.138.234-.53.071-.769.122a8.628 8.628 0 00-1.55.093c-.277.011-.567.125-.838.048-.244-.116-.194-.47.107-.426.247-.058.604-.135.622-.449-.023-.285-.182-.535-.278-.8-.385-.916-.76-1.837-1.152-2.75-.086-.325-.446-.334-.715-.284-.248.047-.616.124-.677-.22.03-.292.497-.238.703-.39.311-.121.62-.256.938-.356.216-.047.325.15.38.321l1.711 4.103zM474.31 276.17c.682-.026 1.367.077 2.046.002.3-.029.095-.497.384-.47.371.017.311.477.335.739a.518.518 0 01-.57.583c-.533.029-1.065-.05-1.598-.021.121.412.288.81.445 1.209.027-.134.46-.155.639-.18 1.064-.048 2.167.56 2.613 1.543.215.477.328 1.1-.028 1.54-.387.456-1.03.55-1.596.554-.49-.006-1.064-.112-1.353-.549-.167-.215-.138-.68.221-.641.305.004.66.264.61.596.162.222.524.144.775.14.299-.011.584-.242.569-.559.007-.486-.185-.962-.454-1.36-.292-.422-.783-.707-1.303-.695-.293-.05-.547.147-.827.146-.284-.037-.334-.366-.435-.58a23.87 23.87 0 01-.65-1.818c-.019-.106.076-.192.177-.179zM481.16 277.19c-.16-.395-.37-.882-.841-.968-.242.057-.704-.17-.462-.43.557-.022 1.117 0 1.673-.067.704-.085 1.432-.07 2.105.176 1.486.493 2.71 1.818 2.934 3.387.089.584-.114 1.238-.632 1.563-.718.466-1.608.397-2.424.377-.453-.005-.9.07-1.347.128-.301-.034-.353-.503.008-.46.373-.028.343-.441.202-.683-.405-1.007-.81-2.017-1.216-3.023zm2.03 2.46c.159.34.26.754.59.97.302.136.654.098.973.053.44-.075.687-.524.678-.941.003-.761-.325-1.48-.694-2.128-.39-.69-1.078-1.214-1.87-1.333-.322-.044-.66-.084-.98-.02-.066.126.067.272.098.402l1.206 2.998zM489.63 275.39c.312-.053.353.293.437.504.101.284.245.55.346.832-.19.311-.507-.057-.588-.283-.145-.247-.356-.519-.674-.512a9.647 9.647 0 00-1.235.035c-.225.1.016.389.054.566.183.452.346.913.543 1.358.265-.009.573.012.798-.152.175-.212-.268-.736.212-.68.327.12.277.569.416.838.124.397.355.748.49 1.14-.175.331-.543-.055-.593-.302-.141-.32-.52-.362-.828-.35-.205-.036-.37.01-.226.215.215.516.38 1.055.655 1.542.204.347.65.302.995.298.33-.012.736-.008.94-.317.206-.243-.197-.658.082-.811.337-.096.416.277.466.522.075.307.184.605.29.901-.032.198-.28.133-.427.153-1.03.044-2.06.067-3.089.128-.287-.02-.69.206-.87-.114-.183-.396.503-.18.53-.525.021-.305-.158-.573-.25-.855-.384-.966-.751-1.938-1.147-2.899-.136-.313-.361-.661-.74-.679-.237.041-.603-.136-.457-.412.357-.06.728-.005 1.09-.035l2.78-.106zM462.35 289.67c.149.487.668.686 1.111.818.77.26 1.6.518 2.148 1.158.306.371.519.854.496 1.342-.04.496-.465.87-.924.99a2.49 2.49 0 01-1.735-.096c-.266-.115-.165.467-.497.27-.238-.182-.163-.56-.295-.815a9.043 9.043 0 00-.386-.964c.013-.326.48-.156.496.098.327.594.924 1.12 1.633 1.125.358.011.807-.18.838-.583.007-.535-.42-.954-.865-1.183-.64-.332-1.375-.437-1.994-.812-.555-.334-.947-.954-.948-1.608.013-.437.37-.778.768-.903a2.63 2.63 0 011.567-.053c.239.125.34-.274.595-.076.115.196.085.46.194.672.08.286.271.537.334.825-.159.244-.466.014-.517-.203-.221-.366-.517-.772-.983-.805-.346-.026-.785-.03-1.006.288-.097.154-.092.35-.03.515zM469.04 288.02c.327-.059.336.314.418.528.081.272.21.527.289.799-.14.287-.493.025-.536-.21-.137-.261-.338-.573-.673-.553-.41-.007-.82.03-1.226.075-.227.101-.007.391.025.572.158.45.296.91.467 1.355.267-.019.575-.01.799-.18.195-.201-.193-.605.139-.696.373-.047.344.441.434.684.097.45.335.85.468 1.286-.145.317-.533.01-.551-.247-.112-.329-.483-.399-.788-.368-.18-.011-.422-.013-.276.21.18.505.319 1.027.55 1.512.121.284.45.346.727.323.392-.027.846.015 1.153-.282.245-.234.04-.585.095-.853.25-.199.526.068.5.342a9.7 9.7 0 00.267 1.022c-.042.2-.292.143-.445.17-1.018.077-2.037.132-3.053.227-.28-.013-.684.235-.856-.087-.158-.383.457-.206.538-.501.08-.295-.098-.575-.173-.854-.336-.98-.654-1.966-1.002-2.94-.116-.308-.327-.661-.699-.664-.238.056-.592-.132-.43-.402.346-.072.712-.028 1.065-.07l2.774-.198zM473.22 292.16c.091.304.27.638.612.7.25.089.665-.073.732.286-.012.328-.493.15-.712.204a6.28 6.28 0 00-1.523.104c-.217.032-.544.108-.608-.188-.054-.336.463-.147.573-.4.08-.259-.066-.516-.136-.764-.337-1.005-.663-2.014-1.008-3.016-.115-.292-.27-.674-.63-.708-.232-.01-.629-.031-.558-.367.175-.166.486-.053.713-.083.73.016 1.45-.192 2.18-.144.751.029 1.483.508 1.736 1.228.164.405.22.917-.08 1.276-.387.454-1.021.547-1.58.622-.212-.028-.04.191-.027.301.105.317.212.633.316.949zm-.571-1.72c.205.03.46-.025.676-.083.313-.064.478-.4.396-.696-.088-.423-.228-.865-.544-1.175-.304-.253-.746-.26-1.112-.163-.14.122.002.32.035.47.183.549.365 1.099.549 1.647zM478.8 291.87c.09.255.17.61.492.652.246.054.66-.036.69.32-.06.265-.44.115-.643.155-.538-.041-1.074.031-1.605.112-.226.078-.549-.022-.494-.312.137-.213.65-.05.644-.415-.055-.39-.218-.756-.33-1.133-.317-.967-.63-1.935-.95-2.9-.077-.31-.43-.29-.68-.27-.254.02-.62.047-.692.35-.083.255.04.533-.015.779-.237.162-.467-.09-.457-.33a6.588 6.588 0 00-.344-1.002c-.01-.24.304-.219.479-.236 1.38-.082 2.761-.17 4.142-.248.301-.055.49.188.482.471.084.335.224.653.346.974-.068.283-.486.13-.502-.119-.174-.353-.445-.733-.874-.762-.28-.005-.625-.057-.859.124-.053.206.078.403.125.6l1.045 3.19zM480.9 288.58c-.105-.305-.22-.693-.571-.79-.236-.06-.65.01-.626-.355.096-.212.417-.08.608-.12.6.027 1.193-.059 1.787-.118.267-.12.479.421.152.421-.255-.002-.545.188-.442.474.132.531.325 1.045.486 1.568.24.733.467 1.47.717 2.2.067.229.248.432.499.441.241.001.663.034.588.38-.18.155-.48.057-.709.08-.538-.045-1.072.047-1.604.113-.232.1-.536-.139-.392-.378.206-.097.647-.043.617-.384-.078-.41-.237-.8-.357-1.2l-.753-2.332zM486.66 286.98c.317-.057.333.305.404.517.078.277.202.539.28.815-.146.284-.495.018-.534-.219-.133-.263-.33-.576-.666-.562a9.663 9.663 0 00-1.232.053c-.23.094-.015.388.013.568.15.452.28.912.443 1.358.268-.011.578.002.806-.163.2-.196-.18-.607.154-.69.376-.041.337.446.424.69.086.45.32.851.443 1.289-.115.29-.527.042-.528-.214-.095-.319-.429-.452-.739-.422-.146.017-.503-.075-.358.17.175.516.306 1.05.532 1.547.118.286.448.353.725.334.394-.021.85.033 1.164-.258.25-.227.053-.581.112-.847.253-.192.526.075.495.35.062.345.148.686.248 1.02-.041.195-.28.14-.43.16-1.03.059-2.063.095-3.092.171-.275-.018-.644.203-.838-.066-.218-.388.38-.252.507-.486.134-.266-.042-.547-.108-.81-.321-.995-.629-1.994-.96-2.986-.111-.322-.315-.703-.704-.714-.238.052-.592-.14-.424-.408.343-.064.704-.016 1.054-.05l2.809-.147zM488.66 287.94c-.066-.358-.339-.677-.734-.622-.374.097-.5-.57-.033-.43.508.003 1.03-.078 1.529.036.243.263.439.576.663.86l2.17 2.903c-.159.035-.036-.186-.053-.301l.355-3.542c.273-.226.73-.131 1.077-.202.282-.042.925-.136.745.349-.337.055-.77.22-.536.646.36 1.197.738 2.388 1.115 3.58.068.418.489.545.857.527.317.017.333.562-.048.43-.593-.013-1.191-.049-1.779.064-.265.09-.82.061-.64-.355.297-.054.794-.143.586-.573-.317-1.06-.657-2.113-.984-3.17.069.095-.011.255-.004.377-.096.99-.228 1.976-.292 2.968-.04.26.05.574-.074.798-.235.116-.385-.113-.503-.276l-2.856-3.698c.097-.035.085.21.14.292.306.96.588 1.927.91 2.881.101.388.495.501.849.505.378.193.098.547-.232.403-.5-.072-.998.028-1.493.084-.314-.009-.33-.513.029-.447.47.004.326-.523.217-.801l-1.023-3.274.042-.012zM497.4 288.79c.06.225.364.074.526.097.286-.016.62-.175.636-.498.01-.436-.157-.905-.5-1.188-.33-.253-.769-.23-1.16-.192-.042.145.062.302.092.45l.406 1.331zm.487 1.598c.125.348.193.743.45 1.023.238.18.568.104.843.087.257-.019.487-.23.461-.5-.031-.596-.316-1.26-.907-1.493-.34-.125-.713-.127-1.069-.091-.111.097.038.289.054.422l.168.552zm-1.773-2.402c-.117-.345-.224-.77-.586-.934-.233-.088-.642.018-.663-.338.083-.289.544-.079.774-.138.887.011 1.795-.224 2.661.063.693.185 1.284.819 1.28 1.558-.004.408-.334.716-.687.865-.024-.134.36.07.5.095.528.189 1.018.557 1.224 1.094.178.414.28.953-.037 1.328-.362.402-.95.431-1.454.444-.79.003-1.586-.018-2.368.114-.284.036-.396-.502-.039-.447.36 0 .46-.379.323-.656l-.928-3.048zM501.12 287.81c-.114-.346-.218-.77-.578-.937-.238-.09-.687.012-.665-.37.193-.256.656-.041.954-.104.678.005 1.357-.13 2.034-.045.791.093 1.55.646 1.741 1.441.143.421.05.954-.359 1.191-.087.096-.52.198-.444.19.604.24 1.119.69 1.412 1.273.16.262.241.58.466.797.266.198.297-.164.342-.327.351-.174.528.317.386.58-.147.422-.679.505-1.06.405-.343-.077-.602-.34-.757-.645-.341-.537-.554-1.17-1.03-1.611-.224-.196-.566-.31-.85-.197-.074.135.04.289.062.43.127.39.208.8.386 1.172.158.327.543.408.873.41.322-.008.345.559-.032.428-.61-.003-1.224-.076-1.83.033-.22-.005-.532.136-.674-.1-.214-.42.418-.228.558-.468.09-.279-.065-.56-.13-.832-.268-.904-.537-1.814-.805-2.714zm1.313.917c.098.327.555.15.805.145.29-.03.46-.326.398-.599-.075-.448-.192-.943-.548-1.255-.306-.225-.721-.224-1.08-.162-.153.128-.012.341.02.503l.405 1.368zM509.32 286.19c.312-.049.326.298.384.51.071.282.188.55.257.833-.135.258-.488.03-.514-.205-.129-.26-.292-.589-.625-.605a9.508 9.508 0 00-1.286.005c-.234.083-.03.383-.008.562.135.453.25.913.397 1.36.259 0 .539.009.779-.103.281-.16-.11-.59.187-.702.373-.082.368.394.426.639.068.467.295.888.41 1.341-.125.282-.531.028-.525-.228-.08-.296-.373-.453-.667-.44-.14.027-.556-.12-.435.136.16.523.274 1.063.487 1.568.11.29.44.363.718.355.398-.007.855.062 1.183-.217.26-.214.074-.574.144-.835.258-.181.527.087.486.363.05.344.126.684.214 1.02-.053.194-.296.127-.449.143-1.038.024-2.077.026-3.115.066-.268-.024-.607.159-.818-.056-.263-.378.298-.304.473-.467.19-.22.033-.512-.024-.757-.296-1.023-.579-2.051-.884-3.072-.1-.309-.272-.68-.637-.722-.237.011-.61-.094-.485-.405.301-.105.656-.003.977-.035.983-.017 1.97-.037 2.95-.053zM476.5 299.32c-.093-.368-.217-.85-.644-.949-.237.006-.644-.062-.5-.393.307-.124.674-.028 1.003-.076.82-.042 1.653-.245 2.465-.027 1.192.273 2.23 1.187 2.582 2.369.226.73.261 1.602-.23 2.237-.52.666-1.411.852-2.213.862-.617-.006-1.237-.011-1.845.113-.236.143-.63-.092-.422-.354.258-.075.67-.15.591-.518-.094-.514-.242-1.017-.36-1.526l-.427-1.738zm1.641 2.439c.1.324.137.71.405.945.275.161.616.097.918.071.469-.063.815-.478.889-.93.14-.76-.08-1.536-.379-2.23-.259-.602-.799-1.08-1.447-1.214-.377-.077-.778-.114-1.157-.04-.085.117.022.274.036.404l.735 2.994zM485.2 297.33c.318-.06.31.304.362.514.056.276.16.54.214.815-.128.26-.487.062-.501-.185-.113-.255-.268-.584-.593-.586a9.25 9.25 0 00-1.277.059c-.234.086-.049.385-.032.568.114.452.208.911.335 1.359.274-.016.585-.006.818-.171.214-.188-.13-.617.208-.692.377-.046.303.447.368.687.05.445.252.852.341 1.288-.12.284-.53.058-.51-.21-.07-.323-.403-.452-.704-.417-.146.02-.496-.074-.373.173.134.516.222 1.047.41 1.547.097.292.43.35.697.33.417-.022.905.021 1.22-.307.245-.225.018-.602.17-.833.292-.167.485.142.444.408.033.33.093.658.162.98-.06.2-.306.142-.466.166-1.026.067-2.052.112-3.077.195-.256-.009-.551.154-.78.012-.258-.271.095-.409.325-.44.29-.095.26-.443.187-.677-.263-1.08-.512-2.162-.784-3.24-.083-.3-.239-.676-.6-.701-.236.028-.603-.082-.462-.389.296-.119.652-.031.97-.075.976-.059 1.954-.117 2.928-.178zM491.69 301.43c.045.31.285.57.596.62.237.1.605-.037.733.244.093.35-.388.235-.59.251-.573-.01-1.148-.021-1.717.066-.285.018-.573.096-.858.065-.277-.117-.15-.502.147-.444.268-.059.63-.129.706-.44.033-.27-.079-.528-.125-.79-.216-.92-.422-1.844-.643-2.763-.03-.326-.388-.335-.635-.295-.229.01-.587.163-.66-.162-.036-.339.465-.27.67-.407.369-.127.732-.272 1.107-.38.212-.047.301.151.32.321l.949 4.114zM495.38 298.11c-.073-.363-.279-.786-.689-.84-.292-.055-.671.03-.777.344a.924.924 0 00.37 1.022c.271.198.59.312.893.454.06-.119.247-.35.237-.559a1.446 1.446 0 00-.034-.421zm.836 2.893c-.102-.487-.57-.77-.996-.948-.185-.032-.445-.278-.558-.177-.309.268-.457.714-.32 1.107.113.483.479.96 1.005 1 .348.047.76-.11.863-.473a.958.958 0 00.006-.509zm.89-.208c.136.479-.06 1.02-.47 1.3-.582.4-1.356.428-2.017.231-.587-.172-1.081-.663-1.185-1.276-.122-.488.079-1.045.513-1.31.101-.1.488-.141.175-.216-.498-.245-.99-.646-1.092-1.223-.12-.487.106-1.035.552-1.275.858-.468 2.087-.192 2.583.676.218.368.26.86 0 1.22-.14.194-.322.39-.565.443.486.1.928.398 1.223.794.14.188.233.407.283.635zM500.37 301.35c.243.009.504-.135.54-.393.086-.196-.083-.615.256-.591.308.02.277.378.309.601.026.398-.002.873-.344 1.138-.249.158-.558.092-.836.096-.562-.019-1.123-.137-1.685-.073-.236.024-.495.287-.717.098-.192-.223-.077-.519-.005-.764.194-.615.624-1.117 1.1-1.538.334-.313.71-.652.76-1.136a1.944 1.944 0 00-.293-1.187c-.283-.45-.95-.608-1.398-.32-.232.148-.414.494-.228.744.21.163.6.018.702.354.13.234-.005.599-.301.596-.44.068-.838-.278-.952-.686-.181-.51.02-1.13.495-1.405.499-.313 1.134-.305 1.69-.17.565.14 1.042.579 1.214 1.138.154.432.16.933-.081 1.336-.376.717-1.15 1.074-1.658 1.677-.142.156-.244.371-.185.585.076-.203.397-.132.582-.167.347-.014.689.076 1.035.067zM504.31 300.93c.038.31.274.576.584.632.228.101.567-.016.715.225.144.345-.333.284-.536.27-.591-.02-1.184-.05-1.773.027-.287.013-.577.082-.863.045-.28-.128-.13-.496.158-.439.27-.052.634-.113.72-.422.038-.265-.067-.524-.108-.784-.195-.923-.38-1.848-.58-2.77-.02-.284-.316-.346-.547-.312-.236-.026-.563.165-.714-.093-.173-.352.345-.345.552-.438.408-.125.809-.277 1.222-.384.211-.044.298.155.312.325.286 1.373.571 2.746.858 4.118z"/></g></g><g fill="#448127" stroke="#34541f" stroke-width=".218"><path fill="url(#m)" stroke="#4c0505" d="M475.8 219.41l-3.771 4.483c-1.2 5.24 1.782 9.187 7.65 12.614 4.752 2.95 13.548 3.689 16.326 1.311l-13.714-13.07-6.491-5.338z"/><path d="M503.58 354.27c-.672-.81-1.352-1.617-2.035-2.424-8.558 11.298-19.248 21.429-32.617 28.575 15.077-4.27 24.945-15.257 34.652-26.151zM488.14 389.98c5.316-10.772 11.731-21.544 18.203-32.317-.707-.88-1.422-1.76-2.144-2.636-7.352 12.186-15.98 26.68-16.06 34.952zM529.87 275.48c-.985-4.247-2.27-8.838-4.309-13.055-2.657-5.431-6.623-10.831-11.832-16.804-9.383-10.173-18.77-19.997-31.926-27.251l.069-.137.077.045h.164l-.161-.2h.47l-.254-.255h.437l-.352-.4h.46l-.328-.328h.493l-.273-.364.397.03-.372-.387.548-.109-.444-.28.48-.091-.403-.276.586-.187-.516-.306.652-.288-.632-.456.668-.229-.725-.295.612-.322-.721-.13.489-.566-.702.037.32-.597-.668.056c-.015-.02-.028-.04-.044-.058l.366-.45-.675.12.296-.61-.65.324.186-.707-.628.433.096-.72-.58.497.06-.688-.51.534.047-.725-.503.61-.05-.712-.403.56-.205-.677-.335.677-.17-.717-.317.717-.155-.717-.273.717-.206-.677-.215.677-.159-.595-.24.716-.224-.675-.241.77-.292-.688-.126.823-.352-.673-.04.794-.383-.603-.025.788-.408-.568.032.69-.434-.364.213.744-.525-.306.197.651-.432-.242.154.632-.393-.126.206.47-.03.064-.304-.056.175.366h0c-.383 1.039-.413 2.279-.35 3.515.011.23.593.464.685.607.276.429.226.66.226.66-1.592 2.581-3.015 4.574-3.175 7.532 1.278-1.619 2.603-3.6 4.46-3.6-.92 1.537-1.356 6.172-.323 6.877l.771-1.352c.029 1.075.18 1.792.39 2.322.322-.65.641-1.271.962-1.742.074 1.506.267 2.715.704 3.312.429-.74 1.008-1.191 1.618-1.57-.211.86-.52 1.672-.39 2.703.645-1.101 1.29-1.752 1.933-2.512-.373 1.586-.034 2.77.417 4.522.4-2.076.557-2.296 1.516-3.17.106 1.903-.258 3.632.143 4.694.874-1.675 1.46-1.436 1.982-2.52-.102 1.58-.419 3.292-.014 4.702.337-1.413 1.244-2.17 1.945-2.671.057 2.199.565 1.837-.802 3.702.58.265 2.541-.377 3.605-.833-.514 1.178-.363 2.102-.878 2.936 1.08-.543 2-1.42 2.901-2.322-.417 1.352-1.525 2.704-.97 4.056.252-1.263 1.274-2.303 2.243-2.493-.15.708-.252 2.174-1.273 2.883 2.443.251 3.407-1.398 4.637-2.704-.159 1.358-.114 2.443 1.552 4.355-.336-2.43.242-1.93 1.343-3.392.532 2.148 1.143 4.43 3.382 6.014-.928-2.267-1.1-3.435-.573-4.862.288 1.473 1.684 3.25 2.019 4.644.207-1.547.441-3.045.962-4.055.652 1.756 1.198 3.57 1.352 5.598.488-1.01.885-2.035 1.161-3.086 19.736 20.623 24.137 46.84 2.513 74.541 7.77-5.25 9.776-13.569 14.093-20.662-4.214 9.288-6.092 19.737-13.513 27.421 7.188-6.202 8.712-11.885 13.034-17.862-4.607 12.501-10.982 26.2-19.82 38.742 1.57 1.707 3.14 3.441 4.717 5.19 1.372-2.284 2.743-4.565 4.097-6.85 9.369-15.435 24.658-37.5 16.913-71.146z"/></g><path fill="#eac102" stroke="#a08307" stroke-width=".218" d="M473.16 215.29c-.997.226-1.392.642-2.111 1.443.917.2 1.692.246 2.521.264.257-.022.344-.348.287-.585l-.128-.955c-.023-.217-.601-.2-.874-.086l.305-.081z"/><path fill="#a08307" d="M471.04 216.73a9.89 9.89 0 0 1 1.053-.298c.356-.08.713-.151 1.078-.191a9.82 9.82 0 0 1-1.053.298 9.94 9.94 0 0 1-1.078.191z"/><ellipse cx="477.68" cy="215.416" stroke="#000" stroke-width=".098" rx=".775" ry=".811"/><ellipse cx="477.86" cy="215.261" fill="url(#n)" rx=".337" ry=".353"/><g fill="#34541f"><path d="M488.18 389.69a83.377 83.377 0 011.528-4.44 96.152 96.152 0 011.783-4.346c1.26-2.869 2.663-5.672 4.135-8.435a199.581 199.581 0 014.663-8.153c.809-1.341 1.628-2.675 2.454-4.004l2.51-3.968-2.42 4.024c-.806 1.34-1.609 2.684-2.4 4.033-1.584 2.699-3.144 5.412-4.615 8.171a133.673 133.673 0 00-4.174 8.4 98.092 98.092 0 00-1.836 4.316 82.656 82.656 0 00-1.628 4.402zM469.34 380.23a75.798 75.798 0 004.881-2.375c1.6-.843 3.17-1.743 4.702-2.704a72.04 72.04 0 008.733-6.417c2.755-2.342 5.328-4.894 7.762-7.57 1.219-1.336 2.4-2.707 3.555-4.1 1.159-1.39 2.29-2.805 3.399-4.235a153.748 153.748 0 01-3.316 4.302 111.896 111.896 0 01-3.513 4.146 81.9 81.9 0 01-7.745 7.624 69.946 69.946 0 01-8.786 6.392 71.284 71.284 0 01-4.742 2.657 76.913 76.913 0 01-4.93 2.28zM506.62 350.89c.77-1.074 1.486-2.186 2.202-3.296.715-1.11 1.415-2.232 2.098-3.362 1.368-2.26 2.69-4.55 3.96-6.866a331.102 331.102 0 003.75-6.985l3.677-7.027-1.745 3.562-1.783 3.542a255.98 255.98 0 01-3.709 7.013c-1.287 2.31-2.608 4.603-4.008 6.849-1.405 2.24-2.852 4.457-4.442 6.57zM512.51 325.78a58.374 58.374 0 004.692-6.42 60.202 60.202 0 003.81-6.974c2.235-4.81 3.841-9.894 4.975-15.07.144-.647.283-1.295.414-1.944a61.004 61.004 0 00.694-5.915c.18-2.644.178-5.3-.03-7.942a50.632 50.632 0 00-1.24-7.846 53.361 53.361 0 00-2.403-7.578 53.484 53.484 0 012.507 7.553 50.47 50.47 0 011.28 7.858c.222 2.649.236 5.314.067 7.966a61.252 61.252 0 01-.67 5.944 90.31 90.31 0 01-.406 1.95c-1.16 5.184-2.794 10.274-5.056 15.084a59.876 59.876 0 01-3.853 6.97 58.223 58.223 0 01-4.781 6.364z"/><path d="M510.87 320.07c1.843-1.762 3.471-3.74 4.898-5.85 1.436-2.103 2.682-4.332 3.795-6.623 1.114-2.29 2.098-4.642 3.027-7.015.464-1.186.915-2.378 1.361-3.572l.333-.896c.106-.296.202-.6.294-.904.186-.609.355-1.224.578-1.83l-.005.017c.506-2.524.778-5.095.81-7.67a45.833 45.833 0 0 0-.571-7.698c-.4-2.546-.996-5.06-1.732-7.531a80.218 80.218 0 0 0-2.553-7.304 80.346 80.346 0 0 1 2.656 7.273 57.633 57.633 0 0 1 1.772 7.54c.414 2.55.631 5.136.61 7.722a41.437 41.437 0 0 1-.78 7.71l-.002.009-.003.009c-.22.59-.393 1.205-.582 1.814-.095.305-.19.61-.302.914l-.338.895a228.976 228.976 0 0 1-1.379 3.57c-.942 2.37-1.938 4.72-3.066 7.012-1.127 2.29-2.384 4.52-3.838 6.62-1.459 2.093-3.116 4.051-4.984 5.788z"/><path d="M505.05 349.23a599.758 599.758 0 0 0 3.573-4.998l1.778-2.507c.59-.838 1.207-1.654 1.733-2.531 1.068-1.745 1.99-3.575 2.898-5.41.9-1.84 1.82-3.67 2.709-5.514 1.781-3.686 3.505-7.405 4.967-11.228a75.285 75.285 0 0 0 3.451-11.763c.847-4.003 1.416-8.062 1.885-12.129.426-4.065.471-8.18.038-12.248a52.36 52.36 0 0 0-2.725-11.939c-1.35-3.864-3.116-7.577-5.098-11.16 2.014 3.565 3.812 7.263 5.198 11.124a52.395 52.395 0 0 1 2.77 11.96c.446 4.078.414 8.202-.001 12.283-.458 4.072-1.015 8.138-1.853 12.153a75.517 75.517 0 0 1-3.495 11.784c-1.477 3.827-3.213 7.543-5.006 11.226-.897 1.843-1.82 3.67-2.727 5.507-.914 1.833-1.84 3.664-2.92 5.41-.536.877-1.163 1.69-1.759 2.522l-1.798 2.49c-1.2 1.661-2.401 3.32-3.618 4.969z"/><path d="M507.81 352.25c2.362-3.835 4.71-7.679 6.954-11.583 2.25-3.9 4.483-7.814 6.465-11.856 1.986-4.038 3.701-8.214 4.997-12.523.65-2.153 1.201-4.336 1.653-6.54a59.28 59.28 0 00.593-3.319c.171-1.112.33-2.226.472-3.342.582-4.462.928-8.957.922-13.457-.005-4.498-.365-9.001-1.198-13.424-.83-4.42-2.14-8.756-3.977-12.865a54.004 54.004 0 00-6.957-11.533 54.076 54.076 0 017.055 11.49c1.853 4.11 3.178 8.453 4.022 12.882.846 4.43 1.22 8.943 1.238 13.45.018 4.51-.316 9.015-.888 13.486a133.98 133.98 0 01-.482 3.346 58.79 58.79 0 01-.604 3.328 74.245 74.245 0 01-1.674 6.55c-1.311 4.316-3.042 8.496-5.041 12.534-1.997 4.042-4.239 7.953-6.503 11.846-2.276 3.89-4.655 7.714-7.047 11.53zM480 220.77c.474-.012.949.04 1.418.113.469.073.934.174 1.394.294.919.245 1.815.572 2.687.954 1.742.767 3.371 1.774 4.9 2.902a35.81 35.81 0 014.256 3.786 45.252 45.252 0 011.904 2.117c.607.73 1.198 1.472 1.758 2.236a60.861 60.861 0 00-1.839-2.166c-.627-.71-1.274-1.401-1.943-2.07-1.335-1.34-2.747-2.604-4.266-3.728a26.779 26.779 0 00-4.839-2.925 18.965 18.965 0 00-2.646-1.004c-.906-.266-1.836-.472-2.784-.51z"/></g><g fill="#448127"><path d="M496.38 231.57s3.059 1.798 4.725 4.439c0 0-4.717-.883-8.07-4.652"/><path fill="#34541f" d="M496.38 231.57c.479.261.933.566 1.38.88.44.322.869.663 1.28 1.025.412.36.796.753 1.16 1.163.363.412.704.846.997 1.313l.136.217-.248-.053c-.784-.17-1.534-.42-2.272-.712a15.702 15.702 0 0 1-2.138-1.038c-1.369-.795-2.623-1.8-3.64-3.008a15.17 15.17 0 0 0 3.721 2.866c.688.376 1.398.712 2.129.997a14.4 14.4 0 0 0 2.24.683l-.11.163c-.29-.454-.612-.887-.966-1.296-.35-.411-.734-.794-1.125-1.168a17.708 17.708 0 0 0-1.23-1.064 18.559 18.559 0 0 0-1.314-.968z"/><path d="M489.58 230.69s7.226 4.61 8.273 4.978c0 0-1.608-3.478-5.049-4.972"/><path fill="#34541f" d="M489.58 230.69l4.14 2.488c.687.419 1.376.835 2.07 1.243.346.203.694.405 1.044.601.347.194.702.405 1.053.549l-.128.14a10.67 10.67 0 0 0-.924-1.525c-.35-.484-.728-.949-1.142-1.38a10.732 10.732 0 0 0-1.347-1.184 9.234 9.234 0 0 0-1.542-.926c.56.222 1.094.512 1.596.85.503.337.967.73 1.4 1.154.432.425.832.883 1.189 1.374.357.491.684 1 .958 1.551l.124.25-.252-.109c-.768-.329-1.437-.757-2.136-1.167-.69-.415-1.376-.838-2.06-1.264a151.55 151.55 0 0 1-4.043-2.645z"/><path d="M492.46 228.36s3.76 1.6 4.611 4.38c0 0-6.753-2.842-7.962-4.35"/><path fill="#34541f" d="M492.46 228.36a10.668 10.668 0 0 1 2.805 1.682 7.17 7.17 0 0 1 1.14 1.194c.33.443.607.935.769 1.471l.067.223-.212-.091c-.7-.301-1.393-.614-2.082-.935a49.78 49.78 0 0 1-2.05-1.003 33.948 33.948 0 0 1-1.994-1.111c-.324-.2-.643-.41-.95-.634-.305-.227-.61-.465-.844-.766.252.286.565.506.876.72.315.21.64.405.97.59.66.375 1.334.722 2.016 1.055a84.15 84.15 0 0 0 4.142 1.885l-.145.13a4.833 4.833 0 0 0-.725-1.415 7.8 7.8 0 0 0-1.09-1.184c-.402-.361-.834-.689-1.287-.987-.45-.305-.92-.579-1.406-.824z"/><path d="M486.76 231.25s6.646 4.758 8.613 4.758c0 0-1.948-3.258-5.388-4.752"/><path fill="#34541f" d="M486.76 231.25c.688.456 1.38.908 2.076 1.35.695.445 1.396.88 2.106 1.298.707.423 1.423.833 2.157 1.201.367.184.74.358 1.119.506.376.145.77.288 1.154.3l-.089.156c-.313-.506-.682-.99-1.07-1.45-.392-.457-.805-.899-1.248-1.309a12.976 12.976 0 0 0-1.41-1.135 10.974 10.974 0 0 0-1.57-.91c1.13.45 2.166 1.128 3.081 1.933.459.403.894.834 1.291 1.298.4.463.773.944 1.104 1.467l.103.161-.191-.005c-.446-.01-.844-.158-1.235-.304a13.663 13.663 0 0 1-1.133-.523 33.267 33.267 0 0 1-2.158-1.229 63.89 63.89 0 0 1-2.075-1.358c-.68-.47-1.354-.948-2.012-1.447z"/><path d="M486.76 232.74s3.46 2.92 5.427 2.92c0 0-1.948-3.258-5.388-4.752"/><path fill="#34541f" d="M486.76 232.74c.418.312.84.615 1.272.905.428.293.866.573 1.315.831.445.264.902.509 1.376.708.236.1.478.187.723.252.244.07.494.118.741.12l-.09.157a12.4 12.4 0 0 0-1.07-1.45c-.392-.458-.804-.899-1.247-1.31a12.996 12.996 0 0 0-1.41-1.134 11.007 11.007 0 0 0-1.57-.91c1.129.45 2.165 1.128 3.08 1.933.46.402.894.834 1.292 1.297.399.464.773.945 1.104 1.467l.1.158h-.189c-.55-.002-1.063-.18-1.545-.39a11.451 11.451 0 0 1-1.39-.74c-.442-.28-.87-.581-1.287-.895a17.6 17.6 0 0 1-1.205-.999z"/><path d="M485.03 226.18s7.207 5.117 8.06 7.896c0 0-6.523-2.994-7.732-4.502"/><path fill="#34541f" d="M485.03 226.18a51.627 51.627 0 0 1 2.304 1.679 51.03 51.03 0 0 1 2.205 1.81 25.733 25.733 0 0 1 2.054 1.987c.322.352.631.718.912 1.109.276.391.54.804.687 1.28l.072.232-.22-.103a79.602 79.602 0 0 1-2.022-.985 50.288 50.288 0 0 1-1.99-1.05 34.833 34.833 0 0 1-1.934-1.15c-.313-.206-.622-.42-.92-.648-.296-.23-.59-.471-.82-.768.247.282.55.505.853.723.305.214.622.413.942.605.64.386 1.295.747 1.957 1.094a87.249 87.249 0 0 0 4.023 1.983l-.148.13c-.14-.433-.384-.839-.653-1.221-.27-.383-.573-.746-.888-1.097-.632-.703-1.32-1.354-2.02-1.994a51.15 51.15 0 0 0-2.159-1.852 71.205 71.205 0 0 0-2.235-1.764z"/></g><g stroke="#24420e" stroke-width=".164"><path fill="#406325" d="M445.02 370.33c-4.889 3.644-18.553 5.43-20.448 4.8 9.943-8.271 19.725-8.47 20.448-4.8zM514.78 374.77c5.254 4.768 21.104 8.053 23.475 7.46-10.542-10.77-22.102-11.862-23.475-7.46z"/><path fill="#67923d" d="M444.98 370.3c-.72-3.67-10.458-3.449-20.378 4.775 10.446-3.442 19.238-5.405 20.378-4.775zM514.89 374.71c1.371-4.402 12.794-3.338 23.364 7.462-11.884-5.021-21.947-8.099-23.364-7.462z"/></g></svg>