<svg xmlns="http://www.w3.org/2000/svg" xmlns:xlink="http://www.w3.org/1999/xlink" width="600" height="300" version="1.0" viewBox="0 0 600 300"><path fill="#fff" fill-rule="evenodd" d="M0 0h600v300H0z" font-size="12"/><path id="b" fill="#002b7f" fill-opacity="1" fill-rule="evenodd" stroke="none" stroke-opacity="1" stroke-width="1pt" d="M600 260.881c-6.723 4.045-12.5 13.498-30.36 13.498-35.71 0-44.641-19.902-71.427-19.902-17.856 0-26.785 19.902-44.641 19.902-35.715 0-44.643-19.902-71.429-19.902-17.857 0-26.786 19.902-44.643 19.902-35.714 0-44.643-19.902-71.428-19.902-17.858 0-26.786 19.902-44.643 19.902-35.714 0-44.643-19.902-71.429-19.902-17.858 0-26.786 19.902-44.643 19.902-35.714 0-44.643-19.902-71.428-19.902-17.858 0-23.215 14.182-33.929 14.182v25.621c10.714 0 16.071-14.181 33.929-14.181 26.785 0 35.714 19.901 71.428 19.901C123.214 300 132.142 280.1 150 280.1c26.785 0 35.715 19.901 71.429 19.901 17.857 0 26.785-19.901 44.643-19.901 26.785 0 35.714 19.901 71.428 19.901 17.857 0 26.786-19.901 44.643-19.901 26.786 0 35.714 19.901 71.429 19.901 17.856 0 26.785-19.901 44.64-19.901C525 280.099 533.93 300 569.64 300c17.86 0 23.637-5.64 30.36-9.684V260.88z" font-size="12"/><use width="600" height="300" transform="translate(0 49.753)" xlink:href="#a"/><use id="a" width="600" height="300" x="0" y="0" transform="translate(0 -99.507)" xlink:href="#b"/><path id="c" fill="#002b7f" fill-opacity="1" fill-rule="evenodd" stroke="none" stroke-opacity="1" stroke-width="1pt" d="M266.072 130.838c26.785 0 35.714 19.902 71.428 19.902 17.857 0 26.786-19.902 44.643-19.902 26.786 0 35.714 19.902 71.429 19.902 17.856 0 26.785-19.902 44.64-19.902 26.787 0 35.717 19.902 71.428 19.902 17.86 0 23.637-5.64 30.36-9.685v-29.434c-6.723 4.045-12.5 13.497-30.36 13.497-35.71 0-44.641-19.901-71.427-19.901-17.856 0-26.785 19.901-44.641 19.901-35.715 0-44.643-19.901-71.429-19.901-17.857 0-26.786 19.901-44.643 19.901-35.714 0-44.643-19.901-71.428-19.901" font-size="12"/><use width="600" height="300" transform="translate(0 -49.754)" xlink:href="#c"/><use width="600" height="300" transform="translate(0 -99.507)" xlink:href="#c"/><g transform="matrix(.5 0 0 .5 0 154.722)"><path id="f" fill="#fff" fill-opacity="1" fill-rule="evenodd" stroke-opacity="1" d="M0-309.444h600v300H0z"/><path id="d" fill="#002b7f" fill-opacity="1" fill-rule="evenodd" stroke-opacity="1" d="M-238.29 473.04l-.214-94.3 81.772 46.965-81.558 47.335z" transform="matrix(2.84937 0 0 2.44966 679.586 -1202.729)"/><use width="600" height="600" transform="matrix(-1 0 0 1 600 0)" xlink:href="#d"/><use id="e" width="600" height="600" x="0" y="0" transform="matrix(0 -.50215 2.01732 0 621.65 -9.444)" xlink:href="#d"/><use width="600" height="600" transform="matrix(1 0 0 -1 0 -318.889)" xlink:href="#e"/></g><path fill="#ce1126" fill-rule="evenodd" d="M177.64 50H200L300 0h-22.36l-100 50zM0 0v11.18L77.64 50H100L0 0zM300 150v-11.18L222.36 100H200l100 50zM0 150h22.36l100-50H100L0 150z"/><g transform="matrix(.5 0 0 .5 0 0)"><use id="g" width="600" height="300" x="0" y="0" transform="matrix(1 0 0 .33333 0 203.148)" xlink:href="#f"/><use width="600" height="300" transform="matrix(0 .5 -1 0 450 0)" xlink:href="#g"/></g><rect id="h" width="300" height="30" x="0" y="60" fill="#ce1124" fill-opacity="1" fill-rule="evenodd" stroke-opacity="1" rx="0" ry="0"/><use width="600" height="300" transform="matrix(0 .5 -1 0 225 0)" xlink:href="#h"/><path fill="#a24300" fill-rule="evenodd" stroke="#fff" stroke-width="6.935" d="M814.961-301.181L797.244 407.48c0 37.298 80.097 37.298 88.583 0L868.11-301.181h-53.149z" transform="matrix(.12095 0 0 .28726 347.839 166.046)"/><g font-size="12"><path fill="#006d00" fill-rule="evenodd" stroke="#fff" stroke-width="8.25" d="M496.063 549.213l17.717 70.866 35.433-53.15-17.717 88.583 35.433-35.433-35.433 88.582 35.433-35.433-35.433 88.583 35.433-35.433-35.433 106.299 35.433-35.433-35.433 106.299 35.433-35.433-35.433 106.299-17.716 53.151-17.717 17.72-17.717-17.72-17.716-53.151-35.433-106.299 35.433 35.433-35.433-106.299 35.433 35.433-35.433-106.299 35.433 35.433-35.433-88.583 35.433 35.433-35.433-88.582 35.433 35.433-17.717-88.583 35.433 53.15 17.717-70.866z" transform="matrix(-.13794 .03951 -.06065 -.11427 570.303 198.336)"/><path fill="none" stroke="#000" stroke-width="1pt" d="M496.063 549.213v496.067M425.197 868.11l70.866 106.299 70.866-106.299" transform="matrix(-.13794 .03951 -.06065 -.11427 570.303 198.336)"/><path fill="none" stroke="#000" stroke-width="1pt" d="M425.197 797.244l70.866 106.299 70.866-106.299" transform="matrix(-.13794 .03951 -.06065 -.11427 570.303 198.336)"/><path fill="none" stroke="#000" stroke-width="1pt" d="M425.197 726.378l70.866 106.299 70.866-106.299" transform="matrix(-.13794 .03951 -.06065 -.11427 570.303 198.336)"/><path fill="none" stroke="#000" stroke-width="1pt" d="M425.197 673.228l70.866 88.583 70.866-88.583" transform="matrix(-.13794 .03951 -.06065 -.11427 570.303 198.336)"/><path fill="none" stroke="#000" stroke-width="1pt" d="M425.197 620.079l70.866 88.582 70.866-88.582" transform="matrix(-.13794 .03951 -.06065 -.11427 570.303 198.336)"/><path fill="none" stroke="#000" stroke-width="1pt" d="M442.913 566.929l53.15 106.299 53.15-106.299" transform="matrix(-.13794 .03951 -.06065 -.11427 570.303 198.336)"/><g><path fill="#006d00" fill-rule="evenodd" stroke="#fff" stroke-width="8.25" d="M496.063 549.213l17.717 70.866 35.433-53.15-17.717 88.583 35.433-35.433-35.433 88.582 35.433-35.433-35.433 88.583 35.433-35.433-35.433 106.299 35.433-35.433-35.433 106.299 35.433-35.433-35.433 106.299-17.716 53.151-17.717 17.72-17.717-17.72-17.716-53.151-35.433-106.299 35.433 35.433-35.433-106.299 35.433 35.433-35.433-106.299 35.433 35.433-35.433-88.583 35.433 35.433-35.433-88.582 35.433 35.433-17.717-88.583 35.433 53.15 17.717-70.866z" transform="matrix(.10373 -.10621 .12936 .08577 267.096 64.142)"/><path fill="none" stroke="#000" stroke-width="1pt" d="M496.063 549.213v496.067M425.197 868.11l70.866 106.299 70.866-106.299" transform="matrix(.10373 -.10621 .12936 .08577 267.096 64.142)"/><path fill="none" stroke="#000" stroke-width="1pt" d="M425.197 797.244l70.866 106.299 70.866-106.299" transform="matrix(.10373 -.10621 .12936 .08577 267.096 64.142)"/><path fill="none" stroke="#000" stroke-width="1pt" d="M425.197 726.378l70.866 106.299 70.866-106.299" transform="matrix(.10373 -.10621 .12936 .08577 267.096 64.142)"/><path fill="none" stroke="#000" stroke-width="1pt" d="M425.197 673.228l70.866 88.583 70.866-88.583" transform="matrix(.10373 -.10621 .12936 .08577 267.096 64.142)"/><path fill="none" stroke="#000" stroke-width="1pt" d="M425.197 620.079l70.866 88.582 70.866-88.582" transform="matrix(.10373 -.10621 .12936 .08577 267.096 64.142)"/><path fill="none" stroke="#000" stroke-width="1pt" d="M442.913 566.929l53.15 106.299 53.15-106.299" transform="matrix(.10373 -.10621 .12936 .08577 267.096 64.142)"/></g><g><path fill="#006d00" fill-rule="evenodd" stroke="#fff" stroke-width="8.25" d="M496.063 549.213l17.717 70.866 35.433-53.15-17.717 88.583 35.433-35.433-35.433 88.582 35.433-35.433-35.433 88.583 35.433-35.433-35.433 106.299 35.433-35.433-35.433 106.299 35.433-35.433-35.433 106.299-17.716 53.151-17.717 17.72-17.717-17.72-17.716-53.151-35.433-106.299 35.433 35.433-35.433-106.299 35.433 35.433-35.433-106.299 35.433 35.433-35.433-88.583 35.433 35.433-35.433-88.582 35.433 35.433-17.717-88.583 35.433 53.15 17.717-70.866z" transform="matrix(.0665 .12633 -.146 .06305 564.714 -24.518)"/><path fill="none" stroke="#000" stroke-width="1pt" d="M496.063 549.213v496.067M425.197 868.11l70.866 106.299 70.866-106.299" transform="matrix(.0665 .12633 -.146 .06305 564.714 -24.518)"/><path fill="none" stroke="#000" stroke-width="1pt" d="M425.197 797.244l70.866 106.299 70.866-106.299" transform="matrix(.0665 .12633 -.146 .06305 564.714 -24.518)"/><path fill="none" stroke="#000" stroke-width="1pt" d="M425.197 726.378l70.866 106.299 70.866-106.299" transform="matrix(.0665 .12633 -.146 .06305 564.714 -24.518)"/><path fill="none" stroke="#000" stroke-width="1pt" d="M425.197 673.228l70.866 88.583 70.866-88.583" transform="matrix(.0665 .12633 -.146 .06305 564.714 -24.518)"/><path fill="none" stroke="#000" stroke-width="1pt" d="M425.197 620.079l70.866 88.582 70.866-88.582" transform="matrix(.0665 .12633 -.146 .06305 564.714 -24.518)"/><path fill="none" stroke="#000" stroke-width="1pt" d="M442.913 566.929l53.15 106.299 53.15-106.299" transform="matrix(.0665 .12633 -.146 .06305 564.714 -24.518)"/></g><g><path fill="#006d00" fill-rule="evenodd" stroke="#fff" stroke-width="8.25" d="M496.063 549.213l17.717 70.866 35.433-53.15-17.717 88.583 35.433-35.433-35.433 88.582 35.433-35.433-35.433 88.583 35.433-35.433-35.433 106.299 35.433-35.433-35.433 106.299 35.433-35.433-35.433 106.299-17.716 53.151-17.717 17.72-17.717-17.72-17.716-53.151-35.433-106.299 35.433 35.433-35.433-106.299 35.433 35.433-35.433-106.299 35.433 35.433-35.433-88.583 35.433 35.433-35.433-88.582 35.433 35.433-17.717-88.583 35.433 53.15 17.717-70.866z" transform="matrix(-.09189 .11398 -.13802 -.07516 637.412 125.238)"/><path fill="none" stroke="#000" stroke-width="1pt" d="M496.063 549.213v496.067M425.197 868.11l70.866 106.299 70.866-106.299" transform="matrix(-.09189 .11398 -.13802 -.07516 637.412 125.238)"/><path fill="none" stroke="#000" stroke-width="1pt" d="M425.197 797.244l70.866 106.299 70.866-106.299" transform="matrix(-.09189 .11398 -.13802 -.07516 637.412 125.238)"/><path fill="none" stroke="#000" stroke-width="1pt" d="M425.197 726.378l70.866 106.299 70.866-106.299" transform="matrix(-.09189 .11398 -.13802 -.07516 637.412 125.238)"/><path fill="none" stroke="#000" stroke-width="1pt" d="M425.197 673.228l70.866 88.583 70.866-88.583" transform="matrix(-.09189 .11398 -.13802 -.07516 637.412 125.238)"/><path fill="none" stroke="#000" stroke-width="1pt" d="M425.197 620.079l70.866 88.582 70.866-88.582" transform="matrix(-.09189 .11398 -.13802 -.07516 637.412 125.238)"/><path fill="none" stroke="#000" stroke-width="1pt" d="M442.913 566.929l53.15 106.299 53.15-106.299" transform="matrix(-.09189 .11398 -.13802 -.07516 637.412 125.238)"/></g><g><path fill="#006d00" fill-rule="evenodd" stroke="#fff" stroke-width="8.25" d="M496.063 549.213l17.717 70.866 35.433-53.15-17.717 88.583 35.433-35.433-35.433 88.582 35.433-35.433-35.433 88.583 35.433-35.433-35.433 106.299 35.433-35.433-35.433 106.299 35.433-35.433-35.433 106.299-17.716 53.151-17.717 17.72-17.717-17.72-17.716-53.151-35.433-106.299 35.433 35.433-35.433-106.299 35.433 35.433-35.433-106.299 35.433 35.433-35.433-88.583 35.433 35.433-35.433-88.582 35.433 35.433-17.717-88.583 35.433 53.15 17.717-70.866z" transform="matrix(-.0911 -.09737 .10358 -.08861 385.46 241.427)"/><path fill="none" stroke="#000" stroke-width="1pt" d="M496.063 549.213v496.067M425.197 868.11l70.866 106.299 70.866-106.299" transform="matrix(-.0911 -.09737 .10358 -.08861 385.46 241.427)"/><path fill="none" stroke="#000" stroke-width="1pt" d="M425.197 797.244l70.866 106.299 70.866-106.299" transform="matrix(-.0911 -.09737 .10358 -.08861 385.46 241.427)"/><path fill="none" stroke="#000" stroke-width="1pt" d="M425.197 726.378l70.866 106.299 70.866-106.299" transform="matrix(-.0911 -.09737 .10358 -.08861 385.46 241.427)"/><path fill="none" stroke="#000" stroke-width="1pt" d="M425.197 673.228l70.866 88.583 70.866-88.583" transform="matrix(-.0911 -.09737 .10358 -.08861 385.46 241.427)"/><path fill="none" stroke="#000" stroke-width="1pt" d="M425.197 620.079l70.866 88.582 70.866-88.582" transform="matrix(-.0911 -.09737 .10358 -.08861 385.46 241.427)"/><path fill="none" stroke="#000" stroke-width="1pt" d="M442.913 566.929l53.15 106.299 53.15-106.299" transform="matrix(-.0911 -.09737 .10358 -.08861 385.46 241.427)"/></g><g><path fill="#006d00" fill-rule="evenodd" stroke="#fff" stroke-width="8.25" d="M460.63 549.213l28.643 70.866 42.223-53.15-10.184 88.583 27.9-35.433-17.716 88.582 25.249-35.433-25.249 88.583 35.433-35.433-35.433 106.299 35.433-35.433-35.433 106.299 35.433-35.433-35.433 106.299-17.716 53.151-17.717 17.72-17.717-17.72-17.716-53.151-35.433-106.299 35.433 35.433-35.433-106.299 35.433 35.433-35.433-106.299 35.433 35.433-45.617-88.583 45.617 35.433-53.15-88.582 42.966 35.433-25.25-88.583 35.433 53.15.001-70.866z" transform="matrix(-.15884 -.03748 -.09202 .11973 624.7 -9.546)"/><path fill="none" stroke="#000" stroke-width="1pt" d="M467.208 584.646l28.855 124.016v336.618" transform="matrix(-.15884 -.03748 -.09202 .11973 624.7 -9.546)"/><path fill="none" stroke="#000" stroke-width="1pt" d="M436.23 885.827l59.833 88.582 60.682-88.582" transform="matrix(-.15884 -.03748 -.09202 .11973 624.7 -9.546)"/><path fill="none" stroke="#000" stroke-width="1pt" d="M434.533 814.961l61.53 88.582 60.682-88.582" transform="matrix(-.15884 -.03748 -.09202 .11973 624.7 -9.546)"/><path fill="none" stroke="#000" stroke-width="1pt" d="M435.381 744.095l60.682 88.582 59.833-88.582" transform="matrix(-.15884 -.03748 -.09202 .11973 624.7 -9.546)"/><path fill="none" stroke="#000" stroke-width="1pt" d="M432.835 690.945l63.228 70.866 53.149-70.866" transform="matrix(-.15884 -.03748 -.09202 .11973 624.7 -9.546)"/><path fill="none" stroke="#000" stroke-width="1pt" d="M425.197 637.796l70.866 70.865 45.406-70.865" transform="matrix(-.15884 -.03748 -.09202 .11973 624.7 -9.546)"/><path fill="none" stroke="#000" stroke-width="1pt" d="M436.124 593.238l53.15 86.886 35.327-95.478" transform="matrix(-.15884 -.03748 -.09202 .11973 624.7 -9.546)"/></g><g><path fill="#006d00" fill-rule="evenodd" stroke="#fff" stroke-width="8.25" d="M460.63 549.213l28.643 70.866 42.223-53.15-10.184 88.583 27.9-35.433-17.716 88.582 25.249-35.433-25.249 88.583 35.433-35.433-35.433 106.299 35.433-35.433-35.433 106.299 35.433-35.433-35.433 106.299-17.716 53.151-17.717 17.72-17.717-17.72-17.716-53.151-35.433-106.299 35.433 35.433-35.433-106.299 35.433 35.433-35.433-106.299 35.433 35.433-45.617-88.583 45.617 35.433-53.15-88.582 42.966 35.433-25.25-88.583 35.433 53.15.001-70.866z" transform="matrix(.15827 .03923 .0058 .1434 364.914 -71.766)"/><path fill="none" stroke="#000" stroke-width="1pt" d="M467.208 584.646l28.855 124.016v336.618" transform="matrix(.15827 .03923 .0058 .1434 364.914 -71.766)"/><path fill="none" stroke="#000" stroke-width="1pt" d="M436.23 885.827l59.833 88.582 60.682-88.582" transform="matrix(.15827 .03923 .0058 .1434 364.914 -71.766)"/><path fill="none" stroke="#000" stroke-width="1pt" d="M434.533 814.961l61.53 88.582 60.682-88.582" transform="matrix(.15827 .03923 .0058 .1434 364.914 -71.766)"/><path fill="none" stroke="#000" stroke-width="1pt" d="M435.381 744.095l60.682 88.582 59.833-88.582" transform="matrix(.15827 .03923 .0058 .1434 364.914 -71.766)"/><path fill="none" stroke="#000" stroke-width="1pt" d="M432.835 690.945l63.228 70.866 53.149-70.866" transform="matrix(.15827 .03923 .0058 .1434 364.914 -71.766)"/><path fill="none" stroke="#000" stroke-width="1pt" d="M425.197 637.796l70.866 70.865 45.406-70.865" transform="matrix(.15827 .03923 .0058 .1434 364.914 -71.766)"/><path fill="none" stroke="#000" stroke-width="1pt" d="M436.124 593.238l53.15 86.886 35.327-95.478" transform="matrix(.15827 .03923 .0058 .1434 364.914 -71.766)"/></g><g><path fill="#006d00" fill-rule="evenodd" stroke="#fff" stroke-width="8.25" d="M354.331 531.496l88.583 88.583 17.716-53.149v88.582l35.433-35.433-17.716 88.583 35.432-35.434-17.716 88.584 35.433-35.433-17.716 106.299 35.433-35.433-35.433 106.299 35.433-35.433-17.717 106.298-17.716 53.151-17.717 17.72-17.717-17.72-17.716-53.151-53.15-82.294 35.434 11.429-35.433-106.299 35.433 35.433-53.15-106.299 35.433 35.433-53.15-88.584 53.15 35.434-70.866-88.583 53.149 35.433-70.866-70.866 70.866 35.433-53.149-88.583z" transform="matrix(.02023 -.13745 .14298 .02442 291.49 143.837)"/><path fill="none" stroke="#000" stroke-width="1pt" d="M378.962 560.015l63.952 95.497 17.716 53.15 8.859 45.205 8.858 78.811 9.315 70.866 8.401 141.736" transform="matrix(.02023 -.13745 .14298 .02442 291.49 143.837)"/><path fill="none" stroke="#000" stroke-width="1pt" d="M425.197 903.544l63.665 70.866 50.749-88.583" transform="matrix(.02023 -.13745 .14298 .02442 291.49 143.837)"/><path fill="none" stroke="#000" stroke-width="1pt" d="M417.082 814.961l70.579 88.583 50.75-88.583" transform="matrix(.02023 -.13745 .14298 .02442 291.49 143.837)"/><path fill="none" stroke="#000" stroke-width="1pt" d="M407.48 752.443l70.867 80.235 45.948-88.583M372.047 637.796l88.583 70.866 25.831-70.866" transform="matrix(.02023 -.13745 .14298 .02442 291.49 143.837)"/><path fill="none" stroke="#000" stroke-width="1pt" d="M360.618 602.363l82.296 53.149 10.515-53.149M389.764 690.945l81.095 70.866 33.946-70.866" transform="matrix(.02023 -.13745 .14298 .02442 291.49 143.837)"/></g></g><g stroke="#000"><path fill="#9d9d9d" fill-rule="evenodd" stroke-width=".25535664" d="M425.301 222.458l24.962-4.479 26.003 4.479-12.065 5.016-22.258.359-16.642-5.375z"/><path fill="#c00" stroke-width=".41267457" d="M450.453 182.12c-4.363 1.517-9.196-2.134-17.064 3.824 0 0-13.717-5.868-14.758 7.694-.042.549 2.17 3.856 2.479 3.62 1.723-1.323-.819 1.285-.819 1.662 0 .38.253.59.339.758.083.17.294.422.336 1.139.042.716-1.555 2.67-.88 3.387.673.717.715 2.783.715 3.372 0 .59.422 2.234.717 2.572.294.337.8 1.179.8 1.895 0 .717.295 2.698.167 3.202-.125.505.759 1.138 1.56 1.39.801.254 11.131.433 25.629.18 14.499-.253 19.336 2.042 25.326-.137.926-.337 1.095-1.095 1.012-1.517-.086-.42 0-1.768.252-2.106.253-.337 1.94-3.034 1.601-3.54.318-.287 2.683 1.366 1.177-.11-.386-.379.216-4.362.424-5.2.209-.841.53-2.42.917-2.713.388-.293-.658-1.39-.584-1.588.076-.2.357-.818.75-1.1 0 0 .731-3.427.28-5.111-.447-1.686-2.094-9.268-12.378-7.75 0 0-13.766-5.294-17.998-3.823z" font-size="12"/><g fill-rule="evenodd"><g fill="#f7d917"><g stroke-width="1.241"><path d="M49.75.125c-5.093.89-15.156 29.245-12.61 38.75 1.764 6.58 4.499 11.12 6.047 13.906-3.404-4.685-11.382-13.75-22.25-13.75-13.663 0-15.43 29.948-15.093 31.875.001.007-.002.026 0 .031.001.005.03.028.031.032h.031c.613-.715 6.142-13.094 19.657-13.094 8.896 0 15.829 7.035 18.375 10.031-.001.945.022 1.858.03 2.781-2.003 2.829-3.28 9.532-9.468 17.97C27.023 98.851 4.128 99.896.28 100h49.532c.047 0 .109.003.156 0 .022.002.04-.001.062 0 .047.003.11 0 .157 0h49.53c-3.846-.103-27.179-1.148-34.655-11.344-6.188-8.437-7.028-15.14-9.032-17.969.009-.923.032-1.836.032-2.78 2.545-2.997 9.478-10.032 18.374-10.032 13.515 0 19.044 12.38 19.657 13.094h.031c.002-.004.03-.027.031-.031.002-.006-.001-.025 0-.032.337-1.927-1.43-31.875-15.094-31.875-10.867 0-18.845 9.065-22.25 13.75 1.55-2.786 4.29-8.575 5.72-13.906C65.117 29.219 55.091.132 50 .125c-.08 0-.17-.014-.25 0zm-6.438 52.844c.353.49.663.912.907 1.281.005.008.541 2.977.547 2.984-.003.064 2.627 10.186 2.624 10.25-.264-.392-3.737-13.915-4.078-14.515zm13.376 0c-.341.6-4.033 14.123-4.297 14.515-.003-.064 3.393-13.139 3.39-13.203 0-.01-.437 2.964-.437 2.953.244-.369.991-3.775 1.343-4.265z" transform="matrix(.1367 -.01227 .0246 .1999 426.047 191.451)"/><path d="M42 67.578s4-1.86 8-1.86 8 1.86 8 1.86v4.953s-4-1.86-8-1.86-8 1.86-8 1.86v-4.953z" transform="matrix(.1367 -.01227 .0246 .1999 426.047 191.451)"/><g><path d="M49.75.125c-5.093.89-15.156 29.245-12.61 38.75 1.764 6.58 4.499 11.12 6.047 13.906-3.404-4.685-11.382-13.75-22.25-13.75-13.663 0-15.43 29.948-15.093 31.875.001.007-.002.026 0 .031.001.005.03.028.031.032h.031c.613-.715 6.142-13.094 19.657-13.094 8.896 0 15.829 7.035 18.375 10.031-.001.945.022 1.858.03 2.781-2.003 2.829-3.28 9.532-9.468 17.97C27.023 98.851 4.128 99.896.28 100h49.532c.047 0 .109.003.156 0 .022.002.04-.001.062 0 .047.003.11 0 .157 0h49.53c-3.846-.103-27.179-1.148-34.655-11.344-6.188-8.437-7.028-15.14-9.032-17.969.009-.923.032-1.836.032-2.78 2.545-2.997 9.478-10.032 18.374-10.032 13.515 0 19.044 12.38 19.657 13.094h.031c.002-.004.03-.027.031-.031.002-.006-.001-.025 0-.032.337-1.927-1.43-31.875-15.094-31.875-10.867 0-18.845 9.065-22.25 13.75 1.55-2.786 4.29-8.575 5.72-13.906C65.117 29.219 55.091.132 50 .125c-.08 0-.17-.014-.25 0zm-6.438 52.844c.353.49.663.912.907 1.281.005.008.541 2.977.547 2.984-.003.064 2.627 10.186 2.624 10.25-.264-.392-3.737-13.915-4.078-14.515zm13.376 0c-.341.6-4.033 14.123-4.297 14.515-.003-.064 3.393-13.139 3.39-13.203 0-.01-.437 2.964-.437 2.953.244-.369.991-3.775 1.343-4.265z" transform="matrix(.13626 .01642 -.0175 .20066 460.215 190.364)"/><path d="M42 67.578s4-1.86 8-1.86 8 1.86 8 1.86v4.953s-4-1.86-8-1.86-8 1.86-8 1.86v-4.953z" transform="matrix(.13626 .01642 -.0175 .20066 460.215 190.364)"/></g></g><path stroke-width=".1966679" d="M420.438 200.808l2.665-3.25s.249.322 0 0c-5.464-7.063-5.74-11.116-5.125-13.168.615-2.053 1.845-4.276 5.125-7.012 3.28-2.737 5.544-1.216 8.62-1.216 3.075 0 3.895.684 6.56 1.026 2.666.342 9.842.684 9.842.684v-1.88s.283.052 0 0c-3.169-.592-7.176 0-9.841-.685-2.666-.684-4.921-.855-7.791-.855s-4.93-.837-6.775.36c-1.845 1.197-4.1 3.25-5.74 4.96-1.64 1.71-2.46 5.13-2.256 7.354.205 2.223 1.025 4.105 2.256 5.815 1.23 1.71 1.025 3.078 1.435 4.276.41 1.197 1.025 3.762 1.025 3.591zM479.562 200.808l-2.665-3.25s-.249.322 0 0c5.464-7.063 5.74-11.116 5.125-13.168-.615-2.053-1.845-4.276-5.125-7.012-3.28-2.737-5.545-1.216-8.62-1.216-3.075 0-3.895.684-6.56 1.026-2.666.342-9.842.684-9.842.684v-1.88s-.283.052 0 0c3.168-.592 7.176 0 9.841-.685 2.666-.684 4.92-.855 7.791-.855 2.87 0 4.93-.837 6.775.36 1.845 1.197 4.1 3.25 5.74 4.96 1.64 1.71 2.46 5.13 2.256 7.354-.205 2.223-1.026 4.105-2.256 5.815-1.23 1.71-1.025 3.078-1.435 4.276-.41 1.197-1.025 3.762-1.025 3.591z"/><path stroke-width=".22967510000000002" d="M445.536 174.441h9.507v19.5h-9.507z"/><g><path stroke-width=".13753" d="M446.672 157.25s1.024.832 1.81 1.903c.784 1.071 1.332 2.38 1.332 2.38s-1.31-.547-2.38-1.332c-1.071-.786-1.904-1.81-1.904-1.81v7.236s.833-1.024 1.904-1.81c1.07-.784 2.38-1.332 2.38-1.332s-.422 1.08-.694 2.38c-.245 1.17-2.251 3.869-2.251 3.869l5.86.393s-.975-3.093-1.367-4.262c-.423-1.259-.596-2.38-.596-2.38s1.309.548 2.38 1.333c1.07.785 1.904 1.809 1.904 1.809v-7.235s-.833 1.023-1.904 1.809c-1.071.785-2.38 1.332-2.38 1.332s.547-1.309 1.333-2.38c.785-1.07 1.808-1.904 1.808-1.904h-7.235z"/><path stroke-width=".206295" d="M455.005 170.143a4.715 4.715 0 1 1-9.43 0 4.715 4.715 0 1 1 9.43 0z"/><path stroke-width=".13753" d="M445.68 170.82h9.38s.135-1.815-.543-2.494h-2.914l-.05-2.72h-2.762l-.049 2.72s-1.96.098-2.864.098c-.41 1.112-.346 1.205-.346 1.205l.148 1.19z"/></g><g stroke-width=".75"><path stroke-width=".206295" d="M444.25 193.288s1.709 1.391 3.02 3.18c1.311 1.787 2.225 3.973 2.225 3.973s-2.185-.914-3.974-2.225c-1.788-1.312-3.178-3.02-3.178-3.02v12.08s1.39-1.71 3.178-3.02c1.789-1.312 3.974-2.226 3.974-2.226s-.914 2.186-2.225 3.974c-1.311 1.788-3.02 3.179-3.02 3.179h12.08s-1.709-1.391-3.02-3.18c-1.312-1.787-2.225-3.973-2.225-3.973s2.185.914 3.973 2.225c1.788 1.312 3.18 3.02 3.18 3.02v-12.08s-1.392 1.71-3.18 3.02c-1.788 1.312-3.973 2.226-3.973 2.226s.913-2.186 2.225-3.974c1.311-1.788 3.02-3.179 3.02-3.179h-12.08zM421.245 213.797l5.948-1.049s-1.924-1.073-3.526-2.606c-1.602-1.533-2.882-3.527-2.882-3.527s2.311.52 4.3 1.501c1.989.981 3.655 2.422 3.655 2.422l-2.098-11.896s-1.073 1.924-2.606 3.526c-1.533 1.602-3.527 2.882-3.527 2.882s.52-2.311 1.502-4.3c.98-1.989 2.422-3.655 2.422-3.655l-5.948 1.049 2.76 15.653zM476.147 197.095s1.441 1.666 2.422 3.655c.98 1.989 1.501 4.3 1.501 4.3s-1.993-1.28-3.526-2.882c-1.534-1.602-2.607-3.526-2.607-3.526l-2.097 11.896s1.666-1.44 3.655-2.422c1.988-.98 4.3-1.501 4.3-1.501s-1.28 1.994-2.882 3.527c-1.602 1.533-3.526 2.606-3.526 2.606l5.948 1.049 2.76-15.653-5.948-1.049z"/></g><path stroke-width=".206295" d="M421.306 213.179l.041 8.666s14.482-4.931 28.963-4.931c14.482 0 28.964 4.931 28.964 4.931v-8.666s-14.492-4.932-28.984-4.932-28.984 4.932-28.984 4.932z"/></g><g fill="#fff" stroke-width="1.5"><path stroke-width=".27281999999999995" d="M419.963 196.194a2.205 2.205 0 11-4.41 0 2.205 2.205 0 114.41 0zM417.135 191.166a2.205 2.205 0 11-4.41 0 2.205 2.205 0 114.41 0zM416.546 185.272a2.205 2.205 0 11-4.41 0 2.205 2.205 0 114.41 0zM418.314 179.77a2.205 2.205 0 11-4.41 0 2.205 2.205 0 114.41 0zM422.047 175.252a2.205 2.205 0 11-4.41 0 2.205 2.205 0 114.41 0zM427.155 172.108a2.205 2.205 0 11-4.409 0 2.205 2.205 0 114.41 0zM432.853 172.5a2.205 2.205 0 11-4.41 0 2.205 2.205 0 114.41 0zM438.551 173.444a2.205 2.205 0 11-4.41 0 2.205 2.205 0 114.41 0zM444.249 174.033a2.205 2.205 0 11-4.41 0 2.205 2.205 0 114.41 0zM480.037 196.194a2.205 2.205 0 104.41 0 2.205 2.205 0 10-4.41 0zM482.865 191.166a2.205 2.205 0 104.41 0 2.205 2.205 0 10-4.41 0zM483.454 185.272a2.205 2.205 0 104.41 0 2.205 2.205 0 10-4.41 0zM481.686 179.77a2.205 2.205 0 104.41 0 2.205 2.205 0 10-4.41 0zM477.953 175.252a2.205 2.205 0 104.41 0 2.205 2.205 0 10-4.41 0zM472.844 172.108a2.205 2.205 0 104.41 0 2.205 2.205 0 10-4.41 0zM467.147 172.5a2.205 2.205 0 104.41 0 2.205 2.205 0 10-4.41 0zM461.449 173.444a2.205 2.205 0 104.41 0 2.205 2.205 0 10-4.41 0zM455.751 174.033a2.205 2.205 0 104.41 0 2.205 2.205 0 10-4.41 0zM452.495 191.243a2.205 2.205 0 11-4.41 0 2.205 2.205 0 114.41 0z"/><path stroke-width=".27281999999999995" d="M452.495 187.315a2.205 2.205 0 1 1-4.41 0 2.205 2.205 0 1 1 4.41 0z"/><path stroke-width=".27281999999999995" d="M452.495 184.171a2.205 2.205 0 1 1-4.41 0 2.205 2.205 0 1 1 4.41 0z"/><path stroke-width=".27281999999999995" d="M452.495 181.303a2.205 2.205 0 11-4.41 0 2.205 2.205 0 114.41 0zM452.495 172.108a2.205 2.205 0 11-4.41 0 2.205 2.205 0 114.41 0z"/><path stroke-width=".27281999999999995" d="M452.495 172.5a2.205 2.205 0 1 1-4.41 0 2.205 2.205 0 1 1 4.41 0z"/><path stroke-width=".27281999999999995" d="M452.495 174.544a2.205 2.205 0 1 1-4.41 0 2.205 2.205 0 1 1 4.41 0z"/><path stroke-width=".27281999999999995" d="M452.495 177.334a2.205 2.205 0 1 1-4.41 0 2.205 2.205 0 1 1 4.41 0z"/></g><g fill="#fff"><path stroke-width=".27506" d="M453.117 200.734a2.849 2.849 0 11-5.697 0 2.849 2.849 0 115.697 0zM423.34 205.902a2.849 2.849 0 11-5.698 0 2.849 2.849 0 115.698 0zM482.753 205.902a2.849 2.849 0 11-5.697 0 2.849 2.849 0 115.697 0z"/></g><g><path fill="#002b7f" stroke-width=".21305053" d="M446.147 210.405h8.806v3.839h-8.806z"/><path fill="#3e8225" stroke-width="1.5" d="M16.043 233.11a22.995 8.556 0 1 1-45.99 0 22.995 8.556 0 1 1 45.99 0z" transform="matrix(-.1718 -.01744 .00604 .24262 461.52 156.97)"/><path fill="#c00" stroke-width=".27511638" d="M421.357 215.266l-2.206 2.206 2.559 1.478 5.952-1.595-1.061-3.37-5.244 1.281zM479.743 215.266l2.206 2.206-2.559 1.478-5.951-1.595 1.06-3.37 5.244 1.281z"/><path fill="#3e8225" stroke-width="1.5" d="M16.043 233.11a22.995 8.556 0 1 1-45.99 0 22.995 8.556 0 1 1 45.99 0z" transform="matrix(.1718 -.01744 -.00604 .24262 439.58 156.97)"/><path fill="#fff" stroke-width=".177331" d="M444.242 210.692a1.084 1.084 0 11-2.167 0 1.084 1.084 0 112.167 0zM444.581 214.146a1.084 1.084 0 11-2.167 0 1.084 1.084 0 112.167 0zM430.695 213.13a1.084 1.084 0 11-2.167 0 1.084 1.084 0 112.167 0zM432.05 216.381a1.084 1.084 0 11-2.168 0 1.084 1.084 0 112.168 0zM456.807 210.692a1.084 1.084 0 102.168 0 1.084 1.084 0 10-2.168 0zM456.469 214.146a1.084 1.084 0 102.167 0 1.084 1.084 0 10-2.167 0zM470.355 213.13a1.084 1.084 0 102.167 0 1.084 1.084 0 10-2.167 0zM469 216.381a1.084 1.084 0 102.167 0 1.084 1.084 0 10-2.167 0z"/></g></g><path fill="#fff" stroke-width=".43420762" d="M472.43 228.267c.827-.144 5.82-1.331 6.872-1.966-.679-1.223-1.896-2.18-.949-1.778.51.217.914-1.47-.567-2.758-4.3 1.41-14.612 3.988-27.57 3.988-13.26 0-23.702-2.713-28.002-4.123-1.481 1.288-1.02 2.752-1.11 3.3 0 .004.002.69.272 1.235 1.457 1.584 6.18 2.364 7.007 2.508 3.89.676 7.779 1.697 21.824 1.697 12.994 0 18.333-1.428 22.222-2.103z" font-size="12"/><path fill="#fff" stroke-width=".43404468000000007" d="M427.951 219.346c-.827.144-6.092 2.008-7.143 2.643v.017c.09.547-.913 3.095.568 4.383 4.3-1.41 16.373-5.612 29.33-5.612 13.261 0 24.245 4.202 28.545 5.612 1.48-1.288.477-3.836.567-4.383v-.017c-1.051-.635-6.315-2.5-7.143-2.643-3.89-.675-7.914-3.187-21.96-3.187-12.993 0-18.874 2.512-22.764 3.187z" font-size="12"/><g fill-rule="evenodd"><path stroke-width="1.6" d="M115.508 301.56a1.872 1.872 0 1 1-3.743 0 1.872 1.872 0 1 1 3.743 0z" transform="matrix(.19025 -.01968 .0215 .17422 395.712 172.242)"/><path stroke-width="1.6" d="M115.508 301.56a1.872 1.872 0 1 1-3.743 0 1.872 1.872 0 1 1 3.743 0z" transform="matrix(.19025 -.01968 .0215 .17422 395.306 173.134)"/><path stroke-width="1.6" d="M115.508 301.56a1.872 1.872 0 1 1-3.743 0 1.872 1.872 0 1 1 3.743 0z" transform="matrix(.19025 -.01968 .0215 .17422 396.088 173.62)"/><path d="M113.518 303.669l8.526-3.166-4.185 2.392 2.686-.083-2.492 1.168 4.001.275-8.536-.586z" transform="matrix(.3808 -.0394 .04303 .34872 367.566 121.86)"/></g><g fill-rule="evenodd"><path stroke-width="1.6" d="M115.508 301.56a1.872 1.872 0 1 1-3.743 0 1.872 1.872 0 1 1 3.743 0z" transform="matrix(.19025 -.01968 .0215 .17422 407.153 168.968)"/><path stroke-width="1.6" d="M115.508 301.56a1.872 1.872 0 1 1-3.743 0 1.872 1.872 0 1 1 3.743 0z" transform="matrix(.19025 -.01968 .0215 .17422 406.747 169.86)"/><path stroke-width="1.6" d="M115.508 301.56a1.872 1.872 0 1 1-3.743 0 1.872 1.872 0 1 1 3.743 0z" transform="matrix(.19025 -.01968 .0215 .17422 407.53 170.345)"/><path d="M113.518 303.669l8.526-3.166-4.185 2.392 2.686-.083-2.492 1.168 4.001.275-8.536-.586z" transform="matrix(.3808 -.0394 .04303 .34872 379.007 118.587)"/></g><g fill-rule="evenodd"><path stroke-width="1.6" d="M115.508 301.56a1.872 1.872 0 1 1-3.743 0 1.872 1.872 0 1 1 3.743 0z" transform="matrix(.18943 .02643 -.02084 .1743 434.213 162.083)"/><path stroke-width="1.6" d="M115.508 301.56a1.872 1.872 0 1 1-3.743 0 1.872 1.872 0 1 1 3.743 0z" transform="matrix(.18943 .02643 -.02084 .1743 433.606 162.851)"/><path stroke-width="1.6" d="M115.508 301.56a1.872 1.872 0 1 1-3.743 0 1.872 1.872 0 1 1 3.743 0z" transform="matrix(.18943 .02643 -.02084 .1743 434.249 163.51)"/><path d="M113.518 303.669l8.526-3.166-4.185 2.392 2.686-.083-2.492 1.168 4.001.275-8.536-.586z" transform="matrix(.37915 .0529 -.0417 .34888 418.947 106.429)"/></g><g fill-rule="evenodd"><path stroke-width="1.6" d="M115.508 301.56a1.872 1.872 0 1 1-3.743 0 1.872 1.872 0 1 1 3.743 0z" transform="matrix(.19025 .01968 .0215 -.17422 434.512 270.684)"/><path stroke-width="1.6" d="M115.508 301.56a1.872 1.872 0 1 1-3.743 0 1.872 1.872 0 1 1 3.743 0z" transform="matrix(.19025 .01968 .0215 -.17422 434.107 269.793)"/><path stroke-width="1.6" d="M115.508 301.56a1.872 1.872 0 1 1-3.743 0 1.872 1.872 0 1 1 3.743 0z" transform="matrix(.19025 .01968 .0215 -.17422 434.889 269.307)"/><path d="M113.518 303.669l8.526-3.166-4.185 2.392 2.686-.083-2.492 1.168 4.001.275-8.536-.586z" transform="matrix(.3808 .0394 .04303 -.34872 406.366 321.065)"/></g><g fill-rule="evenodd"><path stroke-width="1.6" d="M115.508 301.56a1.872 1.872 0 1 1-3.743 0 1.872 1.872 0 1 1 3.743 0z" transform="matrix(.19025 .01968 .0215 -.17422 446.06 273.7)"/><path stroke-width="1.6" d="M115.508 301.56a1.872 1.872 0 1 1-3.743 0 1.872 1.872 0 1 1 3.743 0z" transform="matrix(.19025 .01968 .0215 -.17422 445.654 272.808)"/><path stroke-width="1.6" d="M115.508 301.56a1.872 1.872 0 1 1-3.743 0 1.872 1.872 0 1 1 3.743 0z" transform="matrix(.19025 .01968 .0215 -.17422 446.435 272.322)"/><path d="M113.518 303.669l8.526-3.166-4.185 2.392 2.686-.083-2.492 1.168 4.001.275-8.536-.586z" transform="matrix(.3808 .0394 .04303 -.34872 417.913 324.08)"/></g></g></svg>