<svg xmlns="http://www.w3.org/2000/svg" width="900" height="600" viewBox="0 0 900 600"><path d="M0 0h900v600H0z"/><path fill="#fff" d="M0 0h900v400H0z"/><path fill="#ce1126" d="M0 0h900v200H0z"/><g fill="#007a3d"><path d="M273.647 374.298l-5.172-5.676 5.22-5.626 5.22-5.625 5.172 5.676 5.173 5.677-5.22 5.625-5.22 5.626-5.166-5.687zm-35.507-2.86c-1.86-.74-4.879-3.174-6.858-5.527-3.729-4.437-4.578-6.507-2.073-5.05 3.736 2.176 11.135 3.59 13.768 2.636 9.713-3.528 11.92-17.629 4.165-26.574-1.522-1.754-2.768-3.794-2.768-4.533s1.619-2.121 3.594-3.071c2.768-1.332 4.121-2.782 5.893-6.32 1.798-3.593 2.537-4.376 3.4-3.596 1.235 1.113 5.402 11.928 5.402 14.02 0 1.102 1.506 1.344 8.323 1.344h8.323l-1.3-3.391c-.714-1.863-1.891-4.373-2.614-5.575-1.171-1.947-1.178-2.291-.054-3.163a938.88 938.88 0 015.123-3.92c2.123-1.617 4.108-3.65 4.406-4.518.735-2.152 5.338-8.36 6.193-8.36.379 0 .692 6.507.692 14.462v14.462h103.896v-41.435l-2.89-1.944-2.89-1.944-2.927 2.427-2.928 2.428v29.615H340.38c-24.004 0-43.64-.163-43.64-.36 0-.317 21.715-32.21 24.37-35.796.551-.746 1.916-2.779 3.031-4.519s2.251-3.367 2.52-3.616c.276-.249 1.4-1.876 2.509-3.616 1.105-1.74 2.395-3.64 2.868-4.22.473-.582 8.338-12.047 17.482-25.48s16.895-24.45 17.234-24.48c.335-.031.81 1.065 1.058 2.43 1.371 7.567 2.424 11.803 3.51 14.132 1.39 2.98.576 4.093-3.097 4.216-1.738.058-5.742 5.404-24.52 32.741-12.343 17.97-22.567 32.993-22.72 33.388s10.975.719 24.727.719h25.006l.012-9.719c.007-5.343.288-10.137.623-10.651 1.57-2.404 18.102-14.966 19.254-14.633.717.208 5.138 3.552 9.826 7.43l8.52 7.056v60.293h-144.38l-1.45 5.83c-1.74 6.987-4.587 12.027-8.41 14.873-3.632 2.656-11.805 3.405-16.595 1.499zm179.95-69.16c0-32.816.272-47.152.901-47.577.495-.334 2.646 1.382 4.779 3.814s5.933 6.337 8.45 8.676c3.971 3.698 4.384 4.38 3.16 5.19-4.092 2.703-3.989 1.852-3.989 33.047v29.312h7.956c7.064 0 8.37-.262 11.636-2.346 4.055-2.585 4.324-2.244 2.317 2.915-.751 1.924-1.59 5.737-1.872 8.472l-.508 4.971-16.417.246-16.413.245V302.25zM504.041 337.045c.435-13.215 1.691-17.7 6.15-21.956 3.432-3.276 8.341-4.829 14.024-4.43l4.256.299.256-5.407c.323-6.852-.247-9.297-2.342-10.022-2.514-.868-2-3.708 1.046-5.775 1.49-1.011 5.142-4.515 8.11-7.788s5.692-5.949 6.05-5.949.65 13.066.65 29.036v29.04h11.68v-29.88c0-25.955-.172-30.069-1.312-31.308-.72-.783-1.66-1.427-2.085-1.427-1.873 0-.548-3.633 1.935-5.319 1.493-1.011 5.122-4.495 8.072-7.743 2.947-3.249 5.67-5.697 6.05-5.442s.688 18.61.688 40.791v40.328h11.68v-82.586l-2.086-1.972c-1.146-1.083-2.085-2.465-2.085-3.068s2.596-3.375 5.768-6.163 6.575-6.303 7.565-7.815c4.258-6.508 4.19-7.478 4.19 56.686v59.434h-88.645l.532-11.577zm24.83-8.853v-5.898H525.6c-4.393 0-8.407 4.147-8.407 8.69v3.106h11.68v-5.891zm72.613-26.697c0-32.942.272-47.336.905-47.761.498-.334 2.658 1.389 4.797 3.83 2.142 2.442 5.956 6.361 8.48 8.711 3.985 3.712 4.402 4.396 3.171 5.21-4.108 2.714-4.005 1.863-4.005 33.177v29.428h8.15c7.394 0 8.446-.218 11.33-2.35 1.75-1.29 3.384-2.125 3.635-1.852s-.2 2.247-1.005 4.389-1.697 6.14-1.982 8.884l-.52 4.992-16.48.245-16.48.245v-47.162zm-65.693-49.375c-1.471-.586-3.162-1.625-3.754-2.306-.908-1.042-.457-1.144 2.843-.63 5.93.92 9.566-.173 12.873-3.882l2.909-3.255 4.042 1.56c2.223.858 4.546 1.348 5.166 1.09 1.604-.672 4.51-5.68 4.218-7.274-.354-1.945 1.287-1.648 2.302.412 1.991 4.045.328 9.177-3.476 10.74-1.863.766-3.664.786-6.682.085-3.707-.865-4.315-.773-5.94.882-3.632 3.712-9.174 4.699-14.497 2.588zm10.114-14.983c-2.01-1.492-6.253-9.136-6.412-11.568-.141-2.084.2-2.72 1.562-2.935 2.386-.371 3.488 1.355 5.323 8.34 1.503 5.72 1.346 7.525-.47 6.163z"/></g></svg>