<svg xmlns="http://www.w3.org/2000/svg" xmlns:xlink="http://www.w3.org/1999/xlink" width="900" height="600" viewBox="-120 -80 240 160"><defs><path id="a" stroke-miterlimit="10" d="M-1 55.426h2V-38c2-2 2-5 2-8 0-2 0-10-3-18.663C-3-56-3-48-3-46c0 3 0 6 2 8z" transform="rotate(30)"/></defs><path fill="#fff" d="M-120-80h240V80h-240z"/><path d="M-120-80h240v48h-240z"/><path fill="#060" d="M-120 32h240v48h-240z"/><g id="b"><use stroke="#000" xlink:href="#a"/><use fill="#fff" xlink:href="#a"/></g><use transform="scale(-1 1)" xlink:href="#b"/><path fill="#b00" d="M-120-24v48h101c3 8 13 24 19 24s16-16 19-24h101v-48H19C16-32 6-48 0-48s-16 16-19 24z"/><path id="c" d="M19 24c3-8 5-16 5-24s-2-16-5-24c-3 8-5 16-5 24s2 16 5 24"/><use transform="scale(-1 1)" xlink:href="#c"/><g fill="#fff"><ellipse rx="4" ry="6"/><path id="d" d="M1 5.85s4 8 4 21-4 21-4 21z"/><use transform="scale(-1)" xlink:href="#d"/><use transform="scale(-1 1)" xlink:href="#d"/><use transform="scale(1 -1)" xlink:href="#d"/></g></svg>