<svg xmlns="http://www.w3.org/2000/svg" xmlns:xlink="http://www.w3.org/1999/xlink" width="726" height="885" viewBox="-17.582 -4.664 71.571 87.246"><use stroke="#003893" stroke-width="5.165" xlink:href="#a"/><path id="a" fill="#DC143C" d="M-15 37.574h60L-15 0v80h60l-60-60z"/><g fill="#fff"><path d="M-11.95 23.483a12.84 12.84 0 0 0 23.9 0 11.95 11.95 0 0 1-23.9 0"/><g transform="translate(0 29.045) scale(5.56106)"><circle r="1"/><g id="d"><g id="c"><path id="b" d="M.195-.98L0-1.39l-.195.408" transform="rotate(11.25)"/><use transform="rotate(22.5)" xlink:href="#b"/><use transform="rotate(45)" xlink:href="#b"/></g><use transform="rotate(67.5)" xlink:href="#c"/></g><use transform="scale(-1 1)" xlink:href="#d"/></g><g transform="matrix(8.1434 0 0 8.1434 0 58.787)"><circle r="1"/><g id="g"><g id="f"><path id="e" d="M.259.966L0 1.576l-.259-.61"/><use transform="rotate(180)" xlink:href="#e"/></g><use transform="rotate(90)" xlink:href="#f"/></g><use transform="rotate(30)" xlink:href="#g"/><use transform="rotate(60)" xlink:href="#g"/></g></g></svg>