<svg xmlns="http://www.w3.org/2000/svg" xmlns:xlink="http://www.w3.org/1999/xlink" width="1050" height="700" version="1.0" viewBox="0 0 1050 700"><defs><linearGradient id="a"><stop offset="0"/><stop offset="1" stop-color="#fff"/></linearGradient><linearGradient id="c"><stop offset="0" stop-color="#4a0000"/><stop offset="1" stop-color="#ffcf00"/></linearGradient><linearGradient id="b"><stop offset="0"/><stop offset="1" stop-color="#00f"/></linearGradient><linearGradient id="x" x1="41.458" x2="52.6" y1="237.941" y2="227.494" gradientTransform="matrix(1.14308 0 0 .78092 .366 452.084)" gradientUnits="userSpaceOnUse" xlink:href="#c"/><linearGradient id="w" x1="60.328" x2="72.657" y1="184.92" y2="173.36" gradientTransform="matrix(.92388 0 0 .96621 .366 467.372)" gradientUnits="userSpaceOnUse" xlink:href="#c"/><linearGradient id="v" x1="120.224" x2="119.338" y1="156.071" y2="162.873" gradientTransform="matrix(.7891 0 0 1.13123 .366 452.084)" gradientUnits="userSpaceOnUse" xlink:href="#b"/><linearGradient id="u" x1="55.699" x2="69.66" y1="184.074" y2="170.985" gradientTransform="matrix(.93783 0 0 .95183 .366 467.372)" gradientUnits="userSpaceOnUse" xlink:href="#c"/><linearGradient id="t" x1="89.291" x2="89.458" y1="215.985" y2="193.804" gradientTransform="matrix(1.06294 0 0 .8398 .366 467.372)" gradientUnits="userSpaceOnUse" xlink:href="#c"/><linearGradient id="s" x1="56.002" x2="63.752" y1="105.014" y2="105.014" gradientTransform="matrix(.7175 0 0 1.24414 19.435 478.49)" gradientUnits="userSpaceOnUse" xlink:href="#b"/><linearGradient id="r" x1="30.909" x2="40.913" y1="133.207" y2="133.207" gradientTransform="matrix(.94579 0 0 .94383 19.435 478.49)" gradientUnits="userSpaceOnUse" xlink:href="#b"/><linearGradient id="q" x1="13.504" x2="23.247" y1="126.427" y2="126.427" gradientTransform="matrix(.79992 0 0 1.11593 19.435 478.49)" gradientUnits="userSpaceOnUse" xlink:href="#b"/><linearGradient id="p" x1="13.377" x2="23.037" y1="148.054" y2="148.054" gradientTransform="matrix(1.02933 0 0 .86722 19.435 478.49)" gradientUnits="userSpaceOnUse" xlink:href="#b"/><linearGradient id="o" x1="56.194" x2="50.624" y1="176.524" y2="173.209" gradientTransform="matrix(.76055 0 0 1.1737 19.937 478.49)" gradientUnits="userSpaceOnUse" xlink:href="#b"/><linearGradient id="n" x1="30.063" x2="23.649" y1="219.749" y2="215.93" gradientTransform="matrix(1.04483 0 0 .85436 19.937 478.49)" gradientUnits="userSpaceOnUse" xlink:href="#b"/><linearGradient id="m" x1="39.92" x2="33.016" y1="179.646" y2="175.535" gradientTransform="matrix(.79992 0 0 1.11593 19.937 478.49)" gradientUnits="userSpaceOnUse" xlink:href="#b"/><linearGradient id="l" x1="50.516" x2="44.601" y1="183.579" y2="180.057" gradientTransform="matrix(.89446 0 0 .99799 19.937 478.49)" gradientUnits="userSpaceOnUse" xlink:href="#b"/><linearGradient id="k" x1="201.717" x2="200.051" y1="217.617" y2="212.729" gradientTransform="matrix(1.02139 0 0 .87397 19.435 478.49)" gradientUnits="userSpaceOnUse" xlink:href="#b"/><linearGradient id="j" x1="244.207" x2="241.923" y1="187.464" y2="182.494" gradientTransform="matrix(.835 0 0 1.06905 19.435 478.49)" gradientUnits="userSpaceOnUse" xlink:href="#b"/><linearGradient id="i" x1="321.593" x2="315.632" y1="149.736" y2="147.61" gradientTransform="matrix(.66372 0 0 1.34493 19.435 478.49)" gradientUnits="userSpaceOnUse" xlink:href="#b"/><linearGradient id="h" x1="314.233" x2="310.074" y1="165.933" y2="165.064" gradientTransform="matrix(.73208 0 0 1.21935 19.435 478.49)" gradientUnits="userSpaceOnUse" xlink:href="#b"/><linearGradient id="g" x1="133.102" x2="115.366" y1="225.513" y2="219.954" gradientTransform="matrix(1.02594 0 0 .87009 19.435 478.49)" gradientUnits="userSpaceOnUse" xlink:href="#b"/><linearGradient id="f" x1="140.902" x2="135.367" y1="187.709" y2="184.645" gradientTransform="matrix(.86671 0 0 1.02994 19.435 478.49)" gradientUnits="userSpaceOnUse" xlink:href="#b"/><linearGradient id="e" x1="187.142" x2="182.271" y1="150.675" y2="149.971" gradientTransform="matrix(.667 0 0 1.33832 19.435 478.49)" gradientUnits="userSpaceOnUse" xlink:href="#b"/><linearGradient id="d" x1="178.245" x2="174.871" y1="173.502" y2="172.798" gradientTransform="matrix(.76454 0 0 1.16758 19.435 478.49)" gradientUnits="userSpaceOnUse" xlink:href="#b"/></defs><path style="marker:none" fill="#fff" d="M0 233.333h286v233.333H0z" overflow="visible"/><path d="M278.444 351.205c-.7.861-1.508 2.476-1.67 3.498-.215 1.077-.86 2.96-1.4 4.198-1.399 3.122-1.345 5.76.162 8.02 1.885 2.852 5.06 2.799 6.568-.054 1.4-2.637 1.023-6.35-.861-9.15-1.669-2.422-1.884-4.628-.808-7.158.7-1.453-.538-1.076-1.991.646zM285.12 368.266c-1.024.43-2.154 1.184-2.531 1.723-3.015 3.929 3.822 8.234 8.775 5.597 5.33-2.906 5.491-2.96 8.022-2.099 2.153.7 2.26.7 1.83-.161-.861-1.615-2.207-2.369-7.43-4.145-5.975-1.991-6.19-1.991-8.667-.915zM264.554 369.558c-2.477 1.668-5.114 2.045-7.053 1.023-1.507-.808-1.668-.323-.43 1.291.646.808 2.1 1.669 3.391 1.992 1.239.323 3.392 1.076 4.792 1.614 3.23 1.346 6.137 1.346 8.344 0 4.469-2.69 1.67-7.535-4.307-7.535-1.722 0-3.014.431-4.737 1.615zM277.528 375.425c-.269.592-.538 2.206-.538 3.66-.108 9.633-3.93 18.73-11.144 26.587-1.561 1.668-2.853 3.175-2.853 3.39 0 .539 8.075.377 9.152-.215.969-.484 1.076-.323 1.4 1.561.43 2.584 1.884 5.06 3.66 6.243 1.13.754 1.562.808 2.8.162 2.153-1.023 3.553-3.23 3.822-6.028.27-2.099.485-2.476 1.184-2.099.485.215 2.908.484 5.384.592l4.522.215-2.369-2.798c-4.468-5.275-5.921-7.266-7.698-10.765-2.476-4.79-3.5-8.557-3.93-14.262-.162-2.691-.538-5.382-.754-6.082-.538-1.453-1.884-1.56-2.638-.161zM94.514 351.571c-.7.861-1.507 2.476-1.669 3.499-.215 1.076-.861 2.96-1.4 4.198-1.4 3.121-1.345 5.759.162 8.019 1.884 2.853 5.06 2.799 6.568-.054 1.4-2.637 1.023-6.35-.861-9.15-1.67-2.421-1.884-4.628-.808-7.158.7-1.453-.538-1.076-1.992.646zM101.19 368.633c-1.023.43-2.154 1.184-2.53 1.722-3.015 3.929 3.822 8.234 8.775 5.597 5.33-2.906 5.491-2.96 8.021-2.099 2.154.7 2.261.7 1.83-.161-.86-1.615-2.207-2.368-7.429-4.144-5.975-1.992-6.19-1.992-8.667-.915zM80.625 369.924c-2.477 1.669-5.115 2.045-7.053 1.023-1.507-.807-1.669-.323-.43 1.292.646.807 2.1 1.668 3.391 1.99 1.238.324 3.392 1.077 4.792 1.616 3.23 1.345 6.137 1.345 8.344 0 4.468-2.691 1.669-7.535-4.307-7.535-1.722 0-3.015.43-4.737 1.614zM93.6 375.79c-.27.593-.54 2.207-.54 3.66-.107 9.635-3.93 18.73-11.143 26.588-1.561 1.669-2.854 3.176-2.854 3.39 0 .54 8.076.378 9.153-.214.969-.485 1.076-.323 1.4 1.56.43 2.584 1.884 5.06 3.66 6.244 1.13.753 1.561.807 2.8.161 2.153-1.022 3.553-3.23 3.822-6.028.269-2.099.484-2.476 1.184-2.099.485.215 2.907.485 5.384.592l4.522.215-2.369-2.798c-4.468-5.275-5.922-7.266-7.698-10.764-2.477-4.79-3.5-8.558-3.93-14.263-.162-2.691-.539-5.382-.754-6.082-.538-1.453-1.884-1.56-2.638-.161zM185.527 351.354c-.7.861-1.507 2.476-1.669 3.499-.215 1.076-.861 2.96-1.4 4.198-1.4 3.121-1.346 5.759.162 8.019 1.884 2.853 5.06 2.799 6.568-.054 1.4-2.637 1.023-6.35-.862-9.15-1.669-2.421-1.884-4.628-.807-7.158.7-1.453-.539-1.076-1.992.646zM192.203 368.416c-1.023.43-2.154 1.184-2.53 1.722-3.016 3.929 3.822 8.234 8.774 5.597 5.33-2.906 5.492-2.96 8.022-2.099 2.153.7 2.261.7 1.83-.161-.861-1.615-2.207-2.368-7.429-4.144-5.976-1.992-6.191-1.992-8.667-.915zM171.637 369.707c-2.476 1.669-5.114 2.045-7.052 1.023-1.508-.807-1.669-.323-.43 1.292.645.807 2.099 1.668 3.39 1.99 1.24.324 3.392 1.077 4.792 1.616 3.23 1.345 6.137 1.345 8.345 0 4.468-2.691 1.669-7.535-4.307-7.535-1.723 0-3.015.43-4.738 1.614zM184.612 375.574c-.27.592-.539 2.206-.539 3.66-.107 9.634-3.93 18.73-11.144 26.587-1.56 1.669-2.853 3.176-2.853 3.39 0 .54 8.075.378 9.152-.214.97-.485 1.077-.323 1.4 1.56.43 2.584 1.884 5.06 3.66 6.244 1.131.753 1.562.807 2.8.161 2.154-1.022 3.553-3.23 3.822-6.028.27-2.099.485-2.476 1.185-2.099.484.215 2.907.485 5.383.592l4.523.215-2.37-2.798c-4.468-5.275-5.921-7.266-7.698-10.764-2.476-4.79-3.499-8.558-3.93-14.263-.161-2.691-.538-5.382-.753-6.082-.539-1.453-1.885-1.56-2.638-.161zM5.36 351.205c-.7.861-1.508 2.476-1.67 3.498-.215 1.077-.861 2.96-1.4 4.198-1.4 3.122-1.345 5.76.162 8.02 1.884 2.852 5.06 2.799 6.568-.054 1.4-2.637 1.023-6.35-.861-9.15-1.67-2.422-1.885-4.628-.808-7.158.7-1.453-.538-1.076-1.992.646zM12.035 368.266c-1.023.43-2.154 1.184-2.53 1.723-3.015 3.929 3.822 8.234 8.775 5.597 5.33-2.906 5.49-2.96 8.021-2.099 2.154.7 2.261.7 1.83-.161-.86-1.615-2.207-2.369-7.429-4.145-5.975-1.991-6.19-1.991-8.667-.915zM277.164 200.17c-.7.86-1.507 2.475-1.669 3.497-.215 1.077-.861 2.96-1.4 4.198-1.4 3.122-1.346 5.76.162 8.02 1.884 2.852 5.06 2.799 6.568-.054 1.4-2.637 1.023-6.35-.862-9.15-1.669-2.422-1.884-4.628-.807-7.158.7-1.453-.539-1.076-1.992.646zM283.84 217.23c-1.023.43-2.154 1.184-2.53 1.723-3.016 3.929 3.822 8.234 8.774 5.597 5.33-2.906 5.492-2.96 8.022-2.099 2.153.7 2.261.7 1.83-.161-.861-1.615-2.207-2.369-7.429-4.145-5.976-1.991-6.191-1.991-8.667-.915zM263.274 218.522c-2.476 1.668-5.114 2.045-7.052 1.023-1.508-.808-1.669-.323-.43 1.291.645.808 2.099 1.669 3.39 1.992 1.239.323 3.392 1.076 4.792 1.614 3.23 1.346 6.137 1.346 8.345 0 4.468-2.69 1.669-7.535-4.307-7.535-1.723 0-3.015.431-4.738 1.615zM276.249 224.389c-.27.592-.539 2.206-.539 3.66-.107 9.633-3.93 18.73-11.144 26.587-1.56 1.668-2.853 3.175-2.853 3.39 0 .539 8.075.377 9.152-.215.97-.484 1.077-.323 1.4 1.561.43 2.584 1.884 5.06 3.66 6.243 1.131.754 1.562.808 2.8.162 2.154-1.023 3.553-3.23 3.822-6.028.27-2.099.485-2.476 1.185-2.099.484.215 2.907.484 5.383.592l4.523.215-2.37-2.798c-4.468-5.275-5.921-7.266-7.698-10.765-2.476-4.79-3.499-8.557-3.93-14.262-.161-2.691-.538-5.382-.753-6.082-.539-1.453-1.885-1.56-2.638-.161zM93.235 200.535c-.7.861-1.508 2.476-1.67 3.499-.215 1.076-.86 2.96-1.399 4.198-1.4 3.121-1.346 5.759.162 8.019 1.884 2.853 5.06 2.799 6.568-.054 1.4-2.637 1.022-6.35-.862-9.15-1.669-2.421-1.884-4.628-.807-7.158.7-1.453-.539-1.076-1.992.646zM99.91 217.597c-1.023.43-2.153 1.184-2.53 1.722-3.015 3.929 3.822 8.234 8.775 5.597 5.33-2.906 5.491-2.96 8.022-2.099 2.153.7 2.26.7 1.83-.161-.861-1.615-2.207-2.368-7.43-4.144-5.975-1.992-6.19-1.992-8.667-.915zM79.345 218.888c-2.476 1.669-5.114 2.045-7.052 1.023-1.508-.807-1.67-.323-.431 1.292.646.807 2.1 1.668 3.392 1.99 1.238.324 3.391 1.077 4.791 1.616 3.23 1.345 6.137 1.345 8.344 0 4.469-2.691 1.67-7.535-4.306-7.535-1.723 0-3.015.43-4.738 1.614zM92.32 224.755c-.27.592-.539 2.206-.539 3.66-.108 9.634-3.93 18.73-11.144 26.587-1.561 1.669-2.853 3.176-2.853 3.39 0 .54 8.075.378 9.152-.214.969-.485 1.077-.323 1.4 1.56.43 2.584 1.884 5.06 3.66 6.244 1.131.753 1.562.807 2.8.161 2.153-1.022 3.553-3.23 3.822-6.028.27-2.099.485-2.476 1.185-2.099.484.215 2.907.485 5.383.592l4.522.215-2.368-2.798c-4.469-5.275-5.922-7.266-7.699-10.764-2.476-4.79-3.5-8.558-3.93-14.263-.161-2.691-.538-5.382-.754-6.082-.538-1.453-1.884-1.56-2.638-.161zM184.247 200.318c-.7.861-1.507 2.476-1.669 3.499-.215 1.076-.861 2.96-1.4 4.198-1.399 3.121-1.345 5.759.162 8.019 1.884 2.853 5.06 2.799 6.568-.054 1.4-2.637 1.023-6.35-.861-9.15-1.67-2.421-1.884-4.628-.808-7.158.7-1.453-.538-1.076-1.992.646zM190.923 217.38c-1.023.43-2.153 1.184-2.53 1.722-3.015 3.929 3.822 8.234 8.775 5.597 5.33-2.906 5.491-2.96 8.021-2.099 2.154.7 2.261.7 1.83-.161-.86-1.615-2.206-2.368-7.429-4.144-5.975-1.992-6.19-1.992-8.667-.915zM170.358 218.671c-2.477 1.669-5.115 2.045-7.053 1.023-1.507-.807-1.669-.323-.43 1.292.646.807 2.1 1.668 3.391 1.99 1.238.324 3.392 1.077 4.792 1.616 3.23 1.345 6.137 1.345 8.344 0 4.468-2.691 1.669-7.535-4.307-7.535-1.722 0-3.015.43-4.737 1.614zM183.332 224.538c-.27.592-.538 2.206-.538 3.66-.108 9.634-3.93 18.73-11.144 26.587-1.561 1.669-2.853 3.176-2.853 3.39 0 .54 8.075.378 9.152-.214.969-.485 1.076-.323 1.4 1.56.43 2.584 1.884 5.06 3.66 6.244 1.13.753 1.561.807 2.8.161 2.153-1.022 3.553-3.23 3.822-6.028.27-2.099.484-2.476 1.184-2.099.485.215 2.907.485 5.384.592l4.522.215-2.369-2.798c-4.468-5.275-5.922-7.266-7.698-10.764-2.477-4.79-3.5-8.558-3.93-14.263-.162-2.691-.539-5.382-.754-6.082-.538-1.453-1.884-1.56-2.638-.161zM4.08 200.17c-.7.86-1.508 2.475-1.67 3.497-.215 1.077-.86 2.96-1.4 4.198-1.399 3.122-1.345 5.76.162 8.02 1.885 2.852 5.06 2.799 6.568-.054 1.4-2.637 1.023-6.35-.861-9.15-1.669-2.422-1.884-4.628-.808-7.158.7-1.453-.538-1.076-1.991.646zM10.755 217.23c-1.023.43-2.153 1.184-2.53 1.723-3.015 3.929 3.822 8.234 8.775 5.597 5.33-2.906 5.491-2.96 8.022-2.099 2.153.7 2.26.7 1.83-.161-.861-1.615-2.207-2.369-7.43-4.145-5.975-1.991-6.19-1.991-8.667-.915zM4.148 224.389c-.269.592-.538 2.206-.538 3.66-.054 4.816-1.437 10.3-3.308 14.76.132 6.864.34 9.873-.138 16.563.431 2.584 1.885 5.06 3.661 6.243 1.13.754 1.561.808 2.8.162 2.153-1.023 3.553-3.23 3.822-6.028.27-2.099.485-2.476 1.184-2.099.485.215 2.907.484 5.384.592l4.522.215-2.369-2.798c-4.468-5.275-5.922-7.266-7.698-10.765-2.477-4.79-3.5-8.557-3.93-14.262-.162-2.691-.538-5.382-.754-6.082-.538-1.453-1.884-1.56-2.638-.161zM232.586 429.263c-.7.861-1.507 2.476-1.669 3.498-.215 1.077-.861 2.96-1.4 4.198-1.399 3.122-1.345 5.76.162 8.02 1.884 2.852 5.06 2.798 6.568-.054 1.4-2.637 1.023-6.351-.861-9.15-1.67-2.422-1.884-4.628-.808-7.158.7-1.453-.538-1.076-1.992.646zM239.262 446.324c-1.023.43-2.153 1.184-2.53 1.723-3.015 3.928 3.822 8.234 8.775 5.597 5.33-2.906 5.491-2.96 8.021-2.1 2.154.7 2.261.7 1.83-.16-.86-1.615-2.206-2.369-7.429-4.145-5.975-1.991-6.19-1.991-8.667-.915zM218.697 447.616c-2.477 1.668-5.115 2.045-7.053 1.023-1.507-.808-1.669-.323-.43 1.291.646.808 2.1 1.669 3.391 1.992 1.238.323 3.392 1.076 4.792 1.614 3.23 1.346 6.137 1.346 8.344 0 4.468-2.69 1.669-7.535-4.307-7.535-1.722 0-3.015.43-4.737 1.615zM231.671 453.482c-.27.592-.538 2.207-.538 3.66-.108 9.634-3.93 18.73-11.144 26.588-1.561 1.668-2.853 3.175-2.853 3.39 0 .539 8.075.377 9.152-.215.969-.484 1.076-.323 1.4 1.561.43 2.584 1.884 5.06 3.66 6.243 1.13.754 1.561.808 2.8.162 2.153-1.023 3.553-3.23 3.822-6.028.27-2.1.484-2.476 1.184-2.1.485.216 2.907.485 5.384.593l4.522.215-2.369-2.799c-4.468-5.274-5.922-7.265-7.698-10.764-2.477-4.79-3.5-8.557-3.93-14.262-.162-2.691-.539-5.382-.754-6.082-.538-1.453-1.884-1.56-2.638-.162zM48.657 429.63c-.7.86-1.507 2.475-1.669 3.498-.215 1.076-.861 2.96-1.4 4.198-1.4 3.121-1.345 5.758.162 8.019 1.884 2.852 5.06 2.799 6.568-.054 1.4-2.637 1.023-6.35-.861-9.15-1.67-2.421-1.885-4.628-.808-7.158.7-1.453-.538-1.076-1.992.646zM55.333 446.69c-1.023.431-2.154 1.185-2.53 1.723-3.015 3.929 3.822 8.234 8.775 5.597 5.33-2.906 5.49-2.96 8.021-2.099 2.154.7 2.261.7 1.83-.161-.86-1.615-2.207-2.368-7.429-4.145-5.976-1.991-6.19-1.991-8.667-.915zM34.768 447.982c-2.477 1.669-5.115 2.045-7.053 1.023-1.507-.808-1.669-.323-.43 1.291.645.808 2.099 1.669 3.391 1.992 1.238.323 3.392 1.076 4.791 1.614 3.23 1.346 6.138 1.346 8.345 0 4.468-2.69 1.669-7.534-4.307-7.534-1.723 0-3.015.43-4.737 1.614zM47.742 453.849c-.27.592-.538 2.206-.538 3.66-.108 9.633-3.93 18.73-11.144 26.587-1.562 1.669-2.854 3.176-2.854 3.39 0 .539 8.076.378 9.152-.214.97-.485 1.077-.323 1.4 1.56.43 2.584 1.884 5.06 3.66 6.244 1.131.753 1.562.807 2.8.161 2.154-1.023 3.553-3.23 3.823-6.028.269-2.099.484-2.476 1.184-2.099.485.215 2.907.484 5.384.592l4.522.215-2.369-2.798c-4.468-5.275-5.922-7.266-7.698-10.765-2.477-4.79-3.5-8.557-3.93-14.262-.162-2.691-.539-5.382-.754-6.082-.539-1.453-1.884-1.56-2.638-.161zM139.67 429.412c-.7.861-1.508 2.476-1.67 3.499-.215 1.076-.86 2.96-1.399 4.198-1.4 3.121-1.346 5.758.162 8.019 1.884 2.852 5.06 2.799 6.568-.054 1.4-2.637 1.022-6.35-.862-9.15-1.669-2.421-1.884-4.628-.807-7.158.7-1.453-.539-1.076-1.992.646zM146.345 446.473c-1.023.431-2.153 1.185-2.53 1.723-3.015 3.929 3.822 8.234 8.775 5.597 5.33-2.906 5.492-2.96 8.022-2.099 2.153.7 2.26.7 1.83-.161-.861-1.615-2.207-2.368-7.43-4.145-5.975-1.991-6.19-1.991-8.667-.915zM125.78 447.765c-2.476 1.669-5.114 2.045-7.052 1.023-1.508-.808-1.67-.323-.431 1.291.646.808 2.1 1.669 3.392 1.992 1.238.323 3.391 1.076 4.791 1.614 3.23 1.346 6.137 1.346 8.345 0 4.468-2.69 1.668-7.534-4.307-7.534-1.723 0-3.015.43-4.738 1.614zM138.755 453.632c-.27.592-.539 2.206-.539 3.66-.108 9.633-3.93 18.73-11.144 26.587-1.561 1.669-2.853 3.176-2.853 3.39 0 .539 8.075.378 9.152-.214.969-.485 1.077-.323 1.4 1.56.43 2.584 1.884 5.06 3.66 6.244 1.131.753 1.562.807 2.8.161 2.153-1.023 3.553-3.23 3.822-6.028.27-2.099.485-2.476 1.185-2.099.484.215 2.907.484 5.383.592l4.522.215-2.368-2.798c-4.469-5.275-5.922-7.266-7.699-10.765-2.476-4.79-3.5-8.557-3.93-14.262-.161-2.691-.538-5.382-.754-6.082-.538-1.453-1.884-1.56-2.637-.161z"/><path fill="#ca0000" fill-rule="evenodd" d="M0 466.667h286V700H0z" font-size="12"/><path fill="#0092c8" fill-rule="evenodd" d="M286.062 0H1050v700H286.062z" font-size="12"/><g id="y" font-size="12"><path fill="url(#d)" fill-rule="evenodd" stroke="#650000" stroke-width=".999" d="M150.87 666.402c-.836 1.353 1.46 7.356 5.01 7.204-2.315-3.712-2.071-8.03-2.071-8.03l-2.938.826h0z"/><path fill="url(#e)" fill-rule="evenodd" stroke="#650000" stroke-width=".999" d="M142.056 659.902c-1.28.189-4.369 8.08.556 10.896.157-4.9 2.476-7.807 2.476-7.807l-2.546-2.192h0l-.486-.897h0z"/><path fill="url(#f)" fill-rule="evenodd" stroke="#650000" stroke-width=".999" d="M141.45 655.194c-1.245-1.307-6.622 2.49-6.4 8.157 3.304-3.778 7.216-3.483 7.216-3.483l-.817-4.674h0z"/><path fill="url(#g)" fill-rule="evenodd" stroke="#650000" stroke-width=".999" d="M147.667 650.614c-.088-1.777-4.765-3.831-7.22-.278 3.53.402 5.543 3.718 5.543 3.718l1.677-3.44h0z"/><path fill="url(#h)" fill-rule="evenodd" stroke="#650000" stroke-width=".999" d="M241.989 667.142c-.086 1.628.33 2.195 1.13 3.109.8.914 1.706 3.63 1.706 3.63s2.562-7.154 1.92-8.114c-.64-.96-4.598 1.329-4.756 1.375z"/><path fill="url(#i)" fill-rule="evenodd" stroke="#650000" stroke-width=".999" d="M228.437 664.181c-1.275-.245-3.687 5.67-1.68 9.726 1.01-4.701 3.767-6.747 3.767-6.747l-2.087-2.979h0z"/><path fill="url(#j)" fill-rule="evenodd" stroke="#650000" stroke-width=".999" d="M222.219 662.402c-.993-1.133-5.286 2.157-5.11 7.068 2.638-3.273 5.76-3.017 5.76-3.017l-.65-4.05h0z"/><path fill="url(#k)" fill-rule="evenodd" stroke="#650000" stroke-width=".999" d="M225.477 654.809c-.684-1.51-5.507-.266-6.461 4.471 3.25-1.952 6.154-.343 6.154-.343l.307-4.128h0z"/><path fill="url(#l)" fill-rule="evenodd" stroke="#650000" stroke-width=".999" d="M65.17 651.491c.464-1.662-3.145-6.263-6.457-4.483 3.076 2.433 3.885 6.616 3.885 6.616l2.572-2.133h0z"/><path fill="url(#m)" fill-rule="evenodd" stroke="#650000" stroke-width=".999" d="M51.34 661.875c-1.203-1.5-6.256 2.768-5.954 9.219 3.081-4.267 6.806-3.893 6.806-3.893l-.851-5.326h0z"/><path fill="url(#n)" fill-rule="evenodd" stroke="#650000" stroke-width=".999" d="M51.781 652.748c-.518-2.124-6.433-1.834-8.455 3.993 4.197-1.627 7.311 1.228 7.311 1.228l1.144-5.22h0z"/><path fill="url(#o)" fill-rule="evenodd" stroke="#650000" stroke-width=".999" d="M57.806 669.98c-.324 1.57 0 2.243.648 3.364s1.134 4.036 1.134 4.036 3.563-6.278 3.077-7.4c-.485-1.12-4.697 0-4.859 0z"/><path fill="url(#p)" fill-rule="evenodd" stroke="#650000" stroke-width=".999" d="M43.127 597.786c0-2.242-5.67-4.586-8.933.039 4.352.317 6.642 4.4 6.642 4.4l2.291-4.439h0z"/><path fill="url(#q)" fill-rule="evenodd" stroke="#650000" stroke-width=".999" d="M37.241 606.716c-1.204-1.5-6.256 2.768-5.955 9.219 3.082-4.267 6.807-3.893 6.807-3.893l-.852-5.326h0z"/><path fill="url(#r)" fill-rule="evenodd" stroke="#650000" stroke-width=".999" d="M57.825 597.016c.548-2.11-4.216-6.971-8.416-4.146 4.018 2.336 5.176 7.251 5.176 7.251l3.24-3.105h0z"/><path fill="url(#s)" fill-rule="evenodd" stroke="#650000" stroke-width=".999" d="M64.55 604.72c.946-1.209-.83-7.54-4.37-7.961 1.988 4.06 1.383 8.309 1.383 8.309l2.988-.348h0z"/><path fill="#ffcd00" fill-rule="evenodd" stroke="#650000" stroke-width=".999" d="M83.455 612.149c-3.56-4.143-.042-11.699 3.15-8.476-1.672-3.092 1.062-5.54 2.302-3.991-.577-2.517 2.045-4.185 3.33-1.862-.46-2.807 3.427-4.45 4.435-1.382.068-2.76 3.868-4.937 4.707-.897.74-3.11 4.976-3.517 5.327.901 1.236-2.57 4.412-2.382 4.597 1.352 1.373-1.756 4.921.872 4.317 3.979 2.191-.475 4.869 3.962 2.198 7.233 4.738-2.528 5.858 5.667 2.978 9.388 1.49.909 1.62.106 2.935.788 1.314.682 3.697 1.805 5.877 2.289 1.971 0 9.198-.227 10.676-.455 1.478-.227 3.5-.999 5.913-1.819 2.529-.82 6.185-.85 9.522-1.66 2.644-.297 76.871 1.205 79.006.978 2.136-.227 5.252-2.28 5.088-4.78-.165-2.502-2.624-4.315-5.088-4.542-2.463-.227-15.11-.227-17.41.227-2.299.455-5.584 1.592-7.226 3.184-.79.508-2.094 2.433-3.2 3.698-1.035.873-3.957 1.001-3.957-.135 0-.744-.245.142-.963.43-.932.584-5.136.744-4.95 0 .329-.84-.022-1.106-1.127-.227-.822.682-6.631.933-7.698.258.64-1.069.645-1.008-1.1-.129-1.106.486-5.683.866-6.012-.068-.044-.736-.562-.375-1.208-.166-5.187 1.357-5.685-.214-4.864-.896.822-.682 2.065-4.585.751-4.357-1.314.227-9.526 1.819-12.318 2.274-2.792.454-22.995 0-25.787-.228-2.792-.227-5.912-2.855-6.077-6.593-.292-5.997 4.6-7.504 7.555-8.413 2.957-.91 10.348-2.274 13.304-2.274 2.957 0 11.39 1.046 13.689.137 2.3-.91 9.282-3.45 11.256-3.638 2.91-.27 11.25.715 15.224 5.494-2.069.94-3.042 1.493-.694.645 2.136-.455 11.3-2.365 13.436-2.865 7.391-.319 5.453.819 1.84 1.728-1.207 3.844-12.068 9.21-15.517 9.893-3.449.682-10.769.182-12.405-.116-1.643-.124-9.414-.512-12.244-2.345-4.57-3.1-13.017-5.14-16.72-5.068-3.464.07-13.346 1.108-13.304 4.548-.051 6.041 9.198 6.366 13.14 6.139 3.942-.228 13.797-.682 16.589-1.82 2.792-1.136 8.831-1.415 12.116-1.415s8.086.734 9.564.506c1.478-.227 4.928-.279 6.57-1.416 1.642-1.137 5.214-2.325 8.827-2.325 3.613 0 30.428-1.033 34.041-.806 5.23-.036 8.926 5.681 8.99 10.543.03 2.274-1.084 5.634-2.03 6.154 1.623.15 5.684.608 7.024.887 2.516.5 6.594 3.272 7.062 5.798-1.911-1.16-4.995-2.913-7.775-3.105-.544.006-59.076-.098-63.676-.07 12.507 1.479 22.066 11.112 24.454 16.627 2.135 3.41 7.391 2.046 9.362 1.591 1.971-.454 4.27-2.5 5.913-4.092 1.643-1.592 4.21-1.996 5.37-1.592 2.553-.227 3.007 2.501 2.021 3.866-.985 1.364.164.803 2.791.803 2.628 0 4.945.979 6.495 3.044-1.478 1.364-2.223.245-.088.473 2.135.227 4.713 4.143 3.12 5.248-1.391.69-1.806.436 0 .663 2.694.228 3.428 1.972 3.778 5.072-2.28.418-1.15-.297 0 .84s2.825 6.171-1.314 6.366c-1.478-.682-1.45-.814-1.136.733.292 1.592-.506 5.406-2.806 5.406-3.186.614-6.077-1.137-6.405-3.183-.329-2.046-.286 3.95-4.802 4.895-4.265.949-6.531-1.484-6.86-2.621-.328-1.137-.164-.228-1.806-.455-1.643-.227-3.713-.248-4.6-2.956 0-1.591.32-3.69 3.247-3.972 1.314-.228 1.681-1.94.696-2.167-.986-.227-.165-3.638 1.97-2.728 2.136.91 7.063 1.137 8.213 2.273 1.15 1.137 1.478-.909-.329-2.728-1.806-1.819-12.81-5.457-15.767-4.093-6.884 3.47-18.396 2.956-20.367 2.501-1.97-.454-7.663.786-10.347-7.503-2.177-8.464-10.45-12.647-14.228-13.102-18.636-1.754-17.623-.405-5.538.168-.09 1.58-.528 4.815 1.431 5.29 3.285-.455 10.123-1.905 11.765-.541 1.643 1.364 3.285 2.501 2.957 5.684-.329 3.183.164 2.274-1.314 3.638-1.479 1.364-.822 4.093 1.478 5.002 2.3.91 3.285 2.047 4.763 3.41 1.478 1.365-.657 4.093-1.971 3.184-1.314-.91-1.314-.91-1.478.91-.165 1.818-1.797 5.26-4.573 5.513-.583-.22-.421-1.161-.355-1.876.165-1.591-.555 1.977-1.413 2.967-.547.668-5.197 1.976-6.51 1.294.586-1.424.247-.843-.903-.16-1.122.447-7.175 1.288-4.478-1.6.7-1.052-.962 1.315-1.878 1.727-.771.48-4.363.775-4.363-.59-1.14 1.003-3.854 1.003-4.27.228-.821-.91-.899.682-2.377.91-1.478.227-4.686-.228-4.85-2.047-.164-1.82.328-.682-1.478-.455-4.399 2.918-6.57-1.137-6.57-2.501 0-1.364-.164-2.956.328-3.865.493-.91-3.06-1.184-1.97-2.975 1.224-2.19 2.51-3.795 4.927-3.392 1.15.228.985-.454.493-1.364-.493-.91 1.314-1.364 3.449-.455 2.135.91 3.613 3.184 4.27 5.23.657 2.046 5.749.455 7.884.682 2.135.227 2.3-3.41.985-4.547-1.314-1.137-4.927-5.23-6.405-6.594-1.478-1.364-.493-6.14.821-7.276 7.649-5.171 3.45-6.821.657-6.366-2.792.454-9.967 3.326-12.267 5.827-2.3 2.5-20.164 14.76-21.807 16.124-1.642 1.364-4.031 1.695-5.016.104-.986-1.592-1.643-.455-1.479 1.818 1.305 8.588-6.406 11.325-7.758 11.217-.94-.098-2.289-.62-3.26-1.43-.959 4.8-5.197 5.277-9.027 4.803-.058-.567.715-1.625.293-1.22-1.266 1.65-5.156 1.476-8.496 1.225-.222-1.003 1.152-2.219.495-1.537-1.121 2.11-3.049 1.732-6.173 1.508-.036-.445 1.448-1.932.756-1.042-1.368 1.495-4.215 1.027-6.426 1.064-.262-.335 1.143-2.685-.142-1.132-1.228 1.326-3.829 1.547-6.315 1.191-.442-1.117.517-1.129.781-1.83.657-1.137-.328 0-1.15 0-.82 0-1.97.227-2.463-.91-.493-1.136-.21 1.137-.687 1.757-.477.536-1.015 1.798-2.658 2.252-1.642.455-5.913.91-6.57-1.136-.885-.942-1.314-2.956-.657-4.093s-3.127 2.193-4.763 2.5c-4.81.93-5.42-6.593-3.285-7.275 2.136-.682 1.807-1.819.657-2.728-1.15-.91-1.806-4.548-.328-5.685 1.478-1.136 4.9-1.767 7.062-.454 1.266.87 3.976 3.85 3.45 1.591-.366-1.396.57-3.173 1.619-3.936.91-.839 3.71-1.052 4.458.753 1.73 4.184 2.956 5.986 5.091 5.912 4.549-1.244 10.696-2.652 12.503-2.652 2.318-.551 14.59-1.755 14.59-2.892-7.36 2.548-10.335-.75-11.157-.522-.82.227-2.843-.739-2.843-1.373 0-1.364 1.854-1.201-.774-.747-1.574-.129-2.975-.202-4.3-1.844-.216-.839 1.74-3.723 2.451-6.147-1.696-.459-5.446 2.595-6.675 5.287-.861-1.033-1.21-.094-4.287.658-1.452.633-3.814.406-5.128-.276-1.313-.683-6.46-4.584-3.971-5.086-.656-.32-1.409-.505-1.905-.642-1.807-.771-3.515-2.27-2.99-2.682-.457-.683.524-.68-.2-.818-.985-.227-3.412-1.997-2.79-2.68-.621-.412-2.098-1.046-2.724-1.365-1.15-.682-2.301-3.049-2.466-4.186-1.059.102-3.32-1.903-2.299-2.5-1.726-1.283-3.195-3.393-2.045-4.075-1.008-.794-1.711-2.244-1.01-1.7-1.047-1.283-.723-2.639.099-2.639.82 0 .492-3.637-.986-3.637s-3.855 1.147-5.584 0c-1.422-1.088-2.628-5.912-1.314-7.958 1.314-2.047 3.942-4.32 5.256-4.093 1.314.227.657.682.328-1.364-.328-2.047 1.855-3.584 3.285-4.093 1.734-.793 5.092-.227 6.077.682.986.91 1.314.91 1.314-.682 0-1.118 1.269-1.701 2.398-1.994 1.88-.444 3.35.09 4.008.857 1.02 1.463 1.642 3.183.328 4.548-1.314 1.364-.174.207 1.962-.247 1.375-.455 3.856.131 4.28 1.61.57 1.592.985 4.32-.493 5.685-1.478 1.364-3.614 4.775-2.464 5.912 1.15 1.137 4.763 6.139 5.584 6.82.822.683 1.807 2.274 3.121 2.047 1.314-.227 2.792-.455 3.942-.682 4.563-.918 6.62-1.395.763-1.208 1.315-1.858 4.069-2.406 5.264-2.733-1.053-1.583 2.842-4.926 2.842-5.381h0z"/><path fill="none" fill-rule="evenodd" stroke="#650000" stroke-width="1.081" d="M83.464 630.601c-3.148-.496-11.112 6.404-8.543 14.985"/><path fill="none" fill-rule="evenodd" stroke="url(#t)" stroke-width="1.067" d="M83.943 622.907c-4.25 26.888 21.825 16.473 22.004 7.416"/><path fill="none" fill-rule="evenodd" stroke="#650000" stroke-width=".992" d="M104.45 634.206c.348 3.532.553 13.4-3.097 15.923-3.65 2.523-8.22 2.821-11.787 1.61"/><path fill="none" fill-rule="evenodd" stroke="#650000" stroke-width=".999" d="M96.373 639.675c-.359 3.473-3.841 12.12-10.626 10.933M41.506 602.483c3.548.35 5.322 3.157 6.082 5.613.76 2.455 1.267 3.858 1.267 3.858M44.529 622.459c1.52.701 4.308 0 4.308 0"/><path fill="none" fill-rule="evenodd" stroke="#650000" stroke-width=".909" d="M46.01 626.242c3.356 1.052 6.712-.702 6.712-.702"/><path fill="none" fill-rule="evenodd" stroke="url(#u)" stroke-opacity=".261" stroke-width="1.017" d="M53.507 634.531c9.17 0 13.064-12.936 13.064-12.936"/><path fill="none" fill-rule="evenodd" stroke="#650000" stroke-opacity=".089" stroke-width="1.232" d="M72.167 628.441c-2.534 6.665-2.28 6.665-5.574 8.068l-3.295 1.404"/><path fill="none" fill-rule="evenodd" stroke="#650000" stroke-width=".999" d="M61.778 641.42c3.548-1.052 5.828-3.157 5.828-3.157M57.978 600.923c-2.027 2.456-1.774 7.016-1.774 7.016M99.788 601.08c.507 4.56-1.52 7.016-2.788 7.016-1.267 0-2.681 1.702-1.903 4.438M105.08 600.378c-2.28 3.157-2.787 6.665-2.027 9.472.76 2.806.04 3.622.04 3.622"/><path fill="none" fill-rule="evenodd" stroke="#650000" stroke-width="1.244" d="M77.996 626.337c-4.055 1.088-5.706 8.508-3.546 12.498"/><path fill="none" fill-rule="evenodd" stroke="#650000" stroke-width=".999" d="M115.245 615.813h-2.787s-1.774 3.859-4.815 2.806c-3.04-1.052-.253 0-.253 0M100.295 612.595c4.338.113 3.466 3.569.253 3.218.254 4.21-4.795 3.679-4.363.454-3.036.092-4.282-4.167.128-3.577M202.985 615.817c.893-2.721 5.003-5.195 5.003-5.195h0M197.012 615.675c1.787-3.215 5.003-5.194 5.003-5.194M188.29 615.975c2.715-1.636 3.477-2.282 4.369-3.125.962-.942 2.859-2.721 2.859-2.721"/><path fill="none" fill-rule="evenodd" stroke="#650000" stroke-width=".951" d="M180.715 615.874c1.989-1.04 3.528-1.65 4.86-2.635 1.67-1.173 2.826-2.76 2.826-2.76"/><path fill="none" fill-rule="evenodd" stroke="#650000" stroke-width=".999" d="M182.346 607.285c-6.318-2.15-9.143-6.42-9.143-6.42M192.862 598.182c-4.183 1.745-12.687.99-13.044.99M117.174 653.362c1.251-4.443 3.596-5.443 6.53-6.896 3.038-1.237 7.662-4.978 4.803-2.257-2.86 2.721-6.984 4.453-8.413 5.442-1.43.99-2.323 3.195-1.594 4.205"/><path fill="none" fill-rule="evenodd" stroke="#650000" stroke-linecap="round" stroke-width=".999" d="M111.174 636.54c2.68 4.453 1.024 10.65-2.371 12.382"/><path fill="none" fill-rule="evenodd" stroke="#650000" stroke-width=".999" d="M120.108 621.204c4.351 1.807 4.506 6.06 5.133 8.573-1.534-.71-2.648-.369-3.8-.892"/><path fill="none" fill-rule="evenodd" stroke="#650000" stroke-width=".913" d="M118.393 623.652c2.955 4.043 4.08 6.516 4.252 7.925.278 2.446.293 8.478-6.693 8.38.65-1.797 1.473-6.542.355-8.447"/><path fill="none" fill-rule="evenodd" stroke="#650000" stroke-width=".999" d="M116.753 635.844c0 3.958-2.734 5.582-3.985 6.077M106.17 618.236c.18 4.7-8.398 8.163-8.22.99"/><path fill="none" fill-rule="evenodd" stroke="#650000" stroke-width="1.007" d="M97.926 619.473c-.181 3.463-4.9 4.205-6.534 1.236-1.271-1.979-1.997-2.968-2.905-3.215-.907-.248-.805-3.128-.99-3.551-.11-.577-.697-2.064-.99-2.624"/><path fill="url(#v)" fill-rule="evenodd" stroke="#650000" stroke-width="1.052" d="M91.11 620.473c2.192 3.827 7.418 1.53 8.767 3.061 1.349 1.53-1.31 6.863-2.153 9.924-1.948 2.636-6.286 2.465-7.882.507.86-3.656.93-11.451 1.1-11.706l.168-1.786h0z"/><path fill="none" fill-rule="evenodd" stroke="#650000" stroke-width=".999" d="M51.8 598.13c.357 2.227-.18 2.722-.715 4.7-.536 1.98.178 5.443.178 5.443M50.857 660.22c1.787-.495 5.54 0 5.54 0M57.518 666.067c1.072-1.979 3.573-3.71 3.573-3.71M77.58 668.698c.894-1.236.894-5.194.894-5.194M84.099 668.669c1.422-1.623 1.5-5.106 1.5-5.106M89.28 668.58c1.43-2.721 1.197-5.865 1.197-5.865M97.4 668.878c.893-1.485.893-4.948.893-4.948M155.31 661.03c-3.216-.742-5.182 3.71-5.182 3.71M159.534 660.31c-.357 3.215-2.859 6.183-2.859 6.183M164.602 660.04c-.179 2.722-3.038 6.432-3.038 6.432M170.908 658.954c-.471 3.62-3.044 6.332-3.044 6.332M175.552 657.678c.178 3.216-1.43 8.163-2.502 9.152M181.09 659.051c.537 1.732 0 4.205 0 4.205M146.148 652.304c2.144.495 3.395 2.968 3.395 2.968M142.487 658.514c1.127-3.895 5.982-1.992 6.57-.947M234.186 640.571c-1.787-.247-4.467.742-4.467.742M242.495 643.983c-2.501.99-5.36 1.237-5.36 1.237M245.71 649.688c-2.144-.247-3.753-.247-3.753-.247M249.877 655.062c-2.144-.248-5.539 0-5.539 0M248.229 662.02c-.715-1.98-2.86-2.474-2.86-2.474M227.166 666.625c.536-2.969 4.087-5.348 6.053-5.348h1.966M224.217 660.062c2.144-.742 5.54-.99 5.54-.99M85.211 648.386c2.144-1.732 3.831-5.298 3.831-5.298M111.352 605.125c-2.144 2.227-2.322 2.474-2.322 2.474M113.497 609.33c-2.86.248-3.014.12-3.014.12"/><path fill="none" fill-rule="evenodd" stroke="#650000" stroke-width="1.132" d="M103.318 607.662c2.114-.776 7.033-.123 6.962 1.68.003 2.213-1.923 2.348-7.005.254l.043-1.626v-.308h0z"/><path fill="none" fill-rule="evenodd" stroke="#650000" stroke-width=".92" d="M96.654 607.892c.263-2.63-4.872-5.224-6.123-3.757-1.523 2.425 2.799 4.586 3.945 4.586 1.072 0 .437.138.437.138"/><path fill="none" fill-rule="evenodd" stroke="#650000" stroke-opacity=".3" stroke-width=".999" d="M111.897 627.602c1.62 3.14 2.097 8.469.266 11.055"/><path fill="none" fill-rule="evenodd" stroke="#650000" stroke-width=".999" d="M110.602 617.737c-1.944 5.381-.324 10.314-.324 10.314M87.601 619.082c-1.62 1.345-2.915.897-2.915.897"/><path fill="none" fill-rule="evenodd" stroke="#650000" stroke-opacity=".3" stroke-width=".999" d="M106.066 634.778c1.62.897 3.888 6.278 3.564 8.072l-.324 1.794M105.419 637.02c.971 2.69 2.267 6.727 1.943 8.072l-.324 1.345M99.587 639.71c.648 2.691.324 7.176-.647 8.073l-.972.897M97.968 640.16c-.972 3.138-1.944 7.623-1.944 7.623"/><path fill="none" fill-rule="evenodd" stroke="#650000" stroke-linecap="round" stroke-opacity=".102" stroke-width="2.161" d="M83.714 620.876c-1.944 2.69-4.535 5.381-4.535 5.381"/><path fill="none" fill-rule="evenodd" stroke="#650000" stroke-opacity=".299" stroke-width=".999" d="M82.418 631.639c-1.62 1.345-3.887 4.484-3.887 4.484M84.362 636.123c-2.592-1.794-5.507 1.345-5.507 1.345"/><path fill="none" fill-rule="evenodd" stroke="#650000" stroke-opacity=".095" stroke-width="1.232" d="M68.243 640.923c-.648 1.794-5.507 3.14-5.507 3.14"/><path fill="none" fill-rule="evenodd" stroke="#650000" stroke-linecap="round" stroke-width="1.94" d="M108.037 608.27l-.324 2.03"/><path fill="none" fill-rule="evenodd" stroke="#650000" stroke-linecap="round" stroke-width="1.574" d="M94.71 604.607c-.38 1.526-1.055 3.094-1.055 3.094"/><path fill="none" fill-rule="evenodd" stroke="#650000" stroke-width=".999" d="M79.487 620.437c-5.967 3.142-6.986 5.919-6.056 12.536"/><path fill="none" fill-rule="evenodd" stroke="#600" stroke-width="1.197" d="M120.028 611.393c-1.709.776-1.456 4.827-1.456 4.827h0"/><path fill="none" fill-rule="evenodd" stroke="#600" stroke-width="1.05" d="M83.695 605.753c1.824 1.288 1.094 5.152 1.094 5.152"/><path fill="#390000" fill-opacity=".599" d="M71.694 667.956c-.133 3.857-3.762 2.836-5.307 2.847l1.34-2.518c.19-.002.627.245 1.151-.148l2.816-.18z"/><path fill="#390000" fill-opacity=".1" d="M103.556 634.837c.415 1.852.383 3.086.235 5.094-.474 3.214-.618 3.316-1.93 5.97-.465.74-.236-.05-1.458 2.433l-4.274-2.948c.23.939 0-.685.207-1.004.661-1.283.623-1.489.84-3.07.089-1.44 1.213-3.845 1.86-1.502l4.52-4.973zM88.413 646.913c.977.282 3.384-.536 4.432-.759 1.676-.567.135-.858 1.503-2.14.38-.445.724-1.993 1.059-2.48l-1.816-.122c-.231 1.558-1.697.294-1.86.49-.662.644-.594.24-1.42.504-.751.145-1.57-.112-.332.35l-1.566 4.157zM182.83 637.323c-.549 3.09-1.313 4.69-2.676 7.156-2.492 3.596-4.814 5.54-8.056 7.148a17.122 17.122 0 01-3.086.609l-.483-10.392c.46-.034.896-.1 1.348-.223 1.603-.738 2.627-1.688 3.831-3.482.956-1.792 1.384-4.418.846-.33l8.276-.486z"/><path fill="none" fill-rule="evenodd" stroke="url(#w)" stroke-opacity=".261" stroke-width="1.405" d="M57.086 637.574c7.016-1.663 10.924-11.018 10.924-11.018"/><path fill="none" fill-rule="evenodd" stroke="url(#x)" stroke-opacity=".261" stroke-width="1.405" d="M48.897 629.225c7.112.42 12.355-7.585 12.355-7.585"/><path fill="none" fill-rule="evenodd" stroke="#700" stroke-opacity=".102" stroke-width="2.556" d="M218.617 649.933l.35-.966c-.77 2.128-.576 1.145 2.094-.967h5.237c2.173.03 3.266.48 5.237.967 1.204.666 2.312 1.67 3.491 2.416"/><path fill="#390000" fill-opacity=".1" d="M82.04 642.595c-.223 1.065 2.53 2.533 4.14 2.604 1.687-1.048 1.746-1.45 2.909-3.203.3-.585-.059-.19.18-.81l-3.582-3.434c-.452.273-.734.527-.862.785-.555.874-.543 1.371-1.378 1.871-.786.35-.871.155-.273.469l-.605.987-.528.731zM113.487 642.427c1.003-1.101 1.411-2.066 1.996-3.706.735-2.805.906-5.123.738-8.126a31.297 31.297 0 00-.498-2.665l-3.918 1.791c.095.385.172.758.233 1.155.104 1.473-.005 2.514-.381 3.882-.433 1.163-1.295 2.068.076.765l1.754 6.904z"/><path fill="#390000" fill-opacity=".1" d="M116.172 624.214c1.286.152 2.005.661 3.133 1.614 1.7 1.84 2.727 3.709 3.72 6.44.234.893.422 1.772.581 2.702l-4.07 1.574a13.363 13.363 0 00-.236-1.185c-.469-1.356-.959-2.17-1.802-3.053-.816-.661-1.905-.756-.224-.723l-1.102-7.37zM109.887 647.746c1.082-1.773 1.972-.74 2.297-2.94.182-3.632-.288-6.422-1.445-9.85a29.906 29.906 0 00-1.52-2.87l-4.996 3.99c.252.404.476.802.684 1.237.598 1.669.762 2.939.65 4.719-.257 1.568.034 2.066 1.223 2.562l3.107 3.152z"/><path fill="none" fill-rule="evenodd" stroke="#700" stroke-opacity=".102" stroke-width="2.556" d="M243.377 656.527c2.174.03 3.266.48 5.237.967 1.204.666 2.313 1.67 3.492 2.416M233.144 642.617c2.135-.555 3.27-.408 5.272-.46 1.275.33 2.503 1.016 3.764 1.43"/><path fill="none" fill-rule="evenodd" stroke="#700" stroke-opacity=".102" stroke-width="1.926" d="M199.246 648.442c-1.411.043-2.126-.315-3.412-.679-.79-.544-1.522-1.386-2.297-2"/><path fill="none" fill-rule="evenodd" stroke="#700" stroke-opacity=".102" stroke-width="2.119" d="M212.891 622.211c-7.002-.215-12.234-.332-16.93-.463-4.53-.114-12.034-.35-16.95-.48"/><path fill="none" fill-rule="evenodd" stroke="#700" stroke-opacity=".102" stroke-width="1.926" d="M156.54 628.013c1.296-.773 2.056-.812 3.347-1.143.88.094 1.786.494 2.671.662"/><path fill="#390000" fill-opacity=".1" d="M48.576 618.56c-.58 1.235-1.019 1.752-1.75 2.5-1.21.962-1.819.87-2.975.756-.34-.13-.329-2.84-.647-3.06l.623-1.846c.138.103.273.185.42.246.564.082.99-.079 1.583-.568.52-.553 1.002-1.612.289.07l2.457 1.903z"/><path fill="none" fill-rule="evenodd" stroke="#650000" stroke-width="1.052" d="M90.752 619.322c-.2 4.915-2.863 7.536-2.863 7.536"/><path fill="none" fill-rule="evenodd" stroke="#650000" stroke-width="1.161" d="M88.065 617.036c-1.37 5.356.385 9.66.385 9.66"/><path fill="none" fill-rule="evenodd" stroke="#650000" stroke-width="1.047" d="M101.63 623.308c-.325 4.862 2.034 7.888 2.034 7.888"/><path fill="none" fill-rule="evenodd" stroke="#650000" stroke-width="1.156" d="M104.537 621.516c.787 5.494-1.412 9.425-1.412 9.425"/><path fill="#390000" fill-opacity=".1" d="M85.286 665.351c-.185 3.943-5.24 2.9-7.391 2.91l.604-1.035c.266-.001 2.136-1.288 2.866-1.69l3.92-.185z"/><path fill="#390000" fill-opacity=".1" d="M90.179 663.566c-.158 5.564-4.469 4.091-6.304 4.107l.516-1.461c.226-.003 1.821-1.819 2.444-2.385l3.344-.261zM98.062 663.817c-.216 8.267-6.138 6.079-8.66 6.102l.709-2.171c.311-.004 2.502-2.702 3.357-3.544l4.594-.387z"/><path fill="#390000" fill-opacity=".1" d="M105.855 663.691c-.216 8.268-6.139 6.08-8.66 6.103l.709-2.172c.31-.003 2.502-2.701 3.357-3.543l4.594-.388zM77.644 663.691c-.185 8.268-5.24 6.08-7.391 6.103l.604-2.172c.266-.003 2.136-2.701 2.866-3.543l3.92-.388z"/><path fill="#390000" fill-opacity=".599" d="M81.433 641.123c-.697 2.097-1.845 3.72-1.663 5.022l-1.075-.488c.843.3-.958-3.39-1.393-2.696l1.008-.735.234-.404.502-.252 2.387-.447z"/><path fill="none" fill-rule="evenodd" stroke="#650000" stroke-width=".999" d="M120.78 618.418c.53.265 1.89.022 4.389 1.07-1.034 1.524-3.7 2.41-4.74 1.964"/><path fill="none" fill-rule="evenodd" stroke="#700" stroke-opacity=".102" stroke-width="2.066" d="M182.833 653.6c-1.589.406-2.453.238-3.963.213-.977-.331-1.935-.97-2.906-1.374"/><path fill="none" fill-rule="evenodd" stroke="#700" stroke-opacity=".102" stroke-width="3.17" d="M167.219 659.182c2.984.806 4.688.779 7.61 1.052 1.958-.2 3.944-.771 5.905-1.06"/><path fill="none" fill-rule="evenodd" stroke="#650000" stroke-linecap="round" stroke-width=".999" d="M126.985 651.131c-3.075 1.049-4.516 1.122-5.521.194"/><path fill="none" fill-rule="evenodd" stroke="#650000" stroke-linecap="round" stroke-width=".965" d="M130.408 648.546c-2.697 1.05-4.234 1.41-5.573.553"/><path fill="none" fill-rule="evenodd" stroke="#650000" stroke-linecap="round" stroke-width=".787" d="M134.972 645.387c-1.794 1.05-2.815 1.409-3.706.553"/><path fill="none" fill-rule="evenodd" stroke="#650000" stroke-linecap="round" stroke-width=".871" d="M138.136 642.946c-2.196 1.049-3.446 1.409-4.536.553"/><path fill="none" fill-rule="evenodd" stroke="#650000" stroke-width=".999" d="M51.537 598.13c.357 2.227-.179 2.722-.715 4.7-.536 1.98.179 5.443.179 5.443M58.329 600.923c-2.028 2.456-1.774 7.016-1.774 7.016"/><path fill="none" fill-rule="evenodd" stroke="#650000" stroke-width="1.011" d="M41.769 601.998c3.632.35 5.448 3.157 6.227 5.613.778 2.455 1.297 3.858 1.297 3.858"/></g><use width="1050" height="700" transform="translate(0 -98.596)" xlink:href="#y"/><path fill="#ffcf00" stroke="#000" stroke-width="1.151" d="M694.307 57.143c-2.18 2.179-2.906 4.357-2.47 7.262.581 4.212.581 4.212-5.23 3.05-11.04-1.888-31.67-.872-44.453 2.323-17.288 4.357-25.568 4.067-45.616-2.033-2.324-.726-2.179 0 1.453 6.681 4.358 7.988 6.392 9.585 16.561 13.216l6.537 2.324-11.767 3.05c-6.392 1.743-12.784 3.195-14.091 3.195-4.794 0-2.47 2.614 4.358 4.938 9.878 3.34 20.338 2.905 41.693-2.179 15.109-3.485 21.5-4.357 30.943-3.92 6.538.144 12.349 1.016 12.93 1.597.726.58-2.76 4.647-7.41 9.004-7.118 6.39-9.733 7.843-13.945 7.988-2.906 0-7.41.436-9.879.871-4.358.872-4.503 1.162-4.503 9.295v8.424l-33.704 31.66c-18.595 17.429-36.027 32.824-38.642 34.421-2.615 1.598-5.23 3.922-5.957 5.229-1.598 2.904.291 8.133 3.342 9.295 1.888.726.726 3.195-5.811 12.2-9.443 13.07-16.707 27.013-22.372 42.553l-4.068 10.892-2.324-7.988c-3.777-12.78-6.683-31.37-6.683-43.57 0-11.183 0-11.183 7.554-21.93 9.153-13.071 30.653-35.437 42.565-44.441 4.794-3.631 12.93-8.57 18.16-11.038 11.621-5.374 14.527-7.843 14.527-11.91 0-4.792-3.487-7.116-9.007-5.954-3.196.581-16.125-1.452-38.207-5.955-18.304-3.63-33.558-6.826-33.703-6.826 0-.145 1.453-6.39 3.486-13.942 2.325-8.86 4.794-15.104 7.119-17.573 4.358-4.648 4.503-10.021.145-14.088-7.264-6.826-18.16-.871-16.561 9.005l.726 4.938-9.588 1.016c-5.23.581-17.723 3.195-27.602 5.955-20.047 5.519-35.737 6.39-46.051 2.76-3.196-1.163-5.956-2.18-6.102-2.18-.29 0-.435 1.598-.435 3.632 0 6.245 3.922 11.763 10.314 14.959l6.101 3.05-4.067 1.016c-2.18.581-8.717.581-14.673.145-5.956-.435-10.75-.435-10.75 0 0 3.05 7.118 11.183 11.767 13.507 10.17 5.228 31.38 3.34 54.913-4.938 11.767-4.066 27.021-5.228 26.004-2.033-.581 1.743-21.064 17.137-56.22 42.263-17.724 12.635-20.484 16.12-17.724 22.22 1.453 3.341 1.017 4.648-3.341 11.91-9.443 15.975-18.304 43.425-18.304 57.367 0 6.971-.436 7.552-10.024 17.719-19.612 20.623-57.964 68.695-66.245 83.073l-2.615 4.502-2.76-3.485c-5.52-6.971-17.142-3.05-17.142 5.81 0 6.099 3.777 9.585 10.605 9.585 3.777 0 11.331 2.904 24.406 9.585l19.03 9.44-3.631 3.922c-6.973 7.552-8.426 13.506-4.794 18.59 1.743 2.323 3.922 2.759 12.057 2.759 8.717 0 11.622.726 21.646 5.664 9.879 4.938 13.656 7.988 28.183 23.092 44.89 46.91 55.93 56.641 82.805 73.198 15.545 9.585 43.873 23.528 57.82 28.611 45.324 16.266 95.298 19.316 142.512 8.714 21.79-4.938 37.77-10.602 58.69-21.059 11.622-5.954 17.288-7.988 17.578-6.826.436 1.017 1.743 5.229 3.05 9.295 2.47 7.988 9.734 20.188 12.785 21.35 1.017.29 24.26-2.905 51.862-7.117s50.555-7.697 51.136-7.843c2.76-.145 6.102-15.975 6.102-28.32 0-12.636-.29-13.507-6.392-25.416-7.845-15.104-19.757-27.595-31.234-32.823l-8.135-3.776 3.486-4.502c16.126-21.35 35.156-51.994 42.565-68.405l4.213-9.44 7.554-.146c4.068 0 7.845-.58 8.28-1.307.437-.58-.144-6.68-1.307-13.361-1.162-6.681-2.179-12.345-2.179-12.636 0-.145 2.615-.29 5.811-.29h5.811v-32.968l25.132-47.782c13.656-26.287 26.44-49.38 28.329-51.122 4.503-4.503 3.922-11.328-1.453-15.25-3.341-2.469-4.504-2.614-8.135-1.162-4.504 1.888-7.99 7.552-6.683 10.748.436 1.161-.726 4.357-2.324 7.261-2.615 4.503-3.777 5.083-6.973 4.503-2.18-.436-18.74-3.196-36.9-6.246l-32.831-5.518-16.126 29.046c-8.861 15.976-15.98 29.192-15.834 29.483.29.145 17.142 1.452 37.48 2.76 20.338 1.306 37.335 2.759 37.626 3.05.29.144-4.65 9.294-10.896 20.187l-11.331 19.606h-33.413c-29.054 0-33.413.29-35.01 2.324-1.453 2.033-2.18-.145-4.94-12.635-4.503-21.06-8.862-48.799-8.862-56.06 0-7.117 6.392-21.786 18.014-41.537 17.288-29.338 41.984-57.803 51.863-59.691 8.426-1.598 14.382-6.1 14.382-10.893 0-4.938-2.325-7.262-8.136-7.988-3.922-.436-55.203-20.623-57.528-22.656-1.452-1.162 5.811-26.142 8.426-29.192 7.7-8.714-7.118-21.204-15.399-12.926-3.196 3.195-3.777 10.021-1.017 12.926 1.453 1.452-.145 1.597-7.7.58-14.672-1.742-28.618-1.016-41.692 2.324-14.528 3.776-25.859 3.922-38.643.29-5.52-1.451-9.733-2.032-9.733-1.306 0 3.34 6.246 12.345 10.605 15.25 2.615 1.742 7.263 3.775 10.46 4.356l5.665 1.307-8.716 2.47c-4.65 1.306-11.477 3.195-15.109 4.066l-6.537 1.743 5.81 2.614c8.717 3.921 23.97 3.486 42.566-1.162 10.605-2.614 19.757-3.776 28.91-3.921 11.476-.145 16.996.871 14.817 2.469-19.467 15.394-86.437 66.081-93.992 71.164-11.621 7.843-13.365 10.167-13.365 16.993 0 3.776.727 4.938 4.213 6.245l4.213 1.452-5.084 7.988c-2.906 4.357-7.41 12.926-10.17 19.025l-5.084 11.038-2.615-5.083c-2.47-5.083-4.94-14.669-6.392-25.561-.726-5.083 0-7.407 6.101-17.864 8.572-14.959 22.372-33.549 30.217-40.81 3.341-3.05 6.537-6.39 7.119-7.262 1.162-2.033-3.196-7.262-6.102-7.262-2.179 0-54.187-36.018-54.187-37.47 0-4.067 7.845-24.98 10.17-27.159 1.597-1.452 2.905-4.502 2.905-6.826 0-8.714-11.186-13.216-17.578-6.826zm29.78 65.21c10.751 7.552 19.613 14.088 19.758 14.523 0 1.017-38.062 14.669-38.788 13.943-.29-.29 1.743-5.229 4.504-10.893 2.905-5.664 5.23-11.183 5.23-12.345 0-2.178-13.947-9.585-18.015-9.585-3.486 0-4.067-2.469-2.179-8.714l1.744-5.81 4.067 2.615c2.18 1.307 12.784 8.714 23.68 16.266zm182.464 5.81c0 .87-58.4 19.025-59.127 18.444-.29-.29 8.136-30.063 10.46-36.89.436-1.161 8.571 1.598 24.551 7.989 13.22 5.373 24.116 10.02 24.116 10.456zm-225.9-16.122c-.436.872-1.598 1.598-2.47 1.598-.871 0-.871-.871.291-2.178 2.034-2.47 3.777-1.888 2.18.58zm155.878 20.043c-3.196 10.311-6.392 19.17-6.973 19.751-.872 1.017-20.92 7.553-53.751 17.574-10.605 3.195-11.912 3.34-8.716 1.016 2.033-1.597 19.32-14.959 38.497-29.772 19.176-14.67 35.301-26.869 35.737-26.869.581-.145-1.598 8.133-4.794 18.3zm-275.728-3.05c30.507 6.245 31.088 6.39 25.423 7.988-2.325.726-16.997 4.792-32.396 9.15l-28.183 7.842 1.017-3.921c3.196-13.362 6.973-26.288 7.7-26.288.58 0 12.348 2.324 26.44 5.229zm-44.308 6.68a747.416 747.416 0 0 1-3.632 12.2l-2.905 10.457-11.332 3.05c-6.101 1.597-15.69 4.357-21.21 5.954-5.52 1.453-9.588 2.47-9.297 2.034 1.162-1.017 48.23-35.437 48.666-35.437.146 0 .146.871-.29 1.743zm137.137 6.536c1.744-.436 3.051-.436 3.051-.145 0 2.324-26.875 36.308-29.49 37.325-1.743.726-10.315 3.776-18.886 6.971l-15.834 5.664 12.057-11.328c6.683-6.1 19.322-17.864 28.038-26.142 10.46-9.876 16.27-14.378 16.997-13.216.58 1.016 2.324 1.307 4.067.871zm13.075 11.91l-4.358 13.07-11.04 3.631c-6.102 2.033-11.187 3.631-11.332 3.34-.29-.145 5.084-7.697 11.767-16.701 9.733-12.926 12.93-16.267 15.69-16.267h3.631l-4.358 12.926zm32.541-4.358l4.068 2.614-12.494 4.357c-6.828 2.47-12.203 3.631-11.912 2.76.29-.872 1.743-5.083 3.05-9.15l2.47-7.697 5.375 2.324c2.906 1.161 7.119 3.34 9.443 4.792zm19.176 88.302l3.777 7.698-3.632 11.909c-4.358 14.814-7.409 29.482-9.733 47.491-1.453 11.619-2.615 14.96-7.554 23.092-3.05 5.229-6.392 11.329-7.118 13.652-2.615 7.407-4.068 2.324-4.94-17.718-1.017-21.785.872-43.86 5.375-64.63 3.051-13.796 10.315-36.308 14.092-43.57l2.179-4.356 1.889 9.295c1.162 5.228 3.631 12.926 5.665 17.137zm-189.726.146c.145 8.423 3.777 25.125 8.135 38.05 2.906 8.57 3.341 11.62 2.18 16.557-.727 3.196-2.035 13.071-2.906 21.64-2.76 27.74 1.743 54.172 13.655 78.717 3.632 7.116 6.828 14.668 7.41 16.556l1.016 3.486-4.067-3.05c-12.058-8.569-24.697-25.416-31.67-42.118-4.358-10.311-4.649-11.909-1.598-11.909 1.889 0 2.18-3.05 2.18-18.154v-18.154h-4.359c-3.777 0-4.504-.726-6.102-6.245-1.162-3.631-1.888-13.943-1.888-25.707 0-21.494 2.034-30.499 11.331-51.267 4.94-11.038 6.538-10.602 6.683 1.598zm311.029 26.723c1.889 13.361 7.554 42.117 10.75 54.317 1.889 7.407 1.889 8.714-.726 16.266-1.598 4.502-2.47 9.005-2.18 9.876.437 1.017-2.469 5.228-6.246 9.44-6.828 7.552-6.973 7.698-8.716 4.502-6.973-13.216-9.588-46.765-5.23-69.567 1.888-10.02 9.297-36.744 10.169-36.744.29 0 1.162 5.374 2.179 11.91zM426.424 291.84l2.034 8.859-12.058 44.151-12.203 44.006-4.649-.436c-6.101-.726-49.393-20.623-49.393-22.802 0-5.518 41.403-58.82 64.647-83.364l8.716-9.15.436 4.793c.29 2.76 1.453 9.005 2.47 13.943zm45.76-1.453c0 .727-1.888 7.407-4.067 14.96l-4.068 13.797-9.878.435c-5.52.29-10.605-.145-11.477-1.016-2.034-2.034.146-12.49 3.777-17.864 3.777-5.664 14.237-11.328 20.92-11.328 2.615 0 4.794.435 4.794 1.016zm31.38 20.478c2.76 3.631 4.939 7.117 4.939 7.698 0 .726-5.956 1.307-13.22 1.307h-13.22l.872-4.067c.58-2.178 2.034-7.407 3.196-11.618l2.179-7.553 5.084 3.922c2.906 2.178 7.41 6.826 10.17 10.311zm-67.988 7.988c2.615 6.1 3.196 10.457 3.196 22.511v14.814h9.443l.29 12.78c.145 6.972 1.598 17.865 3.196 24.11 2.906 12.344 2.325 18.299-2.324 18.299-1.308 0-9.007-3.921-17.142-8.714-7.99-4.793-16.562-9.295-19.031-10.166l-4.358-1.598 10.895-39.794c5.956-21.93 11.331-39.94 11.767-39.94.581 0 2.325 3.486 4.068 7.698zm275.728 49.38c3.341 16.847 9.443 32.677 18.885 49.234 4.504 7.842 7.99 14.523 7.7 14.814-1.453 1.307-16.27 3.63-17.578 2.904-2.034-1.307-10.17-18.88-15.69-33.984-6.247-16.993-11.912-40.52-10.895-44.878.436-2.033 3.632-9.294 6.973-16.12l5.956-12.345 1.162 14.233c.581 7.842 2.034 19.606 3.487 26.142zm108.81-4.793c5.665 2.905 7.263 4.357 6.972 6.826-.29 2.614.436 3.195 4.358 3.63 7.7.727 6.392 4.213-5.665 14.67-6.247 5.373-11.913 9.73-12.784 9.73-3.341 0-17.578-17.283-22.227-26.868l-4.794-10.167 3.922-1.016c8.426-2.033 22.663-.581 30.217 3.195zM800.5 393.504l8.426 8.424-3.777 2.614c-5.084 3.486-38.497 19.897-39.224 19.316-.29-.29 3.342-13.361 7.845-29.047l8.426-28.61 4.94 9.44c2.76 5.228 8.716 13.216 13.364 17.863zm-49.392 9.44c-4.213 12.926-8.136 24.255-8.717 24.98-1.888 1.889-3.341-8.568-2.324-16.265 1.743-11.764 5.23-20.188 11.331-27.16 3.196-3.63 6.102-6.39 6.537-5.954.29.29-2.76 11.328-6.827 24.4zM591.018 381.16c-.436 1.017-3.487 10.312-6.973 20.769-3.342 10.311-6.683 19.461-7.264 20.042-.581.726-3.632 0-6.828-1.597-4.794-2.47-5.956-3.922-7.554-10.312-1.743-7.116-1.743-7.697 1.889-13.942 4.648-7.843 11.476-13.217 19.176-15.105 7.844-1.888 8.28-1.888 7.554.145zm24.551 2.034c2.615.726 3.632 2.904 5.666 12.78 1.743 7.552 5.375 17.138 10.314 26.869l7.554 14.959-7.554-.872c-4.213-.436-14.237-2.324-22.227-3.921l-14.818-3.05 3.487-11.183c1.888-6.1 5.23-16.702 7.409-23.818 3.777-12.636 4.358-13.362 10.169-11.764zm32.105 12.2l15.109 7.261-6.683 7.552c-3.777 4.212-7.845 10.602-9.152 14.233-1.308 3.63-2.76 7.117-3.341 7.697-2.615 2.905-18.886-34.856-18.886-43.715 0-3.05 5.375-1.307 22.953 6.971zm30.508 16.12c15.98 9.73 37.335 25.852 34.43 26.142-.727 0-9.008.581-18.16 1.307-9.152.581-23.389.872-31.524.436l-14.818-.871.872-4.502c1.307-6.972 5.81-15.105 12.348-22.076 3.196-3.486 6.101-6.39 6.392-6.39.436 0 5.084 2.614 10.46 5.954z"/><path d="M694.42 57.298c-2.034 2.178-2.905 4.647-2.47 7.407l.582 3.92-7.41-1.016c-12.638-1.888-29.926-1.016-42.128 2.324-14.237 3.776-24.842 3.921-37.626.29-5.375-1.452-9.733-2.033-9.733-1.307 0 2.47 4.067 9.15 7.7 12.49 1.888 1.889 6.682 4.503 10.459 5.955l7.118 2.76-8.716 2.468c-4.649 1.308-10.75 2.76-13.365 3.196-7.119 1.161-6.828 2.614 1.307 5.373 10.46 3.34 17.723 2.905 40.822-2.178 15.69-3.486 22.808-4.357 31.67-3.922 6.246.146 11.912 1.017 12.638 1.743.581.581-2.76 4.648-7.554 9.005-6.392 5.81-9.879 7.842-13.075 7.842-2.324 0-6.828.436-9.733.872l-5.52 1.016V132.238l-33.123 31.08c-18.159 17.138-35.737 32.968-39.223 35.002-4.94 3.195-6.102 4.792-6.102 8.278 0 2.76 1.017 4.793 2.906 5.81 2.615 1.452 2.324 2.178-5.375 12.78-9.588 13.361-13.656 21.204-20.92 39.503l-5.375 13.798-3.05-10.167c-4.068-13.797-5.957-26.578-5.957-41.246 0-12.055 0-12.2 6.392-21.059 19.467-27.014 47.36-52.139 65.083-58.384 7.699-2.614 11.33-5.955 11.33-10.166 0-4.067-4.503-6.826-9.297-5.52-2.615.582-70.166-11.618-71.62-13.07-.29-.145 1.308-6.536 3.342-14.088 2.324-8.714 5.085-14.959 7.264-17.428 4.358-4.647 4.503-10.021.145-14.088-7.264-6.826-18.16-.58-16.416 9.295l.872 4.503-12.058 1.742c-6.537.872-18.885 3.631-27.166 6.1-18.159 5.374-34.865 6.245-44.163 2.324-7.118-3.05-6.682-3.195-6.682 1.743 0 5.519 4.939 11.473 12.203 14.814l5.81 2.614-4.067 1.016c-2.18.436-9.152.581-15.544.29-6.247-.435-11.477-.144-11.477.437 0 2.614 9.588 12.054 14.092 13.797 9.733 4.066 31.524 1.452 54.767-6.536 9.734-3.485 24.697-4.212 23.825-1.307-.436 1.017-15.69 12.78-33.994 25.997-18.304 13.361-35.01 25.852-37.19 27.885-4.503 4.066-5.23 8.569-2.033 11.473 1.743 1.598 1.598 2.47-.872 5.81-9.443 13.361-21.5 48.798-21.5 63.176 0 6.1-.727 7.262-12.784 20.478-24.26 26.578-53.46 63.177-61.887 77.555l-3.922 6.68-3.487-3.485c-4.212-4.212-9.878-4.502-13.8-.58-6.392 6.39-1.453 15.975 7.99 15.975 3.34 0 11.476 3.195 24.115 9.44l18.885 9.586-4.358 5.083c-10.46 11.764-5.81 22.656 8.571 20.187 12.93-2.178 32.832 9.876 53.315 32.387 32.541 35.583 50.555 51.558 76.704 67.68 7.264 4.501 13.801 8.568 14.528 9.294 3.05 2.47 35.446 17.573 45.47 21.204 45.325 16.266 95.444 19.316 142.513 8.714 21.79-4.938 37.77-10.602 58.69-21.059 11.622-5.954 17.288-7.987 17.578-6.826.436 1.017 1.743 5.229 3.05 9.295 2.47 7.988 9.734 20.188 12.785 21.35 1.017.29 24.26-2.905 51.862-7.117s50.555-7.697 51.136-7.842c2.76-.146 6.102-15.976 6.102-28.32 0-12.636-.29-13.508-6.392-25.272-7.845-14.959-19.322-27.158-30.943-32.822-7.555-3.631-8.136-4.212-6.538-6.681 1.017-1.452 6.102-8.424 11.186-15.395 11.041-15.395 27.747-43.134 33.558-56.205l4.359-9.586h7.99c7.554 0 7.99-.145 7.263-3.34-1.017-4.793-3.632-20.188-3.632-21.64 0-.58 2.76-1.162 6.102-1.162h5.956l-.872-15.395-.871-15.54 25.568-48.798c14.091-26.868 27.02-50.396 28.91-52.575 5.955-6.245 3.776-13.797-4.65-16.411-4.648-1.452-10.75 4.066-10.75 9.585 0 2.47-1.453 6.681-3.05 9.44-2.615 4.067-3.778 4.793-6.974 4.212-14.963-3.195-67.406-11.183-68.859-10.602-1.889.726-31.524 53.301-31.524 56.06 0 .872 2.179 1.598 4.794 1.598 2.47 0 17.723 1.017 33.703 2.179 15.98 1.161 30.798 2.178 32.977 2.178 3.777 0 3.777.145-7.845 20.333l-11.767 20.332h-33.703c-33.703 0-33.849 0-34.575 3.196-.581 1.742-1.162 2.904-1.598 2.469-1.308-1.162-9.443-43.28-11.622-60.127l-2.179-15.976 8.571-17.573c17.433-36.018 49.974-77.264 62.467-79.588 8.426-1.453 14.528-5.955 14.528-10.747 0-4.938-2.325-7.553-6.828-7.553-3.341 0-56.656-20.913-58.98-23.092-1.454-1.452 5.374-25.27 8.425-29.627 3.05-4.503 2.76-8.714-1.162-12.345-4.358-4.067-9.879-4.067-13.801.145-3.341 3.486-4.358 10.312-1.743 11.91 3.34 2.032 1.016 3.194-3.923 2.032-9.878-2.323-32.25-1.597-44.744 1.598-14.672 3.63-28.473 3.63-39.805.145-4.939-1.452-8.861-2.469-8.861-2.178 0 .435.871 2.76 2.034 5.373 2.905 6.826 9.297 12.055 17.432 14.378l6.973 2.034-10.604 3.05c-5.957 1.742-12.64 3.63-15.109 4.066l-4.358 1.162 5.084 2.179c9.589 4.211 22.663 3.92 44.745-1.017 19.32-4.212 33.122-5.374 40.676-3.34 2.905.87-2.906 5.809-41.403 35.291-24.696 18.88-48.085 36.454-52.008 39.068-9.006 5.955-12.202 9.876-12.348 14.669 0 3.921 3.923 8.569 7.119 8.569 1.162 0 .726 1.452-1.163 4.066-3.777 5.374-16.125 29.918-16.125 32.097 0 .871-.58 1.597-1.307 1.597-2.325 0-7.119-13.652-8.862-24.98l-1.598-11.328 7.409-12.49c7.99-13.652 22.808-33.259 31.088-41.101 6.247-6.1 6.683-9.731 1.308-12.055-5.52-2.323-54.332-36.308-55.204-38.196-.871-2.614 6.247-23.383 9.588-27.74 3.777-4.938 3.923-9.876.145-13.652-3.922-3.921-10.75-3.776-14.527.29zm11.622 3.34c2.76 3.34.436 8.278-3.922 7.697-4.94-.58-7.41-4.502-4.94-7.552 2.47-2.904 6.538-3.05 8.862-.145zm159.8 4.357c2.034 2.469.727 7.407-2.324 8.569-3.196 1.162-7.845-1.598-7.845-4.648 0-5.519 6.683-8.133 10.17-3.92zm-176.07 8.278c4.939.872 9.297 2.034 9.733 2.615.29.58-.727 5.083-2.325 10.02-2.47 7.262-3.486 8.86-5.52 7.989-1.307-.581-6.247-1.888-11.04-2.905-10.025-2.324-19.758-1.307-45.035 4.502-8.717 1.888-18.595 3.631-21.791 3.486l-5.811-.145 4.358-1.453c14.382-4.793 19.612-7.407 19.612-10.021 0-2.324-1.162-2.76-6.828-2.76-7.7 0-17.287-3.775-20.774-7.987-2.034-2.47-1.889-2.614.726-1.598 6.392 2.614 26.004 2.76 35.592.145 17.433-4.647 30.072-5.228 49.102-1.888zM543.916 77.63c1.889 3.05-.29 7.407-3.777 8.133-2.324.436-6.973-3.34-6.973-5.518 0-2.179 4.649-5.955 6.973-5.52 1.163.291 2.906 1.598 3.777 2.905zm305.364 2.76c4.649 1.016 9.152 2.178 9.733 2.76 1.308 1.161-3.05 18.88-4.648 18.88-.436 0-4.068-1.017-7.99-2.179-10.75-3.34-23.825-2.614-45.47 2.179-10.606 2.323-22.228 4.357-25.569 4.211h-6.101l8.716-3.34c13.656-5.228 13.946-5.519 13.51-7.988-.29-1.597-2.76-2.614-8.425-3.195-7.99-.871-16.416-4.212-18.16-7.262-.726-1.016 1.017-1.161 5.957-.29 10.314 1.597 21.645.871 33.994-2.324 12.493-3.195 31.669-3.921 44.453-1.452zM536.073 94.042c0 .435-1.308 6.245-3.051 12.926l-3.05 12.054-12.494-.726c-11.186-.581-14.237-.145-26.44 3.776-26.44 8.423-43.146 9.73-51.862 3.776l-4.068-2.76 11.622-.87c6.392-.437 15.108-1.889 19.466-3.341l7.99-2.76-11.912-3.776c-10.605-3.485-18.014-7.697-16.125-9.295.29-.29 5.23.146 10.75.872 11.04 1.597 14.818 1.016 43.582-6.826 11.912-3.34 35.592-5.229 35.592-3.05zm156.459 7.116c-.436 1.162-1.598 4.648-2.615 7.988-1.017 3.34-2.615 5.955-3.632 5.955-1.889 0-1.453-1.598 3.05-14.233.291-.872 1.308-1.743 2.325-1.743.872 0 1.307.871.872 2.033zm27.601 18.445c12.64 8.714 23.099 16.557 23.39 17.137.435 1.162-37.481 15.105-38.498 14.088-.29-.29 1.889-5.519 4.94-11.764l5.52-11.183-3.342-2.614c-1.743-1.452-6.392-3.776-10.169-5.228-3.777-1.307-7.409-3.05-7.99-3.486-1.017-.871 1.598-13.071 2.76-13.071.291 0 10.75 7.262 23.39 16.12zm132.635-11.183c0 1.162-1.308 6.1-2.76 11.183-1.599 5.083-4.214 13.942-5.812 19.606-2.324 7.843-3.777 10.603-6.101 11.183-2.034.581-2.76.146-2.324-1.016.435-1.017 3.486-10.602 6.827-21.35 3.342-10.747 6.392-19.897 6.828-20.623 1.017-1.743 3.342-1.162 3.342 1.017zm53.75 19.897c0 .871-58.254 19.17-58.98 18.3-.436-.436 7.99-30.935 10.169-36.89.581-1.162 8.426 1.307 24.696 7.988 13.22 5.374 24.116 10.021 24.116 10.602zm-226.044-15.54c-.436 1.307-1.453 1.888-2.324 1.452-.727-.435-.582-1.743.435-2.904 2.18-2.615 3.196-1.888 1.889 1.452zm156.168 19.17c-3.196 10.312-6.682 19.462-7.554 20.333-1.598 1.453-17.578 6.536-51.572 16.702-7.554 2.179-13.22 3.631-12.784 3.196 1.889-1.889 77.14-59.546 77.43-59.256.291 0-2.324 8.569-5.52 19.026zm-166.918-5.954c-1.162 10.747-2.906 11.764-2.906 1.743 0-6.39-.436-8.278-2.179-8.278-1.598 0-1.393 1.771-1.684 8.016l-1.076 8.686-1.745-4.905c-.436-3.922.002-10.345-.87-11.362-1.162-1.452-.145-1.888 4.94-1.888h6.391l-.871 7.988zm7.7-6.971c.29.726-.291 5.083-1.163 9.876l-1.743 8.714-.581-9.876c-.436-6.826-.146-9.73 1.162-9.73.872 0 1.888.435 2.324 1.016zm-20.775 9.15c0 4.792-.58 8.714-1.453 8.714-.871 0-1.452-3.922-1.452-8.714 0-4.793.58-8.714 1.452-8.714s1.453 3.921 1.453 8.714zm29.345-6.245c-.871 1.452-1.888 5.373-2.47 8.714-.58 3.485-1.597 6.245-2.469 6.245-.872 0-1.162-1.743-.581-4.503.436-2.468.872-6.39.872-8.714 0-3.195.726-4.211 2.905-4.211 2.47 0 2.76.58 1.743 2.469zm16.852 3.34c3.341 1.452 6.101 3.486 6.101 4.357s-1.743 4.938-3.777 9.005c-2.47 4.937-4.213 6.826-5.23 5.809-.871-.872-.435-3.34 1.599-7.262 1.743-3.34 3.05-6.971 3.05-8.278 0-4.357-3.05-2.033-6.101 4.647-4.068 8.57-3.923 8.279-4.794 7.407-.436-.435.29-3.485 1.453-6.97 2.614-7.553 2.76-10.167.29-10.167-1.017 0-3.196 3.776-4.649 8.278-3.05 9.295-4.648 7.552-2.324-2.469.726-3.486 1.017-6.971.581-7.697-1.162-1.888 5.811-.146 13.801 3.34zm-175.49 1.162c0 4.793-7.118 28.32-9.007 29.482-2.905 1.888-3.05.581-.58-7.988 1.307-4.502 3.34-11.763 4.648-16.12 2.18-7.698 4.94-10.748 4.94-5.374zm34.14 2.469c14.382 2.905 27.166 5.519 28.328 6.1 1.162.435-12.494 4.792-30.508 9.876-18.013 4.938-32.977 8.859-33.267 8.568-.29-.29.436-4.211 1.743-8.859 1.308-4.647 3.05-11.183 3.923-14.668.871-3.34 2.033-6.1 2.614-6.1.582 0 12.784 2.323 27.166 5.083zm361.003 4.212c0 3.05-3.342 5.228-12.64 7.987-4.648 1.453-28.037 9.586-52.007 18.155s-57.237 20.478-73.944 26.432c-22.808 8.133-31.815 10.748-36.318 10.457-4.358-.29-6.101-1.162-6.392-3.05-1.017-5.228 5.52-9.585 22.082-14.814 69.73-22.075 151.955-47.055 155.296-47.055 2.325-.146 3.923.58 3.923 1.888zM513.99 145.164c-1.598 6.245-3.486 11.764-3.922 12.345-.872 1.017-13.51 4.793-37.045 11.183-3.196.871-5.084.871-4.358.29 2.034-1.888 47.214-35 47.795-35 .29 0-.872 5.082-2.47 11.182zm97.624-6.826c0 2.324-4.794 4.067-48.812 17.283-93.846 28.03-109.536 32.387-111.715 31.66-1.743-.725-1.888-1.597-.436-4.501 1.744-4.067 2.47-4.357 35.302-13.071 10.46-2.76 40.095-10.893 66.099-18.155 58.69-16.266 57.092-15.83 58.545-15.104.58.29 1.017 1.162 1.017 1.888zm43.436 3.34c2.615-.58.29 3.196-10.605 18.01l-13.946 18.88-18.45 6.68c-10.169 3.631-18.594 6.536-18.885 6.39-.145-.29 12.203-11.908 27.457-26.141 19.757-18.3 28.182-25.416 29.345-24.4 1.017.872 3.196 1.017 5.084.581zm11.622 12.49l-4.358 12.926-10.896 3.922c-5.956 2.178-11.186 3.776-11.33 3.485-.291-.29 4.793-7.842 11.33-16.847 9.879-13.652 12.349-16.266 15.69-16.411h3.922l-4.358 12.926zm12.494-11.182c-5.52 18.009-6.974 21.494-9.007 21.494-1.163 0-1.889-.871-1.598-1.888.435-.871 2.179-6.1 3.922-11.619 2.034-5.809 4.068-9.73 5.375-9.73 1.017 0 1.743.871 1.308 1.743zm74.089-.436c-.872.726-18.45 7.988-39.224 16.12-20.774 8.134-57.092 22.367-80.626 31.516-23.535 9.295-45.18 17.429-47.94 18.01-5.957 1.452-10.17.435-10.17-2.179 0-2.469 5.666-4.793 50.846-21.059 20.338-7.262 55.64-20.042 78.447-28.32 37.19-13.652 52.734-18.01 48.667-14.088zm-54.042 7.262l4.068 2.614-12.058 4.357c-6.682 2.469-12.203 4.357-12.348 4.212-.29-.291.581-3.631 1.889-7.553 1.307-3.921 2.47-7.987 2.905-9.004.581-2.033 7.7.436 15.544 5.374zm190.453 7.697c-44.018 46.184-75.251 125.046-69.005 173.99.872 6.971 2.906 16.411 4.504 21.059 1.598 4.647 2.905 8.569 2.905 8.859 0 .145-3.196-1.017-6.973-2.76l-6.973-3.195-6.537-22.075c-3.487-12.055-6.538-21.785-6.828-21.495-.436.436 6.101 33.55 7.845 40.23.58 2.179-.146 2.614-4.359 2.614-5.665 0-4.358 2.905-13.51-29.627-2.179-7.843-4.213-13.652-4.358-12.926-.29.726 1.453 10.457 3.777 21.64 2.324 11.037 4.213 20.187 4.068 20.478-.146.145-2.034.58-4.068 1.161-3.777.872-3.777.727-10.024-21.058-3.486-11.91-6.392-21.64-6.682-21.35-.436.436 5.375 32.823 7.409 41.247.58 2.323-.146 3.63-2.325 4.937-4.067 2.179-4.358 1.743-10.024-18.59-2.615-9.004-5.084-16.12-5.375-15.83-.436.29 1.017 9.005 3.05 19.316l3.923 18.59-3.341 2.614c-3.777 3.195-3.922 3.05-8.426-13.07-1.888-6.682-3.632-11.765-3.922-11.474-.29.29.436 6.39 1.598 13.361 2.905 16.412 2.905 17.574-.436 19.462-2.615 1.307-3.05.726-5.375-7.262-3.05-11.183-4.213-10.312-1.889 1.452 1.308 7.117 1.308 9.586-.145 12.49-2.615 4.793-3.777 4.357-5.52-2.033-1.453-5.083-1.453-4.793-.872 2.614.726 8.86-1.162 13.943-3.922 10.167-1.162-1.598-1.308-1.017-.727 2.904.436 2.76 0 9.005-1.017 13.798l-1.888 8.568-5.23-10.747c-12.058-24.69-16.125-43.57-16.27-75.522 0-18.735.726-27.74 3.196-40.955 8.57-46.04 30.216-91.207 43.581-91.207 1.308 0 1.598 1.017 1.017 3.195-.726 2.76-.436 2.469 2.034-1.017 1.598-2.323 4.213-4.792 5.956-5.373 2.906-1.017 2.906-1.017.581 3.34-1.162 2.47-1.888 4.793-1.452 5.229.29.435 1.743-1.308 2.905-3.631 5.375-10.312 10.75-12.055 6.537-2.179-3.34 7.988-2.76 7.552 3.632-1.888 2.47-3.776 5.956-7.407 7.7-7.988 3.196-1.162 3.05-.726-1.744 8.86-2.76 5.664-4.939 10.166-4.503 10.166.29 0 3.922-5.229 7.99-11.474 4.213-6.245 8.862-11.763 10.314-12.2 2.325-.58 1.889 1.017-3.05 10.748-3.051 6.245-5.375 11.474-5.085 11.474.29 0 3.922-5.229 8.135-11.764 6.973-10.602 11.913-15.83 14.818-15.83.581 0-2.324 5.663-6.247 12.634-13.655 23.674-13.22 23.964 2.325 1.162 6.247-9.15 12.348-16.702 13.365-16.702 1.743 0 1.453 1.017-.726 4.648-9.298 15.685-17.578 30.209-16.997 30.209.29 0 6.537-8.714 13.8-19.462 8.136-11.764 14.528-19.752 16.416-20.332 1.744-.436 3.196-.581 3.487-.436.145.29-5.085 8.86-11.622 19.316-19.466 30.354-18.74 30.209 3.341-.581 12.93-18.009 19.322-24.98 21.065-23.237.29.29-4.794 8.568-11.04 18.59-13.511 21.058-15.11 23.818-13.366 22.801.581-.436 7.99-10.602 16.416-22.656 11.186-15.976 16.416-22.221 19.467-23.383 2.324-.726 4.503-1.162 4.939-.871.29.435-7.7 12.78-17.723 27.594-10.17 14.814-18.16 27.014-17.724 27.014.29 0 10.46-13.217 22.518-29.483l21.79-29.482 9.153-3.05c5.084-1.743 9.442-3.195 9.733-3.195.29-.146-3.341 3.921-7.99 8.859zm-154.135 4.357c-23.389 29.482-40.24 67.098-47.94 107.618-3.631 19.461-3.631 67.534.146 87.43 3.34 18.155 10.75 42.7 17.432 58.385 2.76 6.68 4.794 12.054 4.504 12.054-1.308 0-14.527-10.457-15.4-12.2-.58-.871-6.391-20.332-13.074-43.28-6.682-22.946-12.348-41.536-12.638-41.246-.146.29 4.067 18.59 9.588 40.666 5.52 22.075 9.733 40.084 9.442 40.084-.435 0-2.47-1.016-4.648-2.323-3.487-2.034-5.085-6.1-14.673-38.487-5.956-19.752-10.895-35.873-11.186-35.583-.29.146 3.196 15.25 7.554 33.259 4.358 18.154 7.99 33.258 7.99 33.694 0 .436-1.888-.145-4.213-1.452-4.648-2.324-4.648-2.179-16.997-44.587-3.05-10.312-5.665-18.3-5.956-18.009-.29.29 2.325 12.78 5.956 27.885 3.487 15.104 6.247 27.594 6.102 27.885-.29.145-2.615-.581-5.375-1.743-4.94-2.033-5.085-2.324-12.058-27.594-3.922-14.088-7.409-25.271-7.7-24.98-.29.145 1.744 11.037 4.504 23.818 5.085 24.254 4.94 25.27-1.743 21.494-2.615-1.452-4.794-5.809-9.007-18.444-6.247-18.59-7.118-18.445-2.906.726 1.598 7.116 2.615 13.216 2.325 13.507-.29.29-2.76 0-5.375-.581-4.504-1.162-5.375-2.324-9.007-12.2-2.18-6.1-3.632-8.569-3.196-5.664.58 2.76 1.307 7.262 1.743 9.73.726 4.358.436 4.793-2.615 4.793-4.94 0-6.247-1.307-9.878-8.714-2.906-6.245-3.051-5.81-1.017 3.195.871 3.776.58 4.067-4.068 4.067-3.486 0-5.23-.726-5.666-2.614-.58-1.888-.726-1.888-.871.58-.145 3.631-7.41 5.81-9.152 3.05-.727-1.161-1.163-1.016-1.163.436 0 1.162-2.179 3.631-4.794 5.374-2.615 1.888-6.392 5.954-8.28 9.15-2.034 3.195-4.213 5.809-4.794 5.809-1.743 0-9.443-18.154-12.784-30.354-4.358-15.976-5.375-46.039-2.034-65.5 4.649-28.176 16.706-56.641 32.25-76.829 7.555-9.73 9.443-11.183 18.596-14.959 5.52-2.324 10.895-3.776 11.912-3.486 1.017.436 1.888.146 1.888-.726 0-1.307 5.957-4.357 6.974-3.485.145.145-.291 2.178-1.163 4.502l-1.452 4.212 2.615-3.486c7.118-10.166 10.604-11.909 7.554-3.776-2.47 6.39-.581 5.955 2.76-.58 1.743-3.196 4.358-6.536 5.956-7.408 2.76-1.452 2.76-1.452-.145 5.229-4.068 9.585-2.47 9.44 2.905 0 2.47-4.357 5.811-8.714 7.41-9.586 3.776-2.033 3.776-1.743-1.454 10.312-2.324 5.519-3.922 10.02-3.631 10.02.29 0 3.777-5.518 7.844-12.199 4.068-6.68 8.426-12.49 9.588-13.07 2.906-1.017 2.906-1.163-3.486 12.925-3.196 6.826-5.52 12.345-5.375 12.345.29 0 3.922-5.664 8.28-12.635 4.213-6.972 8.862-13.798 10.315-15.25 6.101-6.1 5.23-1.598-2.325 12.635-4.503 8.424-7.844 15.25-7.554 15.25.29 0 5.666-7.843 11.767-17.428 9.734-15.104 13.801-19.897 13.801-16.557 0 .581-3.922 8.424-8.862 17.428-4.793 9.15-8.425 16.557-8.135 16.557.436 0 6.102-8.569 12.639-19.026 10.17-16.12 16.27-22.947 18.595-20.913.436.435-12.784 23.673-22.663 39.939-5.81 9.44 2.18-1.452 15.545-21.35 12.784-18.88 18.013-25.125 19.902-23.382.145.29-4.213 8.278-9.879 17.864-16.706 28.756-17.287 29.773-16.56 29.773.29 0 8.135-11.62 17.287-25.852 13.655-20.914 17.723-26.142 21.5-27.45 2.615-1.016 4.94-1.742 5.085-1.452.145.146-5.085 8.86-11.622 19.171-20.92 33.259-24.115 38.487-23.534 38.487.29 0 10.023-13.652 21.5-30.499 16.997-24.835 21.646-30.79 25.859-32.532 9.006-3.776 9.006-2.614.435 8.133zm-158.057-2.905c-23.97 19.752-45.615 46.91-58.254 73.053-10.024 20.768-14.091 37.18-14.091 57.803 0 12.926-.29 15.25-1.889 13.942-1.162-.871-2.034-4.647-2.179-8.423 0-3.631-.581-10.021-1.307-13.943-1.017-6.971-1.017-6.971-1.308 3.922 0 6.245-.436 11.328-.726 11.328-4.504 0-5.23-2.179-5.375-15.83-.146-11.765-.436-12.927-1.453-7.408-.581 3.631-1.162 9.295-1.162 12.636-.146 4.647-.581 5.954-2.18 5.373-1.307-.58-2.324-5.228-3.195-15.54l-1.308-14.813-.436 13.361c-.145 7.407-.58 13.507-1.017 13.507-3.922 0-5.084-2.47-5.23-10.748-.145-12.635-2.469-18.88-2.614-7.406-.29 10.892-1.308 15.25-3.923 15.25-1.452 0-2.034-1.889-2.179-6.246 0-3.34-.58-8.714-1.162-11.91-1.162-4.937-1.307-4.066-1.453 6.1-.145 9.296-.58 12.055-2.179 12.055-2.47 0-3.632-4.357-3.922-14.523-.29-7.843-.29-7.843-1.453 2.904-1.453 12.345-2.034 14.524-4.213 14.524-.726 0-1.453-3.34-1.453-7.698 0-5.373-.435-6.97-1.452-5.373-.727 1.162-1.453 5.519-1.453 9.73 0 4.067-.581 7.988-1.453 8.424-.871.58-1.452-1.017-1.452-3.921 0-3.631-.436-4.212-1.453-2.615-.727 1.162-1.453 3.922-1.453 6.1 0 5.81-1.598 9.15-3.05 6.68-.872-1.16-1.308.291-1.308 4.213 0 3.485-.581 6.245-1.162 6.245-3.196 0-7.845-21.35-8.571-38.487-.581-15.395-.29-19.171 3.05-31.661 3.777-14.96 14.237-38.342 20.048-44.877 1.743-2.034 4.94-4.212 6.828-4.793 3.05-.871 3.341-.726 2.47 1.598-.727 2.033 0 1.742 3.05-1.308 4.94-4.502 9.298-5.664 6.102-1.452-1.163 1.598-.436 1.307 1.598-.58 4.213-3.632 11.621-6.827 11.621-4.793 0 .726-.58 1.742-1.452 2.178-.727.436-2.18 2.324-3.051 4.067-1.017 1.888 1.453.29 5.666-3.777 10.895-10.166 12.929-9.44 4.794 1.889-2.76 3.92-1.744 3.34 5.084-3.05 7.7-7.407 13.656-11.329 13.656-9.15 0 .58-2.47 3.921-5.52 7.697-10.17 12.345-9.443 12.49 2.324.436 6.537-6.536 12.493-11.91 13.365-11.91 2.034 0 1.307 1.308-8.426 13.798l-7.7 10.166 12.785-13.361c10.895-11.328 19.321-17.573 19.321-14.233 0 .436-5.23 6.971-11.622 14.378-6.392 7.552-11.622 13.943-11.622 14.378 0 .436 5.375-4.938 11.913-11.764 18.304-19.461 19.03-20.332 22.808-21.349 2.76-.871 1.598 1.307-5.957 10.312-17.432 21.349-20.919 26.432-9.733 14.378 21.21-22.947 26.73-28.176 31.088-29.192 4.068-1.017 4.213-1.017 2.18 1.888-1.163 1.743-9.298 11.473-18.014 21.785-27.166 31.951-26.44 31.515 4.794-2.47 20.193-22.075 26.294-27.158 32.831-27.448.872-.146-1.743 2.614-5.81 5.954zm419.84 46.33c2.033 6.1-6.538 9.585-8.863 3.485-1.452-3.63.582-6.535 4.359-6.535 2.324 0 3.922 1.017 4.503 3.05zm-278.78 32.096l4.068 8.279-3.922 12.78c-4.94 16.121-7.845 30.354-9.734 47.346-1.307 10.457-2.47 14.67-5.81 19.897-2.18 3.631-5.666 9.586-7.41 13.362-1.888 3.921-3.776 6.971-4.358 6.971-1.743 0-3.196-27.74-2.324-45.748 1.453-28.321 7.264-54.899 17.288-79.008l4.648-11.037 1.744 9.44c.871 5.228 3.486 13.216 5.81 17.718zm227.062-16.992c21.064 3.486 38.497 6.68 38.933 6.971.581.726-19.176 38.632-20.92 40.375-.87.726-68.859-3.195-81.352-4.792-2.76-.436-2.034-2.324 9.443-22.947 12.784-22.657 14.818-26.142 15.253-26.142.146 0 17.578 2.904 38.643 6.535zm44.163-4.212c1.453 1.453-1.743 6.39-4.068 6.39-2.615 0-2.615-.726-.726-4.502 1.598-2.76 3.196-3.485 4.794-1.888zm-460.95 18.59c0 10.457 3.63 29.337 8.134 41.682 3.632 9.876 3.632 10.167 1.308 21.785-2.76 14.814-2.906 45.458-.145 59.691 2.76 14.233 5.665 22.512 13.51 38.487 3.632 7.407 6.247 14.233 5.956 15.105-.726 2.033-11.767-7.117-19.03-15.83-6.393-7.553-14.092-21.06-18.305-31.952-3.05-7.552-3.05-7.552-.145-7.552 2.76 0 2.905-1.017 2.905-18.155V319.88h-4.358c-3.632 0-4.503-.726-5.956-5.519-.872-2.904-2.034-12.926-2.325-22.075-.58-13.507-.145-19.026 2.325-29.337 3.05-12.926 12.639-36.018 14.818-36.018.726 0 1.307 3.485 1.307 7.842zm312.917 41.537c2.034 12.345 5.375 29.192 7.409 37.325l3.486 14.814-2.76 8.278c-1.598 4.502-2.47 8.714-2.034 9.44.436.727-2.47 4.793-6.537 9.005l-7.264 7.552-2.76-6.68c-9.443-21.786-8.426-57.658 2.76-93.531 1.598-5.374 3.196-9.44 3.487-9.15.29.145 2.179 10.602 4.213 22.947zm-415.335 14.523l2.034 10.893-12.058 43.57-12.058 43.57-4.939-.436c-5.956-.435-49.248-20.478-49.248-22.801 0-5.664 35.738-52.14 64.647-83.8 8.28-9.15 8.716-9.44 9.152-5.81.145 2.18 1.308 8.86 2.47 14.814zm533.878-16.266c0 .29-4.359 9.15-9.734 19.316-9.588 18.155-10.024 18.735-14.527 18.735-2.615 0-4.794-.435-4.794-.87 0-.582 4.94-9.586 11.04-20.043 10.025-17.283 11.477-19.171 14.528-18.59 1.888.29 3.486 1.017 3.486 1.452zm-488.844 19.026c-.436 2.324-2.324 9.004-4.067 14.959l-3.342 10.602-11.186.436c-10.75.435-11.186.29-11.186-2.905 0-14.814 11.477-27.159 25.133-27.304 5.375 0 5.52.145 4.648 4.212zm11.332 4.357c-4.94 20.042-5.376 21.204-9.734 21.64-3.486.435-4.067 0-3.486-2.179 7.844-28.32 7.118-26.432 10.75-24.835 2.76 1.307 3.196 2.324 2.47 5.374zm21.5 13.652c2.324 3.195 4.213 6.39 4.213 7.116 0 .581-5.811 1.162-13.075 1.162-7.118 0-13.074-.436-13.074-.871 0-1.017 4.213-17.864 5.084-20.623 1.017-2.615 11.332 5.518 16.852 13.216zm-69.15 5.664c3.05 6.68 3.632 9.876 3.632 23.237v15.686h9.734v11.183c.144 6.245 1.597 17.282 3.34 24.69 3.342 14.232 2.615 19.315-2.614 19.315-1.453 0-8.862-3.63-16.416-8.133-7.41-4.502-15.98-9.295-18.886-10.602l-5.23-2.324 11.041-40.23c6.102-22.22 11.186-40.374 11.477-40.374.29 0 2.034 3.485 3.922 7.552zm504.823 4.357c0 2.614.436 8.278.872 12.345l1.017 7.697H852.913l3.632-10.602c1.888-5.664 3.777-11.328 4.213-12.345.435-1.307 9.878-1.743 39.95-1.743h39.223v4.648zM518.64 337.308v13.071h-75.541v-26.142h75.541v13.071zm190.453 15.685c2.76 23.528 10.169 46.33 21.355 64.484 9.007 14.96 9.007 15.104.29 16.993-4.067.87-8.28 1.597-9.297 1.597-4.068 0-22.517-46.91-27.02-68.695-1.89-9.731-1.018-13.652 7.118-29.338l5.23-10.166.29 5.81a894.12 894.12 0 0 0 2.034 19.315zm221.977 3.34c.871 5.81 1.452 10.603 1.162 10.893-.29.436-21.936.436-47.94.29l-47.504-.435 9.152-10.457 9.007-10.457h37.19l37.19-.145 1.743 10.312zm-424.923 11.765c12.493 38.341 44.744 66.081 90.214 78.135 28.91 7.553 59.998 9.876 95.88 7.407 73.508-5.083 107.357-19.17 149.922-62.16l19.176-19.316h27.602c18.013 0 27.747.581 27.747 1.453 0 4.211-19.031 37.615-32.832 57.512-10.605 15.25-13.365 17.283-38.497 27.304-30.943 12.345-75.688 22.076-121.884 26.433-30.072 2.904-100.82 2.033-125.661-1.453-32.541-4.792-57.238-10.457-82.225-19.17-20.338-7.117-29.054-11.184-52.88-24.836-25.712-14.813-40.675-22.22-54.476-27.303-13.22-4.793-25.423-5.374-30.944-1.743-4.358 2.904-4.939 1.452-1.743-4.793 3.632-6.971 11.767-11.619 20.484-11.619 9.878 0 16.416 2.47 34.139 12.926 16.706 9.876 21.355 10.747 25.858 5.083 3.777-4.792 3.777-6.1.146-21.204-1.598-6.68-2.906-17.137-2.906-23.382v-11.183H502.224l3.923 11.909zm10.169-2.034c8.57 22.221 25.422 43.28 43.29 53.737 24.552 14.523 58.255 22.366 104.597 24.4 69.15 3.05 135.395-20.334 174.473-61.725 5.811-6.1 10.896-10.312 12.639-10.312 1.598 0 2.905.581 2.905 1.453 0 2.614-29.78 31.515-41.402 40.084-35.738 26.287-79.029 37.325-147.452 37.325-27.893 0-42.565-1.597-64.647-7.116-49.102-12.2-80.626-39.504-92.83-80.17l-2.178-7.551h3.486c2.906 0 3.923 1.597 7.119 9.875zm305.654-2.033c6.246 3.195 7.409 4.357 6.101 5.955-1.307 1.597-.871 2.033 2.325 2.469 2.179.29 4.648 1.597 5.52 2.904 1.743 2.905-2.324 7.843-14.673 17.283-8.861 6.971-9.878 6.68-20.047-4.793-5.375-6.245-15.254-23.092-15.254-26.287 0-1.597 6.683-2.178 17.433-1.888 8.426.29 12.639 1.307 18.595 4.357zm-483.759-1.743c2.76 2.76 2.034 6.681-1.162 7.698-3.196 1.016-7.264-1.307-7.264-4.212 0-2.179 2.906-5.228 5.085-5.228.871 0 2.324.726 3.341 1.742zm430.153 34.276l-9.007 30.499-5.52 1.452c-3.196.726-5.666 1.017-5.666.436 0-.436 4.068-13.798 9.007-29.628 8.862-28.175 9.152-28.902 14.237-31.516 2.76-1.452 5.23-2.469 5.52-2.178.29.145-3.632 14.087-8.57 30.935zm18.304-22.076c2.18 4.502 8.136 12.635 13.22 18.009l9.298 9.876-10.46 6.1c-12.203 7.407-32.25 16.266-32.832 14.668-.145-.58 3.196-13.216 7.7-28.175 4.358-14.96 7.99-27.45 7.99-27.885 0-2.178 1.453.145 5.084 7.407zm-399.645 13.361c2.47.727 2.47.872-.727 2.47-3.05 1.742-5.375.87-23.389-8.134-14.382-7.261-19.757-10.602-19.176-12.054.582-1.598 5.23 0 20.63 7.407 10.895 5.228 21.064 9.876 22.662 10.311zm364.199 14.814c-4.358 14.378-8.571 26.142-9.152 26.142-1.744 0-3.051-10.02-2.034-17.137 1.598-11.91 5.23-20.333 12.057-27.885 3.632-3.921 6.683-7.262 6.974-7.262.145 0-3.342 11.764-7.845 26.142zM590.986 381.17c-.436 1.016-3.487 10.311-6.973 20.768-3.341 10.312-6.683 19.461-7.264 20.042-.581.727-3.777-.145-6.973-1.742-4.94-2.615-5.956-3.922-7.554-10.167-1.453-6.245-1.308-7.697 1.162-12.635 4.068-7.843 10.46-13.507 17.869-15.83 8.135-2.47 10.46-2.615 9.733-.436zm13.074.435c.291.29-2.76 10.893-6.973 23.674l-7.263 23.382-4.358-1.452c-2.325-.872-3.923-2.324-3.632-3.195.29-1.017 3.341-10.312 6.682-20.623 7.554-23.674 7.845-24.4 11.913-23.093a20.92 20.92 0 0 1 3.631 1.307zm15.109 4.067c.58.871 1.162 3.34 1.162 5.374 0 5.809 7.99 26.868 13.656 36.453 2.905 4.938 4.939 9.295 4.503 9.73-.872 1.018-20.629-1.887-33.994-4.937-7.118-1.452-10.314-2.905-9.878-4.067.436-1.016 3.922-11.763 7.7-23.963l6.972-22.22 4.358.87c2.47.581 4.94 1.743 5.52 2.76zm24.26 7.552c21.5 9.15 20.484 7.988 13.51 15.976-6.246 7.116-11.912 17.283-11.912 21.494 0 4.793-2.76 2.324-7.844-6.68-5.375-9.44-12.494-29.192-12.494-34.275 0-1.743.727-3.05 1.598-3.05.872 0 8.571 2.904 17.142 6.535zm36.319 19.171c6.101 3.776 16.125 10.747 22.517 15.54l11.331 8.714-4.067 1.307c-4.94 1.598-59.417 2.179-60.87.726-.58-.435 0-4.502 1.308-9.004 1.743-5.664 4.503-10.312 9.733-15.976 4.068-4.502 7.845-8.133 8.28-8.133.436 0 5.666 3.05 11.768 6.826zm-272.678 4.212c13.366 4.792 28.474 12.345 54.042 27.013 30.798 17.719 51.427 26.142 84.985 34.566 39.078 9.73 73.943 13.507 122.9 13.507 76.123 0 137.864-11.474 195.392-36.309 1.163-.58-.145 1.888-3.05 5.519-3.051 3.776-8.426 7.988-13.075 10.312-11.622 5.809-37.19 13.797-59.416 18.59-17.288 3.776-18.45 4.211-9.443 3.485 19.03-1.452 41.838-7.116 65.373-15.83 1.743-.727.58 1.307-3.487 5.519-5.52 5.664-8.426 7.261-20.338 11.183-7.7 2.469-27.02 6.68-43 9.294-15.981 2.76-27.603 5.084-26.005 5.084 6.973.29 47.65-5.955 60.87-9.295 7.844-2.034 14.527-3.34 14.817-3.05.436.29-3.05 3.485-7.409 7.116-8.425 6.826-15.689 9.295-39.514 13.362-6.973 1.162-9.442 1.888-6.392 2.033 2.76 0 11.041-1.162 18.16-2.614 7.263-1.453 13.22-2.47 13.51-2.324.871.726-18.595 12.345-33.122 19.607-17.579 8.859-42.42 17.428-63.92 22.075-22.373 4.793-73.509 4.793-95.88 0-45.326-9.876-100.965-37.325-131.473-64.92l-7.263-6.535 9.442 4.357c10.605 4.793 30.798 10.747 40.677 12.2 4.068.58 1.017-.726-7.99-3.486-21.936-6.68-48.085-20.042-58.69-29.918-4.94-4.502-8.862-8.714-8.862-9.295 0-.58 7.409 2.614 16.416 7.262 20.338 10.602 39.369 17.573 64.356 24.109 23.68 5.954 31.67 6.39 11.476.58-48.376-14.087-92.103-35.146-114.62-55.043-14.818-13.071-27.747-19.607-38.933-19.752-4.504 0-7.845-.436-7.41-1.162 1.454-2.469 16.707-.871 26.876 2.76zM867.73 462.5c-.726 1.016-3.922 5.083-6.972 9.15l-5.666 7.261 9.007-8.569c10.024-9.73 13.22-10.02 5.956-.58l-4.794 6.244 6.537-5.954c7.119-6.826 11.477-7.262 7.555-.872-2.47 3.922-2.47 3.922.435 1.307 1.598-1.307 3.487-2.469 4.068-2.469.581 0 4.649 3.34 9.007 7.407 9.297 9.005 17.433 23.964 19.321 35.873 1.308 8.424 1.162 11.619-1.453 23.673l-1.452 6.536-47.94 7.552c-35.156 5.519-48.812 7.116-50.7 6.1-3.778-2.034-9.443-12.055-12.058-21.35l-2.18-7.407 13.22-9.73c7.845-5.664 22.808-19.316 35.883-32.678 20.92-21.494 25.713-25.997 22.227-21.494z"/><path d="M865.593 330.773v6.535h13.075v-13.071h-13.075v6.536zM891.742 330.773v6.535h13.075v-13.071h-13.075v6.536zM917.891 330.773v6.535h13.075v-13.071h-13.075v6.536zM861.235 358.367v6.536h13.075v-13.071h-13.075v6.535zM903.364 358.367v6.536h13.075v-13.071h-13.075v6.535zM855.424 390.318c0 5.084 0 5.084 6.537 5.084 6.538 0 6.538 0 6.538-5.084 0-5.083 0-5.083-6.538-5.083-6.537 0-6.537 0-6.537 5.083zM885.931 390.318c0 5.084 0 5.084 6.538 5.084 6.537 0 6.537 0 6.537-5.084 0-5.083 0-5.083-6.537-5.083-6.538 0-6.538 0-6.538 5.083zM550.351 452.769v9.44h13.075v-18.88H550.35v9.44zM771.166 458.578v9.44h13.074v-18.88h-13.074v9.44zM662.211 471.65v9.44h13.075v-18.88H662.21v9.44zM451.566 338.034v6.536h13.074v-13.071h-13.074v6.535zM477.715 338.034v6.536h13.074v-13.071h-13.074v6.535zM503.864 338.034v6.536h13.074v-13.071h-13.074v6.535zM781.324 522.852c.968.323 2.905.323 4.035 0 .969-.484.161-.807-2.098-.807-2.26 0-3.067.323-1.937.807zM232.294 276.267c-.7.86-1.507 2.476-1.669 3.498-.215 1.077-.861 2.96-1.4 4.198-1.4 3.122-1.345 5.759.162 8.02 1.884 2.852 5.06 2.798 6.568-.054 1.4-2.638 1.023-6.351-.861-9.15-1.67-2.422-1.885-4.628-.808-7.158.7-1.453-.538-1.077-1.992.646zM238.97 293.328c-1.023.43-2.154 1.184-2.53 1.722-3.015 3.93 3.822 8.235 8.775 5.598 5.33-2.907 5.49-2.96 8.021-2.1 2.154.7 2.261.7 1.83-.16-.86-1.615-2.207-2.369-7.429-4.145-5.975-1.991-6.19-1.991-8.667-.915zM218.405 294.62c-2.477 1.668-5.115 2.045-7.053 1.022-1.507-.807-1.669-.323-.43 1.292.645.807 2.099 1.668 3.391 1.991 1.238.323 3.392 1.077 4.791 1.615 3.23 1.346 6.138 1.346 8.345 0 4.468-2.691 1.669-7.535-4.307-7.535-1.723 0-3.015.43-4.737 1.615zM231.379 300.486c-.27.592-.538 2.207-.538 3.66-.108 9.634-3.93 18.73-11.144 26.588-1.562 1.668-2.854 3.175-2.854 3.39 0 .539 8.076.377 9.152-.215.97-.484 1.077-.323 1.4 1.56.43 2.584 1.884 5.06 3.66 6.244 1.131.754 1.562.807 2.8.162 2.154-1.023 3.554-3.23 3.823-6.028.269-2.1.484-2.476 1.184-2.1.485.216 2.907.485 5.384.593l4.522.215-2.369-2.799c-4.468-5.274-5.922-7.266-7.698-10.764-2.477-4.79-3.5-8.557-3.93-14.263-.162-2.69-.539-5.382-.754-6.081-.538-1.453-1.884-1.561-2.638-.162zM48.365 276.633c-.7.861-1.508 2.476-1.669 3.498-.215 1.077-.861 2.96-1.4 4.198-1.4 3.122-1.346 5.76.162 8.02 1.884 2.852 5.06 2.798 6.568-.054 1.4-2.637 1.023-6.351-.862-9.15-1.669-2.422-1.884-4.628-.807-7.158.7-1.453-.539-1.076-1.992.646zM55.04 293.694c-1.022.43-2.153 1.184-2.53 1.723-3.015 3.928 3.823 8.234 8.775 5.597 5.33-2.906 5.492-2.96 8.022-2.1 2.153.7 2.261.7 1.83-.16-.861-1.615-2.207-2.369-7.429-4.145-5.976-1.991-6.191-1.991-8.667-.915zM34.475 294.986c-2.476 1.668-5.114 2.045-7.052 1.023-1.508-.808-1.67-.323-.43 1.291.645.808 2.099 1.669 3.39 1.992 1.239.323 3.392 1.076 4.792 1.614 3.23 1.346 6.137 1.346 8.345 0 4.468-2.69 1.669-7.535-4.307-7.535-1.723 0-3.015.43-4.738 1.615zM47.45 300.852c-.27.592-.539 2.207-.539 3.66-.107 9.634-3.93 18.73-11.144 26.588-1.56 1.668-2.853 3.175-2.853 3.39 0 .539 8.075.377 9.152-.215.97-.484 1.077-.323 1.4 1.561.43 2.584 1.884 5.06 3.66 6.243 1.131.754 1.562.808 2.8.162 2.154-1.023 3.553-3.23 3.822-6.028.27-2.1.485-2.476 1.185-2.1.484.216 2.907.485 5.383.593l4.523.215-2.37-2.799c-4.468-5.274-5.921-7.265-7.698-10.764-2.476-4.79-3.499-8.557-3.93-14.262-.161-2.691-.538-5.382-.753-6.082-.539-1.453-1.885-1.56-2.638-.162zM139.378 276.416c-.7.861-1.508 2.476-1.67 3.498-.215 1.077-.86 2.96-1.4 4.198-1.399 3.122-1.345 5.76.162 8.02 1.885 2.852 5.06 2.798 6.568-.054 1.4-2.637 1.023-6.351-.861-9.15-1.669-2.422-1.884-4.628-.808-7.158.7-1.453-.538-1.076-1.991.646zM146.053 293.477c-1.023.43-2.153 1.184-2.53 1.723-3.015 3.928 3.822 8.234 8.775 5.597 5.33-2.906 5.491-2.96 8.022-2.1 2.153.7 2.26.7 1.83-.16-.861-1.615-2.207-2.369-7.43-4.145-5.975-1.991-6.19-1.991-8.667-.915zM125.488 294.769c-2.477 1.668-5.114 2.045-7.053 1.023-1.507-.808-1.668-.323-.43 1.291.646.808 2.1 1.669 3.391 1.992 1.239.323 3.392 1.076 4.792 1.614 3.23 1.346 6.137 1.346 8.344 0 4.469-2.69 1.67-7.535-4.307-7.535-1.722 0-3.014.43-4.737 1.615zM138.462 300.635c-.269.592-.538 2.207-.538 3.66-.108 9.634-3.93 18.73-11.144 26.588-1.561 1.668-2.853 3.175-2.853 3.39 0 .539 8.075.377 9.152-.215.969-.484 1.076-.323 1.4 1.561.43 2.584 1.884 5.06 3.66 6.243 1.13.754 1.562.808 2.8.162 2.153-1.023 3.553-3.23 3.822-6.028.27-2.1.485-2.476 1.184-2.1.485.216 2.908.485 5.384.593l4.522.215-2.369-2.798c-4.468-5.275-5.921-7.266-7.698-10.765-2.476-4.79-3.5-8.557-3.93-14.262-.162-2.691-.538-5.382-.754-6.082-.538-1.453-1.884-1.56-2.638-.162zM4.287 375.778c-.269.592-.538 2.206-.538 3.66-.054 4.816-1.437 10.3-3.308 14.76.133 6.864.34 9.873-.137 16.563.43 2.584 1.884 5.06 3.66 6.244 1.131.753 1.562.807 2.8.161 2.153-1.023 3.553-3.23 3.822-6.028.27-2.099.485-2.476 1.185-2.099.484.215 2.907.484 5.383.592l4.522.215-2.368-2.798c-4.469-5.275-5.922-7.266-7.699-10.764-2.476-4.79-3.5-8.558-3.93-14.263-.161-2.691-.538-5.382-.754-6.082-.538-1.453-1.884-1.56-2.638-.161z"/><path fill="#0091c8" d="M1050 523.045V700H286.062V512.179c.753 2.997 12.45 6.692 20.729 9.69 15.053 5.246 16.183 5.246 30.86-4.496 19.946-13.115 32.365-12.74 54.945 1.498 33.87 21.358 42.903 21.733 53.064 2.998 7.527-14.613 24.462-14.613 53.44.375 12.42 6.37 25.215 11.24 28.978 11.24 3.387 0 11.667-5.995 18.065-13.114 14.3-16.486 22.58-15.362 59.461 5.995 29.731 17.61 39.892 18.735 42.903 4.122 4.14-18.36 7.527-21.358 24.838-21.358 10.538.375 26.344 4.871 42.527 12.365 13.924 6.745 28.225 11.99 30.86 11.99 3.01 0 6.397-5.245 7.903-11.615 1.129-6.37 6.021-13.864 10.16-16.861 10.162-6.37 20.7-3.747 53.817 13.114 33.118 16.486 42.527 14.988 42.527-7.12 0-6.744 7.15-11.24 18.064-11.24 3.387 0 17.312 6.745 31.236 15.362 30.107 17.986 38.387 17.986 41.021-.374 2.634-18.735 15.054-19.11 47.419-2.248 24.085 13.114 51.121 18.411 51.121 10.543z"/><path fill="none" stroke="#fff" stroke-linecap="round" stroke-linejoin="round" stroke-width="8.762" d="M293.074 522.593c.753 2.998 8.656 7.494 16.935 10.491 15.054 5.246 16.183 5.246 30.86-4.496 19.946-13.114 32.365-12.74 54.945 1.499 33.871 21.357 42.903 21.732 53.064 2.997 7.527-14.613 24.462-14.613 53.44.375 12.42 6.37 25.215 11.24 28.979 11.24 3.387 0 11.666-5.994 18.064-13.113 14.3-16.487 22.58-15.363 59.461 5.995 29.731 17.61 39.892 18.734 42.903 4.121 4.14-18.36 7.527-21.357 24.838-21.357 10.538.375 26.344 4.87 42.527 12.365 13.924 6.744 28.225 11.99 30.86 11.99 3.01 0 6.398-5.246 7.903-11.616 1.129-6.37 6.021-13.863 10.161-16.86 10.161-6.37 20.699-3.748 53.817 13.113 33.117 16.487 42.526 14.988 42.526-7.119 0-6.744 7.15-11.24 18.064-11.24 3.387 0 17.312 6.744 31.236 15.362 30.107 17.985 38.387 17.985 41.021-.375 2.635-18.734 15.054-19.11 47.419-2.248 24.086 13.114 46.666 17.61 46.666 9.742"/><path fill="none" stroke="#000" stroke-linecap="round" stroke-linejoin="round" stroke-width="8.762" d="M289.92 513.298c.753 2.997 8.657 7.493 16.936 10.49 15.054 5.247 16.183 5.247 30.86-4.495 19.946-13.115 32.365-12.74 54.945 1.498 33.871 21.358 42.903 21.733 53.064 2.998 7.527-14.613 24.462-14.613 53.44.375 12.42 6.37 25.215 11.24 28.979 11.24 3.387 0 11.666-5.995 18.064-13.114 14.3-16.486 22.58-15.362 59.461 5.995 29.731 17.61 39.892 18.735 42.903 4.122 4.14-18.36 7.527-21.358 24.838-21.358 10.538.375 26.344 4.871 42.527 12.365 13.924 6.745 28.225 11.99 30.86 11.99 3.01 0 6.397-5.245 7.903-11.615 1.129-6.37 6.021-13.864 10.161-16.861 10.161-6.37 20.699-3.747 53.816 13.114 33.118 16.487 42.527 14.988 42.527-7.12 0-6.744 7.15-11.24 18.064-11.24 3.387 0 17.312 6.745 31.236 15.363 30.107 17.985 38.387 17.985 41.021-.375 2.635-18.735 15.054-19.11 47.419-2.248 24.086 13.114 46.666 17.61 46.666 9.742"/><path fill="#fff" d="M359.145 574.337c-6.447 4.126-5.731 4.444 5.731 2.857 9.671-1.27 16.119.317 29.014 7.618 24.715 14.283 35.103 15.236 51.58 5.078 19.7-11.744 27.581-13.966 42.983-10.792 11.82 2.222 12.895 2.222 8.239-1.904-10.03-9.205-29.73-9.205-47.282 0-20.059 10.157-29.73 10.474-52.296.317-20.417-9.205-27.94-9.84-37.969-3.174zM728.802 583.86c-13.611 7.935-28.655 14.283-33.67 14.283-5.015 0-20.417-6.03-34.029-13.331-23.282-12.38-25.431-13.014-36.177-9.205-29.73 10.792-49.073 14.283-63.4 10.792-16.478-3.81-17.91-1.27-3.583 6.348 13.97 7.3 26.149 6.983 53.371-1.587 22.567-6.983 22.925-6.983 34.029-.952 44.774 23.806 57.67 25.075 80.952 8.57 26.865-19.045 37.969-20.632 76.295-9.523 22.925 6.666 24.716 6.666 35.82 1.905l11.82-5.396h-14.686c-8.238-.318-25.79-3.81-38.685-8.253-13.253-4.444-28.297-7.935-33.67-7.935-5.731 0-20.417 6.03-34.387 14.283zM939.421 582.272c-4.298 1.587-8.955 4.127-10.388 6.031-2.865 4.444-21.491 4.444-31.52 0-6.09-2.54-5.732-1.587 2.148 4.761 12.179 9.84 21.134 10.475 36.894 1.905 11.104-6.348 12.537-6.348 25.074-1.587 21.134 7.618 25.074 5.396 8.239-4.761-16.836-10.158-18.985-10.475-30.447-6.349zM826.948 623.536c-10.388 6.983-22.925 12.697-27.581 12.697-4.299 0-17.91-4.444-29.372-9.84l-21.492-10.157-13.611 6.983c-7.522 3.809-17.91 8.57-23.283 10.475-5.731 2.221-10.03 5.078-10.03 6.348 0 4.761 11.463 2.54 27.223-5.714 17.552-9.205 27.581-8.57 44.775 1.905 23.64 15.236 31.163 14.6 57.31-3.81 16.478-11.743 27.94-12.06 55.88-1.269 20.775 7.618 23.282 7.936 34.028 3.81l11.82-4.445-12.537-.317c-6.805-.317-22.924-4.761-35.103-9.84-12.536-5.396-26.506-9.522-30.804-9.522-4.299 0-16.836 5.713-27.223 12.696zM533.586 625.123c-16.835 13.65-27.581 13.967-45.133 1.587-16.118-11.427-26.864-11.744-48.356-1.587-12.178 5.714-14.686 7.936-10.03 9.523 3.224 1.27 10.747-.318 16.836-2.857 15.76-7.3 23.64-6.348 43.7 6.03 10.03 6.032 19.7 11.11 21.133 11.11 1.433 0 9.313-4.443 17.552-9.522 25.073-16.188 30.088-16.823 54.445-7.935 22.208 8.57 28.656 7.935 39.402-3.492 4.656-5.079 4.298-5.079-2.866-1.904-11.462 5.396-19.7 4.76-41.192-4.127-24.716-10.157-29.014-10.157-45.49 3.174zM338.012 646.073c-4.299 1.904-9.672 6.03-11.82 9.522-4.3 5.714-3.941 6.031 2.507 3.174 8.954-4.443 24.357-4.443 27.222 0 1.433 1.905 8.955 7.618 16.835 12.697 18.627 11.744 34.029 12.062 53.013.952 14.328-8.253 24-8.887 44.775-2.857 5.014 1.587 4.298-.317-3.582-6.03-13.612-10.475-27.581-10.475-48.357 0-18.984 9.522-25.431 8.57-49.072-8.253-19.701-13.65-20.417-13.967-31.521-9.205zM594.121 660.356c-6.806 4.444-15.044 9.205-17.91 10.793-2.865 1.587-4.298 3.491-3.224 4.443 1.075 1.27 9.672-1.587 18.985-6.03 9.313-4.444 19.7-7.936 22.924-7.936 3.582 0 13.97 5.714 24 13.014 19.7 14.284 25.79 14.601 47.998.952 16.476-9.84 20.058-9.522 39.76 1.905 20.416 12.062 28.655 12.062 53.012-.318 21.85-10.792 29.73-10.474 51.58 2.222 7.522 4.127 16.119 7.618 18.984 7.618 8.239 0 24-7.935 32.238-15.87l7.164-6.984-12.537 6.666c-16.835 8.888-27.223 8.253-48.356-2.857-22.567-11.744-29.014-11.744-48.715 0-20.059 11.745-30.446 12.062-50.147 0-20.059-11.744-30.447-12.061-48.356 0-17.552 11.745-21.85 11.745-37.253.635-14.686-10.792-26.506-16.505-32.954-16.505-2.507.317-10.387 3.809-17.193 8.252z"/><g fill-rule="evenodd" font-size="12"><path fill="#dc241f" d="M.248.1h286v233.233h-286z"/><path fill="#009543" d="M286.297 29.263L286.044 0l-34.742.36L.426 203.444l-.129 29.889 35.003-.15 250.997-203.92z"/><path fill="#009543" d="M.297 29.263L.55 0l34.742.36 250.876 203.084.13 29.89-35.004-.152L.297 29.263z"/><path fill="#fff" d="M.036 140.134L0 93.451l286.297-.25.036 46.683z"/><path fill="#fff" d="M119.848.029l47.48-.03.255 233.594-47.48.03z"/></g></svg>