<svg xmlns="http://www.w3.org/2000/svg" width="1200" height="600" version="1.0" viewBox="-15 -7.5 30 15"><defs><clipPath id="a"><path d="M-15-7.5h30v15h-30z"/></clipPath></defs><path fill="#00247D" d="M-15-7.5h30v15h-30z"/><g clip-path="url(#a)" transform="matrix(.5 0 0 .5 -7.5 -3.75)"><circle r="20" fill="#00247D"/><path stroke="#fff" stroke-width="3" d="M-20-10l40 20m-40 0l40-20"/><path stroke="#CF142B" stroke-width="2" d="M-20-10l40 20m-40 0l40-20"/><path fill="#fff" d="M0 0l20 10h-3L-3 0m3 0l20-10h3L3 0M0 0l-20 10h-3L-3 0m3 0l-20-10h3L3 0"/><path stroke="#fff" stroke-width="5" d="M-20 0h40M0-10v20"/><path stroke="#CF142B" stroke-width="3" d="M-20 0h40M0-10v20"/></g><path fill="#f7e017" stroke="#000" stroke-width=".01478375" d="M5.018.454c-.32.272-.625.667-.7 1.025-.211 1.006-.49 1.23-.923 1.014 0 .54.474.582.682.266 0 .508.184.947.598 1.323.175.158.208.05.125-.125-.083-.175-.083-.74-.25-1.065.267.192.658.084.624-.44-.34.2-.68.191-.715-.283-.041-.557.176-1.366.559-1.715zM4.613-3.551c.022-.2-.02-.405-.166-.534-.282-.248-.559-.166-.764.034-.308-.166-.471.424-.82.324.058.191.15.274.324.208-.183.166 0 .366-.216.565.39.125.598-.091.582-.465.15.133.382.124.507-.025-.208-.067-.209-.248-.125-.416.125-.25.711-.24.678.309z"/><path fill="#337321" stroke="#000" stroke-width=".01478375" d="M5.515-.658c-.44.232-1.247.133-1.322-.441-.075-.574.482-.832.632-.907.233-.116.416.092.341.333a.378.378 0 0 0 .191-.565c.341.024.657-.233.79-.6-.12.115-.445.038-.714.02.083-.091.082-.269.057-.36-.282.29-.69.158-1.23.998.083-.291.24-.873.332-1.256a.945.945 0 0 0 .02-.115c.034-.549-.551-.559-.676-.31.137.155.065.335.016.608-.058.324-.183 1.073-.291 1.322-.033-.39-.291-.416-.341-.607-.075.05-.117.183-.1.275-.091-.1-.407.025-.524-.125-.125.25.075.499.283.607-.12.008-.15.154-.283.154.179.208.362.29.574.307.212.017.37.096.499.354.208.416 1 .686 1.746.308z"/><path fill="#f7e017" stroke="#000" stroke-width=".01478375" d="M6.613-1.166c-.25.69-.931 1.181-1.24 1.256-.523.127-1.59.646-1.877.913a.335.335 0 0 1-.118-.048C3.237.855 3.12.53 3.37.256 4.15-.476 4.99-.16 5.515-.658c-.44.232-1.247.133-1.322-.441a2.03 2.03 0 0 0 2.012-.599c.092.1.358.416.408.532z"/><path fill="#337321" stroke="#000" stroke-width=".01478375" d="M5.018.454c-.395.335-.6 1.158-.559 1.715.012.155.055.26.121.324.03-.316.249-1.132.81-1.497C5.865.69 6.605-.002 6.88-.792a.631.631 0 0 0-.291-.34c-.272.745-1 1.103-1.57 1.586z"/><path fill="#316d3a" stroke="#000" stroke-width=".01478375" d="M6.36-1.486c-.142.212-.462.503-.77.62a.403.403 0 0 0 .092-.25c-.391.15-1.173.133-1.489.017a2.03 2.03 0 0 0 2.012-.599.826.826 0 0 1 .154.212z"/><path fill="#337321" stroke="#000" stroke-width=".01478375" d="M3.37.256c-.636.595-.216 1.115.033 1.231-.066.416.324.366.316.715.158-.091.2-.332.175-.524.2.216.706-.025.815.374.066-.44-.275-.881-.699-.84.175-.157.075-.415-.091-.482-.034.325-.4.325-.541.225C3.237.855 3.12.53 3.37.256z"/><path fill="#f7e017" stroke="#000" stroke-width=".01478375" d="M4.746 4.04c-.07.04-.064.129-.02.187.087.116-.062.38.22.437.083.016.147-.035.178-.13.088-.261-.19-.29-.216-.415-.025-.125-.104-.112-.162-.079z"/><path fill="#f7e017" stroke="#000" stroke-width=".01478375" d="M4.983 4.53c-.093.044-.175.105-.137.404.015.124.008.424-.1.428.067.033.208.069.266-.008.056.093.183.066.233-.05.066.054.158-.037.158-.116.058.037.175-.017.145-.196.071.025.163-.025.196-.07-.104-.021-.366-.163-.428-.275-.063-.112-.225-.166-.333-.116z"/><g fill="none" stroke="#000" stroke-width=".125"><path stroke-width=".01478375" d="M3.542-3.88c.042-.062.089-.12.14-.17M5.124-2.779c.074-.042.185-.047.31-.039M5.012 5.354c-.029-.042-.04-.216-.019-.322M5.245 5.304a.492.492 0 01-.148-.262M5.403 5.188c-.058-.028-.2-.21-.23-.329M5.548 4.992a.824.824 0 01-.365-.297"/></g><path fill="#f7e017" stroke="#000" stroke-width=".01478375" d="M9.382.265c1.023.856 1.09 1.538.931 1.937-.083-.374-.507-.956-.948-1.106l.017-.831z"/><path fill="#337321" stroke="#000" stroke-width=".01478375" d="M7.553-.218h1.896v2.246c0 1.912-1.065 3.043-2.146 3.642-1.081-.599-2.145-1.73-2.145-3.642V-.218h1.33a.726.726 0 0 0 .15.466c.314-.031.67-.266.915-.466z"/><path fill="#006ec7" stroke="#000" stroke-width=".01478375" d="M9.449-.218v2.246c0 .577-.097 1.083-.263 1.525L7.303.098 5.42 3.553a4.32 4.32 0 0 1-.262-1.525V-.218h4.29z"/><path fill="#f7e017" d="M9.244 3.387a4.124 4.124 0 0 1-.14.37L7.304.41 5.502 3.756a4.124 4.124 0 0 1-.14-.369L7.302-.21l1.94 3.598z"/><g fill="#f7e017" stroke="#000" stroke-width=".125"><path stroke-width=".01478375" d="M8.16 4.618c.05.024.141.07.183.087.1-.2.116-.482.083-.732-.108.275-.474.267-.574.433.061.03.118.07.167.106-.124.125-.417.335-.583.384V3.113c0-.125-.041-.229-.041-.333v-.369c0-.083-.017-.203-.092-.203s-.091.12-.091.203v.37c0 .103-.042.224-.042.332v1.783c-.091-.266-.45-.175-.616-.44a.472.472 0 0 1 .2-.009c-.124-.424-.465-.457-.532-.582 0 .175-.075.582.042.757a.463.463 0 0 1 .112-.092c.142.307.777.308.927.816.12-.187.553-.403.856-.728z"/><path stroke-width=".01478375" d="M7.303 3.134c.141 0 .59-.046.753-.046.042 0 .076-.064.076-.142 0-.078-.034-.14-.076-.14-.162 0-.612-.047-.753-.047-.141 0-.59.046-.752.046-.043 0-.077.063-.077.141 0 .078.034.142.077.142.162 0 .61.046.752.046z"/><path stroke-width=".01478375" d="M7.212 2.403a.18.18 0 00-.113-.04c-.094 0-.17.07-.17.156s.076.156.17.156c.095 0 .17-.07.17-.156 0-.066.098-.066.098 0 0 .135-.12.244-.268.244-.147 0-.267-.109-.267-.244 0-.134.12-.244.267-.244.045 0 .086.01.123.028-.003.022-.01.064-.01.1zM6.55 3.088c.043 0 .077-.064.077-.142 0-.078-.034-.14-.076-.14"/><path stroke-width=".01478375" d="M6.613 3.088c.043 0 .077-.064.077-.142 0-.078-.034-.14-.077-.14M7.024 3.117c.05 0 .092-.077.092-.17 0-.095-.041-.17-.092-.17M7.12 3.124c.053 0 .096-.08.096-.178 0-.098-.043-.177-.097-.177M7.439 3.126c.053 0 .097-.08.097-.18 0-.099-.044-.18-.097-.18M7.54 3.12c.053 0 .096-.077.096-.174 0-.096-.043-.174-.097-.174M7.986 3.09c.043 0 .078-.064.078-.144 0-.079-.035-.143-.078-.143M6.376 4.53a.632.632 0 01.178-.075M8.068 4.547l-.049-.035M8.16 4.618c.116-.126.213-.267.266-.428"/></g><g stroke="#000" stroke-width=".125"><path fill="#fff" stroke-width=".01478375" d="M6.922 1.37c0-.041.034-.058.072-.088.047-.035.066-.052.109-.052h.545c.04 0 .05.01.05.048v.742c0 .038-.01.048-.05.048h-.726v-.706"/><path fill="#e5e5e5" stroke-width=".01478375" d="M7.513 2.133c.072 0 .059-.002.11-.052.052-.053.047-.048.047-.097v-.678c0-.035-.009-.045-.046-.045h-.505c-.04 0-.057.016-.1.049-.036.027-.067.043-.067.081v.742h.561z"/><path fill="#fff" stroke-width=".01478375" d="M7.567 2.117c0 .037-.01.048-.05.048h-.545c-.04 0-.05-.01-.05-.048v-.742c0-.038.01-.048.05-.048h.545c.04 0 .05.01.05.048v.742z"/></g><path fill="#96877d" stroke="#000" stroke-width=".01478375" d="M8.625-.653a.418.418 0 0 1 .084.435H8.55c.066-.2.024-.39-.258-.416-.423-.037-.915.782-1.655.882-.216-.258-.205-.749.07-.982-.142-.409-.442-.859-.65-1.053a2.024 2.024 0 0 0-.393-.027c.108-.233.416-.478.666-.578.04-.06.083-.116.124-.167.025-.32 1.547-.17 1.87.03 0 .357.142 1.552.3 1.876z"/><path d="M6.78-.434c-.036-.555-.26-1.011-.575-1.322.15.041.458.041.666-.108.274-.183.99-.503 1.251-.366.021.046.033.15.017.216-.063-.166-.753.092-.948.17-.187.088-.27.204-.204.466-.108-.091-.07-.179-.183-.245.046.108.083.303.096.461-.042-.112-.117-.353-.279-.494.142.274.264.933.206 1.282.112 0 .36-.11.46-.189-.088.125-.34.212-.502.245-.072.088-.122.312-.118.437-.012-.154.036-.529.114-.553zM8.625-.653c-.138-.153-.394-.236-.723-.147.05-.025.158-.066.253-.083-.012-.087-.09-.462-.103-.553l.091-.037c.046.224.104.482.141.586.03.008.096.02.154.05-.025-.088-.166-.715-.162-.782l.125-.066c.05.34.129.835.224 1.032z"/><g fill="#96877d" stroke="#000" stroke-width=".125"><path stroke-width=".01478375" d="M8.55-.218c.067-.2.025-.39-.257-.416-.22-.019-.457.194-.739.416h.997zM6.713-2.01a1.663 1.663 0 01-.545-.054.594.594 0 01.041-.117c-.087.058-.253.171-.315.25.2.042.611.063.819-.079z"/></g><path fill="none" stroke="#000" stroke-width=".01478375" d="M6.708-.734c.046.133.075.26.08.375M6.33-2.392c-.075.11-.14.228-.162.328.141.046.42.07.545.054"/><path fill="none" stroke="#000" stroke-width=".01478375" d="M6.059-1.787a1.4 1.4 0 0 1 .146.03c.15.042.458.042.666-.107.208-.15.773-.616 1.413-.666"/><path fill="none" stroke="#000" stroke-width=".01478375" d="M5.894-1.93c.2.04.611.062.819-.08.482-.328.948-.52 1.413-.544"/><path fill="#337321" stroke="#000" stroke-width=".01478375" d="M9.382.265c.699.482 1.214.948 1.364 1.696.15.748.432.948.782.748-.084.433-.516.483-.882.15.033.5-.166 1.098-.682 1.314-.033-.3.165-.536.108-.782-.025-.108-.033-.357.108-.474-.274.092-.706-.083-.748-.49.316.15.723.174.881-.225.158-.399.092-1.08-.93-1.937zM10.264-3.627c.216-.566.781-.507.973-.266.557-.316.632.399 1.105.257-.008.134-.166.258-.34.25.182.166-.075.416.315.565-.332.167-.798-.008-.922-.465-.109.216-.5.216-.657.041.34-.091.316-.407.124-.532-.192-.126-.532-.075-.598.15zM8.577-2.382c.155.5.476.966.822 1.283.399.366 1.002.274 1.339-.075.008.696-.714.75-1.115.532-.177-.096-.32-.045-.15.108.258.233.822.406 1.489.55 1.164.249.749 1.172.408 1.163.097-.002.177-.104.037-.23-1.01-.909-3.064-.551-3.031-2.58-.216.532-1.106.324-.69-.308.133.108.366.116.432-.05.052-.13.018-.354-.215-.548.038-.003.12 0 .112-.095.01.056.061.139.192.11.038.06.077.099.13.078.01-.004.042-.02.03-.08.01.11.14.15.21.142z"/><path fill="#f7e017" stroke="#000" stroke-width=".01478375" d="M9.623-.642c.483.316 1.028.316 1.53-.266.158-.183.408-.34.582-.358.175-.016.167-.182.3-.216-.083-.025-.117-.124-.241-.112.311-.108.22-.358.374-.478-.125.046-.32-.142-.5.095.047-.108-.016-.237-.061-.286.016.124-.246.15-.296.465-.028.178-.124.167-.141-.108-.012-.2-.108-.757-.225-1.04-.116-.282-.143-.67.015-.728a.313.313 0 00-.098-.103c-.192-.126-.532-.075-.598.15-.217.565.39.89.34 1.505-.09-.457-.831-.574-.823-1.023-.24.108-.208.308-.116.466-.15-.233-.49.15-.782-.167-.033.416.333.574.632.59-.15.267.05.492.25.566.008-.465.963-.274.973.524.008.682-.724.74-1.115.524zM10.962.015c1.164.25.749 1.173.408 1.164-.218-.005-.425-.187-.437-.345-.25.133-.183.395.008.5-.524-.063-.744.282-.756.66.095-.174.386-.187.494-.15.108.038.387.059.5-.066-.092.08.058.262-.071.403.436-.016.627-.424.553-.603.565-.515.457-1.355-.699-1.563zM10.076 3.966c.076.048.066.147.015.21-.103.126.052.427-.265.478-.094.015-.163-.045-.194-.152-.086-.296.226-.317.26-.455.033-.138.12-.12.184-.08z"/><path fill="#f7e017" stroke="#000" stroke-width=".01478375" d="M9.79 4.503c.102.053.19.124.135.457-.022.137-.027.473.093.482-.076.034-.235.067-.297-.02-.066.101-.207.065-.257-.067-.077.058-.175-.048-.172-.137-.066.04-.194-.026-.154-.224-.08.025-.18-.035-.215-.087.117-.02.416-.165.49-.288.075-.123.258-.176.377-.116z"/><g fill="none" stroke="#000" stroke-width=".125"><path stroke-width=".01478375" d="M9.721 5.421c.035-.045.054-.24.035-.359M9.464 5.355a.55.55 0 00.176-.286M9.292 5.218c.067-.027.232-.225.272-.356M9.138 4.994c.078-.013.318-.157.422-.316"/></g><path fill="#f7e017" stroke="#000" stroke-width=".01478375" d="M8.376-1.631c-.014.852.34 1.283.83 1.564-.181-.11-.102-.483-.348-.604.058-.004.15.08.295.046-.07-.158-.187-.4-.457-.433.07-.008.225.017.324-.02-.141-.217-.515-.113-.644-.553zM8.288-2.442c-.03-.01-.056-.04-.08-.08-.132.029-.182-.054-.193-.11.009.095-.074.092-.113.095.234.193.268.418.216.548-.066.166-.3.158-.432.05-.017.353.44.47.607.025 0 .075.095.066.12.166.12-.191.03-.466-.125-.694z"/><g><path fill="#337321" stroke="#000" stroke-width=".01478375" d="M7.557-4.13a.999.999 0 0 1-.296-.695c.009-.183.084-.382.35-.299-.083 0-.025.166-.112.183.07.025.166-.033.178-.07.017.057.125.04.133.107.042-.033-.004-.195-.066-.228.046-.025.07-.154.05-.217-.042.009-.104.067-.117.15.021-.066-.004-.233-.12-.258a.22.22 0 0 0 .004.22c-.108-.024-.266.046-.304.138.009-.11.024-.267.092-.366.023-.033-.033-.091-.077-.012-.081-.158-.297-.242-.393-.163-.096.08-.224-.037-.303.088-.08.124-.347.138-.333.27.008.079-.01.201-.05.245-.096.108.046.187.07.283-.016-.316.487-.931.99-.69-.046.079-.086.237-.1.428-.02.283.021.682.296.915l.108-.03z"/><path fill="#cf142b" stroke="#000" stroke-width=".01478375" d="M7.706-5.12c-.002-.075.127-.172.302-.17.21.002.372.193.54.174.169-.018.086.075.05.1-.035.025-.056.062-.043.108.012.046-.01.076-.077.033-.15-.093-.3.038-.497-.035-.171-.063-.27-.098-.275-.21z"/><path fill="#96877d" stroke="#000" stroke-width=".01478375" d="M6.85-3.157c-.083-.262-.4-.55-.553-.616l-.008-.141c.083-.033.282-.191.374-.279.623.3 1.472-.124 1.863-.565l.15.091-.076.1-.079-.041a4.682 4.682 0 0 1-.56.523c.145.036.344.062.398.059.35-.25.624-.474.757-.491l.112.15-.1.07-.079-.045c-.374.307-.798.98-.964 1.43-.233-.05-1.065-.017-1.235-.245z"/><path fill="none" stroke="#000" stroke-width=".01478375" d="M7.96-4.085a.614.614 0 0 1-.129-.045c-.066.062-.233.116-.445.124"/><path fill="none" stroke="#000" stroke-width=".01478375" d="M6.883-3.249c-.056-.31.033-.653.191-.757.346.23.936.23 1.285-.02"/><path fill="none" stroke="#000" stroke-width=".01478375" d="M6.883-3.411a8.85 8.85 0 01.986.058c.141.021.378.08.345.15M7.006-3.455l.077-.077-.077-.076-.076.076.076.077z"/><path fill="#337321" stroke="#000" stroke-width=".01478375" d="M7.187-5.003c-.096-.134-.36-.176-.416.004-.025.079-.062.162-.125.2-.062.037-.048.15-.02.199.066.12.008.237.137.316 0-.096.141-.196.262-.22.12-.025.303-.134.328-.254.025-.12.067-.22-.166-.245z"/><path fill="#96877d" stroke="#000" stroke-width=".01478375" d="M6.588-3.806h.033v.227a.058.058 0 0 1 .02.01l.197-.112.016.029-.197.114a.06.06 0 0 1 .001.022l.196.113-.016.03-.198-.114a.058.058 0 0 1-.019.012v.226h-.033v-.227a.058.058 0 0 1-.02-.01l-.196.112-.017-.029.197-.114a.06.06 0 0 1-.001-.022l-.196-.113.017-.03.197.114a.058.058 0 0 1 .019-.012v-.226h0z"/><path fill="#96877d" stroke="#000" stroke-width=".01478375" d="M6.884-3.25a.393.393 0 0 1-.673-.277.394.394 0 0 1 .707-.24.852.852 0 0 0-.046.212.27.27 0 1 0-.267.297.275.275 0 0 0 .263-.202c0 .05 0 .169.016.21z"/><path fill="#337321" stroke="#000" stroke-width=".01478375" d="M6.438-2.875c-.025-.029-.07-.108-.066-.166a.216.216 0 0 1 .141.054c-.004-.041-.02-.133-.012-.175.045.017.141.071.174.134-.008-.042-.025-.15-.008-.217a.4.4 0 0 1 .15.162.712.712 0 0 1 .058-.253c.037.037.095.07.133.12.008-.066.041-.145.091-.166a.481.481 0 0 1 .108.245c.038-.012.088-.074.109-.108.02.034.041.092.029.162.045-.041.1-.1.112-.15a.324.324 0 0 1 .112.155c-.008-.054-.004-.15-.02-.204a.24.24 0 0 1 .124.154c.017-.058.054-.162.087-.187a.46.46 0 0 1 .063.212c.02-.042.054-.117.087-.133.03.045.025.145.017.2a.403.403 0 0 1 .116-.109.338.338 0 0 1 0 .112c.038-.02.1-.133.12-.19.06.028.117.128.121.178a.455.455 0 0 0 .15-.133c0 .029.013.108-.004.17.025-.025.05-.075.062-.095a.4.4 0 0 1-.012.195.217.217 0 0 1 .125-.054c.004.07-.046.195-.092.287-.4-.112-1.235-.154-2.075-.2z"/><path fill="#f7e017" d="M7.83-5.077c-.002-.031.067-.1.19-.1.146.001.282.109.4.101.118-.007.06.031.035.041-.025.01-.04.026-.031.044.009.02-.006.031-.054.014-.105-.038-.21.015-.348-.014-.12-.026-.189-.04-.192-.086z"/></g><g stroke="#000" stroke-width=".125"><g fill="#f7e017"><path stroke-width=".01478375" d="M6.567-2.625c-.125.15-.25.125-.274.029-.025-.096.066-.141.033-.225-.033-.083.054-.12.096-.083.041.038.174-.083.233.042.058.125.103.212.07.262-.033.05-.133.025-.158-.025zM7.103-2.85c-.023-.054.107-.16.173-.085.067.075.17-.081.229.037.058.119.077.181.106.248.029.066-.158.102-.216.044.008.039-.162.07-.208-.042-.025-.06-.052-.129-.084-.202zM7.968-2.781c-.03-.058.121-.141.2-.035.02-.044.17-.052.18.074.011.127.015.202.02.252.004.05-.092.096-.16-.031-.123.025-.18-.044-.194-.117a.55.55 0 00-.046-.143z"/></g><g fill="#337321"><path stroke-width=".01478375" d="M6.648-2.864c-.018-.042.106-.125.192-.063.085.063.203-.053.253.059.102.226.108.243.077.287-.031.043-.164.027-.197-.034-.007.042-.121.035-.181.002-.069-.037-.117-.176-.144-.251zM7.523-2.854c-.029-.064.167-.12.252-.008.044-.04.14-.042.193.08.054.124.063.192.023.223-.028.022-.129.04-.162-.016-.046.029-.187.004-.218-.075-.031-.08-.058-.148-.088-.204zM8.35-2.731c-.003-.058.103-.085.142 0 .04.085.166.008.177.15a.358.358 0 01-.054.18c-.04.05-.233 0-.245-.106a2.584 2.584 0 01-.02-.224z"/></g><g fill="none"><path stroke-width=".01478375" d="M6.567-2.625c-.046-.063-.108-.162-.187-.054M6.973-2.615a.476.476 0 01-.075-.14M7.395-2.606a.342.342 0 01-.096-.106M7.357-2.825c.073.009.123.077.146.108.023.032.07.088.108.094M7.83-2.575c-.026-.04-.05-.075-.057-.104M7.775-2.862a.548.548 0 01.058.098M8.207-2.521a.352.352 0 00-.128-.144M8.19-2.75c.005.123.17.131.175.218M8.492-2.731a.247.247 0 01.025.114"/></g></g></svg>