<svg xmlns="http://www.w3.org/2000/svg" width="1200" height="600" version="1.0" viewBox="0 0 1200 600"><path fill="#00247d" d="M1200 600V0H0v600h1200z"/><path fill="#fff" d="M0 99.96h126.546L0 36.455V0h72.404l177.022 88.246V0h99.681v88.246L526.13 0h73.028v36.456L471.988 99.96h127.17v100.038h-127.17l127.17 63.504v36.468H526.13l-177.023-88.258v88.258h-99.68v-88.258L72.403 299.969H0v-36.468l126.546-63.504H0V99.96z"/><path fill="#cf142b" d="M552.061 0L352.074 100.03h47.872L599.158 0h-47.097zM599.158 299.969l-199.425-99.976h48.085l151.34 76.141v23.835zM200.37 100.03L0 0V23.89l152.078 76.141h48.293zM199.958 199.993L0 299.97h47.847l199.988-99.976h-47.877z"/><path fill="#cf142b" d="M0 120.714h270.658V0h58.576v120.714h269.924v58.578H329.234V299.97h-58.576V179.292H0v-58.578z"/><path fill="#8fc5ff" stroke="#fff" stroke-width="1.009" d="M399.668 640.771c-.046 16.332-2.623 33.927-23.764 42.308-21.142-8.381-23.719-25.976-23.765-42.308h47.529z" transform="matrix(4.1664 0 0 4.16687 -666.166 -2413.139)"/><path fill="#366cc9" stroke="none" d="M900.003 433.162c39.93-15.83 63.967-39.556 78.328-67.104-2.15.084-6.654-.045-8.6-.179-2.166-.141-84.457-8.408-94.202-11.984-8.478-3.108-40.826 2.642-55.925 8.038 14.086 29.302 38.485 54.611 80.399 71.229z"/><path fill="#5d3100" stroke="none" stroke-width=".125" d="M838.444 390.972c1.346-.437 3.916-.333 4.929-.15 1.191.217 1.408.325 1.841-.975.434-1.3 1.409-.975 2.167-.325.758.65 2.704.325 3.462-.758.759-1.08.975-.971 1.733-.217.759.758 1.084.542 1.842.325.758-.212 2.058-1.08 2.708-2.27.65-1.193 1.62-1.626 2.163-.976.541.65 1.083.975 1.841.867.758-.109.975.65.867 1.62-.109.976.325 1.192 2.166-.32 1.625 1.62 2.163.97 2.163-.759 0-1.733-.43-8.12-1.08-8.987-.65-.867-1.3-3.359-1.408-5.31-.204-3.678-.216-3.895-4.658-6.17 0-1.3-.325-1.842-3.462-1.625.108-.434-.433-1.734-1.083-2.275-.65-.542-.759-.759-.434-2.271 1.3.108 2.709-.109 3.467-1.192.754-1.083 3.245-.867 4.762-.217 1.517.65 3.466.759 6.387.325 1.083-.866 2.925-1.841 4.875-2.925 1.946-1.083 2.487-1.517 2.595-3.033.28-3.888-1.083-8.338-2.166-10.393-1.08-2.058-1.404-4.658-2.92-7.908-1.65-3.538-1.626-4.438-3.467-6.605-.504-.596-1.083-1.083-1.192-2.27-.108-1.192-.541-2.817-1.837-4.01-3.275-3.003-4.55-12.67-5.85-19.817-.746-4.096-.216-13.75-1.945-15.267-2.925-2.384-4.334-1.95-6.283-2.709-1.409-1.95-2.054-5.846-3.354-9.313-2.059.325-3.467 2.492-4.875 3.25-1.408.759-1.625.759-1.625 2.709 0 1.946-1.083 4.654-3.029 7.688-1.95 3.03-5.2 2.167-7.904 6.713-5.958-7.255-6.066-9.313-6.5-11.372-.432-2.054-1.407-2.487-4.761-5.412 0-.867-.434-4.33-.109-6.28-2.491-2.058-4.333-1.733-5.52-.217-1.192 1.517-2.058 3.788-3.9 4.655-1.104 1.404-4.433 4.946-7.158 9.163 2.48 37.685 10.983 75.095 36.552 105.013z"/><path fill="#ff0" stroke="#fff" stroke-width=".98" d="M399.668 640.771c.018-6.152-.324-12.125-.168-17.359-7.9-3.535-18.295-4.262-23.596-4.262-5.302 0-15.697.727-23.597 4.262.156 5.234-.185 11.207-.168 17.359h47.529z" transform="matrix(4.1664 0 0 4.16687 -666.166 -2413.139)"/><path fill="#cf6200" d="M806.342 286.542c1.083 1.734 3.033 4.713 3.25 6.334.758-1.571 1.354-2.271 1.516-3.246.163-.975 1.3-2.871.867-3.9-.433-1.03-.758-1.842.433-1.084 1.188.759.958 2.071.7 4.009-.7 5.304-2.92 6.388-3.246 9.963 3.196 7.525.813 10.234 4.275 17.596.542.325 1.988-.254 2.42-.145 1.838-1.3 3.213-.83 5.809-.288 2.6.542 4.008 2.38 4.008 4.004 0 1.625 0 2.059.542 3.034.541.975 1.624 2.492 1.408 3.575-.217 1.08.216 1.73.541 2.271.325.542-.108 1.733-.433 2.492-.325.758-.216 1.733 1.083 3.358 1.3 1.621 4.33 8.446 4.33 12.45 0 4.01.216 5.851 1.84 6.605 1.626.759 2.167 1.409 1.95 3.142-.216 1.734.759 10.722.976 12.13.216 1.408.758 1.083 1.408 1.842.646.754 1.079 1.62 3.246 1.62 2.166 0 4.258-.287 5.666-.07 1.95 2.708 3.141 6.388 3.575 8.663.433 2.275.395 5.38 1.154 5.38.758 0 1.516.107 1.3-2.71-.217-2.816-.434-3.25-1.409-4.654-.975-1.408-1.516-2.058-.975-2.925.542-.867.65-2.275.434-3.358-.217-1.084-.542-2.705 1.3-.542 1.841 2.167 2.383 2.708 2.925 3.467.541.758.754 2.167.65 3.467-.109 1.295.104 1.837.862 1.187.758-.646 1.733.433 1.3 1.842-.433 1.408.108 2.275 1.408 2.708 1.3.434 1.842.759 2.167 1.734.325.975 1.408 1.404 1.408-.542 0-1.95-.758-6.067-1.3-7.363-.542-1.3-.975-4.117-1.083-5.742-.109-1.625-.434-2.054-1.192-2.379-.758-.325-1.408-.867-1.516-1.625-.109-.758-.759-1.03-1.246-1.03-.488 0-.917-.378-1.188-.92-.27-.542-.541-.596-1.083-.65-.542-.054-1.408.27-1.679-.596-.27-.867-.65-2.113-1.192-2.817-.541-.704-1.029-.92-1.083-3.354-.054-2.438-.108-2.763-.866-3.63-.759-.866-2.059-3.137-2.6-4.112-.538-.975-1.08-1.95-1.08.108 0 2.054 0 3.138 1.296 3.896 1.3.758 1.625.758 1.084 1.842-.542 1.083 0 1.842.216 2.6.217.758.65 1.517 0 2.27-.65.76-1.3.543-1.191-.645.108-1.192-.325-2.6-.863-3.575-.541-.975-.975-1.625-1.625-1.083-.65.541-1.191-.109-.758-.542.433-.434.325-.759 0-1.084-.325-.325-.433-.65.108-1.3.542-.65.542-.975.217-2.487-.325-1.517-2.708-9.097-3.791-10.83-1.084-1.733-.975-3.033.433-1.3 1.408 1.733 2.6 3.25 2.708 4.654.108 1.409.433 2.276.867 2.817.433.542.758.325.975-.867.216-1.191 1.083-.758-.434-3.029-1.516-2.275-4.333-6.067-5.416-12.888-1.083-6.821-1.517-11.371-2.6-13.209-1.079-1.842-1.404-2.275-1.512-4.008-.109-1.734 0-3.467-.759-4.763-.758-1.3-1.3-1.517-1.408.433-.108 1.946.109 6.28.65 7.038.542.758.217 2.704.109 3.788-.109 1.083-1.813 2.154 1.733 4.333 1.408.867 1.187 2.059.975 2.817-.217.754-.434.646-1.192-.542-.758-1.191-1.516-2.166-2.275-2.816-.758-.65-.866-1.084-.758-2.6.108-1.517.433-2.6 0-3.138-.433-.542-.65-.109-.867.754-.216.867-.433 3.25-.866 3.9-.434.65-.65.217-.975-1.192-.325-1.408.108-3.57.866-6.062.759-2.492 1.192-5.092.542-8.338-.65-3.25-.325-4.225-2.816-6.93-2.488-2.708-5.304-5.308-6.496-8.663-1.191-3.358-1.408-6.283-2.708-7.8-1.296-1.513-3.137-3.463-4.329-4.004v-4.98c0-1.192-.542-1.95-1.95-1.733-1.408.216-2.275 1.408-3.137 3.03-.867 1.624-1.517.866-2.708 3.683-1.192 2.816-2.925 4.22-2.925 7.254z"/><path fill="#cf6200" d="M814.137 318.269c.867.541 1.696.904 2.996.254s2.854-2.525 4.587-.684c1.73 1.838 2.704 4.872 2.704 7.255 0 2.38 0 6.821 2.708 9.313 2.708 2.488 4.112 5.088 4.22 8.338.11 3.246 1.3 8.23 1.626 9.53.325 1.295 1.083 2.812 1.95 3.679.866.867 1.516 3.358 1.624 5.954.109 2.6-.324 4.442 0 5.742.325 1.3 0 2.384-.974 1.734-.975-.65-1.192-.975-1.734-2.059-.541-1.083-1.191-.867-.65.759.542 1.625 2.167 3.137 3.575 3.137 1.408 0 1.842.217 2.708 1.084.863.866.971 1.3 2.488 1.3 1.516 0 1.733 0 3.141.433s1.408.217 2.167 0c.758-.217 1.512.433 2.054 1.842.541 1.408 1.841 5.304 1.841 6.388 0 1.083 0 2.166.759 3.25.758 1.083.541 2.167-.325 1.516-.867-.65-.867-.433-1.517-.325-.65.109-1.083-.216-1.946-.758-.866-.542-.325-.433-1.191-1.733-.867-1.3-1.409-1.734-1.409-.759s-.108 2.167-.758 1.625c-.65-.541-.975-.541-1.516 0-.542.542-.759.975-1.409-.108s-1.408-1.083-2.058-1.3c-.65-.217-.65-.217-.97-1.192-.326-.975-1.3-1.191-2.167-1.191-.867 0-1.3-.434-1.408-1.084-.109-.646-.65-1.08-1.084-1.404-.433-.325-.216-1.083-.325-1.842-.108-.758-.758-.433-1.191-.65-.434-.217-.759-.108-.759-1.192 0-1.083-.433-1.408-.758-2.166-.32-.759 0-1.517.217-2.38.216-.866.108-1.408-.538-2.166-.65-.759-.108-1.517-1.841-3.034-1.733-1.517-2.6-.217-3.142-3.788-.541-3.575-1.625-10.938-2.6-12.13-.974-1.191-1.62-2.058-2.595-2.383-.975-.325-1.625-.108-1.733-2.167-.109-2.054-.759-4.654-2.059-5.954-1.3-1.3-1.841-1.733-2.491-2.275-.65-.542-.867-1.517 0-3.354.866-1.842.542-4.334.433-5.526-.108-1.187-.433-2.704-.216-4.004.216-1.3.108-2.925-.217-3.792s-.758-1.083-.217-1.733zM840.231 287.48c-1.466 1.887-3.029 3.466-5.05 4.908-2.02 1.446-4.62 2.6-3.178 5.055 1.446 2.454 2.6 2.746 2.887 4.62.292 1.876.725 3.468 2.167 3.9 1.445.43 2.02.143 2.02 3.176 0 3.034 0 4.188 1.3 5.342s1.154 2.308 1.733 5.054c.575 2.742.575 8.663 2.309 12.705 1.733 4.042 5.633 11.697 5.2 13.284-.434 1.588-1.013 2.742.72 4.617 1.733 1.88 2.887 4.621 3.033 6.209.142 1.591.434 2.166 2.163 1.591 1.733-.579 2.6-1.158 3.179-1.879.575-.72 1.729-.575 3.32.288 1.588.866 4.042 1.733 5.483.866 1.446-.866 2.167-2.162 3.467-2.162 2.02-1.446 2.741-4.48 3.174-5.342.434-.867.146-.867-.72-1.734-.867-.866-.434-2.312-.58-3.754-.141-1.446-.72-3.608-2.453-6.788-1.73-3.175-2.742-7.075-3.896-8.083-1.154-1.013-1.733-3.467-1.88-4.622-.14-1.154-1.44-2.166-2.307-3.033-.867-.863-1.734-2.163-2.742-7.217-1.012-5.054-1.733-8.663-1.733-9.53 0-.866-.146-1.012-1.012-1.3-.867-.287-1.3-1.733-1.009-2.454.288-.72-.291-1.442-.579-2.308-.287-.867 0-2.455.58-3.321.574-.867.433-3.321-.147-5.342-.579-2.021-1.154-3.755-3.466-4.046-2.308-.288-2.741-.863-3.608-2.742-.867-1.875-1.733-5.196-2.02-5.921-.288-.721-.722-.867-2.455.579-1.733 1.442-2.308 1.92-2.308 4.62 0 1.734.287 2.31.862 3.322.58 1.008.725 1.3 1.159 4.042.433 2.742 2.887 7.075-.292 9.53-3.175 2.454-2.741 3.033-2.596 4.762.142 1.734-.866 2.888-1.445.433-.575-2.454 0-3.896 1.733-5.05 1.733-1.158 3.32-2.6 2.166-4.187-1.158-1.588-1.587-5.342-1.733-7.076-.146-1.733-.433-2.312-1.446-1.012z"/><path fill="#00b800" d="M814.512 324.294c-.079 1.175.184 2.467.275 3.504.109 1.192.433 3.684-.433 5.526-.867 1.837-.65 2.812 0 3.354.037.029.07.058.104.087 1.767-.591 1.996-2.562 1.52-3.516-.503-1.009-.358-2.238.217-3.246.58-1.013.58-1.588.075-2.313-.508-.72-.508-.72.071-2.742.509-1.78-.775-1.767-1.829-.654zM832.978 352.274c-.325-1.3-1.517-6.283-1.625-9.53-.109-3.25-1.513-5.85-4.22-8.337-2.113-1.946-2.576-5.071-2.676-7.484-1.587-.97-2.258-.529-2.124 1.275.141 1.946 2.091 2.888 1.804 5.7-.288 2.817-.288 2.096 1.083 3.467 1.37 1.371 1.875 2.671 1.154 3.25-.72.576-.796 1.588.217 1.946 1.008.363 1.083 1.446.937 2.455-.146 1.012.796 1.229 1.37 1.95.58.72.65 2.454.076 3.467-.58 1.008-.65 2.596.358 1.733 1.013-.867 1.446-.075 2.237 1.296.688 1.183 1.263.813 2.009.454a9.135 9.135 0 01-.6-1.642zM847.056 377.505c-.65 1.3-1.408.867-2.058.217-.65-.65-1.408-.65-1.083-1.842.325-1.192.216-1.409-.65-2.059-.1-.075-.2-.141-.3-.208-.271-.008-.588-.008-1-.008-1.517 0-1.625-.434-2.488-1.3a7.28 7.28 0 00-.533-.484c-.017.209-.008.484-.008.809 0 1.191 0 .975-1.192 1.3-1.192.325-.975-1.192-1.192-2.167a3.58 3.58 0 00-.187-.583c-1.304-.25-2.679-1.626-3.17-3.096-.542-1.626.108-1.842.65-.759.541 1.084.758 1.409 1.733 2.059.974.65 1.3-.434.974-1.734-.104-.416-.129-.9-.116-1.437-.233-.421-.55-.763-.967-.946-1.733-.759-1.191-.975-1.083-2.384.108-1.404-.217-1.404-1.3-.65-1.083.759-1.192-.108-1.192-2.27 0-2.167-1.408-2.167-1.729-.65-.325 1.516-.866.541-1.516-1.626s-1.517-2.708-1.625-.65c-.092 1.742-.575 2.159-1.708 1.192.2 1.258.375 2.433.516 3.358.542 3.571 1.409 2.271 3.142 3.788 1.733 1.517 1.191 2.275 1.841 3.034.646.758.754 1.3.538 2.166-.217.863-.538 1.621-.217 2.38.325.758.758 1.083.758 2.166 0 1.084.325.975.759 1.192.27.133.62.058.875.167.279-.367.533-.817.858-1.142 1.3-1.3 3.25.108 3.9 1.733.65 1.626 1.404 2.059 2.379.759.975-1.3.65-1.084 1.733.108 1.083 1.192 1.517.975 1.517.975s1.083-.433 1.841.217 1.192.542 2.596-1.517c1.408-2.058-.646-1.408-1.296-.108zM850.918 318.09c.43-3.176.142-6.35 1.442-7.51 1.3-1.153 2.887-3.462 2.741 1.447-.141 4.908-.287 4.62-1.295 5.775-1.013 1.154-1.88 1.442-.867 3.32 1.008 1.876 1.154 2.022 1.008 4.91-.141 2.887-.141 4.041 1.013 5.487 1.154 1.442 1.441 1.588 1.733 3.175.287 1.588 1.296 3.755 2.596 4.909s2.745 4.475 2.887 6.788c.146 2.308 2.166 2.887 4.041 4.475 1.88 1.588-.429 2.742-1.875 2.021-1.441-.72-.866 0-1.733 1.008-.866 1.013-1.154 1.159-1.875-.575-.72-1.733-3.179-2.887-4.333-3.32-1.154-.434-2.162-2.313-3.175-4.188-.866-1.613-2.583-2.792-4.15-2.913.434 1.217.667 2.17.542 2.625-.433 1.588-1.012 2.742.721 4.617 1.733 1.88 2.887 4.621 3.033 6.209.142 1.591.434 2.166 2.163 1.591 1.733-.579 2.6-1.158 3.179-1.879.575-.72 1.729-.575 3.32.288 1.588.866 4.042 1.733 5.483.866 1.446-.866 2.167-2.162 3.467-2.162 2.02-1.446 2.741-4.48 3.174-5.342.434-.867.146-.867-.72-1.734-.867-.866-.434-2.312-.58-3.754-.141-1.446-.72-3.608-2.453-6.788-1.73-3.175-2.742-7.075-3.896-8.083-1.154-1.013-1.733-3.467-1.88-4.622-.14-1.154-1.44-2.166-2.307-3.033-.867-.863-1.734-2.163-2.742-7.217-.791-3.95-1.404-7.013-1.633-8.58-1.037 1.655-1.746 2.059-2.12.925-.434-1.295-1.013-2.02-1.588-1.154-.58.867-.725-.72-.725-1.442 0-.725-.142-.866-.867-.866-.72 0-.141-1.154-.433-3.321-.287-2.167-.72-2.455-1.008.146-.288 2.596-1.733 4.183-1.154 4.762.575.58.287 1.734-.292 3.467-.575 1.73-.287 2.742.146 3.896.433 1.154-.288 3.321-.58 5.2-.287 1.876 1.159 3.75 1.592.575zM824.532 292.138c-1.07.08-1.804 1.017-1.191 4.296.383 2.03-1.154 1.588-1.73.575-.578-1.008-1.012-3.175-2.166-5.054-1.158-1.875-.579 1.3-.72 3.033-.146 1.734 1.008 1.734 2.02 3.175 1.008 1.446.142 2.026-1.012 2.026s-.575 2.308-.288 3.896c.288 1.587-.287 1.879-1.158.579-.862-1.3-.288-3.321-.142-5.775.142-2.455.288-1.88-1.3-2.455-1.587-.579-1.3-.866-.72-2.312.575-1.442 1.154-2.167.433-2.888-.725-.72-.58-1.154.575-1.3 1.154-.142.725-1.008 1.733-1.3 1.013-.288 1.446.146 1.587-1.73.121-1.566.646-2.529 1.821-2.054.708 2.413 1.63 6.167 2.258 7.288zM839.077 309.139c0 3.034 0 4.188 1.3 5.342s1.154 2.308 1.733 5.054c.575 2.742.575 8.663 2.309 12.705.516 1.204 1.229 2.734 1.958 4.325.958-.754 1.791-2.05 2.087-2.737.43-1.013-.866-3.034-1.879-4.763-1.008-1.733.146-2.313 1.154-4.48 1.013-2.162-.141-2.308-1.729-2.887-1.591-.575-1.591-2.021-2.458-4.33-.867-2.308-.72-3.32-.142-4.62.575-1.3.142-2.309-1.012-2.6-1.154-.288-.867-1.155-.433-2.597.433-1.445.72-1.733-1.009-1.3-1.312.325-1.629.571-2.02 1.046.095.417.141.996.141 1.842z"/><path fill="#5d3100" d="M855.68 315.202c-.158 1.733-.145 2.6-.579 3.175-.429.58-.141 1.446.292 2.313.433.866.72 2.02.287 3.608s.288 2.888 1.155 3.321c.866.433 1.3 0 1.012 2.021-.292 2.02.867 4.188 1.875 5.054 1.012.867 1.733 2.309 1.587 3.176-.141.866.725 1.733 1.733 2.166 1.013.434.867.58.867 1.155 0 .579.433.579 1.588.866 1.154.288 2.02 1.013 3.32 2.6 1.3 1.588 3.175 2.455 2.887.721-.287-1.733 0-2.887-1.733-3.754-1.729-.867-3.029-5.054-3.754-7.942-.72-2.888-3.029-6.784-4.329-7.505-.145-2.025.146-3.033-1.154-4.046-1.3-1.008-1.733-2.308-1.733-3.32 0-1.01-.72-2.31-1.3-2.597-.575-.291-.866-1.012-.866-1.879s-1.009-.72-1.155.867z"/><path fill="#00d860" d="M848.03 392.664c2.597-.217 9.638-2.275 10.392-2.925 1.733 1.191 4.766 2.817 6.066 2.817-2.491.541-4.116.216-4.766-.217.325.758 1.191 1.95 1.733 2.058-2.383-.108-5.087-.65-5.954-1.516-2.058.866-5.524 1.083-7.47-.217zM852.685 395.914c.92.27 5.52 1.03 6.116 1.03-1.516 1.295-.217 2.541 2.33 2.324-1.247.163-2.605.634-1.68.813 2.22.433 8.229-1.192 9.42-1.842-2.058 2.654-12.07 5.092-16.186-2.325zM856.801 402.519c1.242-.65 4.33-.434 5.792.27-1.625.596-4.817.596-5.792-.27z"/><path d="M861.455 402.41c2.22-.379 8.5 1.138 10.72-.216-.758 2.004-4.712 2.275-6.066 1.841-1.35-.433-2.65-.975-3.57-.92.487-.271-.326-.326-1.084-.705z"/><path fill="#00d860" d="M863.73 405.498c1.679.267 7.687-.488 9.529-1.192 1.945.65 5.79 1.675 6.657 1.567-1.841 1.137-5.362.487-6.495 0-3.25 1.083-5.904 1.408-9.691-.375z"/><path fill="#00d860" d="M866.6 406.51c2.405.542 4.454.155 6.821-.637.737.317 2.475.704 4.108.625 1.088.62 2.55 1.487 3.958 1.596-1.462.596-6.824 0-7.903-.596-2.709.054-7.367.65-8.5 1.57-.054-.757.438-1.812 1.517-2.558z"/><path d="M863.73 394.289c1.875.625 8.662.325 12.124-1.3 1.367-.642 2.213.433.65.975-5.629 1.95-10.07 2.708-13.316.975-1.283-.683-1.408-1.3.542-.65z"/><path fill="#00d860" d="M896.97 385.084c-8.337 3.896-13.862 5.088-25.445 1.517-1.079-.333-1.841 0-.65.758 1.192.755 7.579 2.488 9.096 2.596 1.516.109.975.813.054 1.084-.921.27-1.192.92.054.433 1.246-.487 8.204-.67 11.045.813 1.242.65 1.567.541 1.458.054-.108-.488.542-.813 1.463-.921.92-.108 1.462-.433.758-.704-.704-.271-.812-.434-.27-.704.54-.271.595-.542-.217-.705-.813-.162-1.355-.379-.596-.758.758-.375 1.895-.65 2.762-.754.217-.596-.162-2.167.488-2.709z"/><path d="M883.108 386.06c4.766.337 13.537-1.842 18.195-6.388 1.62.97 3.895 2.054 5.087 2.27 1.191.217 2.275 1.3.433 1.3-1.841 0-4.441-.758-5.629-1.3-6.174 3.792-13.399 5.038-17.978 4.66-1.296-.11-1.62-.65-.108-.543z"/><path fill="#00d860" d="M869.034 360.07c1.625 1.138 4.495 3.03 8.228 2.76 1.842 1.462 4.713 2.708 6.013 2.978-2.492 1.03-5.2 1.896-5.904 2.709-1.138-1.083-2.596-.921-2.975-1.463-1.083.867-.92 1.409-.217 1.842.704.433 6.17 1.354 7.525.975 1.354-.379 1.716.742.596 1.134-2.925 1.029-8.608.054-10.558-3.084-1.95-3.142-3.629-4.334-8.933-1.463-.596-1.516-.596-1.895-1.625-1.895s-2.925-1.355-1.462-1.3c1.462.054 5.795-.596 9.312-3.192z"/><path fill="#00d860" d="M870.334 367.054c-.904.225-3.467 1.625-4.383 1.734-.921.108-2.546 1.408-.867 1.462 1.675.054 3.841-1.787 5.033-1.95 1.192-.162 1.3-1.517.217-1.246zM875.583 372.521c-.641.113-3.408.759-4.166.704-.758-.054-1.517.163-1.462.705.054.541.27.866-.867.758-1.137-.108-2.112.325-2.383.65-.271.325-.488.65.65.758 1.137.109 1.733.217 3.033-.379 1.3-.596 2.546-1.516 3.954-1.57 1.404-.055 2.812-1.897 1.241-1.626z"/><path d="M871.688 375.88c1.183.766 7.037 2.762 9.15 2.6 2.112-.163 1.716.846.108 1.192-3.304.7-7.338-.738-10.07-2.926-1.355-1.083-.109-1.462.812-.866z"/><path fill="#00d860" d="M899.407 378.75c-4.479 1.43-9.041.922-10.883.434-1.841-.487-3.52-.596-2.275.596 1.246 1.188 5.254 2 7.525 1.404-8.066 1.842-10.179 1.68-12.179 1.354-2.004-.325-5.766-.254-7.362-.108-1.191.108-2.816-.054-3.52-.487-.704-.434-.92-1.246 1.191-1.03 2.109.217 2.384-.216.542-.487-1.841-.271-4.387.487-1.896 2.058 2.492 1.571 7.958-.108 11.425.867 3.462.975 10.824 1.68 17.811-3.954.358-.288.975-1.08-.38-.646zM877.425 372.142c.162.542.162 1.138 0 1.517-.163.379-.163.867.542.325.704-.542 1.137-1.192 1.841-.813.704.38 2.492.325 3.3.217.817-.108 1.083-.27-.104-.758-1.192-.488-2.383-.65-3.033-.596-.65.054-1.463-.109-2.004-.325-.542-.217-.705-.109-.542.433z"/><path fill="#00d860" d="M888.958 374.255c-.921.054-2.546-.542-3.413-.921-.866-.38-2.108-.434-1.187.812.916 1.246 4.925 1.95 6.333 1.355 1.408-.596.812-1.246 2.216-.38 1.409.867 2.87 1.463 3.9 1.463 1.03 0 1.408 0 .27-.65-1.137-.65-1.678-.813-1.787-1.354-.108-.542-.27-.867.759-.542 1.029.325 2.22.92 3.033.488.812-.434 2.325-1.409 3.679-1.409l.325-.812c-1.95-.163-3.192.433-3.733.65-.542.216-1.517.325-2.546.162-1.03-.162-2.383-.27-2.708-.542-.325-.27-.325-.487.542-.65.866-.162 1.137-.758-.055-.541-1.191.216-4.383.108-6.062-.434-1.679-.537-2.383-.591-3.087-.325-.704.271-.596 1.03.433 1.084 1.03.054 3.358.27 4.17 1.029.813.758.705.812-.216.433-.92-.379-2.6-.162-.866 1.084zM903.086 372.305l-.325.812c2.004-.054 6.879.433 8.445 1.409 1.517-1.192 1.246-1.571 2.33-1.355 1.082.217 2.437.596 3.032.271.596-.325 1.03-.27 1.68-.162.645.108 2.053-.163 2.866-.65.812-.488 2.491-1.138 3.466-1.138.975 0 2.163-.217.38-.487-1.788-.271-4.496.27-5.417.595-.916.325-3.679.542-5.304.542-1.625 0-3.841.813-5.683.325-1.841-.487-4.387-.162-5.47-.162z"/><path d="M928.15 371.33c-3.245 2.383-7.144 2.925-11.798 3.25-1.354.096-.938.479.216.596 4.87.487 10.504-1.3 12.341-3.25.534-.563.475-1.497-.758-.596z"/><path fill="#00d860" d="M906.01 376.855c1.409.054 6.28 1.3 7.85 1.842 1.192-.109 1.517-.38 1.3-.813-.217-.433-.38-.92 1.787-.813 2.163.109 7.146.055 8.067.055.758-.325 2.433-1.625 3.191-1.68-1.946.109-10.066.542-11.095.434-1.03-.109-1.57 0-2.22.379-.65.38-1.03.542-1.842.217-.813-.325-2.275-.759-3.083-.271-.813.487-2.492.054-3.954.65z"/><path fill="#00d860" d="M925.014 377.126c.758-.325 2.433-1.625 3.191-1.68 1.408-.108 3.033.488 3.792.596.758.109 1.57-.054 1.029-.65-.542-.596-.055-1.625 2.166-1.354 2.217.27 3.354.65 5.52.433 2.167-.216 3.142 1.409 7.254-.216-.325 1.625.434 1.733 1.192 1.408.758-.325 1.625-.217 2.925.758 1.3.976 9.203 1.084 11.045.759 1.837-.325 2.812.65 1.404 1.083-1.404.434-1.733 1.084-1.404 1.517.32.43.646.97-1.083.754-1.734-.217-2.059.325-2.925.975-.867.65-1.083.867-3.467.434-2.379-.434-2.812-.109-4.112.108-1.3.217-1.625.217-2.925-.217-1.3-.433-4.112-.866-5.845-.325-1.733.542-3.033 1.084-4.55.65-1.516-.433-1.625-.216-.65-1.191.975-.976 1.192-.867 3.033-1.084 1.842-.212 3.25-.754 1.95-1.512-1.3-.759-1.733-.65-3.466.216-1.733.867-2.6 1.404-4.546.325-1.95-1.083-2.925-.866-4.225-.541-1.3.325-3.462-.434-5.303-1.246zM931.509 380.372c-2.479.354-3.146-1.242-5.737-.917-.867.108-2.33 1.187-.325 1.025 2-.163 4.166.92 6.116.758 1.95-.162 1.083-1.029-.054-.866zM928.638 382.268c1.304-.475 4.008.433 5.146.216 1.137-.216 2.22.488 1.029.867-1.192.38-4.062-.704-5.362-.325-1.3.38-2.596-.108-.813-.758zM902.76 389.251c1.788.059 8.23-.216 10.775-5.63.196-.416.38-.595 1.192-.053.812.541 3.791 2.329 9.366 2.816 1.562.138 3.25.921.108.705-3.141-.217-8.12-1.084-9.8-2.113-2.816 4.438-7.874 4.963-11.64 4.871-2.27-.054-1.73-.65 0-.596z"/><path fill="#00d860" d="M916.677 381.888c-.867 1.192-3.846 3.25-5.2 3.359-1.35.108-5.412-.271-6.441-.65-1.03-.38-2.275-.271-.813.758 1.463 1.03 5.092 1.734 6.55 1.409 1.462-.325 3.141-.813 4.279-.109 1.137.704 3.25 2.055 4.491 1.784 1.246-.267 3.792-.267 4.604.108.812.38 2.22 1.517.108.867-2.112-.65-3.845-.109-4.82-.542 1.083 1.517 3.541 3.954 5.633 3.954.487 0 .812.867-.217 1.355 1.03.487 3.408.866 4.654-.271-.325.433-.162.704.38.975.54.27 1.19.65.216.758-.975.109-3.192.38-3.842.109 2.109 1.35 7.58 3.516 13.154 2.433 1.062-.204 1.625-.646-.109-.596-3.574.108-3.787.054-4.437-.32-.65-.384-.541-.705.488-1.03 1.025-.325 3.624-.704 4.708-.704 1.083 0 2.166-.433-.054-.433-2.221 0-4.925 0-6.008-.38-1.084-.379-1.896-.866-.759-1.625 1.138-.758 2.33-.541 2.87-1.246-3.574-.054-7.961-1.95-5.524-3.679.567-.404.38-.433-.541-.542-.921-.108-3.625-.866-4.763-1.516-1.137-.65-.379-1.192.542-1.355-2.112.38-6.337-.758-9.15-2.87zM948.454 381.78c-1.95 1.463-5.629 2.058-7.2 2.058-1.57 0-1.787.542-.541.705 1.245.162 2.6.325 3.141.162.542-.162.867-.216 1.675.163.812.379 2.546.596 4.062.108 1.517-.487 4.004-.704 5.033-.65 1.03.054 2.167.108.109-.488-2.054-.595-5.413-.162-6.225.055-.812.216-3.033.054-1.842-.325 1.192-.38 2.221-.975 2.817-1.463-.433-.108-.704-.217-1.03-.325zM947.425 386.005c-1.68 1.246-4.113 2.434-6.604 2.542 2.275.813 4.17 3.142 5.629 3.034-.704.433-1.567 1.083-2.488 1.191 1.409.38 3.788-.054 5.738-1.137 3.25.92 7.47.325 8.878-.867-2.112 0-4.654-.758-5.791-1.733 1.029 0 2-.65 2.487-1.242-2.433.429-6.604-.759-7.85-1.788z"/><path fill="#00d860" d="M943.962 392.772c.921-.108 1.784-.758 2.488-1.191-1.783.595-9.583-.65-11.908-2.709-2.329-2.054-2.329-.487-.704.975 1.625 1.463 4.491 3.684 10.124 2.925zM949.7 397.752c-.975.541-5.63.866-7.146.541-1.516-.325-2.166-.162-1.787.434s.541 1.137-.704.975c-1.246-.163-3.467.108-4.383.433-.921.325-2.059 1.138-.109.813 1.946-.325 3.733-.705 5.196-.325 1.462.379 6.658.487 7.687.054 1.029-.434.325-.434-.163-.434-.487 0-.704-.325 0-.65s1.246-1.245 1.409-1.841zM904.657 391.472c-1.95.867-8.446 2.6-10.179 2.709-2.167.975-3.896 1.516-4.979 1.516.758.65 3.68 1.296 4.87.975-.65.646-2.162 1.405-2.703 1.73 1.729-.217 3.787.216 4.654.325-2.275 1.3-5.413 1.733-7.037 1.516.541.759 1.3 1.517 2.274 1.517-2.058.542-4.55.542-5.85.109.542 1.083 1.084 1.733 1.842 1.841-1.733.217-3.9.542-5.737-.541 1.404 1.841 4.546 2.487 9.204 1.95 4.654-.542 8.553-2.6 9.637-3.467-1.95.217-4.55.325-5.85.108 2.6-.65 8.229-3.033 9.204-4.008-1.084 0-2.163-.325-2.925-.867 1.516.217 6.824-.43 8.45-1.08-1.95-.433-3.142-1.624-3.684-2.383 6.82 2.167 14.412 1.459 18.082.542.867-.217.971-1.317-.758-1.192-3.033.217-8.879-.65-10.395-1.408 1.408 1.083 3.141 1.733 4.333 1.95-2.817.758-6.712 1.3-12.453-1.842z"/><path fill="#00d860" d="M891.666 398.402c.541-.325 2.054-1.084 2.704-1.73-1.192.321-4.113-.325-4.87-.975 1.082 0 2.811-.541 4.978-1.516-3.896-.109-6.604-.109-8.012-.867-1.408-.758-4.004-.542-4.979-.325-.975.217-.65 1.842 3.462 1.408-1.733 1.192-6.387 1.625-8.12 1.192.433 1.404.758 2.813.325 3.571 2.275 1.3 8.229 2.925 11.154 2.709-2.6-.976-4.009-2.059-1.842-2.276 2.167-.216 3.358-.65 5.2-1.191z"/><path d="M884.95 405.444c5.182-.434 12.124-.525 17.648-5.2 1.409-1.192 2.354-.792.975.433-2.92 2.6-10.178 6.17-17.107 6.28-2.82.045-4.112-1.3-1.517-1.513z"/><path fill="#00d860" d="M923.768 396.885c-1.3.487-4.929 1.083-6.008.92-1.083-.162-2.654-.216-3.52.326-.867.542-.921.867.27.975 1.192.108 2.708.217 3.467.162-.975.542-1.625 1.3-1.842 1.625 1.733-.433 4.925.325 5.845.867-.704.217-1.516-.054-2.112-.379 2.925 3.088 11.587 3.088 12.995 2.546-.65.487-1.246.975-1.896 1.138 2.438.433 5.25.379 8.012-1.246-.92.162-3.679-.109-4.383-.163a5.198 5.198 0 012.109-1.246c-1.08-.216-4.492-.108-5.304.325.325-.65.92-1.462 1.57-1.733-4.278 0-9.474-.054-11.37-1.084 3.033.325 6.392-1.462 7.796-1.462-2.38-.054-4.98-.596-5.63-1.571zM912.885 399.268c-2.112.434-5.304 1.3-6.17 1.788-.867.488-1.788.758.108.758 1.896 0 7.037.217 8.175.38-2.871-.434-6.767-.542-7.525-.542s-1.625-.054-.217-.488c1.409-.433 3.25-1.408 5.63-1.896zM908.61 404.306c.755 0 4.059 0 5.358-1.137 1.355 1.029 3.954 2.487 5.63 2.487 1.678 0 1.516.434.053.596-1.458.163-4.328-.7-5.79-1.783-1.95.704-3.571.108-5.25-.163zM883.545 418.87c3.354 1.3 7.796 2.274 11.041 1.191 1.842 1.625 5.633 1.733 7.687 1.3 2.059-.433 3.9-.65 6.175.108 2.27.759 6.929.813 8.229 1.892-1.192.059-3.738 0-4.333.167-.596.158-.271.537.812 1.133-3.679-.216-10.016 1.355-11.962 3.034.7-1.68 2.867-3.955 6.279-3.955-1.95-.7-8.174-.754-10.178.488-.596-.65-1.3-1.73-1.355-2.163-3.3 1.892-9.799-.812-12.395-3.196zM874.933 412.807c3.996-.571 6.717-1.842 7.908-3.034.704.65 3.625 1.3 6.82.325-.65.488-.703 1.408-.433 1.896-2.112.054-6.12 1.083-7.47 1.788-1.354.7-5.308 1.187-6.604.483-1.3-.7-1.354-1.296-.22-1.458z"/><path fill="#00d860" d="M889.228 411.994c-2.112.054-6.12 1.083-7.47 1.788.27.541.433 1.404.487 2 3.896-1.409 12.829-2.271 16.241-1.73-1.625.109-4.712 1.784-6.441 2 4.22-.324 8.337.542 9.416.813 1.083.27 1.3 1.083.487 1.842-.812.758-1.187.867.542.92 1.733.055 5.308-.162 6.933-1.733-.65-.704-2.33-.433-2.817-.92 1.138-.38 2.438-1.192 2.925-1.788-2.925-.054-4.008-.109-4.983-.325-.975-.213-1.679-.488-.487-1.134 1.191-.65 1.733-1.191 2.112-1.625-2.112.596-5.412 1.084-8.174-1.083 1.029.27 3.462.108 4.329-.27-.921-.488-1.675-.868-2.434-.868 2.217-1.083 6.604-2.058 12.016.109 2.708-.217 5.633-.109 7.687.433.867-.867 2.708-2.925 3.683-3.467-6.387.542-17.865-.65-17.649-4.004-2.058 2.704-6.82 4.22-8.878 3.788-.217.975.65 2.166 1.408 2.816-2.166.434-5.85.759-7.579.434.975.975 2.813 1.842 3.896 1.733-2.27 0-3.462.434-5.25.271z"/><path fill="#00d860" d="M902.49 419.628c1.733.054 5.308-.163 6.933-1.734-.65-.704-2.33-.433-2.817-.92 1.138-.38 2.438-1.192 2.925-1.788 4.546-.375 8.608-.159 10.554-.754 1.95-.596 6.933-.271 7.908-.542-4.333.7-5.2 1.08-5.417 1.783-.216.705 1.409 1.3 2.438 1.3-1.95-.108-4.388 1.95-4.604 2.763-2.596-1.517-3.842.27-4.113.867-1.083-.434-4.658-.325-6.5 1.246-2.378-.705-3.949-1.084-6.332-.705 1.462-.325 1.192-1.3-.975-1.516zM923.28 406.956c1.463-.054 4.654.109 5.792-.054-.759.38-1.73 1.083-1.946 1.409 3.679-.434 8.712-.705 10.174-.488-1.783-.27-3.624.867-4.545 1.463-.921.595-.38.975.866 1.137 1.246.163 2.925 1.138.65.813-2.274-.325-6.766-.325-7.85-.163-1.082.163-1.678-.379-.107-.596 1.57-.216 2.65-.758 3.408-1.191-1.3.325-3.788.325-4.546.108-.758-.217-1.246-.65-.379-.867.867-.216.27-.542-.65-.433-.92.108-3.25 1.083-4.55 2.33 1.409-1.463 2.654-2.764 3.683-3.468z"/><path d="M906.769 409.394c1.787 2.004 3.896 3.142 7.254 3.25.704.02 2.016.967.325 1.03-4.55.162-6.82-.922-8.825-3.847-.412-.6.35-1.437 1.246-.433zM933.892 371.546c2.392 1.13 7.2 2.113 10.937 1.95.65-.029 1.958.667.32.813-4.22.379-8.011-.213-11.528-2.167-.975-.542-.65-1.03.271-.596z"/><path fill="#00d860" d="M936.33 371.492c3.679-.108 6.44-.054 7.578 1.03 2.108-.65 5.9-1.03 6.767-.867.866.162 1.841-.217-.163-.705-2.004-.483-6.658-.646-8.12-.375-1.463.267-6.012.43-7.525.267.65.108 1.08.217 1.463.65zM950.62 372.955c1.734-.921 6.712-.055 8.229-.705-1.083 1.3 3.466 1.409 7.416.38-1.516.975-4.762 1.137-6.17 1.733-1.408.596-2.167.163-3.25-.325-1.083-.488-3.841-1.463-6.225-1.083z"/><path fill="#00d860" d="M966.265 372.63c-3.95 1.029-8.5.92-7.416-.38-1.517.65-6.495-.216-8.229.705 1.788-1.084 3.142-.217 4.438-2.438.812.167 2.708.275 3.358-.592 1.137.271 3.141.759 3.737 1.35.596.596 1.512-.162.754-1.079 1.787-.65.654.771 4.82-.27.867-.217 2.98-.597 3.684-.65-1.409 1.137-3.088 2.379-5.146 3.354z"/><path fill="#ff0" stroke="#000" stroke-width=".125" d="M373.356 664.193c-.017-1.966-.207-18.422-.207-22.226 0-.91-.468-.728-.468 0v22.122c.215.039.505.078.675.104zM380.587 640.771l.812 23.461-.142.188-.471.007-.513-23.656h.314zM387.43 660.581c-.066-2.389-.366-13.448-.482-18.9-.015-.727-.448-.6-.441.026.047 4.391.308 16.672.356 18.887.17 0 .463-.017.567-.013z" transform="matrix(4.1664 0 0 4.16687 -666.166 -2413.139)"/><path fill="#fff" stroke="#000" stroke-width=".125" d="M376.605 644.67l-6.913-.104c-.389 1.403 1.352 1.377 2.002 1.013.753.572 1.325.52 1.741.052.598.494 1.351.364 1.663.052.832.624 1.689 0 1.507-1.013zM377.125 648.152l-7.069-.026c-1.221 1.169.364 1.741 1.716.935.182.39 1.013.624 1.663.312.598.468 1.351.13 1.741-.26.728.338 1.585.442 1.949-.961zM376.917 652.57l-6.809-.052c-.13 1.221 1.248 1.065 1.793.754.52.805 1.664.623 2.106.155.649.442 1.247.338 1.585-.078.754.65 1.377-.181 1.325-.779zM377.255 656.988l-7.614-.13c-.416 1.299.753 1.533 1.299 1.221.182.754 1.195.494 1.455-.052.39.39.884.182 1.118-.078.104.702.987.728 1.663.13 1.377.962 2.677-.156 2.079-1.091zM384.012 655.169l-6.341-.052c.286 1.299.909 1.637 1.923.883.754.78 2.001.494 2.313.104 1.377 1.118 2.131-.182 2.105-.935zM383.362 650.829l-6.133-.182c.104 1.559 1.585 1.507 2.339.831.572.728 1.585.52 1.949 0 .78.78 2.053.312 1.845-.649zM384.168 645.943h-6.601c.078 1.091 1.533 1.715 2.651.676.311 1.247 1.507.857 2.027.363.753.962 2.494-.129 1.923-1.039zM383.778 642.617l-5.899.078c-.104.961 1.299 1.377 1.819.597.286.494 1.273.442 1.559-.026.468.728 1.04.234 1.221 0 .676.494 1.404.26 1.3-.649zM390.691 644.774l-7.225-.078c-.026.753.754 1.065 1.221.753 0 .728 1.014.962 1.664.39.442.624 1.741.806 2.261-.052 1.065.884 2.209.26 2.079-1.013zM390.587 650.699l-7.069-.026c.052.987 1.195 1.325 1.845.805.156.832 1.04.884 1.559.468.624.702 1.664.754 2.235-.026.858.312 1.508-.416 1.43-1.221zM390.223 656.026l-5.588-.078c0 .988 1.17 1.118 1.69.598.545.65 1.377.65 1.845.13.753.65 1.897.468 2.053-.65z" transform="matrix(4.1664 0 0 4.16687 -666.166 -2413.139)"/><path stroke="#000" stroke-width=".125" d="M381.257 664.42c-3.014.052-6.081.052-8.16-.26-2.079-.312-2.734-.604-4.158-1.455-2.131-1.273-2.651-1.585-5.665-3.352-.462-.271-.963.065-.312.493 3.04 2.001 4.192 2.743 5.639 3.691 1.507.987 2.479 1.864 3.404 2.91 1.196 1.352 2.079 1.378 2.625 1.17.546-.208 1.404-.494 2.261-.286.858.208 2.001.234 2.599.13.546.494 1.793.39 2.495.234.701-.156 1.221-.234 1.715-.13.494.104 1.247.026 1.741-.052s1.793-.208 2.703-.078c.909.13 1.845.052 2.443-.13.597-.182 1.689-.13 2.053-.026.519-.39.779-.884.909-1.403.611-.078.814-.154.949-.507.247-.65.48-1.287.559-1.572h.246l.078-.585-.506-.585.182-1.117.545-.13c.026-.338-.13-.858-.234-1.066-3.274.13-6.484.234-8.783.286-.26.208-.546.754-.598 1.092-1.403.233-2.235.337-2.599.415-.364.078-.567.107-.857.494-.468.624-.91 1.351-1.274 1.819z" transform="matrix(4.1664 0 0 4.16687 -666.166 -2413.139)"/><path stroke="#000" stroke-width=".125" d="M391.779 660.45c.159-.551.584-2.035 1.354-4.84.129-.468-.325-.653-.493-.052-.916 3.275-1.262 4.503-1.378 4.912.176-.003.428-.022.517-.02z" transform="matrix(4.1664 0 0 4.16687 -666.166 -2413.139)"/><path fill="#fff" stroke="#000" stroke-width=".125" d="M396.85 654.961c-1.105.571-1.638.792-2.144.597-.466-.179-1.151-.28-1.552-.083a.523.523 0 0 1-.021.135 493.286 493.286 0 0 1-1.048 3.768c.818.289 2.227.328 2.556-.025.337-.364 1.26-.286 1.728-.26.299-.39.416-.871.338-1.105-.078-.234-.052-.649.065-.974.117-.325.273-1.378.078-2.053z" transform="matrix(4.1664 0 0 4.16687 -666.166 -2413.139)"/><path fill="none" stroke="#000" stroke-width=".125" d="M371.694 645.579c-1.222 3.534-5.458 11.461-8.014 14.014M365.642 660.746c2.901-2.244 10.236-9.528 11.483-12.594M370.108 652.518c-.337 2.677-1.11 7.452-1.526 9.973M371.245 658.485c-.987.962-2.387 2.641-3.427 3.551M380.542 653.142c-.831.805-1.78 1.744-2.611 1.978M381.02 653.272c.731.779 1.77 1.659 2.628 1.893M380.451 648.958c-.753.649-1.871 1.413-2.884 1.699M380.877 649.113c.65.546 1.342 1.342 2.173 1.706M377.723 645.943c.805-.234 2.004-.858 2.628-1.507M380.708 644.306c.705.805 2.056 1.455 2.732 1.637M377.879 642.695c.831-.182 1.861-.624 2.407-1.404M380.598 641.083c.701.598 1.933 1.462 2.738 1.54M386.529 643.409c-.451.468-1.556 1.309-2.257 1.296M386.987 643.37c.325.52 1.144 1.316 1.612 1.381M383.804 650.673c.909-.312 2.183-1.056 2.82-1.823M387.124 648.906c.266.48 1.28 1.565 1.852 1.786M384.882 655.951c.416-.09 1.547-.652 1.858-1.315M387.26 654.272c.429.533 1.481 1.507 2.131 1.741M370.576 656.874c1.273-.403 3.846-1.965 5.12-3.447M373.263 655.299c1.065.753 2.303 1.507 3.251 1.676M370.342 652.521c.702-.299 1.624-.809 2.339-1.549M373.217 650.868c.286.402 2.388 1.686 3.284 1.699M372.681 646.723c-.546.441-1.858 1.234-2.495 1.403M373.178 646.749c.728.506 2.167 1.4 3.154 1.4M372.681 642.656c-.585.662-1.572 1.685-2.391 1.919M373.152 642.811c.455.728 1.673 1.712 2.466 1.842M383.671 647.184c1.822 3.359 5.201 7.465 8.618 9.622M378.204 643.461c2.767 3.976 8.199 12.695 13.367 15.914M392.523 655.974a18.428 18.428 0 01-4.795 4.607M392.214 657.072c-1.741-2.78-2.641-6.295-3.943-10.924M374.149 658.508l2.144 5.899M373.751 658.37l1.896 6.017M373.343 658.092l1.76 6.262M373.165 658.189l1.359 6.128M374.474 664.095h1.699M375.946 663.455h-1.602M375.77 662.962h-1.546M375.589 662.461h-1.475M375.394 661.916h-1.404M373.886 661.445h1.332M373.789 661.003h1.264M373.682 660.522h1.202M373.587 660.093h1.134M373.487 659.648h1.078M373.399 659.239h1.02M373.298 658.859h.991M373.243 658.537h.923M371.571 658.546l-1.208 4.932M371.924 658.463l-1.037 5.21M372.202 658.274l-.839 5.549M372.555 658.157l-.609 5.803M372.681 663.628h-1.923M372.681 663.095h-2.225M372.681 662.549h-2.095M372.681 662.029h-1.965M372.681 661.497h-1.838M372.681 660.912h-1.692M372.681 660.405h-1.569M372.681 659.885h-1.436M372.681 659.379h-1.316M372.681 658.937h-1.212M372.681 658.586h-1.121M372.681 664.089v-5.88M379.147 656.272l-4.029 8.08M379.401 656.136l-3.43 8.254M379.647 656.053l-2.721 8.383M379.824 656.195l-2.116 8.238M377.801 664.056h-2.534M377.996 663.316h-2.359M378.113 662.718h-2.17M378.317 662.068h-2.053M378.421 661.549h-1.897M378.603 660.951h-1.787M378.782 660.253h-1.618M378.918 659.72h-1.488M379.074 659.112h-1.348M379.181 658.696h-1.247M379.282 658.307h-1.143M379.383 657.91h-1.053M379.474 657.56h-.968M379.565 657.209h-.887M379.656 656.848h-.8M379.74 656.523h-.721M382.36 656.404l1.763 5.58M382.696 656.519l2.139 5.355M383.001 656.532l2.505 5.237M386.108 661.316l-2.763-4.888M386.106 661.312h-2.192M385.731 660.649h-2.019M385.356 659.987h-1.851M384.981 659.324h-1.688M384.606 658.661h-1.529M384.231 657.999h-1.36M383.856 657.336h-1.194M383.481 656.673h-1.032M385.745 656.831l-1.725 5.173M386.262 656.597l-1.6 5.303M385.403 661.783l1.174-4.992M386.879 656.961l-.988 4.75M384.22 661.406h1.731M384.435 660.762h1.65M384.65 660.119h1.572M384.865 659.476h1.491M385.08 658.833h1.41M385.295 658.19h1.329M385.51 657.546h1.248M385.725 656.903h1.027M387.666 657.008l.846 3.547M387.981 656.845l1.169 3.697M388.377 656.826l1.275 3.702M388.901 657.034l1.277 3.477M390.064 660.204h-1.638M389.871 659.684h-1.556M389.678 659.164h-1.491M389.486 658.644h-1.43M389.293 658.125h-1.358M389.101 657.605h-1.284M388.908 657.085h-1.218" transform="matrix(4.1664 0 0 4.16687 -666.166 -2413.139)"/><path fill="#00b800" d="M885.274 363.1c3.359-2.163 9.096-1.73 12.02.433 3.467-1.946 9.746-1.408 12.67 1.192 4.438-3.03 8.23-3.463 12.558-.542 3.358-2.379 8.554-2.596 12.562.217 3.895-1.842 8.228-3.354 12.016.65-2.271-1.625-7.146-3.033-12.016.758-3.792-3.791-10.395-2.383-12.562.217-2.816-3.358-8.77-3.9-12.345.217-3.896-3.25-9.741-3.359-12.882-.867-2.492-1.95-6.17-3.57-12.02-2.275z"/><path fill="#cf6200" d="M944.45 358.446c-17.216 2.975-54.734.866-62.963-1.192-2.829-.709-2.058-1.734.325-1.192 9.483 2.154 29.72 2.167 40.873 1.625 2.166-2.87 5.574-7.742 6.603-9.096 1.03-1.354 1.484-1.48 3.63-1.842 3.84-.65 6.036-1 9.365-1.57.055.433.055.974.055 1.3-.271.216-.542.595-.759.704 0 2.22.434 7.633.867 9.583.433-.054.975-.216 1.246-.27.758-.217 1.512 1.733.758 1.95z"/><path fill="#cf6200" d="M972.652 359.27c.621-.016 1.917-.045 2.275-.054.704-.016 1.692-.5 2.125-1.583.433-1.083 1.775-5.088 2.262-6.767l-1.733-2.613c.38-2.154.867-5.075.92-5.67.868-.326 1.784-.65 2.217-.813.109-.488-.104-1.813-.541-2.246-7.416.283-29.61 1.054-33.673 1.108-.975 0-1.412-.041-1.783 1.354-2.058 7.688.787 18.476 8.553 24.69.542.433 1.225.07.321-.76-1.296-1.19-3.3-3.629-4.654-6.037 1.517-.025 4.592-.075 5.512-.113.442 1.821 1.825 5.663 2.096 6.313.271.65.938.742.62-.229-.745-2.275-1.136-4.867-1.461-6.113 1.408-.033 4.062-.008 5.687-.1.079 2.059.295 4.817.35 5.576.054.758.704.812.716-.055.017-.866.034-4.529.021-5.608 1.833-.05 4.175-.13 5.041-.13-.12 1.172-.345 4.96-.429 5.56-.125.883.338 1.3.554.053.217-1.245.65-4.158.771-5.633.734-.021 2.663-.1 3.475-.121-.08 1.154-1.162 4.663-1.487 5.584-.325.92.2.95.566.079.384-.892 1.571-4.413 1.68-5.671z"/><path d="M948.075 358.391c-.596-1.191-2.438-5.429-2.6-8.513 1.57-.029 5.5-.104 7.395-.145.28 2.325.996 7.333 1.375 8.52-2.216.055-4.925.126-6.17.138zM954.17 349.708c.204 1.775 1.133 7.87 1.283 8.575 1.609-.096 5.333-.108 5.98-.162-.067-1.626-.33-7.722-.36-8.588-1.682.045-6.057.154-6.903.175zM945.775 342.161c-.3 1.559-.354 4.888-.271 6.31 1.896.037 6.562-.076 7.208-.13-.158-1.617-.413-4.542-.575-6.367-1.546.067-5.333.158-6.362.187zM953.516 341.953c.054 1.517.392 5.225.5 6.359 1.637-.046 5.645-.13 7-.175-.071-1.388-.292-5.859-.317-6.4-2.175.058-5.804.195-7.183.216zM962.115 341.695c.067 1.408.246 5.383.192 6.413 1.738-.046 5.058-.08 6.087-.163.08-1.412.309-5.45.2-6.48-1.95.076-5.058.18-6.479.23zM969.786 341.424c0 1.192-.15 5.38-.204 6.517 1.72-.067 5.628-.204 6.645-.23.27-1.395.813-5.02.975-6.55-1.625.055-6.229.23-7.416.263zM976.498 349.103c-2.22.071-5.791.167-7 .213-.187 2.742-.529 7.48-.691 8.563 1.954-.042 5.904-.167 6.77-.192.65-1.3 2.058-5.358 2.383-6.604-.487-.759-.866-1.192-1.462-1.98zM962.345 349.503c0 .976.17 7.955.212 8.55 1.27-.04 4.57-.087 5.058-.14.246-2.718.617-7.922.683-8.572-2.25.062-4.458.13-5.953.162zM933.626 347.833l-2.821.5c-1.3 2.1-6.116 8.596-6.712 9.354 3.354-.096 8.6-.196 9.862-.316-.092-1.742-.325-8.676-.33-9.538zM934.871 347.6c.067 2.22.28 8.137.334 9.708 1.662-.096 4.724-.296 5.97-.404-.287-2.792-.812-9.459-.92-10.271-1.396.254-4.138.737-5.384.966z"/><path stroke="#000" stroke-width=".125" d="M377.294 656.927c.091.001.103.079-.001.078l-7.678-.095c-.104-.001-.09-.079.001-.078l7.678.095zM383.328 650.784c.091.003.102.081-.002.078l-6.083-.167c-.104-.003-.089-.081.002-.078l6.083.167zM376.911 652.535c.091.001.103.079-.001.078l-6.808-.05c-.104 0-.09-.078 0-.078l6.809.05zM377.112 648.117c.091 0 .104.078 0 .078l-7.121-.037c-.104 0-.09-.078.001-.077l7.12.036zM376.619 644.631c.091.001.102.08-.001.078l-6.919-.104c-.104-.002-.09-.08.001-.078l6.919.104z" transform="matrix(4.1664 0 0 4.16687 -666.166 -2413.139)"/><path fill="#fff" stroke="#000" stroke-width=".125" d="M383.784 642.587c.091-.001.105.077.001.078l-5.938.057c-.104.001-.092-.077-.001-.078l5.938-.057z" transform="matrix(4.1664 0 0 4.16687 -666.166 -2413.139)"/><path stroke="#000" stroke-width=".125" d="M384.148 645.91c.091 0 .104.078 0 .078h-6.562c-.104 0-.091-.078 0-.078h6.562zM390.592 650.641c.091 0 .104.078 0 .078h-7.072c-.104 0-.091-.078 0-.078h7.072zM390.691 644.728c.091.001.103.079-.001.078l-7.225-.071c-.104-.001-.09-.079.001-.078l7.225.071zM384.012 655.121c.091.001.103.079-.001.078l-6.356-.042c-.104-.001-.09-.079.001-.078l6.356.042zM390.223 655.983c.091.001.103.079-.001.078l-5.587-.074c-.104-.001-.089-.079.002-.078l5.586.074z" transform="matrix(4.1664 0 0 4.16687 -666.166 -2413.139)"/><path fill="#ef072d" stroke="#000" stroke-width=".125" d="M395.264 657.053c.157-.349.179-1.151.089-1.455a1.106 1.106 0 0 1-.647-.04 2.973 2.973 0 0 0-.341-.106c-.022.402-.168 1.426-.348 1.822-.314.089-.947-.015-1.307-.128l-.262.942a3.45 3.45 0 0 0 1.452-.009c-.035.601-.114 1.148-.439 1.526.531.012 1.006-.066 1.18-.252a.403.403 0 0 1 .053-.048c.245-.41.252-.944.311-1.304.181.013.415-.039.519-.143a.572.572 0 0 1 .442-.143c.154.012.394-.02.699-.143.008-.184.044-.384.107-.558.034-.095.071-.253.102-.444-.387.185-1.25.494-1.61.483z" transform="matrix(4.1664 0 0 4.16687 -666.166 -2413.139)"/><path stroke="none" stroke-width=".125" d="M877.33 183.633c-3.297.096-10.471.162-11.98 1.008-1.503.85-2.166 1.225.471 1.696 2.638.471 7.1 1.725 9.546 3.234 2.445 1.504 4.495 4.17 3.82 7.975-2.02 11.43 3.954 22.422 12.612 26.568.837.4 1.037.704.85 2.259-.188 1.554-.754 4.146-1.225 4.804-.47.662-.704 1.746.8 1.225-1.033 1.933-3.341 5.796-4.046 6.784-6.92-.846-12.565.095-13.086 7.346-.05.708.191 1.837 1.27.05 1.084-1.792 2.309-3.488 5.271-3.959-1.742 2.684-2.304 5.088-2.02 6.642.278 1.555.703 2.496 1.458.517.754-1.975 2.141-3.825 3.624-4.946.563-.421.942-.517.517.708-.425 1.225.187 3.863 1.037 4.759.846.892 1.271.517 1.034-.942-.234-1.462.133-4.517 1.929-5.467 2.587-1.362 4.8-.658 5.837 1.134 1.033 1.787 1.929.091.8-1.934-1.13-2.025-2.308-3.438-4.192-3.58 1.65-2.92 3.58-6.454 4.004-7.158.421-.708 1.084-1.037 1.646-.612.567.425.942.375 1.508-.8.563-1.18 1.55-4.663 2.963-6.076.708-.191 1.837-.47 2.258-.85 1.837 2.684 3.483 5.655 3.908 6.313.42.658.896.942.47 2.308-.424 1.367-1.883 5.7-2.116 6.642-5.133.188-7.483.28-9.133 3.155-.72 1.254.425 1.742 1.65 1.083 1.221-.658 2.963-1.225 3.858-1.083.892.141 1.313.6.421 1.037-3.15 1.555-5.12 3.53-4.987 6.263.046.988.454 1.48 1.225.142 1.083-1.884 3.058-3.767 5.458-4.288-.142 2.309.379 5.7 1.787 6.409 1.413.704 1.513-.013.988-1.367-.846-2.167.033-4.346 1.083-5.513 2.212-2.45 7.25.942 8.191 1.792.942.846 1.8 1.2 1.27-.992-.707-2.917-4.849-4.612-8.378-5.083.988-4.759 3.625-14.368 5.037-17.664 2.071 1.13 3.688-1.85 7.154-.566 5.833 2.166 14.587 7.63 16.095 8.854 1.504 1.225 2.07.942 2.825.284.75-.659 2.07 0 3.104.187 1.037.188 1.979.471.658-2.167-1.317-2.637-4.516-7.254-9.883-10.834 3.2.284 7.533.284 7.533-.562 0-.85-4.991-2.45-7.062-2.638 1.98-.47 4.992-1.604 6.4-3.204.837-.946-.167-1.167-3.104-1.225-9.037-.188-13.554-.117-18.262-2.825-7.528-4.334-11.836-8.896-15.532-10.834-1.975-1.038-3.179-3.43-3.941-5.496-2.446-6.596-2.325-9.563-8.067-11.73-5.74-2.167-12.345.488-15.357 3.217z"/><path fill="#fff" stroke="#000" stroke-width=".125" d="M370.55 623.555c-.351-.013-1.04-.096-1.611-.039-.13.013-.286.078.026.117.312.039 1.156.246 1.455.35.299.104.169.26-.091.195s-.356.031-.143.182c1.105.78 1.222 1.079.936 3.755.208.143.377.247.559.338.182.091.13.221-.065.169-.195-.052-.377.065-.065.13s.454.208.156.195c-.299-.013-.65.247-.065.182.584-.065.818.208.13.221-.689.013-.429.234-.065.234.649 0 .454.182.286.182-.169 0-.247.221.182.182.428-.039.597-.052.753-.026.156.026.221.155-.013.169-.234.012-.221.181.13.181s.497.106.182.169c-.13.026-.31.091.065.143.65.091.676.247.468.273-.208.026-.234.143.065.169.298.026.558.117.312.182-.247.065-.377.208-.066.234.312.026.572.143.338.221-.234.078-.286.221.013.208.299-.013.416.156.208.272-.208.117-.351.195-.481-.012-.129-.208-.207-.273-.246-.117-.039.155-.13.052-.234-.182-.104-.234-.286-.299-.234-.117.052.182-.182.208-.403.117.819.831 2.027 1.585 3.95.805.164-.066.195 0 .325.273s.494.871.624 1.092c.13.221.233.022.298-.195.26-.858.455-1.495.533-1.728.078-.234.442-.468.325.35.286-.195 1.553-.379 2.534-.013 1.078.403 2.162 1.028 2.716 1.443a.624.624 0 0 0 .493.143c.26-.026.325-.065-.169-.52-.493-.455-.285-.676.026-.455.312.221.481.091.247-.182-.234-.273-.792-.805-.974-.935-.182-.13-.208-.182-.624-.208-.416-.026-1.299-.026-1.559-.026s-.338.026.234.234c.571.207 1.741.961 2.001 1.143.26.182.442.598-.13.234-.572-.364-2.365-1.481-3.56-1.897-2.729.182-4.886.546-6.497-1.221-.772-.846-.806-2.781.493-3.587-.26-.221-.221-.351-.117-.403.104-.052.143-.104.039-.234-.103-.13-.091-.246 0-.298-.285-.156-.415-.338-.402-.533-.351-.078-.507-.494-.975-.364-.468.13-.702.026-.844-.091-.144-.117-.26-.169-.52-.143-.26.026-.468-.078-.481-.208-.013-.13.22-.193.572-.039.74.325 1.338.481 1.793-.13.455-.61-.13-1.182-1.001-1.351-.87-.169-1.507.468-1.832.767z" transform="matrix(4.1664 0 0 4.16687 -666.166 -2413.139)"/><path fill="#fff" stroke="#000" stroke-width=".125" d="M374.916 623.334c-.262-.284-.728-.546-.961-.624-.234-.078-.26.156-.13.273-.104.156-.143.533.039.637.182.104.184.252.013.337-.26.13-.172.82.22.624.13-.065.234-.039.208.065-.026.104.026.234.143.26.117.026.104.195.078.26-.026.065.013.091.143.104.13.013.143.325-.091.429.286 0 .364-.052.442.182.078.233.39.285.39.571s-.052.338-.39.286c-.338-.052-.468.052-.572.182-.104.13-.13.26.13.273.26.013.312.13.052.247-.26.117-.688.039-.753.286-.065.246 0 .363.194.272.195-.09.598-.259.754-.35.156-.091.299-.104.429.104s.026.441-.195.26c-.221-.182-.325-.014-.455.09a.87.87 0 0 1-.533.169c-.207 0-.35.027-.324.494.078 1.404 1.169 2.443 3.17 2.417 2.001-.026 2.989-.052 3.288-.013-.663-.364-1.079-.559-1.313-.533-.234.026-.429.065-.325-.117.104-.182-.013-.182-.117-.26-.104-.078-.233-.182-.441.039s-.702.468-.949.52c-.247.052-.546.039-.312-.195.234-.234.754-.312.91-.416.156-.104.156-.168.156-.246 0-.078-.039-.299.26-.13.597.338 1.533.844 1.78.831.247-.013.416-.117.195-.26-.221-.143-.286-.35-.221-.428.065-.078.104-.156.494.065.389.22 1.026.506 1.26.61.234.104.546.065.065-.286-.481-.35-1.975-1.338-2.391-1.65-.416-.312-.234.065-.195.182.039.117-.286.26-.455.117-.169-.143-.286-.299-.052-.429.234-.13.286-.143-.065-.455-.35-.311-.454-.285-.376-.026.078.26.104.546-.26.403-.364-.143-.546-.312-.312-.455.234-.142.533-.22.143-.545-.39-.325-.273 0-.364.182-.091.182-.39.182-.559.039-.169-.143-.247-.286-.13-.403.117-.117.104-.182.273-.091.169.091.429.039.117-.234s-.429-.156-.364 0-.182.429-.571.065c-.185-.172-.182-.403.013-.442.194-.039.213-.14.077-.338-.792-1.156-.467-2.092-1.26-2.949z" transform="matrix(4.1664 0 0 4.16687 -666.166 -2413.139)"/><path fill="#cf6200" d="M896.436 184.862c-.283.425-.387.409-.912.759-.646.429-.792 1.658.291 1.512.75-.1 1.188-.546 1.484-.908a9.387 9.387 0 00-.863-1.363zM893.049 182.137c-.833.808-.98 1.17-.554 1.17.504 0 .287.072-.075.65-.358.58.725.868 1.158.434.433-.433.504-.579.72 0 .176.471.888.025 1.338-.429-.737-.712-1.729-1.37-2.587-1.825zM891.557 186.808c-1.083.542-.716 3.417.917 2.6.542-.27.975-.162.867.271a.958.958 0 00.1.7 5.02 5.02 0 001.795-1.296c1.013-1.154.071-1.083-1.441-1.083-1.517 0-1.95-.288-.509-1.154 1.292-.775.45-1.313-1.337-1.063.258.367.13.767-.392 1.025zM897.765 193.2c-.795-.867-.291-1.3.575-1.733.213-.105.359-.238.463-.396-.246-.954-.442-1.871-.7-2.763-.454.13-.983 1.142-1.133 1.642-.217.72-.434 1.154-1.155.937-.641-.191-1.283.53-1.416 1.3.1.042.254.071.458.092.3.03.45.438.358.871 1.955-.062 2.288 1.288 2.621 2.213.363 1.012.796.866 1.083.291.288-.579-.362-1.587-1.154-2.454z"/><path fill="#ff0" d="M898.34 204.534c-.354.8-.362.72-1.516.792-1.154.075-2.608.27-3.246.941-.346.359-2.341.455-2.346 1.334-.008.883 0 1.625.867 1.679.862.054.97.163.65.813-.33.65-.542 1.733.97 1.841 1.517.109 2.6-.379 2.98.484.379.866-.03 2.25.27 2.762.3.513 1.325.842 2.913 1.334 1.058.329 5.054.516 6.283.375 1.225-.146.766-.88-.463-.988-1.225-.108-2.129-.287-2.416-1.187-.288-.905-.542-1.375.146-2.13.683-.758 1.37-1.337.975-2.6-.4-1.262-1.05-2.746-2.492-3.142-1.446-.395-.987-2.37-2.42-2.562-.542-.071-1.009-.071-1.155.254z"/><path fill="#cf6200" d="M891.34 216.264c1.242.108 2.326.487 1.3.758-1.028.27-1.57.867-.274.975 1.3.108 2.383.596 1.408.921-.975.325-1.192.92.054.867 1.246-.054 1.733.65.867 1.133-.867.488-1.463.813-2.004-.05-.538-.867-.863-1.137-1.025-.487-.163.645-.542.216-.975-.759-.434-.975-1.192-1.246-.975-.487.216.758-.758.866-1.68.487.909.921 1.93 1.817 3.092 2.575 1.33-.454 2.796-.083 3.296-.033.541.054 2.22.433 3.141.92.921.488 1.517-.378 1.138-1.353-.38-.971-.434-.646-.921-.109-.487.542-.596-.216-.542-1.35.046-.958-.595-.704-.812-.108-.217.596-.704-.38-.433-.975.27-.596-.055-.813-.542-.65-.488.162-.542 0-.596-1.084-.054-1.083-.541-.92-.704-.487-.162.433-.596-.163-1.246-1.03-.566-.758-1.22-.312-2.354.138.142.084.4.154.788.188z"/><path fill="#ff0" d="M904.494 222.977c-5.916 2.4-10.183 1.333-13.395-.796 1.33-.455 2.825-.067 3.325-.017.541.054 2.22.433 3.141.92.921.488 1.517-.378 1.138-1.353.812 1.029 1.408 1.733 2.379 1.679.975-.054 2.6-.217 3.412-.433zM891.845 195.725c-.363-1.225-.72-1.517-1.37-1.442-.65.071-.938-.075-1.663-.362-.721-.288-1.659.07-1.804 1.37-.146 1.3-.938 1.95-2.021 2.743-1.083.795-1.733 1.446-1.733 2.746s-.288 1.658-1.009 2.6c-.32.416-.774.891-1.2 1.391.467.292.905.546 1.363.771.758.38.542.921-.27.705-.813-.217-1.572.27-.272.541s1.892.867.65.813c-1.245-.054-2.708 1.029-.27.758 2.433-.27 3.408.867.541.921-2.87.054-1.787.975-.27.975 2.703 0 1.89.758 1.19.758-.703 0-1.028.921.76.759.024-.004.045-.009.074-.009.258-.266.45-.6.592-1.02.287-.867.575-3.396 1.587-4.117 1.008-.721 1.517-1.734 1.517-2.455 0-.72 1.512-3.896 2.525-4.691 1.012-.796 1.445-2.526 1.083-3.755z"/><path fill="#cf6200" d="M889.75 195.796c-1.026-.683-2.022-.287-2.022 1.013 0 1.3-.65 1.658-1.516 2.091-.863.434-1.658 1.517-1.804 2.53-.142 1.008.146 1.658-.575 2.454-.725.792-.796 1.442-.288 1.875.505.433.505.508.721 1.154.217.65 1.442-.07 1.442-.791 0-.721.291-.721 1.083-1.155.796-.433 2.096-2.529 1.804-3.104-.287-.58-1.008-1.083-.07-1.88.937-.791 1.95-.866 1.95-1.658 0-.796.287-1.083.574-1.37.292-.292-.65-.726-1.3-1.159z"/><path d="M889.75 194.717c-.676-.263-1.08 1.154-.143 1.37.938.217 1.084-1.012.142-1.37zM889.553 196.554c-.716.088-1.516 1.03-.325.867 1.192-.162 1.68-1.03.325-.867zM888.145 198.342c-.737.37-.596 1.354.488.65 1.083-.704 1.354-1.57-.488-.65zM886.991 199.842c-.742.367-.596 1.35.487.65 1.084-.704 1.355-1.57-.487-.65z"/><path d="M885.474 200.525c-.737.371-.27 1.355.813.65 1.083-.704 1.029-1.57-.813-.65zM886.412 201.43c-.738.37-.271 1.354.812.65 1.084-.705 1.03-1.571-.812-.65z"/><path d="M885.112 201.825c-.738.371-.27 1.355.812.65 1.084-.704 1.03-1.57-.812-.65zM885.945 202.871c-.741.371-.27 1.355.809.65 1.083-.704 1.029-1.57-.809-.65z"/><path d="M884.679 203.488c-.738.367-.271 1.35.812.646 1.083-.704 1.03-1.567-.812-.646z"/><path d="M884.787 204.459c-.737.37-.27 1.354.812.65 1.084-.704 1.03-1.57-.812-.65z"/><path fill="#cf6200" d="M884.191 213.555c-.746.096-1.225 1.159-.287 1.375.937.217 1.154.288 1.154 1.009 0 .72.291 1.733 1.3 1.804 1.012.075 1.879-1.083 1.012-1.442-.866-.362-1.662-.65-1.733-1.446-.07-.791-.867-1.37-1.446-1.3z"/><path fill="#ff0" d="M910.769 207.36c.133.166.3.35.491.512.704.595 2.059 0 1.896-.488-.162-.487-.92-2.058.812-.758 1.734 1.3 7.958 5.417 9.962 6.875 2.004 1.463.704 1.625-.27 1.192-.975-.434-3.63-1.625-5.25-2.542-1.625-.92-1.788-.596-2.058-.27-.23.27-.046.924.55 1.478-.967.142-2.538-.07-2.988-1.1-.541-1.246-1.841-2.762-2.762-3.954-.342-.442-.442-.717-.383-.946z"/><path fill="#00d860" d="M964.478 384.76c-1.35.92-3.137 2.545-1.95 4.816.142-.075.275-.162.412-.241a132.2 132.2 0 0 0 13.712-20.147c.046-.242.088-.471.117-.671-1.517 1.3-3.9 2.596-4.875 2.92.65 1.734-2.379 4.01-4.004 4.66.65 1.083.433 2.708-.975 3.033.325.97-.758.97-2.058 1.512-1.3.542-1.95.976-2.38 1.626.7-.38 1.676-.705 2.217-.542.542.162.65.975-.325 1.192-.974.216-1.62.758-1.95 1.191 1.409-.541 3.413-.27 2.059.65z"/><path stroke="#000" stroke-width=".125" d="M375.969 628.414c-.384-.335-.481-.13-.325.078.156.208.039.312-.299.364-.338.052-.845.117-1.053.117-.208 0-.454.286.039.26.494-.026 1.326-.195 1.547-.286.221-.091.402-.26.091-.533zM376.722 628.999c-.317-.285-.429-.208-.351 0 .078.208-.065.247-.272.312-.208.065-1.027.338-1.378.377-.351.039-.429.286.091.273.52-.013 1.52-.429 1.637-.507.117-.078.156-.234.286-.156.13.078.247-.065-.013-.299z" transform="matrix(4.1664 0 0 4.16687 -666.166 -2413.139)"/><path stroke="#000" stroke-width=".125" d="M376.956 629.831c-.23.137-.805.389-1.039.454-.234.065-.429.325.065.286.493-.039 1.078-.494 1.234-.584.156-.091.234-.156.364-.143.13.013.364-.169-.065-.403s-.689-.117-.481.065c.208.182.052.247-.078.325z" transform="matrix(4.1664 0 0 4.16687 -666.166 -2413.139)"/><path d="M887.512 184.029c-2.646-1.738-5.667 1.904-2.742 3.9 2.563 1.75 5.27-2.238 2.742-3.9z"/><path fill="#fff" d="M884.22 185.62l.784.055c-.163.808.65 2.029 1.895 1.729-1 .758-2.95-.108-2.679-1.783zM894.482 225.056c.8.233 3.58.516 4.52.562-.47.992-.895 1.65-1.178 2.359-.284.704-.421.754-.471-.33-.046-1.087-.658-1.791-1.22-.662-.568 1.133-.85 1.554-1.13 2.025-.283.471-.708.663-.567-.517.142-1.179.096-2.404.046-3.437z"/><path fill="none" stroke="#000" stroke-width=".25" d="M399.668 640.771c-.046 16.332-2.623 33.927-23.764 42.308-21.142-8.381-23.719-25.976-23.765-42.308h47.529zM399.668 640.771c.018-6.152-.324-12.125-.168-17.359-7.9-3.535-18.295-4.262-23.596-4.262-5.302 0-15.697.727-23.597 4.262.156 5.234-.185 11.207-.168 17.359h47.529z" transform="matrix(4.1664 0 0 4.16687 -666.166 -2413.139)"/></svg>