<svg xmlns="http://www.w3.org/2000/svg" width="675" height="450" viewBox="0 0 675 450"><path fill="#dc171d" d="M0 0l298.571 225.241H675V0z"/><path fill="#fff" stroke="#fff" d="M0 0l299.005 225.746L0 450z"/><path fill="#012a87" d="M0 450l298.571-224.759H675V450z"/><path fill="#ff0" d="M150.828 170.285l.092-3.483s-1.87-2.98.3-6.181c0 0-4.612-2.44-3.539-6.261 0 0-4.17-1.067-3.863-5.654 0 0-4.502-.312-4.968-4.145 0 0-4.502.742-6.483-2.993 0 0-4.392.859-5.63-2.22 0 0-4.27 1.479-6.802-2.14 0 0-4.508 1.821-6.397-1.594-1.865 3.404-6.373 1.594-6.373 1.594-2.502 3.606-6.801 2.11-6.801 2.11-1.196 3.09-5.575 2.213-5.575 2.213-1.975 3.735-6.471 2.993-6.471 2.993-.442 3.82-4.937 4.133-4.937 4.133.355 4.599-3.809 5.642-3.809 5.642 1.098 3.82-3.508 6.254-3.508 6.254 2.226 3.22.374 6.176.374 6.176l-.104 3.212 74.506.344"/><path fill="#f9d90f" stroke="#000" stroke-width=".271" d="M377.175 843.108l.09-3.459s-1.856-2.957.3-6.136c0 0-4.578-2.422-3.513-6.215 0 0-4.14-1.058-3.835-5.612 0 0-4.468-.31-4.931-4.115 0 0-4.468.736-6.434-2.971 0 0-4.359.852-5.588-2.204 0 0-4.237 1.468-6.751-2.124 0 0-4.475 1.808-6.35-1.583-1.85 3.38-6.324 1.583-6.324 1.583-2.484 3.58-6.751 2.094-6.751 2.094-1.187 3.068-5.533 2.197-5.533 2.197-1.96 3.708-6.423 2.971-6.423 2.971-.438 3.793-4.9 4.103-4.9 4.103.353 4.565-3.78 5.6-3.78 5.6 1.09 3.793-3.482 6.21-3.482 6.21 2.21 3.196.371 6.13.371 6.13l-.103 3.19 73.949.34h-.012z" transform="matrix(1.00754 0 0 1.00735 -229.19 -679.021)"/><path fill="#dc171d" d="M149.086 165.937c-11.702-1.171-25.177-3.949-35.579 1.908-6.973-4.11-16.682-3.858-24.95-3.054-4.49.803-9.77.803-14.462 1.57l-.736.103c-8.513.565-16.235-1.95-23.631-5.255 2.349 13.331 4.955 26.994 6.237 40.951 2.79 20.67-9.782 38.025-4.624 58.445 3.079 9.799 13.855 15.495 23.717 16.624 9.55.564 19.43 2.128 28.268 4.047 1.68.35 3.674 1.129 4.833 1.63 2.435 1.019 4.22 2.516 5.784 4.116 5.336-5.556 13.155-7.101 20.871-7.917 13.904-1.625 31.046-.741 39.56-13.337v-.712c4.624-6.966 4.01-17.592 2.005-25.485-.135-2.753-.871-5.181-1.27-7.805-8.494-22.432-1.22-47.66 2.435-70.269-4.465 2.441-9.445 3.594-14.413 4.815-3.962.527-8.378.288-12.39.073l-1.661-.448"/><path fill="#62afe1" d="M166.566 230.312c-.056 1.478.742 2.637 1.03 4.004 1.625 9.805 3.195 22.794-6.9 28.877-11.168 7.1-25.815 4.06-38.737 7.818-2.582.717-6.14 3.09-7.955 4.77-1.165-.766-2.337-1.943-3.84-2.636-10.634-5.654-24.459-3.76-36.461-6.813-6.03-1.907-12.316-6.604-13.843-12.773-3.925-16.188 5.477-29.986 4.367-46.046-.718-12.264-2.779-24.038-5.612-35.535 9.384 4.371 20.246 5.101 30.795 3.005 7.813-1.093 16.909-1.117 24.232 2.189 4.036-1.736 8.758-2.515 13.107-2.993 8.267.804 17.154 2.3 25.667 2.238 5.686-.295 10.85-1.938 15.793-4.127-2.931 19.003-8.562 38.909-1.65 58.022"/><path fill="#fff" d="M149.687 234.102l-.092-17.87h2.202l-27.318-17.642-.049-9.167h2.638l-13.659-9.78-13.591 9.774h2.63l.05 9.161-27.17 17.618 2.171.012.092 17.857 72.09.05"/><path fill="none" stroke="#000" stroke-width="1.164" d="M376.042 906.458l-.09-17.738h2.184l-27.113-17.514-.048-9.1h2.617l-13.556-9.71-13.49 9.704h2.612l.048 9.094-26.967 17.49 2.155.011.092 17.727 71.55.049.006-.013z" transform="matrix(1.00754 0 0 1.00735 -229.19 -679.021)"/><path fill="#fff" d="M158.083 257.576l.006 5.592-88.005-.098-.037-5.568 88.042.074"/><path fill="none" stroke="#000" stroke-width="1.164" d="M384.376 929.761l.006 5.551-87.347-.097-.037-5.528 87.384.074h-.006z" transform="matrix(1.00754 0 0 1.00735 -229.19 -679.021)"/><path fill="#fff" d="M75.929 257.239l-.074-18.924 3.563-.007-.196 19.144.215-18.99-5.133-.147v-4.06l78.652.086.037 4.023h-4.852l.092 19.162-.171-19.162h3.612l.08 18.947"/><path fill="none" stroke="#000" stroke-width="1.164" d="M302.836 929.426l-.073-18.785 3.536-.007-.194 19.004.213-18.852-5.095-.146v-4.03l78.064.086.036 3.993h-4.815l.092 19.023-.17-19.023h3.585l.079 18.81" transform="matrix(1.00754 0 0 1.00735 -229.19 -679.021)"/><path fill="none" stroke="#000" stroke-width="1.164" d="M319.619 924.8l-.055-13.1h-10.482l.06 13.087 10.477.013" transform="matrix(1.00754 0 0 1.00735 -229.19 -679.021)"/><path fill="none" stroke="#000" stroke-width="1.164" d="M311.937 914.432l.03 7.61h4.797l-.025-7.61h-4.802M370.862 924.836l-.06-13.087-10.447-.013.049 13.1h10.458" transform="matrix(1.00754 0 0 1.00735 -229.19 -679.021)"/><path fill="none" stroke="#000" stroke-width="1.164" d="M363.18 914.481l.055 7.585h4.79l-.042-7.585h-4.803M370.783 903.506l-.061-13.1h-10.458l.036 13.1h10.489-.006z" transform="matrix(1.00754 0 0 1.00735 -229.19 -679.021)"/><path fill="none" stroke="#000" stroke-width="1.164" d="M363.1 893.163l.031 7.597h4.79l-.005-7.597H363.1M319.534 903.458l-.073-13.076-10.465-.013.05 13.082h10.488v.007z" transform="matrix(1.00754 0 0 1.00735 -229.19 -679.021)"/><path fill="none" stroke="#000" stroke-width="1.164" d="M311.851 893.115l.025 7.585 4.803.012-.037-7.597h-4.79M338.502 903.481l-.049-13.075-10.47-.012.042 13.087h10.477" transform="matrix(1.00754 0 0 1.00735 -229.19 -679.021)"/><path fill="none" stroke="#000" stroke-width="1.164" d="M330.826 893.127l.024 7.585 4.797.024-.03-7.61h-4.791M353.124 903.506l-.074-13.1-10.464-.012.049 13.087 10.488.025" transform="matrix(1.00754 0 0 1.00735 -229.19 -679.021)"/><path fill="none" stroke="#000" stroke-width="1.164" d="M345.435 893.14l.037 7.609h4.797l-.025-7.61h-4.809" transform="matrix(1.00754 0 0 1.00735 -229.19 -679.021)"/><path fill="#fff" d="M129.208 227.08l.117 30.422-30.562-.05-.11-30.396 30.55.024"/><path fill="none" stroke="#000" stroke-width="1.164" d="M355.717 899.488l.115 30.2-30.333-.05-.11-30.174 30.322.024h.006zM325.207 908.108l30.54.024M329.018 929.675l-.104-21.342M352.143 929.687l-.103-21.33M366.79 886.626l-17.081-12.474-19.194-.024-16.947 12.45 53.222.048M331.994 863.799l.03 7.609 16.144.012-.03-7.61-16.144-.011" transform="matrix(1.00754 0 0 1.00735 -229.19 -679.021)"/><path fill="none" stroke="#000" stroke-width="1.164" d="M336.371 865.686l.025 3.791h7.414l-.024-3.791h-7.415M340.036 855.142l8.979 6.349-17.891-.024 8.912-6.325" transform="matrix(1.00754 0 0 1.00735 -229.19 -679.021)"/><path fill="#fff" d="M149.988 178.072c2.57-.06 3.232 10.584 3.238 15.858 2.208.62 7.102 3.698 9.267 6.482l-24.827-.037c2.134-2.747 6.992-5.838 9.181-6.457 0-5.28.54-15.918 3.14-15.857"/><path fill="none" stroke="#000" stroke-width="1.164" d="M376.34 850.838c2.551-.061 3.209 10.507 3.215 15.742 2.191.615 7.049 3.671 9.198 6.434l-24.642-.036c2.119-2.727 6.94-5.796 9.113-6.41 0-5.242.536-15.802 3.117-15.742M326.808 900.335h2.21l-.646 1.186s1.066 1.37.019 2.94l.578 1.09h-2.13l.578-1.035s-1.09-1.82.048-2.995l-.657-1.186M331.313 900.335h2.21l-.64 1.186s1.065 1.334.006 2.94l.572 1.09h-2.124l.572-1.035s-1.065-1.82.055-2.995l-.652-1.186M336.225 900.335h2.204l-.658 1.186s1.078 1.37.019 2.94l.578 1.114-2.112-.023.566-1.036s-1.078-1.808.042-2.995l-.645-1.186h.006zM341.77 900.346h2.222l-.65 1.2s1.064 1.345.005 2.921l.597 1.108H341.8l.572-1.034s-1.065-1.833.073-2.995l-.67-1.2h-.005zM346.701 900.346h2.204l-.651 1.2s1.071 1.345.012 2.915l.584 1.114h-2.124l.554-1.034s-1.072-1.82.085-2.995l-.664-1.2M351.602 900.359l2.203-.013-.651 1.2s1.09 1.345.03 2.921l.554 1.108h-2.13l.572-1.035s-1.065-1.82.073-2.994l-.651-1.188" transform="matrix(1.00754 0 0 1.00735 -229.19 -679.021)"/><path fill="#f9d90f" d="M114.078 296.496c11.444.036 25.52-2.3 32.113-5.709l14.48-1.282.289 17.667c-12.267 6.763-40.59 8.217-46.821 8.168-6.238.049-34.91-1.429-47.232-8.217l.16-17.68 14.51 1.307c6.594 3.392 21.099 5.746 32.531 5.746h-.03"/><path fill="none" stroke="#000" stroke-width=".271" d="M340.7 968.397c11.358.036 25.329-2.283 31.873-5.667l14.372-1.273.286 17.538c-12.175 6.714-40.286 8.157-46.47 8.108-6.192.049-34.65-1.418-46.88-8.156l.159-17.55 14.402 1.296c6.544 3.367 20.94 5.704 32.288 5.704h-.03" transform="matrix(1.00754 0 0 1.00735 -229.19 -679.021)"/><path fill="#f9d90f" d="M29.63 221.138l12.756 4.06-3.857 20.653-12.077 1.876s-2.036-10.86 3.177-26.601"/><path fill="none" stroke="#000" stroke-width=".271" d="M256.883 893.59l12.661 4.03-3.829 20.502-11.986 1.862s-2.02-10.78 3.154-26.407v.012z" transform="matrix(1.00754 0 0 1.00735 -229.19 -679.021)"/><path fill="#7e7e7e" d="M38.522 245.624l-12.07 2.103 7.636-10.86 4.434 8.757"/><path fill="#f9b60f" stroke="#000" stroke-width=".271" d="M265.71 917.896l-11.98 2.088 7.578-10.78 4.401 8.692" transform="matrix(1.00754 0 0 1.00735 -229.19 -679.021)"/><path fill="#f9d90f" d="M22 236.015l12.297.889c.276 10.419 1.539 50.18 49.022 52.338l-1.478 14.466c-57.8.6-62.19-48.769-59.842-67.693"/><path fill="none" stroke="#000" stroke-width=".271" d="M249.31 908.358l12.205.882c.274 10.343 1.528 49.813 48.656 51.956l-1.467 14.36c-57.367.596-61.726-48.413-59.394-67.198zM294.107 978.496l14.384-3.141" transform="matrix(1.00754 0 0 1.00735 -229.19 -679.021)"/><path fill="#ff0" d="M197.52 221.285l-12.708 4.023 4.03 20.623 12.1 1.943s1.945-10.853-3.422-26.6"/><path fill="#f9d90f" stroke="#000" stroke-width=".271" d="M423.518 893.735l-12.613 3.994 3.999 20.472 12.01 1.93s1.93-10.775-3.396-26.407v.012z" transform="matrix(1.00754 0 0 1.00735 -229.19 -679.021)"/><path fill="#7e7e7e" d="M188.842 245.716l12.1 2.17-7.74-10.865-4.36 8.695"/><path fill="#f9b60f" stroke="#000" stroke-width=".271" d="M414.904 917.987l12.01 2.155-7.682-10.786-4.328 8.631" transform="matrix(1.00754 0 0 1.00735 -229.19 -679.021)"/><path fill="#f9d90f" d="M205.29 236.18l-12.315.841c-.178 10.406-1.085 50.185-48.569 52.294l1.613 14.454c57.788.668 61.762-48.677 59.272-67.594"/><path fill="none" stroke="#000" stroke-width=".271" d="M431.23 908.522l-12.223.834c-.177 10.33-1.078 49.818-48.206 51.913l1.601 14.348c57.355.663 61.3-48.322 58.828-67.1v.004zM387.036 978.575l-14.42-3.159" transform="matrix(1.00754 0 0 1.00735 -229.19 -679.021)"/><path fill="#012a87" d="M106.393 305.203c-.325.209-.767.265-1.276.24l-2.294-.117.196-2.863 2.276.122c.447.03.803.117 1.024.251.46.24.662.682.62 1.294-.031.527-.215.871-.553 1.073m-3.851 4.508l.227-3.49 2.674.185c.865.067 1.509-.16 1.944-.602.454-.43.687-.993.718-1.63.055-.743-.135-1.35-.577-1.798-.423-.429-1.024-.656-1.779-.729l-3.82-.239-.528 8.216 1.135.075M110.851 302.836l2.797.03c.405.038.724.087.957.197.43.202.632.607.632 1.196 0 .552-.16.92-.473 1.141-.3.202-.736.294-1.257.294l-2.686-.03.024-2.828m-.043 7.28l.025-3.509 2.625.038c.466 0 .81.036 1.049.153.386.177.576.552.595 1.067l.067 1.38c.019.33.025.533.043.668.037.098.055.202.104.276h1.41l-.024-.178c-.159-.086-.288-.251-.343-.503-.05-.16-.074-.399-.086-.7l-.024-1.097c-.019-.496-.105-.84-.295-1.03a1.47 1.47 0 00-.742-.527c.393-.208.687-.447.902-.742.202-.325.306-.736.306-1.238 0-.945-.386-1.59-1.171-1.938-.423-.19-.963-.289-1.6-.3l-3.945-.038-.03 8.242h1.134M119.555 308.392c-.503-.613-.773-1.38-.835-2.287-.055-1.14.166-2.011.687-2.6.528-.638 1.209-.944 2.098-.993.895-.05 1.631.239 2.177.803.558.552.877 1.319.932 2.275.031.92-.128 1.735-.552 2.452-.417.73-1.11 1.142-2.134 1.166-1.067.055-1.864-.196-2.373-.816m-1.35-5.188c-.527.816-.742 1.76-.687 2.901.08 1.232.46 2.25 1.178 3.017.797.767 1.852 1.152 3.152 1.079 1.393-.061 2.441-.589 3.153-1.557.576-.877.852-1.895.791-3.153-.08-1.122-.405-2.035-1.012-2.716-.767-.914-1.889-1.318-3.41-1.257-1.435.092-2.49.62-3.17 1.686M156.936 291.35c.792-.134 1.479-.097 2.104.117.92.289 1.54.97 1.926 2.012l-1.135.16c-.245-.564-.595-.95-1.067-1.166-.46-.202-1.036-.251-1.699-.153a2.645 2.645 0 00-1.827 1.122c-.43.662-.559 1.546-.368 2.673.16.933.503 1.724 1.067 2.25.521.54 1.288.73 2.287.59.749-.123 1.35-.423 1.773-.939.442-.49.57-1.232.423-2.189l-2.643.406-.135-.908 3.68-.565.717 4.36-.73.11-.453-1.005c-.307.454-.614.804-.884 1.006-.453.356-1.067.583-1.833.693-.994.153-1.902-.025-2.724-.552-.901-.669-1.484-1.662-1.705-3.041-.239-1.355-.024-2.515.601-3.429.595-.882 1.46-1.397 2.625-1.563M165.26 290.713l2.637-.957c.361-.134.674-.177.944-.146.485.036.84.324 1.043.9.19.491.19.92-.025 1.222-.227.312-.582.54-1.098.729l-2.477.889-1.025-2.637m2.638 6.813l-1.288-3.305 2.453-.883c.46-.148.779-.227 1.018-.202.435.054.767.319.987.821l.559 1.258c.122.312.22.502.3.588.037.11.117.178.178.251l1.33-.49-.073-.178c-.196 0-.386-.11-.527-.325-.104-.153-.203-.374-.344-.631l-.435-1.031c-.196-.448-.399-.723-.632-.89a2.105 2.105 0 00-.877-.238c.27-.313.466-.626.54-.994.08-.373.043-.79-.135-1.256-.337-.877-.957-1.355-1.828-1.417-.46-.037-.987.062-1.594.276l-3.705 1.319 2.993 7.75 1.086-.399M177.544 293.442l-4.704-6.862 5.164-3.293.57.829-4.231 2.703 1.447 2.097 3.907-2.514.533.804-3.906 2.514 1.594 2.312 4.306-2.754.57.81-5.256 3.354M181.66 281.313l1.349-1.484c.625-.663 1.288-.963 2.012-.877.723.061 1.46.441 2.244 1.128.215.166.405.38.601.62.344.447.546.84.675 1.232.11.491.086.939-.086 1.368-.104.214-.288.465-.564.766l-1.356 1.472-4.875-4.237m7.126 3.23c.957-1.053 1.166-2.188.608-3.47a5.86 5.86 0 00-1.51-1.956c-.864-.767-1.766-1.159-2.716-1.232-1.055-.08-1.95.3-2.73 1.152l-2.3 2.465 6.342 5.532 2.3-2.477M193.699 278.136l-7.299-4.286.595-.944 7.311 4.262-.6.98M196.563 273.157l-7.881-3.152 2.325-5.543.956.367-1.895 4.569 2.374.933 1.772-4.208.908.375-1.754 4.2 2.656 1.08 1.944-4.624.957.361-2.368 5.642M200.182 263.481l-8.292-1.833.276-1.282 7.66-2.588-6.728-1.484.245-1.005 8.292 1.783-.263 1.245-7.673 2.644 6.728 1.453-.239 1.067M199.526 252.952l.104-1.043c.478.013.883-.061 1.19-.226.6-.326.95-.944 1.042-1.859.037-.428.019-.803-.08-1.159-.177-.686-.564-1.067-1.183-1.128-.46-.05-.791.061-1.03.313-.215.289-.442.705-.614 1.294l-.38 1.086c-.245.71-.472 1.2-.718 1.477-.392.515-.944.693-1.65.644-.754-.08-1.367-.38-1.803-.956-.447-.528-.631-1.282-.521-2.215.074-.851.356-1.569.859-2.145.466-.528 1.19-.78 2.116-.682l-.086 1.043c-.454 0-.816.08-1.08.264-.478.263-.742.821-.821 1.637-.068.675.024 1.128.282 1.472.257.288.582.472.963.502.404.037.723-.092.944-.404.16-.215.35-.681.607-1.435l.374-1.14c.184-.528.405-.933.663-1.221.46-.478 1.06-.68 1.815-.625.92.098 1.576.478 1.914 1.177.331.706.46 1.484.38 2.367-.104 1-.43 1.785-1.03 2.312-.601.54-1.35.723-2.257.65M27.63 252.45l.19 1.029c-.46.092-.828.277-1.098.516-.484.453-.65 1.134-.484 2.06.073.392.214.778.392 1.085.368.626.846.877 1.454.779.447-.08.742-.251.883-.57.135-.313.233-.792.264-1.404l.055-1.16c.037-.717.116-1.28.276-1.594.251-.564.723-.914 1.429-1.03.754-.135 1.417.036 1.987.466.577.398.957 1.091 1.098 2.01.178.842.098 1.596-.233 2.276-.32.663-.932 1.067-1.87 1.239l-.185-1.042c.436-.16.76-.314.975-.528.368-.411.479-1.005.338-1.82-.11-.664-.338-1.093-.681-1.307-.337-.252-.675-.35-1.043-.288-.41.061-.68.288-.81.656-.08.245-.14.754-.196 1.533l-.055 1.201c-.03.564-.116 1.031-.307 1.35-.3.588-.81.95-1.551 1.066-.939.16-1.662-.055-2.178-.656-.527-.589-.852-1.294-1.018-2.17-.184-1.043-.049-1.852.368-2.502.424-.668 1.092-1.055 2-1.183M27.108 263.322l8.109-2.441 1.889 5.708-.988.313-1.545-4.69-2.466.742 1.43 4.334-.945.3-1.417-4.346-2.748.821 1.57 4.795-.969.277-1.92-5.813M30.703 273.218l7.458-3.954.797 1.391-5.128 5.42 7.49-1.28.772 1.38-7.44 3.93-.527-.914 4.391-2.311c.16-.093.405-.228.76-.417.35-.16.743-.375 1.135-.577l-7.458 1.269-.545-.969 5.09-5.402-.245.123c-.16.091-.436.227-.81.44a6.133 6.133 0 01-.822.442l-4.379 2.349-.54-.931M44.6 284.2c-.374-.084-.742-.3-1.104-.674l-1.576-1.625 2.122-1.944 1.589 1.62c.306.3.503.594.607.846.147.484 0 .926-.448 1.342-.405.374-.81.528-1.19.436m-5.992.754l2.6-2.385 1.847 1.87c.595.607 1.202.883 1.84.871a2.595 2.595 0 001.699-.742c.552-.49.815-1.067.815-1.686-.006-.602-.282-1.165-.79-1.692l-2.65-2.705-6.17 5.666.797.803M46.048 291.578l4.471-7.01 5.287 3.214-.552.835-4.343-2.6-1.343 2.121 3.993 2.422-.515.804-3.999-2.41-1.521 2.372 4.397 2.644-.527.828-5.348-3.22M59.283 290.223l2.687.852c.38.116.656.264.84.43.343.325.435.79.233 1.354-.166.49-.417.81-.81.945-.35.061-.79.061-1.306-.098l-2.533-.81.89-2.673m-2.319 6.886l1.116-3.342 2.503.815c.447.118.772.277.932.442.306.276.398.687.245 1.196l-.374 1.33c-.086.325-.129.54-.166.638 0 .105 0 .215.019.288l1.319.43.08-.19c-.142-.11-.222-.313-.215-.564.03-.154.073-.399.159-.681l.319-1.067c.129-.466.178-.816.061-1.067a1.683 1.683 0 00-.54-.73c.418-.074.78-.202 1.086-.43.288-.25.534-.6.68-1.09.301-.89.136-1.632-.527-2.196-.33-.294-.803-.546-1.422-.779l-3.754-1.158-2.625 7.818 1.098.337"/><path fill="#bc715f" d="M68.354 154.826c.97-2.337 9.948-8.708 39.412-5.918 0 0 4.98 3.042 7.906 2.65 1.668-.215-.981.104-3.158-1.705-2.22-1.809-2.693-5.519 2.38-5.42 5.047.128 23.943 1.195 24.3 2.893.33 1.717-9.992 2.435-13.831 2.336-3.858-.103-3.41 1.847.429 1.7 11.997-.43 25.091-4.655 38.921 5.126 1.65 1.19-4.17 1.38-8.672-.534 0 0-12.199.632-17.474-.232 0 0-4.054 3.298-9.334 2.974.687 1.71-1.95 8.094-18.553 3.292-2.742.84-12.733 2.514-11.641-.453-2.631 0-7.243.846-7.93-.65-.663-1.472 8.12-3.698 9.66-5.292 0 0-18.578.178-22.099-1.105 0 0-10.96 2.46-10.316.326"/><path fill="#008830" d="M74.31 180.838c.398-.539.558-1.508 1.404-1.483 1.84.49 3.091 3.856 5.355 1.673.803-.178 1.11.914 1.772 1.043.423 1.87 1.926-.38 3.048-.252 2.398-1.067 5.367-1.318 8.206-.79.086 1.833-1.349 3.856-3.152 4.899.037 1.846 1.711 3.03 1.68 4.887-.288.694-.049 1.784-1.097 2.011-1.331-.239-2.644-.38-3.748-1.122-.135-.135-.245-.398-.527-.313-.135.62.834 1.234 1.214 1.865-.668 1.14-1.778.098-2.71.11-.277.656-.013 1.484-.688 1.907-1.177-.037-1.416-1.318-2.14-1.956-.742.803.521 1.281.7 1.92-.455 2.415-.393 4.776-2.81 6.358l-1.62.804c-.44-1.214-.165-3.054-.46-4.324-.956 1.558-1.704 2.92-3.109 4.238-1.643-.54-2.6-2.478-2.962-4.084-.687-1.87-.294-4.109 1.184-5.464-.503-.981-2.227-.754-2.472-2.152-2.582-1.68-4.011 2.944-5.68.54-.539-2.244.105-5.035 1.73-6.71-.362-.918-1.564-.68-2.275-1.207-1.625-1.38-3.968-2.839-3.852-5.33 4.447-1.679 9.764-.446 12.996 2.932"/><path fill="#f9d90f" d="M76.616 180.587c-.104 2.035 1.374.552 2.472 1.784-.86-.337-1.485 1.484-2.325.442l-.527.503c.306.698.901.79.282 1.557-.92.35-1.104-.803-1.534-1.257-.073-.202.141-.583-.196-.718-.521.442-1.067.601-1.785.528-.196-.393-.576-.907-.19-1.208.706-.95 1.797.343 2.33-.325.087-.588-.428-1.306.24-1.711.46.08 1.049-.171 1.239.405M82.117 182.255c.056.393-.202.944.313 1.22.669-.362 1.38-.086 1.766.577-.006.355.105.821-.361.993l-1.043-.196c.074-.203-.258-.331-.386-.527-.46-.141-.73.232-1.074.459.258.392.853.607.712 1.11-.614.613-.914-.527-1.589-.24-.46-.176.166-1.133-.558-1.421-.859 0-.288 1.41-1.386.858-.393-.442-.779-1.036-.356-1.533.46-.307 1.24-.227 1.632.171.668-.741.736-3.605 2.336-1.471M75.267 185.21c.447.645-.099 1.521.472 2.238.895-1.673 1.76.362 2.827.203.325.398.11.95.172 1.404-1.319.35-2.907.767-4.073-.288l-.325.374c.693.644 1.35 1.374.798 2.453-.988.214-2.515.239-3.012-.779-.257-.84.601-1.447-.306-2.122-.657.816-.626 1.908-1.994 1.165-.846-.466-1.097-1.428-.674-2.238.883-1.392 2.428.044 3.385-.638.135-1.195-.306-2.238.791-2.9.939-.166 1.374.54 1.945 1.128"/><path fill="#fff" d="M79.008 185.94c-.442 2.036-1.975-.104-2.693-.19.957-1.698 1.558.552 2.693.19M83.786 188.154c-1.068.3-.902-1.03-1.43-1.552l.411-.374c.387.466.681 1.307 1.019 1.926"/><path fill="#f9d90f" d="M82.338 187.749c.307.705-.693 1.27.16 1.784.27-.226.6-.54.742-.668.73.215 1.576.344 2.085 1.067.546 1.497-.969 1.46-1.828 1.876l-.852-.036c.202-.417-.368-.595-.51-.883-.392-.098-.717.024-.938.355.19.951 1.35 1.693.154 2.539-1.012-.067-2.582.325-2.49-1.073-.38-.791 1.03-2.012-.479-2.06-.497 1.067-1.042 2.097-2.337 1.085l.16-1.52c1.239.036 2.705.25 3.263-1.135.356-1.005-.62-1.931.251-2.729 1.264-.288 1.975.558 2.62 1.398"/><path d="M81.43 190.036c.32.755-.54.804-.944 1.178-.546.043-.926-.172-1.257-.54-.246-.914.435-1.006.956-1.367.608-.252.859.453 1.245.73"/><path fill="#fff" d="M80.688 190.527c-.135.178-.325.123-.527.171l-.19-.913c.404.037.932.165.717.742"/></svg>