<svg xmlns="http://www.w3.org/2000/svg" xmlns:xlink="http://www.w3.org/1999/xlink" width="500" height="500" viewBox="0 0 2500 2500"><path fill="#fff" fill-rule="evenodd" d="M0 0h2500v2500H0z" font-size="12"/><path fill="#fff" stroke="#000" stroke-linecap="round" stroke-linejoin="round" stroke-width="3.205" d="M1944.256 678.066s-4.8-17.081-8.87-24.893c-2.432-4.671-5.831-8.791-9.155-12.876-3.983-4.894-8.002-9.87-12.876-13.877-4.417-3.63-9.536-6.346-14.593-9.013-5.432-2.866-10.891-5.956-16.844-7.472-6.14-1.563-18.944-1.541-18.944-1.541s-12.787-.026-18.943 1.541c-5.953 1.515-11.412 4.606-16.845 7.472-5.056 2.667-10.176 5.382-14.592 9.013-4.875 4.007-8.893 8.983-12.876 13.877-3.324 4.085-6.723 8.205-9.156 12.876-4.07 7.812-8.87 24.893-8.87 24.893l81.282-3.148z"/><path fill="#ce9d09" stroke="#000" stroke-linecap="round" stroke-linejoin="round" stroke-width="3.205" d="M1870.293 608.25c3.894.288 8.632 4.268 11.588 1.718 1.336-1.153.675-3.664 0-5.294-1.574-3.8-8.413-4.625-8.727-8.726-.27-3.538 5.191-5.212 6.295-8.584.549-1.677.68-3.666 0-5.294-2.752-6.577-14.493-6.95-16.527-13.68-.901-2.982 5.932-6.493 6.8-6.869 4.34-1.879 9.703 2.659 13.987.8 2.9-1.259 6.126-4.124 6.07-7.284-.06-3.439-3.726-6.317-6.879-7.689-6.108-2.657-16.22 5.905-19.978.405-3.459-5.062 8.643-11.08 7.03-16.995-.767-2.81-6.978-5.26-6.978-5.26s-6.202 2.438-6.977 5.26c-1.624 5.912 10.488 11.933 7.03 16.995-3.758 5.5-13.87-3.062-19.979-.405-3.153 1.372-6.818 4.25-6.879 7.689-.056 3.16 3.171 6.025 6.07 7.283 4.284 1.86 9.648-2.678 13.988-.799.867.376 7.7 3.887 6.8 6.869-2.034 6.73-13.776 7.103-16.527 13.68-.681 1.628-.55 3.617 0 5.294 1.103 3.372 6.565 5.046 6.294 8.584-.313 4.101-7.152 4.926-8.726 8.726-.676 1.63-1.336 4.141 0 5.294 2.956 2.55 7.693-1.43 11.588-1.717 2.433-.18 7.318 0 7.318 0s4.869-.18 7.319 0z"/><path fill="#ffe000" fill-rule="evenodd" d="M0 0h1250v2499.999H0z" font-size="12"/><defs fill-rule="evenodd" transform="matrix(26.40912 0 0 27.77001 -38568.779 -6880.025)"><path id="a" d="M529.124 342.161v98.06h-59.365v-97.293z"/></defs><path fill="#fff" d="M1796.285 806.822l-46.067 9.156-16.881-50.93 12.303-14.02 53.506-24.321 63.828-4.578 63.829 4.578 53.505 24.32 12.304 14.02-16.882 50.931-46.066-9.156-66.69-11.159z"/><path fill="#ce9d09" stroke="#000" stroke-linecap="round" stroke-linejoin="round" stroke-width="3.205" d="M1842.037 729.033c-11.977.723-24.01 1.474-35.811 3.642-12.293 2.258-24.485 5.397-36.215 9.711-11.113 4.087-22.87 22.644-32.096 15.222-1.983-1.595.753-5.084 1.717-7.439 1.865-4.556 4.429-8.932 7.725-12.59 2.414-2.677 7.976-3.026 8.584-6.58.442-2.582-3.474-4.093-4.292-6.581-1.044-3.177-1.539-6.814-.572-10.015 1.24-4.108 6.525-6.18 7.725-10.3 1.043-3.582-2.547-7.833-.858-11.159 2.133-4.2 11.337-2.777 12.017-7.44.332-2.272-3.825-2.98-4.578-5.15-.532-1.534.31-3.24.286-4.864-.03-2.201.392-4.601-.572-6.58-.857-1.76-3.702-2.14-4.292-4.006-.558-1.766-.172-4.134 1.145-5.437 1.036-1.026 3.632.443 4.291-.858 1.332-2.626-2.538-5.314-3.72-8.012-1.406-3.212-3.206-6.313-4.005-9.728-.631-2.7-2.958-6.886-.572-8.297 2.732-1.617 5.477 3.238 8.011 5.15 3.346 2.523 7.11 4.817 9.443 8.297 1.683 2.512.742 6.51 2.948 8.578 2.647 2.481 7.758.49 10.5 2.868 2.356 2.042 4.44 5.55 3.719 8.583-.69 2.899-7.531 2.818-6.867 5.723.79 3.45 6.813 3.179 10.3 2.575 2.034-.352 3.463-2.247 5.15-3.434 1.312-.921 2.39-2.232 3.864-2.86 1.69-.723 5.436-.93 5.436-.93l-2.146-.501s-3.172-2.528-3.505-4.364c-.314-1.728.437-3.732 1.645-5.007 1.355-1.43 3.538-2.16 5.508-2.146 1.647.012 3.446.663 4.578 1.86 1.16 1.227 1.824 3.113 1.645 4.792-.156 1.468-1.127 2.88-2.289 3.792-1.258.986-4.578 1.43-4.578 1.43l2.29.644 6.15 8.44 26.54-1.453s3.273-3.34 2.63-5.16c-.69-1.95-2.503-2.667-5.665-2.529-8.581.377-10.34-6.828-10.015-12.038.27-4.333 5.484-7.274 9.509-8.902 3.877-1.568 10.787 3.593 12.544-.202 1.54-3.327-5.818-5.021-6.98-8.498-.503-1.504-.508-3.336.202-4.754 1.813-3.622 5.713-6.03 9.408-7.688 1.557-.7 5.055-.81 5.055-.81s3.482.105 5.055.81c3.697 1.655 7.596 4.066 9.408 7.688.71 1.418.706 3.25.203 4.754-1.162 3.477-8.52 5.171-6.98 8.498 1.756 3.795 8.667-1.366 12.544.202 4.025 1.628 9.239 4.569 9.509 8.902.324 5.21-1.434 12.415-10.015 12.038-3.162-.138-4.976.58-5.665 2.53-.643 1.82 2.63 5.159 2.63 5.159l26.539 1.454 6.151-8.441 2.29-.644s-3.32-.444-4.579-1.43c-1.161-.912-2.132-2.324-2.289-3.792-.179-1.68.485-3.565 1.646-4.792 1.132-1.197 2.93-1.848 4.578-1.86 1.97-.014 4.152.715 5.507 2.146 1.209 1.275 1.96 3.279 1.646 5.007-.334 1.836-3.505 4.364-3.505 4.364l-2.146.5s3.745.208 5.436.93c1.474.63 2.552 1.94 3.863 2.861 1.688 1.187 3.117 3.082 5.15 3.434 3.487.604 9.511.875 10.3-2.575.665-2.905-6.177-2.824-6.866-5.723-.722-3.033 1.363-6.54 3.72-8.583 2.74-2.377 7.852-.387 10.499-2.868 2.205-2.068 1.265-6.066 2.948-8.578 2.333-3.48 6.097-5.774 9.442-8.297 2.535-1.912 5.28-6.767 8.012-5.15 2.386 1.411.059 5.598-.573 8.297-.798 3.415-2.599 6.516-4.005 9.728-1.181 2.698-5.052 5.386-3.72 8.012.66 1.301 3.255-.168 4.292.858 1.316 1.303 1.703 3.671 1.144 5.437-.59 1.866-3.434 2.246-4.291 4.006-.965 1.979-.542 4.379-.573 6.58-.023 1.624.819 3.33.286 4.865-.752 2.17-4.91 2.877-4.578 5.15.68 4.662 9.885 3.238 12.018 7.44 1.689 3.325-1.902 7.576-.859 11.158 1.2 4.12 6.485 6.192 7.726 10.3.966 3.201.471 6.838-.573 10.015-.817 2.488-4.733 4-4.291 6.58.607 3.555 6.17 3.904 8.583 6.582 3.297 3.657 5.86 8.033 7.726 12.59.964 2.354 3.7 5.843 1.717 7.438-9.227 7.422-20.983-11.135-32.096-15.222-11.73-4.314-23.923-7.453-36.215-9.711-11.801-2.168-23.835-2.919-35.811-3.642-6.968-.42-20.938-.405-20.938-.405s-13.952-.017-20.937.405zM1856.227 561.521c-2.642-5.6 1.975-9.75 6.747-13.857 4.773 4.107 9.39 8.256 6.748 13.857"/><path fill="none" stroke="#000" stroke-linecap="round" stroke-linejoin="round" stroke-width="3.205" d="M1785.74 670.894s-6.864.513-9.252-1.501c-2.465-2.079-3.915-6.02-3.14-9.15.612-2.463 5.55-5.212 5.55-5.212"/><path fill="#ce9d09" stroke="#000" stroke-linecap="round" stroke-linejoin="round" stroke-width="3.205" d="M1769.97 685.433s12.543-3.188 18.875-4.506c6.924-1.442 13.873-2.82 20.887-3.72 8.068-1.035 16.2-1.555 24.325-1.928 9.63-.443 28.917-.367 28.917-.367s19.27-.076 28.917.367c8.125.373 16.258.893 24.325 1.928 7.014.9 13.964 2.278 20.887 3.72 6.333 1.318 18.875 4.506 18.875 4.506"/><path fill="#fbe704" stroke="#000" stroke-linecap="round" stroke-linejoin="round" stroke-width="3.205" d="M1764.929 668.752l11.516.605M1765.927 658.967l7.515.982M1795.88 674.316l2.68 4.655"/><path fill="#ce9d09" stroke="#000" stroke-linecap="round" stroke-linejoin="round" stroke-width="3.205" d="M1758.518 704.481s11.295-2.82 16.955-4.178c8.081-1.938 16.1-4.195 24.279-5.665 9.262-1.663 18.62-2.884 28.006-3.554 11.71-.835 35.216-.572 35.216-.572s23.488-.264 35.216.572c9.387.67 18.745 1.89 28.007 3.554 8.18 1.47 16.197 3.727 24.278 5.665 5.66 1.358 16.955 4.178 16.955 4.178M1855.043 765.524l-8.573-7.133s-13.436 5.727-17.989 11.106c-1.27 1.501-2.352 3.5-2.225 5.463.448 6.962 10.318 18.209 10.318 18.209l19.928-8.283"/><path fill="#ce9d09" stroke="#000" stroke-linejoin="round" stroke-width="3.205" d="M1848.916 955.026c-8.7.096-17.44-.636-26.1.202-13.113 1.27-26.078 4.034-38.845 7.284-6.263 1.594-18.445 5.97-18.445 5.97l-1.144-10.013 3.862-5.15-9.728-20.316-10.3-9.299.143-19.885s-4.967 3.107-7.583 2.575c-2.945-.6-5.496-3.265-6.724-6.009-.974-2.176.65-4.859 0-7.153-.594-2.101-2.208-3.772-3.433-5.58a75.724 75.724 0 0 0-4.149-5.579c-1.714-2.088-5.504-3.308-5.436-6.009.049-1.955 4.148-4.148 4.148-4.148l5.437-1.145 11.302-19.6-.843-21.382s-4.636-3.241-5.867-5.665c-.894-1.76-.81-5.867-.81-5.867l11.938-15.579s-3.397.122-4.856-.607c-2.603-1.3-6.07-6.272-6.07-6.272s-6.667 4.611-10.318 4.046c-1.8-.278-3.295-1.886-4.249-3.439-1.01-1.646-1.644-3.782-1.214-5.665.343-1.5 1.658-2.649 2.833-3.642 2.281-1.928 6.395-1.662 7.89-4.249 1.182-2.044.45-4.811-.202-7.08-1.36-4.736-4.747-8.651-7.486-12.747-1.74-2.601-5.294-4.379-5.665-7.486-.2-1.68 2.023-4.653 2.023-4.653s5.225-.127 7.689.607c4.077 1.214 8.307 3 11.201 6.117 2.406 2.592 3.113 6.361 4.377 9.664.961 2.51 2.428 7.688 2.428 7.688s6.04-.01 8.7 1.214c3.516 1.617 7.11 4.16 8.7 7.688 1.247 2.767 1.073 6.266 0 9.105-1.082 2.86-3.488 5.24-6.07 6.878-2.846 1.808-9.711 2.833-9.711 2.833s6.017 6.006 9.914 7.284c2.05.672 4.413.64 6.474 0 2.5-.777 4.434-2.81 6.474-4.452 4.609-3.71 9.225-7.541 12.949-12.139 2.132-2.633 5.26-8.7 5.26-8.7s-5.348-2.823-7.284-5.058c-1.283-1.482-2.5-3.304-2.63-5.26-.15-2.277.62-4.853 2.226-6.474 1.56-1.577 4.053-2.218 6.272-2.226 1.855-.006 3.848.617 5.26 1.821 1.63 1.39 2.779 3.538 3.035 5.665.219 1.814-.51 3.696-1.367 5.31-1.3 2.446-5.512 6.222-5.512 6.222s12.91 10.142 20.637 12.14c7.577 1.958 15.962 1.604 23.47-.607 1.883-.555 5.031-3.065 5.031-3.065 8.826-5.621 17.652-8.707 26.426-7.86 8.774-.847 17.6 2.239 26.427 7.86 0 0 3.148 2.51 5.031 3.065 7.507 2.21 15.893 2.565 23.47.607 7.727-1.998 20.636-12.14 20.636-12.14s-4.211-3.776-5.511-6.223c-.858-1.613-1.586-3.495-1.367-5.309.256-2.127 1.404-4.275 3.034-5.665 1.412-1.204 3.405-1.827 5.26-1.82 2.22.007 4.712.648 6.273 2.225 1.605 1.621 2.376 4.197 2.225 6.474-.13 1.956-1.347 3.778-2.63 5.26-1.935 2.235-7.284 5.058-7.284 5.058s3.128 6.067 5.26 8.7c3.724 4.598 8.34 8.43 12.95 12.14 2.04 1.642 3.973 3.674 6.474 4.45 2.06.64 4.423.673 6.474 0 3.896-1.277 9.914-7.283 9.914-7.283s-6.865-1.025-9.712-2.833c-2.581-1.639-4.988-4.018-6.07-6.878-1.073-2.84-1.247-6.338 0-9.105 1.591-3.528 5.185-6.07 8.7-7.688 2.66-1.224 8.7-1.214 8.7-1.214s1.467-5.178 2.428-7.688c1.264-3.303 1.972-7.072 4.378-9.664 2.894-3.118 7.123-4.903 11.2-6.117 2.465-.734 7.69-.607 7.69-.607s2.223 2.974 2.022 4.653c-.37 3.107-3.925 4.885-5.665 7.486-2.739 4.096-6.125 8.01-7.486 12.746-.652 2.27-1.384 5.037-.202 7.081 1.495 2.587 5.61 2.32 7.89 4.25 1.175.992 2.49 2.142 2.833 3.641.431 1.883-.203 4.02-1.214 5.665-.953 1.553-2.448 3.161-4.249 3.44-3.65.564-10.318-4.047-10.318-4.047s-3.467 4.972-6.07 6.272c-1.459.729-4.855.607-4.855.607l11.937 15.579s.085 4.107-.81 5.867c-1.23 2.424-5.867 5.665-5.867 5.665l-.842 21.382 11.302 19.6 5.436 1.145s4.1 2.193 4.149 4.148c.067 2.7-3.723 3.921-5.436 6.009a75.724 75.724 0 0 0-4.15 5.58c-1.224 1.807-2.838 3.478-3.433 5.579-.65 2.294.974 4.977 0 7.153-1.228 2.744-3.778 5.409-6.724 6.009-2.615.532-7.582-2.575-7.582-2.575l.143 19.885-10.3 9.3-9.729 20.314 3.863 5.15-1.145 10.015s-12.181-4.377-18.444-5.971c-12.767-3.25-25.733-6.014-38.846-7.284-8.66-.838-17.4-.106-26.1-.202-4.686-.052-14.058-.202-14.058-.202s-9.354.15-14.058.202z"/><path fill="#ce9d09" stroke="#000" stroke-linecap="round" stroke-linejoin="round" stroke-width="3.205" d="M1744.905 774.986s-4.134 3.595-5.647 5.841c-1.442 2.141-2.578 4.561-3.136 7.081-.61 2.753-.162 8.456-.162 8.456M1741.079 829.789s10.886-5.061 16.59-6.879c10.413-3.319 21.235-5.216 31.967-7.283 12.467-2.403 25.26-3.052 37.622-5.944 3.892-.91 7.53-2.769 11.445-3.576 5.4-1.114 11.063-2.882 16.452-1.717 2.952.638 7.82 4.578 7.82 4.578s4.85-3.941 7.819-4.578c5.39-1.157 11.052.603 16.452 1.717 3.914.807 7.553 2.666 11.445 3.576 12.362 2.892 25.155 3.541 37.622 5.944 10.731 2.067 21.554 3.964 31.967 7.283 5.704 1.818 16.59 6.879 16.59 6.879"/><path fill="none" stroke="#000" stroke-linecap="round" stroke-linejoin="round" stroke-width="3.205" d="M1741.784 851.409s17.56-5.919 26.406-8.671c9.128-2.841 18.173-6.063 27.515-8.093 11.184-2.43 22.611-3.63 33.99-4.856 11.059-1.192 33.28-2.428 33.28-2.428s22.203 1.235 33.278 2.428c11.38 1.226 22.806 2.425 33.99 4.856 9.343 2.03 18.387 5.252 27.516 8.093 8.846 2.752 26.405 8.67 26.405 8.67M1847.124 867.078s-5.055.946-7.11 2.366c-3.077 2.125-5.783 5.193-7.082 8.7-.89 2.404-1.242 5.345-.202 7.688 1.514 3.41 5.156 5.625 8.498 7.284 2.001.993 4.342 1.743 6.553 1.417 2.865-.423 7.6-4.21 7.6-4.21"/><path fill="#ce9d09" stroke="#000" stroke-linecap="round" stroke-linejoin="round" stroke-width="3.205" d="M1737.854 874.924l5.652 11.92c-5.8.17-7.913 3.108-9.454 6.474M1748.659 890.589s5.16-5.396 8.605-6.072c2.207-.433 4.742.215 6.576 1.517 2.372 1.685 3.955 4.56 4.653 7.385.625 2.528.353 5.368-.607 7.79-.813 2.05-2.1 4.337-4.148 5.159-4.8 1.925-15.383-2.024-15.383-2.024"/><path fill="#ce9d09" stroke="#000" stroke-linecap="round" stroke-linejoin="round" stroke-width="3.205" d="M1743.084 885.993l5.581 4.29-.31 14.06"/><path fill="none" stroke="#000" stroke-linecap="round" stroke-linejoin="round" stroke-width="3.205" d="M1847.832 894.437s-2.952 5.63-5.624 6.95c-7.87 3.887-17.823 2.904-26.324.715-5.196-1.338-12.797-2.9-13.877-8.155-.405-1.971 2.866-2.981 3.577-4.864.575-1.523.934-3.317.429-4.864-.786-2.41-2.711-4.65-5.007-5.723-1.945-.908-4.397-.808-6.438-.143-1.94.633-3.87 1.937-4.864 3.72-1.168 2.093-1.443 4.87-.716 7.153.75 2.35 4.226 3.196 4.865 5.58.64 2.394 0 5.273-1.431 7.296-2.878 4.065-8.156 5.99-12.876 7.582-3.048 1.03-6.592 2.326-9.585 1.145-2.229-.88-4.63-5.5-4.63-5.5"/><path fill="#fbe704" stroke="#000" stroke-linecap="round" stroke-linejoin="round" stroke-width="3.205" d="M1793.729 894.664l8.447-.946"/><path fill="#fff" stroke="#000" stroke-linejoin="round" stroke-width="3.205" d="M1877.017 1000.815c21.737-1.626 43.599-4.126 64.664-9.728 5.983-1.591 12.751-2.538 17.31-6.724 1.996-1.832 3.292-4.603 3.577-7.296.312-2.938-.326-6.271-2.144-8.6-7.481-9.584-20.505-13.794-32.19-17.152-20.96-6.022-65.26-4.578-65.26-4.578s-44.283-1.448-65.259 4.578c-11.685 3.358-24.71 7.568-32.19 17.152-1.819 2.329-2.457 5.662-2.145 8.6.286 2.693 1.582 5.464 3.577 7.296 4.56 4.186 11.328 5.133 17.31 6.724 21.066 5.602 42.928 8.102 64.665 9.728 4.668.35 14.042 0 14.042 0s9.358.35 14.043 0z"/><path fill="#fbe704" stroke="#000" stroke-linecap="round" stroke-linejoin="round" stroke-width="3.205" d="M1873.158 595.4l-10.184.118-10.183-.117"/><path fill="none" stroke="#000" stroke-linecap="round" stroke-linejoin="round" stroke-width="3.205" d="M1940.209 670.894s6.863.513 9.252-1.501c2.464-2.079 3.915-6.02 3.139-9.15-.611-2.463-5.55-5.212-5.55-5.212"/><path fill="#fbe704" stroke="#000" stroke-linecap="round" stroke-linejoin="round" stroke-width="3.205" d="M1961.02 668.752l-11.517.605M1960.022 658.967l-7.515.982M1930.07 674.316l-2.68 4.655"/><path fill="none" stroke="#000" stroke-linecap="round" stroke-linejoin="round" stroke-width="3.205" d="M1970.008 730.999s-11.953-4.756-18.026-6.867c-5.1-1.773-10.206-3.582-15.451-4.864-6.397-1.565-12.932-2.539-19.456-3.434a376.605 376.605 0 0 0-28.308-2.784c-8.584-.523-25.793-.607-25.793-.607s-17.191.083-25.793.607a376.49 376.49 0 0 0-28.307 2.784c-6.524.895-13.06 1.87-19.456 3.434-5.245 1.282-10.35 3.091-15.451 4.864-6.074 2.11-18.026 6.867-18.026 6.867"/><path fill="#ce9d09" stroke="#000" stroke-linecap="round" stroke-linejoin="round" stroke-width="3.205" d="M1848.464 669.248l8.056-6.2 6.507.139-6.656-.143s-3.591-2.448-4.578-4.292c-.958-1.79-1.415-4.02-1.002-6.009.553-2.654 2.086-5.458 4.428-6.824 2.237-1.305 7.755-.472 7.755-.472s5.503-.841 7.755.472c2.343 1.365 3.876 4.17 4.428 6.824.414 1.988-.043 4.219-1.001 6.01-.987 1.843-4.578 4.29-4.578 4.29l-6.656.144 6.506-.14 8.057 6.2M1870.906 765.524l8.572-7.133s13.437 5.727 17.99 11.106c1.27 1.501 2.351 3.5 2.225 5.463-.449 6.962-10.319 18.209-10.319 18.209l-19.928-8.283"/><path fill="#ce9d09" stroke="#000" stroke-linecap="round" stroke-linejoin="round" stroke-width="3.205" d="M1856.806 785.278s-6.48-5.91-7.688-9.913c-.527-1.749-.45-3.85.405-5.463 1.168-2.206 5.867-4.653 5.867-4.653s-7.085-3.443-8.902-6.677c-1.029-1.831-1.158-4.245-.607-6.272.874-3.215 3.3-5.97 5.867-8.093 3.185-2.633 11.226-5.26 11.226-5.26s8.027 2.62 11.226 5.26c2.57 2.12 4.994 4.878 5.868 8.093.55 2.027.422 4.44-.607 6.272-1.817 3.234-8.902 6.677-8.902 6.677s4.699 2.447 5.867 4.653c.855 1.613.932 3.714.405 5.463-1.208 4.003-7.689 9.913-7.689 9.913l-6.168.405z"/><path fill="#fff" stroke="#000" stroke-linecap="round" stroke-linejoin="round" stroke-width="3.205" d="M1996.318 870.979s-5.236 4.18-8.284 3.94c-4.379-.341-7.063-5.255-10.873-7.438-4.85-2.78-10.01-4.993-15.165-7.154-7.124-2.985-14.366-5.727-21.745-8.011-9.304-2.88-18.688-5.764-28.327-7.153-9.73-1.402-19.662-1.809-29.47-1.145-6.596.447-19.532 3.434-19.532 3.434s5.515 2.236 8.041 3.783c2.91 1.783 6.555 3.225 8.093 6.272 1.307 2.59 1.358 6.04.202 8.7-1.331 3.067-4.39 5.415-7.486 6.676-2.734 1.115-8.85.405-8.85.405s7.024.266 9.457 2.428c1.676 1.489 2.523 4.032 2.428 6.272-.13 3.074-1.616 6.408-4.046 8.295-2.107 1.637-7.84 1.619-7.84 1.619s2.952.323 4.348-.066c1.92-.535 3.884-1.487 5.166-3.014 1.33-1.582 1.958-3.755 2.153-5.812.207-2.172.184-4.676-1.076-6.458-1.088-1.538-4.947-2.735-4.947-2.735s3.125-.793 4.516-1.57c2.182-1.218 5.813-4.736 5.813-4.736s2.975.065 4.305.646c2.947 1.287 5.704 3.383 7.534 6.027 1.847 2.668 3.545 6.055 3.014 9.257-.529 3.185-3.253 5.78-5.812 7.75-2.577 1.982-9.041 3.659-9.041 3.659s.23 2.18.86 3.013c2.12 2.797 5.59 4.562 8.966 5.521 5.226 1.484 11.089.828 16.299.024 5.266-.813 9.23-2.277 15.242-4.849 2.038-.872 3.838-5.431 3.838-5.431s-4.331-3.346-4.736-5.813c-.396-2.42.905-5.1 2.583-6.888 1.562-1.662 3.963-2.835 6.243-2.798 3.113.05 6.78 1.43 8.395 4.09 1.454 2.392.968 5.857-.215 8.395-1.052 2.258-5.597 4.951-5.597 4.951 1.164 4.731 2.789 7.153 4.52 9.041 6.315 3.604 12.63 5.621 18.944 7.534l3.66-2.368 2.583-4.52s-3.734-5.166-3.875-8.18c-.118-2.517 1.18-5.012 2.583-7.104 1.189-1.772 2.76-3.5 4.736-4.305 1.862-.759 4.088-.745 6.028-.215 2.957.807 7.749 4.95 7.749 4.95s4.74-3.79 6.458-6.242c1.715-2.446 3.66-8.18 3.66-8.18z"/><path fill="#ce9d09" stroke="#000" stroke-linecap="round" stroke-linejoin="round" stroke-width="3.205" d="M1981.044 774.986s4.134 3.595 5.647 5.841c1.442 2.141 2.578 4.561 3.136 7.081.61 2.753.162 8.456.162 8.456"/><path fill="none" stroke="#000" stroke-linecap="round" stroke-linejoin="round" stroke-width="3.205" d="M1878.824 867.078s5.055.946 7.111 2.366c3.077 2.125 5.782 5.193 7.081 8.7.89 2.404 1.243 5.345.203 7.688-1.515 3.41-5.156 5.625-8.498 7.284-2.002.993-4.343 1.743-6.554 1.417-2.865-.423-7.6-4.21-7.6-4.21"/><path fill="#ce9d09" stroke="#000" stroke-linecap="round" stroke-linejoin="round" stroke-width="3.205" d="M1988.094 874.924l-5.652 11.92c5.801.17 7.914 3.108 9.454 6.474M1977.29 890.589s-5.16-5.396-8.606-6.072c-2.207-.433-4.741.215-6.575 1.517-2.372 1.685-3.955 4.56-4.653 7.385-.625 2.528-.353 5.368.607 7.79.813 2.05 2.1 4.337 4.147 5.159 4.8 1.925 15.384-2.024 15.384-2.024"/><path fill="#ce9d09" stroke="#000" stroke-linecap="round" stroke-linejoin="round" stroke-width="3.205" d="M1982.864 885.993l-5.58 4.29.31 14.06"/><path fill="none" stroke="#000" stroke-linecap="round" stroke-linejoin="round" stroke-width="3.205" d="M1878.116 894.437s2.953 5.63 5.625 6.95c7.87 3.887 17.823 2.904 26.323.715 5.196-1.338 12.797-2.9 13.877-8.155.406-1.971-2.865-2.981-3.576-4.864-.575-1.523-.934-3.317-.43-4.864.787-2.41 2.712-4.65 5.008-5.723 1.945-.908 4.397-.808 6.438-.143 1.94.633 3.87 1.937 4.864 3.72 1.167 2.093 1.443 4.87.715 7.153-.75 2.35-4.226 3.196-4.864 5.58-.641 2.394 0 5.273 1.43 7.296 2.879 4.065 8.157 5.99 12.876 7.582 3.05 1.03 6.593 2.326 9.585 1.145 2.23-.88 4.63-5.5 4.63-5.5"/><path fill="#fbe704" stroke="#000" stroke-linecap="round" stroke-linejoin="round" stroke-width="3.205" d="M1932.22 894.664l-8.447-.946"/><path fill="#ce9d09" stroke="#000" stroke-linecap="round" stroke-linejoin="round" stroke-width="3.205" d="M1967.373 933.128s-3.178-2.845-4.96-4a64.476 64.476 0 0 0-11.938-6.069c-5.606-2.148-11.553-3.288-17.4-4.653-6.697-1.564-13.414-3.14-20.231-4.047-7.974-1.06-16.033-1.537-24.076-1.618-8.607-.087-25.794 1.214-25.794 1.214s-17.169-1.301-25.793-1.214c-8.043.08-16.103.558-24.076 1.618-6.818.907-13.535 2.483-20.232 4.047-5.847 1.365-11.793 2.505-17.4 4.653a64.476 64.476 0 0 0-11.937 6.07c-1.783 1.154-4.96 4-4.96 4"/><path fill="none" stroke="#000" stroke-linecap="round" stroke-linejoin="round" stroke-width="3.205" d="M1957.84 953.499s-7.155-3.02-10.804-4.34c-6.598-2.389-13.26-4.633-20.03-6.475-6.6-1.795-13.233-3.689-20.03-4.45-14.576-1.635-44.002-.203-44.002-.203s-29.408-1.434-44.002.202c-6.797.762-13.43 2.656-20.03 4.451-6.77 1.842-13.432 4.086-20.03 6.475-3.649 1.32-10.803 4.34-10.803 4.34"/><g id="b" stroke="#000" stroke-linejoin="round" stroke-width="2"><path fill="#fff" stroke-width="3.2046" d="M1724.084 1141.768l41.273 36.014s-8.345 7.428-13.353 9.711c-9.824 4.48-20.768 7.517-31.562 7.284-7.729-.167-15.32-2.973-22.35-6.186-15.722-7.184-33.032-14.731-43.169-28.732-3.586-4.955-5.002-11.57-4.89-17.686.13-6.933 6.282-19.831 6.282-19.831s2.39 8.636 5.133 12.022c4.513 5.573 11.118 9.302 17.597 12.375 4.847 2.3 10.144 4.022 15.5 4.336 6.95.408 14.162-.674 20.636-3.237 3.34-1.322 8.903-6.07 8.903-6.07z"/><path fill="#fff" stroke-width="3.2046" d="M1658.653 877.668s3.294 6.6 4.297 10.128c1.715 6.033 2.908 12.326 2.861 18.598-.047 6.287-1.468 12.539-3.147 18.598-2.516 9.08-6.32 17.783-10.3 26.323-2.525 5.416-6.054 10.324-8.584 15.737-4.08 8.729-6.994 17.956-10.587 26.896-2.999 7.461-6.864 14.61-9.156 22.318-3.044 10.238-4.562 20.891-6.009 31.474-1.244 9.103-2.228 18.28-2.289 27.468-.07 10.899.257 21.91 2.29 32.618 2.013 10.61 4.976 21.204 9.728 30.902 3.83 7.816 8.931 15.103 14.878 21.459 4.916 5.253 10.706 9.757 16.882 13.448 5.61 3.354 11.95 5.31 18.026 7.725 8.392 3.336 25.432 9.336 25.432 9.336s-23.527-11.593-31.727-21.353c-6.784-8.074-10.521-18.62-12.876-28.899-2.727-11.905-2.383-24.473-1.144-36.624 1.332-13.072 5.18-25.817 9.156-38.34 4.196-13.218 10.095-25.836 15.45-38.627 3.86-9.22 8.276-18.201 12.018-27.469 4.417-10.94 8.764-21.934 12.303-33.19 2.158-6.865 4.85-13.722 5.43-20.894.631-7.793-.383-15.742-2.17-23.354-2.503-10.662-5.598-21.649-11.836-30.651-3.754-5.419-8.898-10.153-14.769-13.151-5.733-2.928-12.544-5.401-18.858-4.154-2.11.417-5.299 3.678-5.299 3.678z"/><path fill="#fff" stroke-width="3.2046" d="M1711.591 945.593s4.455-17.99 5.209-27.187c.645-7.867.224-15.823-.607-23.672-.925-8.734-1.469-17.794-4.856-25.897-3.513-8.406-9.024-16.13-15.578-22.458-6.46-6.237-14.294-11.305-22.66-14.567-8.802-3.431-18.492-4.279-27.92-4.855-8.089-.495-16.241.191-24.28 1.213-4.644.591-9.322 1.332-13.757 2.833-4.114 1.393-11.735 5.665-11.735 5.665l29.944 48.962s9.372-5.518 14.567-6.88c5.494-1.439 11.325-1.545 16.995-1.213 5.757.337 11.726.894 16.995 3.237 6.707 2.983 12.49 7.984 17.547 13.304 6.102 6.42 11.548 13.787 14.959 21.961 3.166 7.59 3.582 16.072 4.721 24.217.247 1.769.456 5.337.456 5.337z"/><path fill="#ce9d09" stroke-width="3.2046" d="M1717.054 906.676s-5.334-16.56-10.37-23.474c-5.85-8.031-13.365-15.391-22.255-19.828-9.429-4.705-30.995-6.217-30.995-6.217l11.414 21.129-19.966-.488-10.427-17.434-19.232 8.706-9.568-15.645 20.431-9.473-9.414-15.186 20.423-1.942 8.892 14.7s15.874.048 23.588 1.667c5.239 1.1 10.386 2.91 15.12 5.405 4.532 2.389 8.699 5.522 12.447 9.013 4.508 4.2 8.732 8.864 11.874 14.164 3.054 5.15 6.542 16.727 6.542 16.727z"/><path fill="#ce9d09" stroke-width="3.2046" d="M1595.578 836.947l-15.032 8.788-14.306 10.873 30.901 47.21 13.734-10.586 14.12-8.184zM1581.648 845.09l31.9 46.593M1653.794 1035.866l17.883-36.91 19.14 7.613 7.754-19.06-19.026-8.869 9.872-21.316-14.02-6.295-10.587 20.458-19.193-8.024-8.429 19.963 18.609 7.804-17.168 36.624z"/><path fill="#fff" stroke-width="3.2046" d="M1781.075 990.291l16.106 3.841 25.663 4.17 11.76 1.292-2.076 49.916s-2.809 33.178-7.688 48.962c-3.618 11.7-15.782 33.18-15.782 33.18l-7.688 11.735-45.32-39.25s7.726-10.947 10.521-16.995c3.507-7.59 7.688-23.874 7.688-23.874l4.451-25.897 2.428-32.776z"/><path fill="#ce9d09" stroke-width="3.2046" d="M1796.92 1024.827l18.208-.405v21.042l17.533.831-2.982 21.358-16.357-1.03s-2.699 12.575-5.122 18.495c-2.513 6.14-9.662 17.4-9.662 17.4l-19.423-4.856s7.026-11.048 9.711-16.995c2.405-5.326 5.665-16.59 5.665-16.59l-19.938-2.516 3.47-20.192 18.087 1.262z"/></g><use width="744.094" height="1052.362" transform="matrix(-1 0 0 1 3726.177 0)" xlink:href="#b"/><path fill="#ce9d09" stroke="#000" stroke-linejoin="round" stroke-width="3.205" d="M1533.478 903.819s.703-5.062 0-7.44c-1.143-3.868-3.574-7.467-6.58-10.157-2.544-2.275-5.808-3.924-9.157-4.578-3.614-.706-7.463-.115-11.015.858-2.42.663-6.754 3.323-6.754 3.323l-14.849 6.12-5.51 17.667s-3.175 5.579-3.932 8.656c-.81 3.293-1.409 6.871-.572 10.157.982 3.86 3.231 7.612 6.295 10.158 2.833 2.355 6.626 3.729 10.3 4.006 2.827.213 8.298-1.86 8.298-1.86 1.58-18.611 9.856-32.814 33.476-36.91z"/><path fill="#ce9d09" stroke="#000" stroke-linejoin="round" stroke-width="3.205" d="M1500.27 885.645l-38.752-17.02-3.148 3.004 21.12 38.202s5.924-8.738 9.353-12.736c3.51-4.093 11.428-11.45 11.428-11.45z"/><path fill="#ce9d09" stroke="#000" stroke-linejoin="round" stroke-width="3.2046" d="M1473.249 865.263a15.952 15.952 0 1 1-31.903 0 15.952 15.952 0 1 1 31.903 0z"/><path fill="#ccc" stroke="#000" stroke-linejoin="round" stroke-width="3.205" d="M1533.275 904.042l101.171 86.714s-5.133 11.213-7.279 16.989c-1.979 5.326-3.817 10.727-5.145 16.252-1.959 8.145-4.135 24.788-4.135 24.788L1499.945 940.75c1.673-24.69 15.566-33.488 33.33-36.708z"/><path fill="#ce9d09" stroke="#000" stroke-linejoin="round" stroke-width="3.205" d="M1566.193 932.256c3.39 27.952 7.322 55.905 16.025 83.857l31.069 28.459c-6.625-29.232-18.442-58.464-18.368-87.695z"/><path fill="#ce9d09" stroke="#000" stroke-linejoin="round" stroke-width="3.205" d="M1613.047 972.415l-85.487-6.37 27.2 24.917 78.068 3.38 1.147-3.99z"/><path fill="#ccc" stroke="#000" stroke-linejoin="round" stroke-width="3.205" d="M1518.992 958.197l-24.284 27.167 15.165 14.593-23.462 22.89-15.165-15.165-25.515 27.202-.236 33.743 58.083 45.494 20.029-14.879-1.144-32.332 15.45 8.584 15.451-9.442.858 29.185-12.59-9.157-13.733 18.026-1.43 32.046 43.777 38.914 53.049-47.08-4.008-14.112-2.306-12.678-1.246-25.129 1.98-27.44z"/><path fill="#ccc" stroke="#000" stroke-linejoin="round" stroke-width="3.205" d="M1494.708 985.364l-.62 29.993 15.642-15.26z"/><path fill="none" stroke="#000" stroke-linejoin="round" stroke-width="3.205" d="M1446 1034.598l57.578 49.194 18.884-16.882-14.878-12.59 16.595-15.736 12.876 11.159 14.592-14.879 18.885 18.312-17.151 13.447 16.006 14.593-15.165 14.02M1527.898 1104.12l44.064 36.897 45.055-39.54M1502.85 1083.147l.312 30.648M1523.743 1038.997l.542 28.925M1537.338 1049.454l.83 25.884M1551.504 1035.01l.645 31.784"/><path fill="#ccc" stroke="#000" stroke-linejoin="round" stroke-width="3.205" d="M1901.35 1229.352l48.602 44.579 10.763 31.429-62.642-6.673-35.664-35.277zM1679.516 1032.318l183.014 162.24-38.09 33.677-164.039-142.138s3.479-13.102 5.635-19.522c3.124-9.3 6.867-18.385 10.565-27.472.928-2.28 2.915-6.785 2.915-6.785z"/><path fill="#ce9d09" stroke="#000" stroke-linejoin="round" stroke-width="3.205" d="M1718.365 1066.92c-22.445 8.46-31.418 22.309-37.857 37.171-6.353.56-12.306.618-14.41-4.133 5.347-34.7 30.21-45.552 35.753-47.747 14.95-2.825 12.178 8.85 16.514 14.709zM1745.88 1092.817c-22.444 8.46-31.417 22.31-37.856 37.171-6.353.56-12.306.618-14.41-4.133 5.347-34.7 30.21-45.551 35.752-47.747 14.95-2.825 12.18 8.85 16.515 14.71z"/><path fill="#ccc" stroke="#000" stroke-linejoin="round" stroke-width="3.205" d="M2192.391 902.674s-.703-5.061 0-7.44c1.144-3.868 3.574-7.467 6.58-10.157 2.544-2.275 5.808-3.923 9.157-4.578 3.615-.706 7.464-.115 11.016.859 2.42.663 6.753 3.322 6.753 3.322l14.85 6.12 5.51 17.667s3.174 5.58 3.931 8.656c.81 3.293 1.41 6.871.573 10.158-.983 3.86-3.232 7.611-6.295 10.157-2.833 2.355-6.627 3.73-10.3 4.006-2.827.213-8.298-1.86-8.298-1.86-4.558-23.565-15.95-35.47-33.477-36.91z"/><path fill="#ccc" stroke="#000" stroke-linejoin="round" stroke-width="3.205" d="M2225.599 884.5l38.753-17.02 3.147 3.005-21.119 38.201s-5.924-8.738-9.353-12.736c-3.511-4.093-11.429-11.45-11.429-11.45z"/><path fill="#ccc" stroke="#000" stroke-linejoin="round" stroke-width="3.2046" d="M2252.62 864.119a15.952 15.952 0 1 0 31.903 0 15.952 15.952 0 1 0-31.903 0z"/><path fill="#ce9d09" stroke="#000" stroke-linejoin="round" stroke-width="3.205" d="M2192.594 902.898l-101.17 86.713s5.132 11.214 7.278 16.989c1.979 5.327 3.817 10.727 5.146 16.252 1.958 8.145 4.135 24.789 4.135 24.789l117.942-108.035c-3.533-17.256-9.245-33.912-33.331-36.708z"/><path fill="#ccc" stroke="#000" stroke-linejoin="round" stroke-width="3.205" d="M2159.676 931.112c-3.39 27.952-7.322 55.904-16.025 83.856l-31.069 28.46c6.625-29.232 18.443-58.464 18.368-87.696z"/><path fill="#ccc" stroke="#000" stroke-linejoin="round" stroke-width="3.205" d="M2112.822 971.27l85.487-6.369-27.2 24.916-78.068 3.38-1.147-3.99z"/><path fill="#ce9d09" stroke="#000" stroke-linejoin="round" stroke-width="3.205" d="M2206.878 957.053l24.283 27.167-15.165 14.592 23.463 22.89 15.164-15.164 25.515 27.201.237 33.743-58.084 45.494-20.029-14.878 1.145-32.332-15.45 8.583-15.452-9.442-.858 29.185 12.59-9.156 13.733 18.026 1.431 32.046-43.777 38.913-53.05-47.08 4.009-14.111 2.305-12.679 1.247-25.128-1.98-27.44z"/><path fill="#ce9d09" stroke="#000" stroke-linejoin="round" stroke-width="3.205" d="M2231.161 984.22l.621 29.993-15.643-15.261z"/><path fill="none" stroke="#000" stroke-linejoin="round" stroke-width="3.205" d="M2279.87 1033.454l-57.579 49.193-18.884-16.881 14.878-12.59-16.595-15.737-12.876 11.16-14.592-14.88-18.884 18.313 17.15 13.447-16.006 14.593 15.165 14.02M2197.971 1102.975l-44.064 36.897-45.055-39.54M2223.02 1082.002l-.312 30.648M2202.126 1037.853l-.541 28.925M2188.531 1048.31l-.83 25.884M2174.365 1033.865l-.644 31.785"/><path fill="#ce9d09" stroke="#000" stroke-linejoin="round" stroke-width="3.205" d="M2046.487 1031.913l-273.978 242.236-19.018 23.01 34.27 24.108 29.414-18.294 248.427-217.28s-3.478-13.102-5.635-19.523c-3.124-9.3-6.867-18.384-10.565-27.472-.928-2.28-2.915-6.785-2.915-6.785z"/><path fill="#ccc" stroke="#000" stroke-linejoin="round" stroke-width="3.205" d="M2007.638 1066.515c22.445 8.46 31.418 22.31 37.857 37.171 6.353.56 12.306.618 14.41-4.133-5.347-34.7-30.21-45.551-35.752-47.747-14.95-2.825-12.18 8.85-16.515 14.71zM1980.123 1092.412c22.444 8.46 31.417 22.31 37.857 37.172 6.353.558 12.305.617 14.41-4.134-5.348-34.7-30.21-45.551-35.753-47.747-14.95-2.825-12.179 8.85-16.514 14.71z"/><g transform="matrix(1.6023 0 0 1.6023 1255.507 411.331)"><path fill="#ccc" stroke="#000" stroke-linejoin="round" stroke-width="2" d="M261.599 589.687s-12.37-2.72-16.281 1.058c-3.237 3.127-1.344 13.435-1.344 13.435l4.03 15.316 17.197 11.016s12.961 1.675 16.928-2.418c3.387-3.495 1.612-14.513 1.612-14.513l-9.673-13.163z"/><path fill="#ce9d09" stroke="#000" stroke-linejoin="round" stroke-width="2" d="M273.214 667.051c0 44.701-36.238 80.938-80.939 80.938-44.7 0-80.938-36.237-80.938-80.938 0-44.7 36.238-80.938 80.938-80.938 44.701 0 80.939 36.237 80.939 80.938z"/><path fill="#fff" stroke="#000" stroke-linejoin="round" stroke-width="2" d="M222.565 670.485c13.952 0 25.263 11.31 25.263 25.262 0 13.953-11.31 25.263-25.263 25.263-13.952 0-25.262-11.31-25.262-25.263l-8.754-.38c0 13.953-11.31 25.263-25.262 25.263-13.953 0-25.263-11.31-25.263-25.263 0-13.952 11.31-25.262 25.263-25.262l-.38-4.954c-13.953 0-25.263-11.31-25.263-25.262s11.31-25.263 25.263-25.263c13.952 0 25.262 11.31 25.262 25.263l8.754-.76c0-13.952 11.31-25.263 25.262-25.263s25.263 11.31 25.263 25.263c0 13.952-11.31 25.262-25.263 25.262z"/><path fill="#ce9d09" stroke="#000" stroke-linejoin="round" stroke-width="2" d="M324.583 514.705c-16.91 23.634-45.367 45.958-54.008 56.694-8.64 10.737-14.207 20.933-1.612 34.662s26.876 5.938 38.155-1.612c11.278-7.55 30.957-32.018 59.112-50.783z"/><path fill="none" stroke="#000" stroke-linejoin="round" stroke-width="2" d="M330.952 520.664c-1.512 4.97-.358 10.468-2.261 15.238-1.882 4.715-8.752 12.465-8.752 12.465s4.367.61 6.404 1.401c2.953 1.147 7.462 1.691 8.221 4.767.664 2.69-2.535 5.009-4.425 7.034-1.812 1.942-4.147 3.353-6.438 4.697-3.83 2.247-7.733 4.777-12.103 5.565-5.47.986-15.683-6.713-16.63-1.236-.394 2.278 4.611.82 6.686 1.839 4.842 2.38 7.27 7.562 3.008 11.167-2.737 2.316-7.036 1.465-10.609 1.761-3.426.284-7.338-1.713-10.312.01-3.501 2.029-7.906 6.931-6.048 10.527 1.911 3.7 9.039 3.6 12.436 1.191 2.512-1.78 1.84-5.912 2.21-8.968.11-.91 0-1.833 0-2.75M334.546 554.466l21.95-9.907"/><path id="c" fill="#ccc" fill-opacity="1" stroke="#000" stroke-dasharray="none" stroke-dashoffset="0" stroke-linecap="butt" stroke-linejoin="round" stroke-miterlimit="4" stroke-opacity="1" stroke-width="2" d="M140.977 601.693c0 6.086-4.934 11.02-11.02 11.02-6.086 0-11.02-4.934-11.02-11.02 0-6.086 4.934-11.02 11.02-11.02 6.086 0 11.02 4.934 11.02 11.02z"/><use id="d" width="744.094" height="1052.362" x="0" y="0" fill="#ccc" fill-opacity="1" transform="translate(-3.8 127.677)" xlink:href="#c"/><use width="744.094" height="1052.362" fill="#ccc" transform="translate(123.877 7.22)" xlink:href="#d"/><path id="e" fill="#ce9d09" fill-opacity="1" stroke="#000" stroke-dasharray="none" stroke-dashoffset="0" stroke-linecap="butt" stroke-linejoin="round" stroke-miterlimit="4" stroke-opacity="1" stroke-width="2" d="M201.395 645.772a9.12 9.12 0 1 1-18.24 0 9.12 9.12 0 0 1 18.24 0z"/><use id="f" width="744.094" height="1052.362" x="0" y="0" transform="translate(-21.66 21.28)" xlink:href="#e"/><use id="g" width="744.094" height="1052.362" x="0" y="0" transform="translate(21.28 19.38)" xlink:href="#f"/><use width="744.094" height="1052.362" transform="translate(22.42 -19.38)" xlink:href="#g"/><path id="h" fill="#fff" stroke="#000" stroke-dasharray="none" stroke-dashoffset="0" stroke-linecap="butt" stroke-linejoin="round" stroke-miterlimit="4" stroke-opacity="1" stroke-width="2" d="M191.136 617.652c3.33-6.838 7.876-9.948 13.68-13.68-8.268-3.59-18.35-2.93-27.36 0 5.803 2.903 10.011 7.487 13.68 13.68z"/><use id="i" width="744.094" height="1052.362" x="0" y="0" transform="rotate(-90 191.896 667.345)" xlink:href="#h"/><use id="j" width="744.094" height="1052.362" x="0" y="0" transform="matrix(-1 0 0 1 383.791 -2.28)" xlink:href="#i"/><use width="744.094" height="1052.362" transform="rotate(90 192.655 666.965)" xlink:href="#j"/></g><path fill="#ce9d09" stroke="#000" stroke-linejoin="round" stroke-width="3.205" d="M2043.588 1356.188s19.82-4.357 26.087 1.696c5.187 5.01 2.153 21.527 2.153 21.527l-6.458 24.54-27.554 17.652s-20.767 2.683-27.124-3.875c-5.427-5.6-2.583-23.253-2.583-23.253l15.5-21.092z"/><path fill="#ccc" stroke="#000" stroke-linejoin="round" stroke-width="3.2046" d="M2024.978 1480.15a129.687 129.687 0 1 0 259.374 0 129.687 129.687 0 1 0-259.374 0z"/><path fill="#fff" stroke="#000" stroke-linejoin="round" stroke-width="3.205" d="M2106.132 1485.651c-22.356 0-40.478 18.123-40.478 40.478 0 22.356 18.122 40.479 40.478 40.479 22.355 0 40.478-18.123 40.478-40.479l14.026-.608c0 22.355 18.123 40.478 40.478 40.478s40.478-18.123 40.478-40.478c0-22.356-18.123-40.478-40.478-40.478l.609-7.938c22.355 0 40.478-18.123 40.478-40.478s-18.123-40.478-40.478-40.478c-22.356 0-40.478 18.123-40.478 40.478l-14.026-1.218c0-22.355-18.123-40.478-40.478-40.478-22.356 0-40.478 18.123-40.478 40.478 0 22.356 18.122 40.478 40.478 40.478z"/><path fill="#ccc" stroke="#000" stroke-linejoin="round" stroke-width="3.205" d="M1942.669 1236.044c27.094 37.869 72.69 73.639 86.536 90.842 13.845 17.204 22.765 33.54 2.583 55.538-20.181 21.998-43.064 9.516-61.135-2.583-18.071-12.098-49.603-51.303-94.716-81.37z"/><path fill="none" stroke="#000" stroke-linejoin="round" stroke-width="3.205" d="M1932.463 1245.592c2.423 7.966.574 16.774 3.624 24.416 3.015 7.555 14.022 19.974 14.022 19.974s-6.997.977-10.261 2.245c-4.731 1.837-11.957 2.71-13.172 7.637-1.064 4.309 4.06 8.026 7.09 11.27 2.904 3.112 6.644 5.373 10.315 7.527 6.137 3.6 12.391 7.653 19.393 8.916 8.766 1.58 25.13-10.756 26.647-1.98.631 3.65-7.39 1.313-10.713 2.947-7.758 3.812-11.65 12.117-4.82 17.894 4.384 3.71 11.274 2.346 16.999 2.82 5.488.455 11.757-2.745 16.522.016 5.61 3.251 12.668 11.107 9.692 16.868-3.063 5.928-14.484 5.769-19.927 1.909-4.025-2.854-2.947-9.473-3.542-14.371-.177-1.458 0-2.937 0-4.406M1926.704 1299.753l-35.17-15.873"/><path fill="#ce9d09" stroke="#000" stroke-linejoin="round" stroke-width="3.2046" d="M2236.861 1375.425a17.657 17.657 0 1035.314 0 17.657 17.657 0 10-35.314 0zM2242.95 1580.002a17.657 17.657 0 1035.314 0 17.657 17.657 0 10-35.314 0zM2044.461 1591.57a17.657 17.657 0 1035.314 0 17.657 17.657 0 10-35.314 0z"/><path fill="#ccc" stroke="#000" stroke-linejoin="round" stroke-width="3.2046" d="M2140.052 1446.053a14.613 14.613 0 1029.226 0 14.613 14.613 0 10-29.226 0zM2174.757 1480.15a14.613 14.613 0 1029.226 0 14.613 14.613 0 10-29.226 0zM2140.661 1511.201a14.613 14.613 0 1029.225 0 14.613 14.613 0 10-29.225 0zM2104.738 1480.15a14.613 14.613 0 1029.226 0 14.613 14.613 0 10-29.226 0z"/><path fill="#fff" stroke="#000" stroke-linejoin="round" stroke-width="3.205" d="M2156.492 1400.997c-5.338-10.956-12.62-15.94-21.92-21.919 13.248-5.754 29.401-4.696 43.839 0-9.3 4.65-16.042 11.996-21.92 21.92z"/><use width="744.094" height="1052.362" fill="none" transform="matrix(0 -1.6023 -1.6023 0 3224.563 1788.095)" xlink:href="#h"/><use width="744.094" height="1052.362" fill="none" transform="matrix(1.6023 0 0 1.6023 1847.799 407.678)" xlink:href="#i"/><use width="744.094" height="1052.362" fill="none" transform="matrix(0 1.6023 1.6023 0 1085.376 1171.319)" xlink:href="#j"/><path fill="#fa0204" stroke="#000" stroke-linejoin="round" stroke-width="3.205" d="M1815.196 1866.34c19.292 12.238 37.25 11.14 54.247.43l-40.255-41.976"/><path fill="#fa0204" stroke="#000" stroke-linejoin="round" stroke-width="3.205" d="M1849.638 1848.258c19.902 5.524 31.76 5.236 48.22.43l-17.437-27.984"/><path fill="#ce9d09" stroke="#000" stroke-linejoin="round" stroke-width="3.205" d="M1888.306 1776.165l-31.708-8.142s.367-35.183 20.39-32.115c16.619 2.546 11.985 40.34 11.318 40.257z"/><path fill="#fa0204" stroke="#000" stroke-linejoin="round" stroke-width="3.205" d="M1897.705 1848.657c-10.226-8.256-36.582-5.833-47.98-.348-4.453 0-16.446-83.24 25.721-81.183 38.721 1.89 24.95 81.915 22.26 81.53zM1880.315 1608.6c-2.878 3.7.914 11.26 4.995 14.707 4.286 3.617 12.86 6.278 15.874 2.39 3.041-3.924-1.482-11.936-5.931-15.426-4.15-3.254-12.096-5.324-14.939-1.67z"/><path fill="#fa0204" stroke="#000" stroke-linejoin="round" stroke-width="3.205" d="M1862.018 1610.753c-2.878 3.7.913 11.26 4.995 14.707 4.285 3.617 12.86 6.278 15.874 2.39 3.04-3.925-1.483-11.937-5.932-15.426-4.149-3.254-12.096-5.324-14.938-1.67z"/><path fill="#fa0204" stroke="#000" stroke-linejoin="round" stroke-width="3.205" d="M1848.215 1608.312c-3.986 2.465-3.066 10.873-.44 15.525 2.756 4.884 9.867 10.365 14.046 7.77 4.218-2.619 2.769-11.705-.186-16.526-2.755-4.495-9.483-9.204-13.42-6.77z"/><path fill="#fa0204" stroke="#000" stroke-linejoin="round" stroke-width="3.205" d="M1829.918 1605.514c-3.986 2.464-3.066 10.873-.441 15.525 2.756 4.883 9.867 10.364 14.047 7.77 4.217-2.62 2.768-11.705-.186-16.526-2.756-4.496-9.484-9.204-13.421-6.77zM1869.191 1175.778c0 5.38-4.5 7.458-13.242 7.458-8.743 0-12.786-2.535-12.786-7.915s4.043-6.697 12.786-6.697c8.743 0 13.242 1.774 13.242 7.154z"/><path fill="#fa0204" stroke="#000" stroke-linejoin="round" stroke-width="3.205" d="M1875.584 1190.086c0 5.38-4.5 7.459-13.242 7.459-8.743 0-12.786-2.535-12.786-7.916 0-5.38 4.043-6.697 12.786-6.697 8.743 0 13.242 1.774 13.242 7.154z"/><path fill="#fa0204" stroke="#000" stroke-linejoin="round" stroke-width="3.205" d="M1877.344 1208.689c-1.772 5.08-6.705 5.56-14.96 2.681-8.255-2.88-11.238-6.605-9.466-11.685 1.772-5.08 6.023-4.992 14.278-2.112 8.255 2.879 11.92 6.036 10.148 11.116zM1877.514 1222.511c-1.065 5.274-5.887 6.42-14.457 4.69-8.57-1.731-12.032-5.016-10.967-10.29 1.065-5.274 5.29-5.765 13.86-4.034 8.57 1.73 12.629 4.36 11.564 9.634zM1881.471 1238.646c-1.065 5.274-5.887 6.42-14.457 4.69-8.57-1.731-12.031-5.017-10.966-10.29 1.065-5.274 5.289-5.765 13.859-4.034 8.57 1.73 12.63 4.36 11.564 9.634zM1924.048 1220.834c-2.59-.69-2.303-5.303-1.583-7.885 1.107-3.969 8.354-9.11 8.354-9.11s1.767 5.562.95 8.185c-1.162 3.728-3.948 9.817-7.721 8.81z"/><path fill="#fa0204" stroke="#000" stroke-linejoin="round" stroke-width="3.205" d="M1914.61 1229.054c-2.821-.622-3.181-5.523-2.443-8.316 1.142-4.324 9.645-9.325 9.645-9.325s1.476 6.041.52 8.83c-1.267 3.694-3.908 9.651-7.721 8.811zM1901.52 1240.014c-4.292-1.139-3.805-8.763-2.66-13.053.947-3.542 3.716-9.12 7.278-8.249 4.167 1.019 4.115 8.322 3.103 12.491-.92 3.795-3.947 9.812-7.721 8.81z"/><path fill="#fa0204" stroke="#000" stroke-linejoin="round" stroke-width="3.205" d="M1888.734 1252.19c-4.214-.925-6.007-7.638-5.164-11.87.885-4.441 5.36-10.41 9.782-9.43 4.462.988 6.005 8.352 4.93 12.795-1.004 4.142-5.385 9.42-9.548 8.506zM1929.285 1250.885c-3.244 2.846-9.713.312-12.622-2.874-3.054-3.345-5.21-10.487-1.8-13.468 3.44-3.01 10.287.112 13.227 3.61 2.743 3.264 4.398 9.92 1.195 12.732z"/><path fill="#fa0204" stroke="#000" stroke-linejoin="round" stroke-width="3.205" d="M1922.283 1263.67c-3.244 2.847-9.713.313-12.622-2.873-3.053-3.345-5.21-10.486-1.8-13.468 3.44-3.01 10.287.112 13.227 3.61 2.743 3.264 4.399 9.92 1.195 12.732zM1909.801 1274.326c-3.243 2.846-9.712.312-12.621-2.874-3.054-3.345-5.21-10.486-1.8-13.468 3.44-3.01 10.286.112 13.227 3.61 2.742 3.264 4.398 9.92 1.194 12.732z"/><path fill="#fa0204" stroke="#000" stroke-linejoin="round" stroke-width="3.205" d="M1905.19 1281.184c-1.139 4.162-7.933 5.613-12.116 4.557-4.392-1.109-10.126-5.88-8.924-10.247 1.212-4.406 8.646-5.575 13.028-4.275 4.086 1.211 9.136 5.854 8.012 9.965zM1886.507 1259.58c-1.076 5.088-7.503 6.86-11.46 5.57-4.155-1.355-9.58-7.187-8.443-12.524 1.148-5.386 8.18-6.814 12.324-5.226 3.866 1.481 8.643 7.156 7.58 12.18zM1826.837 1219.065c5.212 1.047 5.108 7.12 2.443 10.846-2.797 3.91-10.883 8.992-16.349 7.887-5.515-1.115-4.844-7.757-1.795-11.658 2.843-3.637 10.553-8.11 15.701-7.075zM1801.468 1210.286s5.138 2.531 7.35 4.792c2.32 2.374 5.11 3.322 3.708 6.923-1.414 3.634-5.843 2.388-8.127-.156-2.13-2.372-2.93-11.559-2.93-11.559zM1844.257 1230.555c4.853 2.168 3.414 8.07 0 11.118-3.59 3.198-12.597 6.375-17.685 4.093-5.135-2.302-3.017-8.633.816-11.767 3.574-2.922 12.08-5.587 16.874-3.444zM1858.26 1241.21c4.854 2.168 3.415 8.07 0 11.118-3.59 3.199-12.596 6.375-17.684 4.093-5.135-2.302-3.017-8.633.816-11.767 3.574-2.922 12.08-5.587 16.874-3.444z"/><path fill="#fa0204" stroke="#000" stroke-linejoin="round" stroke-width="3.205" d="M1862.97 1250.68c4.787.753 6.069 7.414 4.584 11.695-1.56 4.494-7.473 10.67-12.495 9.87-5.069-.806-5.982-8.132-4.201-12.634 1.661-4.199 7.383-9.677 12.113-8.932zM1789.023 1225.436c4.243-.376 7.182 5.965 7.127 10.585-.06 4.85-3.317 12.402-7.771 12.79-4.495.39-7.31-6.701-7.066-11.611.228-4.58 3.519-11.393 7.71-11.765z"/><path fill="#fa0204" stroke="#000" stroke-linejoin="round" stroke-width="3.205" d="M1802.914 1237.649c4.157.932 5.028 7.867 3.57 12.25-1.532 4.603-6.933 10.807-11.293 9.82-4.4-.994-4.925-8.606-3.199-13.21 1.61-4.292 6.817-9.782 10.923-8.86z"/><path fill="#fa0204" stroke="#000" stroke-linejoin="round" stroke-width="3.205" d="M1815.792 1246.242c4.92 1.159 5.952 9.771 4.225 15.216-1.813 5.715-8.207 13.42-13.37 12.195-5.21-1.235-5.83-10.688-3.787-16.405 1.906-5.332 8.071-12.15 12.933-11.006z"/><path fill="#fa0204" stroke="#000" stroke-linejoin="round" stroke-width="3.205" d="M1826.216 1256.797c5.014-.644 9.005 7.057 9.3 12.761.31 5.989-2.97 15.449-8.234 16.115-5.311.673-9.212-7.96-9.308-14.03-.089-5.661 3.29-14.21 8.243-14.847z"/><path fill="#fa0204" stroke="#000" stroke-linejoin="round" stroke-width="3.205" d="M1838.594 1265.66c4.557-.534 8.183 5.85 8.452 10.578.281 4.964-2.7 12.806-7.482 13.358-4.827.558-8.372-6.598-8.458-11.63-.081-4.692 2.988-11.779 7.49-12.306zM1831.343 1312.912c-3.392 3.235-.755 11.272 2.773 15.282 3.706 4.21 11.795 8.104 15.349 4.703 3.586-3.433.292-12.024-3.594-16.131-3.624-3.83-11.179-7.049-14.53-3.854z"/><path fill="#fa0204" stroke="#000" stroke-linejoin="round" stroke-width="3.205" d="M1839.954 1301.718c-3.392 3.235-.756 11.272 2.773 15.282 3.705 4.21 11.794 8.105 15.348 4.703 3.587-3.433.293-12.024-3.593-16.131-3.624-3.83-11.18-7.048-14.53-3.853zM1824.024 1326.69c-3.392 3.234-.755 11.271 2.773 15.281 3.706 4.209 11.795 8.104 15.349 4.703 3.586-3.433.292-12.024-3.594-16.131-3.624-3.83-11.179-7.049-14.53-3.854zM1851.38 1276.01c4.557-.533 8.183 5.85 8.452 10.579.281 4.964-2.7 12.805-7.482 13.358-4.827.558-8.372-6.598-8.458-11.63-.081-4.693 2.989-11.78 7.49-12.307z"/><path fill="#fa0204" stroke="#000" stroke-linejoin="round" stroke-width="3.205" d="M1875.101 1265.326c3.965 2.308 3.033 9.59.41 13.534-2.753 4.139-9.844 8.622-14.002 6.193-4.195-2.451-2.735-10.302.216-14.379 2.752-3.802 9.46-7.627 13.377-5.348zM1869.621 1287.55c3.965 2.308 3.033 9.59.41 13.533-2.753 4.14-9.844 8.622-14.001 6.193-4.196-2.45-2.736-10.302.215-14.378 2.753-3.802 9.46-7.628 13.377-5.348z"/><path fill="#fa0204" stroke="#000" stroke-linejoin="round" stroke-width="3.205" d="M1887.184 1278.19c3.64 2.539 2.785 10.55.377 14.889-2.53 4.554-9.042 9.485-12.86 6.813-3.853-2.696-2.513-11.333.198-15.818 2.527-4.183 8.688-8.392 12.285-5.884z"/><path fill="#fa0204" stroke="#000" stroke-linejoin="round" stroke-width="3.205" d="M1882.237 1303.18c2.442 3.707-1.32 10.832-5.164 13.97-4.036 3.293-11.912 5.462-14.469 1.566-2.58-3.931 1.864-11.458 6.042-14.62 3.897-2.95 11.179-4.577 13.592-.916z"/><path fill="#fa0204" stroke="#000" stroke-linejoin="round" stroke-width="3.205" d="M1884.976 1319.315c2.443 3.706-1.319 10.832-5.163 13.97-4.036 3.293-11.912 5.462-14.469 1.566-2.58-3.931 1.864-11.458 6.042-14.62 3.897-2.95 11.179-4.578 13.591-.916z"/><path fill="#fa0204" stroke="#000" stroke-linejoin="round" stroke-width="3.205" d="M1884.672 1337.276c2.442 3.707-1.32 10.832-5.163 13.97-4.036 3.293-11.912 5.463-14.47 1.567-2.58-3.932 1.864-11.459 6.043-14.621 3.897-2.95 11.178-4.577 13.591-.916z"/><path fill="#fa0204" stroke="#000" stroke-linejoin="round" stroke-width="3.205" d="M1884.368 1355.542c2.442 3.707-1.32 10.832-5.164 13.97-4.036 3.293-11.912 5.462-14.469 1.566-2.58-3.931 1.864-11.458 6.042-14.62 3.897-2.95 11.179-4.577 13.592-.916z"/><path fill="#fa0204" stroke="#000" stroke-linejoin="round" stroke-width="3.205" d="M1884.063 1372.286c2.443 3.706-1.32 10.832-5.163 13.97-4.036 3.293-11.912 5.462-14.47 1.566-2.58-3.932 1.864-11.458 6.043-14.62 3.897-2.95 11.178-4.578 13.591-.916zM1884.976 1390.247c2.443 3.707-1.32 10.832-5.163 13.97-4.036 3.293-11.912 5.463-14.469 1.566-2.58-3.931 1.864-11.458 6.042-14.62 3.897-2.95 11.179-4.577 13.591-.916z"/><path fill="#fa0204" stroke="#000" stroke-linejoin="round" stroke-width="3.205" d="M1883.759 1407.6c2.442 3.706-1.32 10.832-5.164 13.97-4.036 3.293-11.911 5.462-14.469 1.566-2.58-3.932 1.864-11.458 6.042-14.62 3.897-2.95 11.179-4.578 13.592-.916z"/><path fill="#fa0204" stroke="#000" stroke-linejoin="round" stroke-width="3.205" d="M1883.255 1426.056c2.696 3.834-1.457 11.203-5.7 14.448-4.455 3.406-13.148 5.65-15.97 1.62-2.848-4.065 2.057-11.85 6.67-15.12 4.3-3.05 12.338-4.734 15-.947z"/><path fill="#fa0204" stroke="#000" stroke-linejoin="round" stroke-width="3.205" d="M1882.092 1443.583c3.392 3.235.755 11.272-2.773 15.282-3.706 4.209-11.795 8.104-15.348 4.703-3.587-3.433-.293-12.025 3.593-16.132 3.624-3.83 11.179-7.048 14.53-3.853z"/><path fill="#fa0204" stroke="#000" stroke-linejoin="round" stroke-width="3.205" d="M1882.7 1463.98c3.393 3.234.756 11.272-2.772 15.282-3.706 4.209-11.795 8.104-15.349 4.702-3.586-3.432-.292-12.024 3.594-16.13 3.624-3.83 11.179-7.05 14.529-3.854z"/><path fill="#fa0204" stroke="#000" stroke-linejoin="round" stroke-width="3.205" d="M1883.005 1484.072c3.392 3.235.756 11.272-2.773 15.282-3.705 4.21-11.794 8.105-15.348 4.703-3.586-3.433-.293-12.024 3.593-16.131 3.624-3.83 11.18-7.049 14.53-3.854zM1882.397 1505.687c3.391 3.234.755 11.272-2.774 15.282-3.705 4.209-11.794 8.104-15.348 4.702-3.586-3.433-.293-12.024 3.593-16.13 3.624-3.83 11.18-7.05 14.53-3.854z"/><path fill="#fa0204" stroke="#000" stroke-linejoin="round" stroke-width="3.205" d="M1883.005 1525.78c3.392 3.234.756 11.271-2.773 15.281-3.705 4.21-11.794 8.105-15.348 4.703-3.586-3.433-.293-12.024 3.593-16.131 3.624-3.83 11.18-7.049 14.53-3.854z"/><path fill="#fa0204" stroke="#000" stroke-linejoin="round" stroke-width="3.205" d="M1882.397 1546.176c3.391 3.235.755 11.272-2.774 15.282-3.705 4.209-11.794 8.104-15.348 4.703-3.586-3.433-.293-12.025 3.593-16.132 3.624-3.83 11.18-7.048 14.53-3.853z"/><path fill="#fa0204" stroke="#000" stroke-linejoin="round" stroke-width="3.205" d="M1882.7 1566.573c3.393 3.234.756 11.272-2.772 15.282-3.706 4.209-11.795 8.104-15.349 4.702-3.586-3.432-.292-12.024 3.594-16.13 3.624-3.83 11.179-7.049 14.529-3.854z"/><path fill="#fa0204" stroke="#000" stroke-linejoin="round" stroke-width="3.205" d="M1882.7 1587.274c3.393 3.235.756 11.272-2.772 15.282-3.706 4.21-11.795 8.104-15.349 4.703-3.586-3.433-.292-12.024 3.594-16.131 3.624-3.83 11.179-7.049 14.529-3.854z"/><path fill="#fa0204" stroke="#000" stroke-linejoin="round" stroke-width="3.205" d="M1881.788 1607.975c3.391 3.235.755 11.272-2.774 15.282-3.705 4.21-11.794 8.105-15.348 4.703-3.586-3.433-.293-12.024 3.593-16.131 3.624-3.83 11.18-7.048 14.53-3.853z"/><path fill="#fa0204" stroke="#000" stroke-linejoin="round" stroke-width="3.205" d="M1883.005 1626.85c3.392 3.235.756 11.272-2.773 15.282-3.705 4.209-11.794 8.104-15.348 4.703-3.586-3.433-.293-12.024 3.593-16.131 3.624-3.83 11.18-7.049 14.53-3.854z"/><path fill="#fa0204" stroke="#000" stroke-linejoin="round" stroke-width="3.205" d="M1883.005 1646.638c3.392 3.235.756 11.272-2.773 15.282-3.705 4.209-11.794 8.104-15.348 4.703-3.586-3.433-.293-12.025 3.593-16.132 3.624-3.83 11.18-7.048 14.53-3.853zM1882.397 1667.948c3.391 3.235.755 11.272-2.774 15.282-3.705 4.21-11.794 8.105-15.348 4.703-3.586-3.433-.293-12.024 3.593-16.131 3.624-3.83 11.18-7.049 14.53-3.854zM1882.397 1688.954c3.391 3.234.755 11.272-2.774 15.282-3.705 4.209-11.794 8.104-15.348 4.702-3.586-3.432-.293-12.024 3.593-16.13 3.624-3.83 11.18-7.049 14.53-3.854zM1832.647 1704.175c-3.391 3.235-.755 11.272 2.774 15.282 3.705 4.21 11.794 8.105 15.348 4.703 3.586-3.433.293-12.024-3.593-16.131-3.625-3.83-11.18-7.048-14.53-3.853zM1833.256 1681.952c-3.391 3.235-.755 11.272 2.773 15.282 3.706 4.209 11.795 8.104 15.349 4.703 3.586-3.433.292-12.025-3.594-16.132-3.624-3.83-11.179-7.048-14.529-3.853z"/><path fill="#fa0204" stroke="#000" stroke-linejoin="round" stroke-width="3.205" d="M1833.256 1662.164c-3.391 3.235-.755 11.272 2.773 15.282 3.706 4.209 11.795 8.104 15.349 4.703 3.586-3.433.292-12.025-3.594-16.132-3.624-3.83-11.179-7.048-14.529-3.853zM1833.256 1640.854c-3.391 3.234-.755 11.272 2.773 15.282 3.706 4.209 11.795 8.104 15.349 4.702 3.586-3.432.292-12.024-3.594-16.13-3.624-3.83-11.179-7.049-14.529-3.854zM1833.865 1618.022c-3.392 3.234-.755 11.272 2.773 15.282 3.706 4.208 11.795 8.104 15.349 4.702 3.586-3.433.292-12.024-3.594-16.131-3.624-3.83-11.179-7.048-14.53-3.853zM1833.865 1596.103c-3.392 3.234-.755 11.271 2.773 15.281 3.706 4.21 11.795 8.105 15.349 4.703 3.586-3.433.292-12.024-3.594-16.131-3.624-3.83-11.179-7.048-14.53-3.853z"/><path fill="#fa0204" stroke="#000" stroke-linejoin="round" stroke-width="3.205" d="M1835.083 1576.01c-3.392 3.235-.756 11.272 2.773 15.282 3.705 4.21 11.794 8.105 15.348 4.703 3.587-3.433.293-12.024-3.593-16.131-3.624-3.83-11.18-7.049-14.53-3.854z"/><path fill="#fa0204" stroke="#000" stroke-linejoin="round" stroke-width="3.205" d="M1835.691 1556.222c-3.391 3.235-.755 11.272 2.774 15.282 3.705 4.21 11.794 8.105 15.348 4.703 3.586-3.433.293-12.024-3.593-16.131-3.624-3.83-11.18-7.049-14.53-3.854z"/><path fill="#fa0204" stroke="#000" stroke-linejoin="round" stroke-width="3.205" d="M1835.691 1536.434c-3.391 3.235-.755 11.272 2.774 15.282 3.705 4.21 11.794 8.105 15.348 4.703 3.586-3.433.293-12.024-3.593-16.131-3.624-3.83-11.18-7.049-14.53-3.854z"/><path fill="#fa0204" stroke="#000" stroke-linejoin="round" stroke-width="3.205" d="M1835.083 1516.037c-3.392 3.235-.756 11.272 2.773 15.282 3.705 4.21 11.794 8.105 15.348 4.703 3.587-3.433.293-12.024-3.593-16.131-3.624-3.83-11.18-7.049-14.53-3.854z"/><path fill="#fa0204" stroke="#000" stroke-linejoin="round" stroke-width="3.205" d="M1834.778 1496.858c-3.391 3.235-.755 11.272 2.774 15.282 3.705 4.21 11.794 8.105 15.348 4.703 3.586-3.433.293-12.024-3.593-16.131-3.625-3.83-11.18-7.049-14.53-3.854z"/><path fill="#fa0204" stroke="#000" stroke-linejoin="round" stroke-width="3.205" d="M1835.996 1476.766c-3.392 3.234-.755 11.272 2.773 15.282 3.706 4.209 11.795 8.104 15.349 4.702 3.586-3.432.292-12.024-3.594-16.13-3.624-3.83-11.179-7.049-14.53-3.854z"/><path fill="#fa0204" stroke="#000" stroke-linejoin="round" stroke-width="3.205" d="M1835.996 1456.369c-3.392 3.235-.755 11.272 2.773 15.282 3.706 4.209 11.795 8.104 15.349 4.703 3.586-3.433.292-12.025-3.594-16.132-3.624-3.83-11.179-7.048-14.53-3.853z"/><path fill="#fa0204" stroke="#000" stroke-linejoin="round" stroke-width="3.205" d="M1833.56 1439.32c-3.391 3.236-.755 11.273 2.774 15.283 3.705 4.209 11.794 8.104 15.348 4.702 3.586-3.432.293-12.024-3.593-16.13-3.624-3.83-11.18-7.049-14.53-3.854z"/><path fill="#fa0204" stroke="#000" stroke-linejoin="round" stroke-width="3.205" d="M1835.996 1421.968c-3.392 3.235-.755 11.272 2.773 15.282 3.706 4.21 11.795 8.105 15.349 4.703 3.586-3.433.292-12.024-3.594-16.131-3.624-3.83-11.179-7.048-14.53-3.853z"/><path fill="#fa0204" stroke="#000" stroke-linejoin="round" stroke-width="3.205" d="M1833.56 1400.658c-3.391 3.235-.755 11.272 2.774 15.282 3.705 4.21 11.794 8.105 15.348 4.703 3.586-3.433.293-12.024-3.593-16.131-3.624-3.83-11.18-7.049-14.53-3.854zM1836.91 1381.48c-3.392 3.234-.756 11.271 2.773 15.281 3.705 4.21 11.794 8.104 15.348 4.703 3.586-3.433.293-12.024-3.593-16.131-3.625-3.83-11.18-7.049-14.53-3.854z"/><path fill="#fa0204" stroke="#000" stroke-linejoin="round" stroke-width="3.205" d="M1835.996 1360.778c-3.392 3.234-.755 11.272 2.773 15.282 3.706 4.209 11.795 8.104 15.349 4.702 3.586-3.432.292-12.024-3.594-16.13-3.624-3.83-11.179-7.049-14.53-3.854zM1835.691 1339.468c-3.391 3.234-.755 11.272 2.774 15.282 3.705 4.209 11.794 8.104 15.348 4.702 3.586-3.433.293-12.024-3.593-16.13-3.624-3.83-11.18-7.05-14.53-3.854z"/><path fill="#fa0204" stroke="#000" stroke-linejoin="round" stroke-width="3.205" d="M1835.996 1319.375c-3.392 3.235-.755 11.272 2.773 15.282 3.706 4.21 11.795 8.105 15.349 4.703 3.586-3.433.292-12.024-3.594-16.131-3.624-3.83-11.179-7.049-14.53-3.854zM1820.832 1339.55c-4.348 1.748-4.876 10.19-3.083 15.221 1.883 5.283 7.954 11.897 12.515 10.053 4.603-1.861 4.725-11.061 2.636-16.315-1.948-4.9-7.774-10.687-12.07-8.96z"/><path fill="#fa0204" stroke="#000" stroke-linejoin="round" stroke-width="3.205" d="M1810.284 1354.402c-4.348 1.749-4.876 10.191-3.083 15.223 1.883 5.282 7.954 11.896 12.515 10.052 4.603-1.86 4.725-11.061 2.636-16.315-1.948-4.9-7.774-10.687-12.07-8.96z"/><path fill="#fa0204" stroke="#000" stroke-linejoin="round" stroke-width="3.205" d="M1802.66 1371.044c-4.57 1.037-6.43 9.289-5.458 14.541 1.022 5.514 5.968 13.007 10.763 11.91 4.84-1.107 6.42-10.172 5.19-15.69-1.146-5.147-5.98-11.785-10.496-10.761z"/><path fill="#fa0204" stroke="#000" stroke-linejoin="round" stroke-width="3.205" d="M1792.543 1386.974c-4.57 1.037-6.43 9.289-5.458 14.54 1.022 5.515 5.967 13.008 10.763 11.91 4.84-1.107 6.419-10.171 5.19-15.69-1.147-5.147-5.981-11.785-10.496-10.76z"/><path fill="#fa0204" stroke="#000" stroke-linejoin="round" stroke-width="3.205" d="M1784.063 1403.298c-4.684.171-8.042 7.935-8.06 13.276-.02 5.608 3.45 13.888 8.367 13.7 4.96-.19 8.194-8.805 8.01-14.456-.172-5.27-3.692-12.69-8.318-12.52z"/><path fill="#fa0204" stroke="#000" stroke-linejoin="round" stroke-width="3.205" d="M1773.73 1422.457c-4.684.17-8.042 7.934-8.06 13.276-.02 5.608 3.45 13.888 8.367 13.7 4.96-.191 8.194-8.805 8.01-14.457-.172-5.27-3.692-12.689-8.318-12.52z"/><path fill="#fa0204" stroke="#000" stroke-linejoin="round" stroke-width="3.205" d="M1761.675 1440.324c-4.684.17-8.042 7.934-8.06 13.276-.02 5.608 3.451 13.888 8.367 13.7 4.96-.191 8.194-8.805 8.01-14.457-.172-5.27-3.691-12.689-8.318-12.52z"/><path fill="#fa0204" stroke="#000" stroke-linejoin="round" stroke-width="3.205" d="M1749.19 1455.608c-4.684.17-8.042 7.934-8.06 13.276-.02 5.607 3.45 13.888 8.367 13.699 4.96-.19 8.194-8.805 8.01-14.456-.172-5.27-3.692-12.69-8.318-12.52z"/><path fill="#fa0204" stroke="#000" stroke-linejoin="round" stroke-width="3.205" d="M1736.274 1469.815c-4.684.171-8.042 7.935-8.06 13.276-.02 5.608 3.45 13.888 8.367 13.7 4.96-.191 8.194-8.805 8.01-14.456-.172-5.27-3.692-12.69-8.318-12.52z"/><path fill="#fa0204" stroke="#000" stroke-linejoin="round" stroke-width="3.205" d="M1722.066 1481.44c-4.683.17-8.041 7.934-8.06 13.275-.02 5.608 3.451 13.889 8.367 13.7 4.961-.19 8.194-8.805 8.01-14.456-.172-5.27-3.691-12.69-8.318-12.52z"/><path fill="#fa0204" stroke="#000" stroke-linejoin="round" stroke-width="3.205" d="M1708.505 1493.925c-4.684.17-8.042 7.934-8.06 13.276-.02 5.608 3.45 13.888 8.367 13.7 4.96-.191 8.194-8.805 8.01-14.457-.172-5.27-3.692-12.69-8.318-12.52z"/><path fill="#fa0204" stroke="#000" stroke-linejoin="round" stroke-width="3.205" d="M1692.79 1500.167l-5.262 20.596s2.936 7.334 6 7.026c5.481-.552 6.965-9.047 8.01-14.456.947-8.424-8.748-13.166-8.748-13.166zM1648.155 1517.509c-4.167-2.146-10.898 2.977-13.531 7.624-2.764 4.88-3.796 13.798.582 16.042 4.418 2.265 11.457-3.66 14.065-8.677 2.433-4.679 3-12.871-1.116-14.99z"/><path fill="#fa0204" stroke="#000" stroke-linejoin="round" stroke-width="3.205" d="M1642.01 1534.397c-4.415-1.572-10.405 4.4-12.397 9.357-2.09 5.204-1.926 14.18 2.712 15.822 4.68 1.656 10.868-5.153 12.786-10.472 1.787-4.96 1.26-13.155-3.102-14.708z"/><path fill="#fa0204" stroke="#000" stroke-linejoin="round" stroke-width="3.205" d="M1647.737 1549.939c-4.539-1.165-9.962 5.326-11.496 10.443-1.61 5.371-.632 14.296 4.136 15.51 4.81 1.225 10.356-6.117 11.783-11.588 1.33-5.102.06-13.216-4.423-14.366z"/><path fill="#fa0204" stroke="#000" stroke-linejoin="round" stroke-width="3.205" d="M1662.367 1556.309c-4.499-1.313-10.132 4.998-11.832 10.061-1.784 5.317-1.099 14.268 3.626 15.638 4.769 1.382 10.55-5.775 12.156-11.197 1.497-5.056.493-13.206-3.95-14.503z"/><path fill="#fa0204" stroke="#000" stroke-linejoin="round" stroke-width="3.205" d="M1671.912 1558.808c-4.547 1.134-6.232 9.423-5.148 14.653 1.139 5.491 6.242 12.878 11.013 11.68 4.815-1.21 6.202-10.306 4.856-15.798-1.255-5.121-6.23-11.655-10.722-10.535z"/><path fill="#fa0204" stroke="#000" stroke-linejoin="round" stroke-width="3.205" d="M1688.703 1565.05c-4.548 1.134-6.232 9.424-5.148 14.654 1.138 5.491 6.242 12.877 11.013 11.679 4.815-1.21 6.202-10.306 4.856-15.797-1.256-5.122-6.23-11.656-10.722-10.536z"/><path fill="#fa0204" stroke="#000" stroke-linejoin="round" stroke-width="3.205" d="M1701.62 1575.592c-3.986 2.464-3.066 10.873-.441 15.525 2.757 4.883 9.867 10.365 14.047 7.77 4.218-2.619 2.768-11.705-.186-16.526-2.756-4.496-9.483-9.204-13.421-6.77z"/><path fill="#fa0204" stroke="#000" stroke-linejoin="round" stroke-width="3.205" d="M1720.563 1583.341c-3.986 2.465-3.066 10.874-.44 15.526 2.756 4.883 9.867 10.364 14.046 7.77 4.218-2.62 2.769-11.705-.186-16.526-2.755-4.496-9.483-9.204-13.42-6.77z"/><path fill="#fa0204" stroke="#000" stroke-linejoin="round" stroke-width="3.205" d="M1738.645 1586.14c-3.986 2.464-3.065 10.873-.44 15.525 2.756 4.883 9.867 10.365 14.047 7.77 4.217-2.619 2.768-11.705-.187-16.526-2.755-4.496-9.483-9.204-13.42-6.77zM1758.45 1591.09c-3.986 2.466-3.066 10.874-.441 15.526 2.757 4.883 9.867 10.365 14.047 7.77 4.218-2.619 2.768-11.705-.186-16.526-2.756-4.495-9.484-9.204-13.421-6.77z"/><path fill="#fa0204" stroke="#000" stroke-linejoin="round" stroke-width="3.205" d="M1776.317 1593.674c-3.986 2.465-3.066 10.873-.441 15.525 2.757 4.884 9.867 10.365 14.047 7.77 4.218-2.619 2.768-11.705-.186-16.526-2.756-4.495-9.484-9.204-13.421-6.77z"/><path fill="#fa0204" stroke="#000" stroke-linejoin="round" stroke-width="3.205" d="M1793.968 1597.333c-3.986 2.465-3.066 10.874-.44 15.526 2.756 4.883 9.867 10.364 14.046 7.77 4.218-2.62 2.769-11.705-.186-16.526-2.755-4.496-9.483-9.204-13.42-6.77z"/><path fill="#fa0204" stroke="#000" stroke-linejoin="round" stroke-width="3.205" d="M1812.05 1602.285c-3.985 2.464-3.065 10.873-.44 15.525 2.757 4.883 9.867 10.364 14.047 7.77 4.218-2.62 2.768-11.705-.186-16.526-2.756-4.496-9.484-9.204-13.421-6.77zM1898.828 1604.941c-2.878 3.7.914 11.26 4.995 14.706 4.285 3.618 12.86 6.278 15.874 2.39 3.041-3.924-1.483-11.936-5.931-15.426-4.15-3.254-12.096-5.324-14.94-1.67z"/><path fill="#fa0204" stroke="#000" stroke-linejoin="round" stroke-width="3.205" d="M1916.177 1603.805c-2.29 4.09 2.594 10.995 7.147 13.79 4.78 2.932 13.656 4.275 16.052-.021 2.418-4.336-3.258-11.578-8.18-14.36-4.59-2.595-12.758-3.448-15.02.591z"/><path fill="#fa0204" stroke="#000" stroke-linejoin="round" stroke-width="3.205" d="M1936.197 1600.576c-2.29 4.09 2.594 10.995 7.146 13.79 4.78 2.932 13.657 4.275 16.053-.021 2.417-4.336-3.258-11.578-8.18-14.36-4.591-2.595-12.758-3.448-15.02.592z"/><path fill="#fa0204" stroke="#000" stroke-linejoin="round" stroke-width="3.205" d="M1953.48 1595.433c-1.903 4.283 3.597 10.709 8.388 13.071 5.03 2.479 13.993 2.997 15.982-1.503 2.007-4.54-4.312-11.228-9.47-13.544-4.81-2.159-13.022-2.255-14.902 1.976z"/><path fill="#fa0204" stroke="#000" stroke-linejoin="round" stroke-width="3.205" d="M1972.423 1589.836c-1.903 4.283 3.598 10.709 8.389 13.071 5.03 2.479 13.993 2.997 15.982-1.503 2.007-4.54-4.313-11.228-9.471-13.543-4.81-2.16-13.022-2.255-14.901 1.975z"/><path fill="#fa0204" stroke="#000" stroke-linejoin="round" stroke-width="3.205" d="M1991.262 1583.893c-1.646 4.388 4.225 10.477 9.147 12.552 5.168 2.178 14.146 2.165 15.865-2.444 1.736-4.651-4.968-10.954-10.254-12.96-4.93-1.872-13.132-1.482-14.758 2.852z"/><path fill="#fa0204" stroke="#000" stroke-linejoin="round" stroke-width="3.205" d="M2010.421 1577.65c-1.646 4.388 4.224 10.478 9.147 12.553 5.167 2.177 14.145 2.165 15.865-2.445 1.735-4.651-4.968-10.953-10.255-12.96-4.93-1.872-13.132-1.482-14.758 2.853z"/><path fill="#fa0204" stroke="#000" stroke-linejoin="round" stroke-width="3.205" d="M2028.934 1569.9c-1.646 4.388 4.224 10.478 9.146 12.553 5.168 2.177 14.146 2.165 15.866-2.444 1.735-4.652-4.969-10.954-10.255-12.96-4.93-1.872-13.132-1.483-14.758 2.852zM2048.738 1561.72c-1.646 4.388 4.225 10.478 9.147 12.553 5.167 2.177 14.145 2.165 15.865-2.445 1.735-4.65-4.968-10.953-10.254-12.96-4.93-1.871-13.133-1.482-14.759 2.853z"/><path fill="#fa0204" stroke="#000" stroke-linejoin="round" stroke-width="3.205" d="M2068.758 1555.263c-1.646 4.388 4.224 10.477 9.146 12.552 5.168 2.177 14.146 2.165 15.866-2.444 1.735-4.652-4.969-10.954-10.255-12.96-4.93-1.872-13.132-1.483-14.758 2.852z"/><path fill="#fa0204" stroke="#000" stroke-linejoin="round" stroke-width="3.205" d="M2071.126 1539.548c-1.647 4.388 4.224 10.478 9.146 12.553 5.168 2.177 14.146 2.165 15.866-2.445 1.735-4.651-4.969-10.953-10.255-12.96-4.93-1.872-13.132-1.482-14.758 2.853z"/><path fill="#fa0204" stroke="#000" stroke-linejoin="round" stroke-width="3.205" d="M2066.71 1534.88s13.55 1.991 14.79-2.875c1.645-6.463-15.421-12.746-15.421-12.746zM2017.208 1513.25c1.61 6.125 15.26 11.315 15.26 11.315l-6.65-27.758c-5.718.154-9.495 12.436-8.61 16.444z"/><path fill="#fa0204" stroke="#000" stroke-linejoin="round" stroke-width="3.205" d="M2016.006 1490.954c-4.359-1.721-10.549 4.043-12.708 8.929-2.267 5.129-2.41 14.106 2.17 15.905 4.62 1.815 11.037-4.779 13.135-10.029 1.957-4.897 1.709-13.105-2.597-14.806z"/><path fill="#fa0204" stroke="#000" stroke-linejoin="round" stroke-width="3.205" d="M2000.819 1478.668c-4.68-.243-8.712 7.193-9.202 12.512-.515 5.584 2.21 14.139 7.124 14.385 4.958.25 8.94-8.046 9.256-13.69.294-5.266-2.556-12.967-7.18-13.207z"/><path fill="#fa0204" stroke="#000" stroke-linejoin="round" stroke-width="3.205" d="M1987.424 1464.969c-4.68-.243-8.712 7.193-9.202 12.512-.514 5.584 2.21 14.139 7.124 14.385 4.958.249 8.94-8.046 9.256-13.691.294-5.265-2.556-12.966-7.18-13.207z"/><path fill="#fa0204" stroke="#000" stroke-linejoin="round" stroke-width="3.205" d="M1974.942 1449.443c-4.68-.243-8.711 7.193-9.202 12.512-.514 5.584 2.21 14.139 7.124 14.385 4.958.249 8.94-8.046 9.256-13.691.295-5.265-2.555-12.966-7.179-13.207z"/><path fill="#fa0204" stroke="#000" stroke-linejoin="round" stroke-width="3.205" d="M1962.156 1436.352c-4.68-.243-8.711 7.193-9.202 12.512-.514 5.585 2.21 14.14 7.124 14.386 4.958.248 8.94-8.046 9.256-13.692.294-5.264-2.556-12.966-7.179-13.206z"/><path fill="#fa0204" stroke="#000" stroke-linejoin="round" stroke-width="3.205" d="M1951.805 1418.391c-4.68-.243-8.711 7.193-9.202 12.512-.514 5.584 2.21 14.139 7.124 14.385 4.959.249 8.94-8.046 9.256-13.691.295-5.265-2.555-12.966-7.178-13.207z"/><path fill="#fa0204" stroke="#000" stroke-linejoin="round" stroke-width="3.205" d="M1940.541 1402.256c-4.68-.243-8.71 7.193-9.202 12.512-.514 5.584 2.21 14.139 7.124 14.385 4.959.25 8.94-8.046 9.257-13.69.294-5.266-2.556-12.967-7.18-13.207z"/><path fill="#fa0204" stroke="#000" stroke-linejoin="round" stroke-width="3.205" d="M1930.19 1385.208c-4.68-.243-8.71 7.193-9.201 12.512-.514 5.584 2.21 14.139 7.124 14.385 4.958.249 8.94-8.046 9.256-13.69.294-5.266-2.556-12.967-7.179-13.208z"/><path fill="#fa0204" stroke="#000" stroke-linejoin="round" stroke-width="3.205" d="M1921.058 1365.42c-4.68-.243-8.711 7.193-9.202 12.512-.514 5.584 2.21 14.139 7.124 14.385 4.958.25 8.94-8.046 9.256-13.69.294-5.266-2.556-12.967-7.179-13.207z"/><path fill="#fa0204" stroke="#000" stroke-linejoin="round" stroke-width="3.205" d="M1911.012 1347.459c-4.68-.243-8.712 7.193-9.202 12.512-.514 5.584 2.21 14.139 7.124 14.385 4.958.249 8.94-8.046 9.256-13.691.294-5.265-2.556-12.966-7.18-13.207z"/><path fill="#fa0204" stroke="#000" stroke-linejoin="round" stroke-width="3.205" d="M1902.792 1326.149c-4.68-.244-8.711 7.193-9.202 12.512-.514 5.584 2.21 14.138 7.124 14.385 4.958.248 8.94-8.046 9.256-13.691.295-5.265-2.556-12.967-7.179-13.207z"/><path fill="#fa0204" stroke="#000" stroke-linejoin="round" stroke-width="3.205" d="M1883.848 1304.564s-1.647 26.677 8.038 28.39c6.038 1.067 10.778-14.91 10.778-14.91z"/><path fill="#ce9d09" stroke="#000" stroke-linejoin="round" stroke-width="3.2046" d="M1856.312 1738.257a12.916 12.916 0 11-25.832 0 12.916 12.916 0 1125.832 0zM1885.803 1722.973a12.916 12.916 0 11-25.832 0 12.916 12.916 0 1125.832 0z"/><path fill="#ce9d09" stroke="#000" stroke-linejoin="round" stroke-width="3.205" d="M1859.325 1780.019l-32.72-.646s-4.245-26.613 16.145-27.77c16.924-.96 17.252 28.364 16.575 28.416z"/><path fill="#fa0204" stroke="#000" stroke-linejoin="round" stroke-width="3.205" d="M1869.363 1867.006c-4.926-6.19-40.227-8.828-54.096-.391-5.02 0-18.54-93.848 29-91.529 43.656 2.13 28.129 92.354 25.096 91.92zM1825.96 1810.371c-6.094 21.218-4.669 38.05 3.013 51.233M1838.445 1811.232c-1.745 18.485-1.096 35.601 5.166 49.51M1885.372 1791.858c7.049 17.864 11.37 33.241 4.736 53.386"/><path fill="#e6e6e6" stroke="#000" stroke-width="3.205" d="M1571.935 1140.426l-1.821 34.263"/><path fill="#e6e6e6" stroke="#000" stroke-linejoin="round" stroke-width="3.205" d="M2153.817 1139.516l1.738 34.097"/><path fill="none" stroke="#000" stroke-linecap="round" stroke-linejoin="round" stroke-width="3.205" d="M1854.65 765.196l8.324-2.437 8.325 2.437"/><path fill="#fff" stroke="#000" stroke-linecap="round" stroke-linejoin="round" stroke-width="3.205" d="M1729.631 870.979s5.236 4.18 8.284 3.94c4.378-.341 7.063-5.255 10.873-7.438 4.849-2.78 10.01-4.993 15.164-7.154 7.125-2.985 14.367-5.727 21.746-8.011 9.303-2.88 18.687-5.764 28.326-7.153 9.731-1.402 19.663-1.809 29.471-1.145 6.596.447 19.532 3.434 19.532 3.434s-5.515 2.236-8.042 3.783c-2.91 1.783-6.555 3.225-8.092 6.272-1.307 2.59-1.358 6.04-.203 8.7 1.332 3.067 4.39 5.415 7.486 6.676 2.735 1.115 8.85.405 8.85.405s-7.024.266-9.457 2.428c-1.676 1.489-2.522 4.032-2.428 6.272.13 3.074 1.617 6.408 4.047 8.295 2.107 1.637 7.839 1.619 7.839 1.619s-2.951.323-4.348-.066c-1.92-.535-3.883-1.487-5.166-3.014-1.329-1.582-1.957-3.755-2.153-5.812-.206-2.172-.183-4.676 1.077-6.458 1.088-1.538 4.946-2.735 4.946-2.735s-3.124-.793-4.516-1.57c-2.182-1.218-5.812-4.736-5.812-4.736s-2.975.065-4.305.646c-2.948 1.287-5.704 3.383-7.534 6.027-1.847 2.668-3.545 6.055-3.014 9.257.528 3.185 3.253 5.78 5.812 7.75 2.576 1.982 9.041 3.659 9.041 3.659s-.23 2.18-.86 3.013c-2.12 2.797-5.59 4.562-8.966 5.521-5.226 1.484-11.089.828-16.3.024-5.265-.813-9.23-2.277-15.242-4.849-2.037-.872-3.838-5.431-3.838-5.431s4.332-3.346 4.736-5.813c.397-2.42-.904-5.1-2.583-6.888-1.561-1.662-3.962-2.835-6.243-2.798-3.112.05-6.779 1.43-8.395 4.09-1.453 2.392-.967 5.857.215 8.395 1.052 2.258 5.597 4.951 5.597 4.951-1.163 4.731-2.788 7.153-4.52 9.041-6.315 3.604-12.63 5.621-18.944 7.534l-3.66-2.368-2.582-4.52s3.733-5.166 3.874-8.18c.118-2.517-1.179-5.012-2.583-7.104-1.188-1.772-2.76-3.5-4.736-4.305-1.861-.759-4.087-.745-6.027-.215-2.957.807-7.75 4.95-7.75 4.95s-4.739-3.79-6.457-6.242c-1.715-2.446-3.66-8.18-3.66-8.18z"/></svg>