<svg xmlns="http://www.w3.org/2000/svg" xmlns:xlink="http://www.w3.org/1999/xlink" width="750" height="500" viewBox="0 0 750 500"><path fill="#fff" d="M0 0h750v500H0z"/><path fill="#d42e12" d="M184.013 105.044V50.605h17.751l11.61 41.43 11.451-41.43h17.83v54.439h-11.252V61.138l-11.848 43.906h-12.283l-12.006-43.906v43.906h-11.253m92.56-43.536L268.49 84.68h16.207l-8.123-23.172M269.6 50.605h13.868l21.04 54.439h-12.6l-3.962-11.198H265.32l-3.844 11.198h-12.64L269.6 50.605m67.004 54.439h-12.006v-20.29l-21.199-34.149h14.7l12.482 23.468 11.53-23.468h13.71l-19.217 34.15v20.289m34.155-27.164c0 5.987 1.427 10.644 4.28 13.97 2.853 3.302 6.841 4.952 11.966 4.952 5.177 0 9.206-1.65 12.085-4.952 2.88-3.326 4.32-7.983 4.32-13.97 0-5.987-1.44-10.631-4.32-13.933-2.88-3.326-6.908-4.99-12.085-4.99-5.125 0-9.113 1.652-11.966 4.953-2.853 3.302-4.28 7.958-4.28 13.97m-12.243 0c0-8.796 2.562-15.768 7.687-20.918 5.15-5.174 12.085-7.76 20.802-7.761 8.717 0 15.651 2.587 20.802 7.761 5.178 5.174 7.767 12.147 7.767 20.918 0 8.771-2.59 15.744-7.767 20.918-5.15 5.174-12.085 7.761-20.802 7.761-8.717 0-15.651-2.587-20.802-7.76-5.125-5.175-7.687-12.148-7.687-20.919m78.653 27.164V60.325h-17.316v-9.72h46.518v9.72h-17.196v44.72h-12.006m48.182 0v-44.72h-17.316v-9.72h46.518v9.72h-17.196v44.72H485.35m36.097 0v-54.44h42.358v9.462h-30.51V71.67h27.894v9.314h-27.895v14.007h31.937v10.052h-43.784"/><g id="a"><path fill="#dfdfdf" d="M4255 8413c-142-20-249-59-392-145-46-28-89-48-97-45s-17 27-21 56c-4 27-13 58-20 67-20 28-39 5-76-89-17-45-36-88-41-94-18-22-42-14-71 22-29 37-73 48-83 21-3-8-1-40 5-72 18-94-11-108-93-45-71 55-98 66-125 52-28-15-27-36 9-119 31-72 33-124 3-82-8 11-45 36-83 54-38 19-97 50-132 70-35 19-83 42-107 51-44 15-282 50-302 43-6-2 27-29 72-61 99-68 289-242 289-264 0-13-11-15-80-9-91 8-89 11-69-84 7-33 8-55 2-61s-37-4-84 6c-41 8-77 15-81 15-15 0-8-79 13-146 20-63 20-69 4-80-20-15-43-8-195 62-90 42-113 49-162 47-31-1-68-8-83-16l-28-14 65-70c77-84 155-196 167-241 22-75-52-88-301-56-136 18-228 15-273-9-35-18-155-130-155-145 0-5 58-12 129-15 149-6 257-32 346-81 84-46 82-56-9-56-76 0-120-12-160-44-19-15-19-16 0-37 29-32 85-57 154-68 35-6 65-12 67-15 2-2-29-9-69-15-104-17-250-60-321-96-64-32-67-36-80-129l-6-38 32 7c50 11 308 17 350 8 64-14 46-28-53-40-124-15-194-29-227-46l-26-14 54-26c30-15 99-36 154-47 234-48 263-75 67-65-161 8-225 2-220-23 5-28 104-76 207-102 63-16 39-28-64-32-93-3-163-27-192-66-23-29-9-161 18-178 6-3 18 1 27 9 9 9 50 31 91 51 77 37 78 37 188 20 47-7 88-46 123-118 17-34 52-88 78-120s56-69 66-82c19-23 19-24-2-66-11-24-23-51-26-60-18-62-324-41-565 39-96 32-238 102-302 149l-49 36v-39c0-96 75-259 150-326l48-43-49-94c-61-117-65-162-18-209 17-18 29-38 25-46-3-8-29-28-58-44-90-51-86-46-49-65 18-10 67-20 107-23 44-4 79-11 85-19 25-30-27-96-117-150-15-9-4-13 61-23 44-6 108-12 142-13l62-2-21-38c-25-45-72-94-111-118l-28-18 31-4c17-3 52-1 78 3 75 12 166 10 186-4 31-23 5-75-73-150l-68-66 44-7c83-12 188 1 244 30 29 14 54 25 56 23 14-15-40-160-75-200-8-9-12-20-8-25 4-4 58-7 119-7 87 0 120 4 146 18 19 9 36 17 38 17 1 0 3-21 3-47 0-34-7-55-26-80l-25-33h28c65 1 219 51 274 91 36 25 39 24 39-13-1-42-23-103-46-129-21-24-16-24 82 1 88 22 166 53 206 81 37 27 41 24 33-18-9-50-28-79-66-99-17-8-29-18-26-20 8-9 219 24 267 41 24 8 52 23 62 32 17 15 18 15 18-9 0-14-11-46-25-72s-25-49-25-52c0-8 55 9 119 37 35 16 76 29 91 29 34 0 74-31 105-80 17-27 43-47 93-72l70-35 4 41c5 37 170 471 186 488 7 7 208-131 402-275 117-87 386-354 465-462 217-296 288-500 289-830 0-182-12-279-54-454-92-374-306-730-549-910-160-119-349-159-701-148-426 13-692 102-889 295-146 144-242 332-282 552-6 36-11 124-11 195 0 244 55 413 175 542 104 111 215 172 357 194 135 21 289-24 384-111 66-61 69-90 17-194-46-93-50-117-21-146 27-27 83-26 147 5 93 43 139 148 131 294-8 131-69 216-207 286-134 67-202 80-411 79-173 0-191-2-275-28-168-51-270-119-349-229-180-254-279-690-221-972 45-215 165-448 332-640 282-326 656-475 1193-475 398 0 680 76 960 258 312 202 514 464 685 887 46 116 64 188 72 288 3 49 11 89 20 99 40 46 54 177 29 262l-15 48 31 27c55 49 49 155-13 226l-29 33 33 33c43 44 62 127 54 237-5 76-39 182-58 182-20 0-7 27 22 44 45 27 69 72 69 132 0 121-50 307-87 321-15 6-18 33-4 33 23 0 54 94 59 179 6 107-15 189-59 233l-29 30 31 64c27 55 31 71 26 117-11 106-128 302-216 360-32 21-41 33-41 56 0 67-55 166-147 265-96 102-127 148-147 220-14 46-29 70-71 112-49 49-153 111-215 127-13 3-20 13-20 29-1 64-80 171-150 203-35 16-40 22-40 51 0 41-34 82-114 137-76 51-196 82-381 98-389 32-562 97-745 279-111 110-154 184-194 330-33 121-35 234-5 322 21 62 88 188 100 188 4 0-2-33-13-72-26-95-29-251-5-327 33-106 98-185 189-232 62-32 92-39 198-49 110-10 184-32 220-65 54-50 175-56 291-16 30 11 86 23 125 26l72 7 93-65c96-66 511-300 584-329 133-53 283-16 346 85 51 81 5 157-212 353-176 158-218 212-241 304-10 39-42 124-73 188-73 157-74 184-5 256 27 29 57 69 65 90 16 37 23 121 12 133-6 5-73-9-108-22-11-4-13 11-10 80 2 54-2 97-9 116l-13 30-36-35c-37-36-64-45-76-26-3 5-10 34-15 64-10 63-50 161-60 149-4-4-13-25-20-45-6-21-15-38-20-38-4 0-11 24-15 53-11 86-23 122-50 147-22 21-28 22-35 10-5-8-10-26-10-40 0-44-28-133-65-208-72-144-140-130-280 55-80 106-92 139-70 187 53 112 275 263 484 328 39 12 71 25 71 29 0 19-50 64-94 85-50 23-108 28-191 17z" transform="matrix(.03574 0 0 -.03574 68.5 445.48)"/><path d="M245.469 297.449c2.27-1.261-8.741-1.063-11.069-1.038-1.576.475-3.024 1.162-3.508.937-.484-.224-.095-1.984.396-4.976 1.733-1.422 3.528-2.185 5.438-2.741 1.821-.646 3.428-1.07 5.506-1.733 1.992-.238 2.637-.147 5.472-.765-3.325-.53-5.686-.123-8.993-3.606 1.337-.803 1.863-1.82 3.47-2.206 1.607-.344 2.172-.29 3.492-.29 2.53 0 3.27.463 1.577-.758-1.694-1.22-4.927-2.606-8.557-3.266-3.19-.55-8.03-.567-10.362-.66 1.07-2.117 3.062-3.354 4.272-4.674 1.98-2.42 6.53-2.366 13.35-1.266 10.78 1.32 11.44 0 4.62-8.58l-4.335-4.77 2.75-1.092 3.003-.081c2.86.66 6.502 2.863 8.702 3.743 3.52 1.54 3.33.09 2.23-2.77-.88-2.42-.243-2.407-.584-5.085 1.76 0 6.4 1.76 6.4.66 0-1.32-.608-2.203-.95-5.239 1.54 0 4.993.414 5.753.25s-1.057-1.914-2.907-3.573l-4.762-4.268-6.727-4.535 9.98 1.25c3.08 0 7.954 3.345 10.539 4.693 1.292.674 2.519.882 3.295 1.697 1.778.66-.358 2.421.93.8.657-1.18-2.385-4.67-1.972-6.493 2.181-4.16 7.07 3.455 8.133 2.225 2.035-.22-.996-4.958.618-5.919 2.303-1.371 3.614 3.338 4.854 2.506 1.24-.833 2.043-6.87 4.003-7.628s1.161 6.16 2.481 5.226c2.86-1.98 9.05-5.866 14.142-6.57 2.545-.353 5.511-1.085 8.022-.632 2.512.452 4.881 2.179 5.564 4.287-3.382.987-3.916 1.078-7.436 2.618-3.52 1.32-8.14 4.62-10.34 6.82-3.74 4.18-3.74 4.62.44 9.9 5.28 7.26 7.92 6.82 10.78-1.54 1.21-3.3.833-5.397 1.407-6.52.332.242 1.536.74 2.26 1.874.635.99 1.2 5.37 1.194 6.513.53-.322 1.024-1.76 1.52-4.067 1.322 2.55 1.7 3.388 2.14 4.598s.059 4.422 1.38 4.422c.77 0 1.704-1.487 3.343-2.935 1.416 2.658 1.214 5.98.649 8.498 1.108-.362 3.381-1.136 4.485-1.24.344 1.326.322 2.92.054 4.126-.803 1.725-1.052 3.21-2.812 4.53-2.64 2.2-2.64 3.52 0 8.58 1.76 3.3 3.08 7.04 3.08 8.58 0 1.32 3.96 5.72 9.02 9.9 6.16 5.28 8.36 8.58 7.48 11-2.2 5.28-9.02 6.82-15.18 3.52-2.86-1.54-9.24-5.06-14.3-7.92-3.41-1.87-5.655-3.908-7.735-5.216-3.342-.045-5.889.263-8.765 1.697-4.4.66-7.92.22-8.8-1.1s-4.4-2.42-7.7-2.42c-8.8 0-14.561-5.82-14.906-14.342-.132-3.703.368-6.043 1.597-10.212-4.857 7.67-5.142 11.207-3.398 17.974 2.101 9.446 11.867 21.54 33.427 21.76 4.07.11 7.48 1.264 11.329 2.035 2.46 1.457 7.709 4.247 6.643 7.745 3.992 1.064 6.732 5.203 6.79 8.598 9.8 2.933 11.098 8.682 11.098 9.782s2.42 4.4 5.5 7.26 5.121 7.484 4.742 10.034c3.41 1.76 4.632 4.33 6.706 7.126 1.758 3.569 4.685 8.01.367 13.348 4.521 1.676 4.323 14.477.713 16.331 2.656 1.825 3.226 6.278 3.792 12.34.025 2.04-.634 3.867-3.873 5.48.863.436 1.55 1.63 2.019 3.193.47 1.563.723 3.494.72 5.399-.002 1.905-.26 3.785-.815 5.248s-1.403 2.508-2.587 2.743c4.037 2.636 3.94 9.609.46 10.328 1.949 3.56 1.337 10.556-1.15 11.93.544 7.18-2.3 12.275-3.806 16.07-3.012 7.59-6.979 14.025-11.953 19.429-4.974 5.403-10.955 9.776-17.995 13.24-15.4 7.48-41.58 7.26-56.54-.44-13.2-6.82-23.98-21.56-26.18-35.86-1.98-12.76 4.18-31.46 12.1-37.4 12.54-9.24 36.96-6.16 40.48 5.06 1.76 5.72-.44 12.54-4.62 14.08-5.5 1.98-7.7-.66-4.62-5.5 2.2-3.74 1.98-4.84-1.54-7.7-10.56-7.7-26.4-.88-30.14 12.76-4.62 17.6 2.64 35.42 17.38 42.68 12.32 6.16 37.18 6.6 45.98 1.1 17.16-10.78 27.94-40.04 22.66-62.04-2.86-12.1-14.74-27.06-30.14-37.4l-9.68-6.82-3.52 9.02c-1.87 4.73-3.52 7.357-3.075 10.346-2.858-1.744-3.89-1.429-5.862-3.286-.88-1.98-2.503-4.2-4.923-3.54-.55.166-3.885 2.129-7.205 2.581 1.144-2.673 2.303-2.75 2.167-5.415-1.78 2.27-6.88 2.552-13.492 3.252 5.173-2.961 4.191-3.54 4.576-6.03-1.98 2.24-6.922 3.636-12.637 4.664 2.947-3.079 2.443-4.026 2.732-6.829-2.898 2.851-9.956 4.444-12.574 4.276 2.293-2.667 2.33-2.632 2.285-5.931-2.573 2.02-7.328 1.735-11.581.982 2.621-2.806 3.424-5.902 3.574-8.255-3.448 3.206-9.095 2.515-12.785 1.903 2.89-2.564 4.641-4.007 5.539-5.616 1.046-2.021.341-2.681-3.179-2.681-2.42 0-4.094 1.551-7.666.184 5.179-2.048 6.585-8.665 7.748-8.799 4.633-.532-6.445 8.432 3.472 6.544 2.477-.355 3.604-.312 5.441-.207-1.287 1.89-1.507 1.969-2.615 3.378-1.245 1.835-1.493 4.226-4.439 5.773 2.5.015 4.545.243 6.2-1.071s1.674-1.85 5.164-4.362c.476 2.631.241 3.158-.017 4.902-.446 3.018-1.029 3.812-1.937 6.199 3.79.878 6.119-.317 6.78-1.952.99-1.034 2.404-3.666 4.347-4.198.789 2.371-.05 2.463-.34 4.472-.827 2.259-1.032 3.867-1.74 5.987 3.846-1.095 6.208-2.482 8.642-5.41 4.18-3.52 4.18-3.52 2.86 1.1-.544 3.08-.412 3.768-1.53 6.427 3.704-.646 7.14-2.357 9.01-5.327 2.2-3.3 2.42-3.08 1.54 1.1-.124 2.812.364 3.267-.328 5.987 3.362-.711 5.828-2.027 7.588-4.887 2.2-3.3 2.42-3.08 1.54 1.1-.55 2.64.46 3.184-1.098 5.939 3.799-1.62 3.958-1.21 5.278-3.3.88-1.76 2.33.59 4.09 3.89 1.43 2.53 2.592 2.724 3.658 2.848.261-1.93 1.052-3.217 2.812-7.397 1.98-4.84 3.3-8.8 3.08-9.24-.44-.22-5.94-3.08-12.1-6.38-6.38-3.08-11.66-6.6-11.66-7.92 0-1.1-1.1-1.98-2.64-1.98-3.52 0-12.76-8.8-12.76-12.1 0-1.54-1.98-5.28-4.4-8.14-3.3-4.4-7.04-5.94-16.94-7.04-6.999-1.237-12.871-3.08-16.5-5.06-1.816-.95-2.064-1.754-3.459-2.295-.055 1.155.709 4.715 3.239 7.135 1.43 1.54 2.895 1.874 4.196 2.678-1.224 1.245-2.106 3.592-3.096 5.242-2.2 3.52-2.2 4.62.88 5.72 2.86 1.1 2.86 1.76.44 3.3-.99.77-2.48 1.3-3.524 1.972 1.635.406 2.913.509 6.033-.289 3.96-2.397 4.263-1.69 2.551.737-1.403 2.117-2.351 4.481-4.391 6.124 2.335.124 3.401-.294 5.491-1.064 2.2-.88 4.062-1.47 2.55 1.945-1.436 2.387-.643-1.284-2.006 1.865-2.349.454-7.683-.106-11.584-1.049 3.51-1.925 4.794-3.43 5.234-4.42.66-1.98-1.234-1.861-2.994-1.861-.77 0-3.315.308-5.217-1.803 1.58-.86 3.982-1.638 5.428-3.452-4.51-2.6-1.89-6.542-.838-8.414.87-1.496.941-2.288 1.952-3.841-1.388-.101-3.415-2.73-4.405-4.49-2.09-3.74-2.997-7.294-2.694-10.351 2.981 2.3 4.137 3.042 5.994 3.964 3.152 1.885 9.917 4.256 15.894 5.16 5.977.904 11.166.787 11.166-1.413s2.392-2.018.662-3.777c-3.239-3.293-4.982-6.25-5.991-9.164-1.886-2.283-4.267-2.451-7.423-2.484-1.674.895-4.94 1.675-6.448 3.853-1.418-.678-2.149-5.047-1.43-7.127.308-.893 3.951-2.604 6.006-2.676 2.054-.072 3.145.513 4.954-.254-2.13-.613-3.294-.577-5.513-1.683-1.973-.984-3.886-1.568-3.627-2.82.32-1.55 11.233-.494 12.773-.439 1.265.055-2.386-1.46-5.076-1.8-1.765-.632-5.7-.385-9.68-3.339 2.937-1.887 4.484-1.093 6.892-1.982m9.065.362c-.886 1.865-11.493 1.358-8.543 2.128 0 0 8.193 1.51 10.904 3.838.48 2.06-2.38 2.973-2.38 2.973l-10.39-1.107c-.11 1.422 10.1 1.959 9.75 4.095-.115.693.565 1.998-2.834 1.61-3.094.143-6.89-.172-9.188 1.016-1.67.833-1.87 2.683-1.346 4.268 1.511-1.232 3.916-2.246 5.236-2.686 2.818-.365 4.857.214 6.762 1.029s3.229 1.687 4.885 4.946c1.1 2.86 4.62 6.16 7.92 7.48 3.52 1.1 9.144 4.113 11.66 7.48 2.79 3.732 4.87 6.757 11.59 10.638 6.6 5.94.9 3.829 3.726 4.263 7.575 1.163 11.744 2.919 13.064 4.679 1.54 1.76 5.06 3.74 7.92 4.4 3.08.88 5.5 2.42 5.5 3.52 0 1.32 1.54 2.2 3.52 2.2 4.84 0 26.4 22.66 30.36 31.68 7.48 16.94 8.8 23.1 8.8 39.6-.22 11-1.54 20.9-3.52 25.52-4.4 10.34-23.163 31.115-28.223 31.115-.894.253-.533.161-1.594.333-.486.726-.764.796-2.483 1.599-2.498 1.248-5.7 1.858-9.606 1.97-3.906.111-8.514-.276-13.825-1.02-5.31-.744-10.518-1.846-14.397-3.133-3.88-1.287-5.307-1.984-6.432-3.17-.336-.356-1.23-.817-1.08-2.363-.798.727-2.653.555-4.87-1.45-1.8-1.63-3.532-2.389-2.63-4.026-2.38-.249-2.787-1.26-4.662-3.897-1.234-1.734-2.636-3.267-2.036-5.72-1.64.326-2.452-1.968-3.391-4.141-.824-1.905-2.292-4.5-.465-5.44-2.1.053-1.706-2.515-1.962-4.301-.255-1.786-.782-4.56 1.336-5.045-2.17-.685-1.24-2.926-.914-4.936.458-2.82.717-4.345 2.517-4.718-1.609-.719-.628-3.365.433-6.975.85-2.894 2.798-3.95 5.04-3.47-2.144-1.635 1.772-4.304 2.614-5.006 2.338-1.952 4.997-2.677 5.519-1.408-.225-2.375 8.068-2.585 11.24-2.227 3.173.358 5.96 1.789 8.93 4.209 4.62 3.74 4.84 4.84 2.42 8.8-2.86 5.06-.66 6.16 3.52 1.98 4.4-4.4 3.08-9.9-3.3-14.96-4.84-3.96-8.14-4.62-16.5-3.96-14.74 1.54-20.68 6.16-24.86 19.8-6.6 22.66 2.42 45.1 22.22 54.78 8.8 4.18 14.08 5.28 28.38 5.28 20.9-.22 33.88-5.28 45.98-18.7 7.48-8.14 15.84-29.406 13.2-33.366-4.294-1.827 0-1.834 1.32-1.834 1.76 0 2.42-9.116-.856-10.773 6.539.025 3.076-8.146-.86-9.754 3.524-.084 5.268-3.53 5.373-7.176.104-3.646-1.43-7.491-4.461-8.373-2.285-.665-.181-1.273 1.964-1.76 2.558-.582 3.541-.964 3.226-5.521-.38-2.987-1.43-7.979-3.595-8.899-2.228-.947-5.698-1.222-7.633-1.396 2.35-.757 4.59-1.197 6.403-1.348 3.96-1.65 5.295-9.659 1.735-11.901-3.561-2.243-12.523 2.165-12.994.346 1.747-1.912 7.16-2.383 9.564-4.13 2.942-2.893 5.655-5.655.815-12.475-2.42-3.74-2.035-4.667-4.837-5.7-3.714-.15-11.68 4.85-17.774 4.655 2.791-2.323 12.284-4.187 15.313-6.384 3.029-2.196.73-5.608-2.382-9.511-3.74-3.3-5.28-3.52-10.12-1.32-3.3 1.32-8.523 2.694-14.183 3.641 2.197-2.267 12.203-4.741 14.403-6.501 4.18-3.08 4.18-4.372.22-8.772l-5.924-2.435-6.616 3.507c-4.84 2.2-12.33 4.811-12.33 4.151 0-.44 6.83-3.491 10.35-5.471 3.74-1.98 6.018-4.84 6.018-6.38 0-5.5-5.075-6.23-12.853-.81-3.96 2.31-13.846 5.325-14.437 4.213-.732-1.379 6.63-2.729 10.272-4.503 3.616-2.063 10.407-5.446 10.407-7.206-.893-2.984-4.907-5.114-22.287-7.094-12.98-1.54-19.8-5.72-25.52-15.18-7.04-11.44-5.72-21.34 3.74-30.36l7.92-7.48-4.62 7.04c-8.58 12.32-4.4 27.06 7.7 27.06 2.86 0 7.04 1.1 9.24 2.64 3.08 1.76 5.761 1.38 8.347.618l4.205-1.238 1.457-.314-6.089-4.126c-6.82-3.3-9.68-9.68-5.94-13.42 1.32-1.32 1.76 0 1.1 3.52-.88 4.18 0 6.16 3.08 7.26 2.2 1.1 6.6 3.52 9.46 5.72 9.46 6.82 22.22 14.74 23.54 14.74.66 0-.44-2.2-2.86-5.06-2.42-2.64-1.1-2.2 2.86 1.54 5.94 5.28 7.7 5.94 10.56 3.52 4.84-3.96 4.18-5.72-4.18-11-5.06-2.86-8.58-7.48-10.34-12.76-1.32-4.4-3.52-9.24-4.4-10.56-1.32-1.54-.66-3.52 1.32-5.28 1.87-1.54 3.74-5.117 3.54-6.427-.868.164-1.528.407-2.44.927-1.1.66-2.2-.22-2.2-2.2 0-.99.762-4.74.556-5.662-.52.955-2.096 3.132-2.756 3.462-1.1.66-2.42 0-2.42-1.54-.33-3.19-.74-4.123-1.013-5.624-.451.82-2.73 4.109-3.763 4.898.878-2.428.184-10.223-.193-10.947-.065 2.088-1.242 5.8-1.596 7.142-2.336 3.294-2.904 4.013-5.533 4.81-2.228.083-3.302-.83-6.382-4.46-3.08-3.74-4.964-6.542-5.143-8.448 0-1.98 6.527-9.811 14.256-12.757 3.274-1.19 3.718-1.527 5.727-2.063-.547-.123-1.35-.887-3.738-1.333-1.25-.233-6.316-.216-9.585 1.336-2.923.938-9.68 3.824-12.76 6.904-1.67.281.225-5.339-1.725-4.528-1.95.812-1.178 6.665-2.824 7.543-2.468 1.316-2.866-3.006-3.966-3.006-1.1.11.886 5.127-1.157 6.296-1.337.766-5.968-4.919-6.518-4.039-.406.687 3.576 5.388 2.502 6.086-1.326 1.045-1.197 2.443-4.13 1.282-2.404-1.212-13.02-7.877-15.754-7.686 2.537 1.664 4.51 3.687 7.261 6.2 4.4 4.62 5.644 5.196 2.124 5.732-3.27-.536-4.078-1.525-5.692-.433-.807.545.738 4.71-.355 5.377-1.093.666-4.846-.799-5.265-.366-1.677 1.733 1.307 4.055.317 6.585-1.32 3.74-1.98 3.74-6.38.66-3.52-2.53-8.02-4.34-8.154-3.383-.178 1.258.894 1.843 2.874 4.703 6.38 9.02 4.62 10.78-7.92 9.46 0 0-10.212-2.98-13.27 1.689 3.02-.567 10.259.873 12.19 1.71 1.045.454 3.309 1.81 5.264 3.364.977.777.412 1.387-.18 3.105-2.289.825-4.782 1.328-7.482 1.177 8.165 3.288 7.434.57 10.394 2.221-2.126 3.508-3.818 3.248-11.09 4.266-1.802.861-3.543 1.268-5.523 1.818-2.035.55-3.294 2.128-2.791 2.308.502.18 2.498-.324 4.74-.545 2.63.034 1.269.011 7.162.618 2.755.672 3.988 2.695 3.455 3.798z" transform="translate(-98.734 -81.609)"/><path d="M323.901 276.313c0 1.285-.747 2.327-1.668 2.327-.92 0-1.668-1.042-1.668-2.327s.747-2.327 1.668-2.327c.898 0 1.635.992 1.667 2.245" transform="translate(-98.734 -81.609)"/><path fill="none" stroke="#000" stroke-width="1.7" d="M228.519 196.421c-1.056 2.672-4.157 4.012-6.926 2.993-2.77-1.018-4.159-4.01-3.103-6.681 1.056-2.672 4.157-4.012 6.926-2.993 2.766 1.017 4.156 4.002 3.107 6.672M209.11 187.76c6.945-3.663 16.541 2.02 16.541 2.02"/><g fill="#dfdfdf"><path d="M255.781 332.439c-.248-1.18.29-1.767 2.2-2.992 2.358.292 6.454 1.97 9.05 4.269 4.422 3.916 5.093 5.375 7.586 8.727-1.017 2.013-1.678 2.448-3.607 4.325-1.958 1.282-3.117 2.06-4.447 2.697-1.062-3.293-2.354-4.92-5.287-8.704-1.371-2.092-5.426-3.685-7.482-5.234.444-1.638 1.257-1.767 1.987-3.088zM272.322 347.97c2.025-1.307 2.562-3.156 3.968-4.002 1.852.797 1.37 1.026 4.377 2.5 3.232 2.044 2.063 1.588 4.556 4.94-1.017 2.013-1.552 2.953-3.101 5.082-1.706 1.535-1.729 2.693-3.311 4.591-2.957-.767-4.88-1.89-7.18-4.537-1.625-1.966-3.533-2.043-4.326-5.36 2.085-1.386 3.782-2.02 5.017-3.214zM283.813 357.314c1.52-2.064 1.805-3.534 3.084-5.012 2.231.292 4.023.647 6.65 1.49 3.611.78 4.084 1.967 5.945 3.93-1.017 2.013-1.173 4.594-1.965 8.239-.57 2.545-1.097 3.955-2.175 6.232-2.956-1.272-5.131-2.395-7.685-4.032-2.635-1.587-5.174-3.18-6.346-6.497 1.328-2.395 1.257-3.155 2.492-4.35zM299.596 367.163c.636-2.822.542-5.807 1.948-8.043 2.231.293 1.876 1.026 4.503 1.87 2.727 1.159 4.589 1.461 6.071 4.434-2.406 2.266-2.94 1.943-3.733 5.587-.569 2.545.545 6.102-.533 8.38-2.956-1.273-3.237-2.017-5.791-3.654-2.635-1.587-2.9-.907-4.578-2.582.949-2.901 1.509-4.292 2.113-5.992zM310.455 371.203c1.267-2.57 1.805-3.156 3.21-4.381 2.61 1.05 3.77.395 6.272 2.627 2.348 1.664 7.24 5.755 9.101 7.717-1.774.877-3.43 1.483-5.5 4.199-2.07 2.716-1.476 3.45-2.68 6.485-2.199-1.399-3.237-2.143-5.287-3.4-2.129-1.967-3.026-2.55-5.462-4.225.95-2.774-.006-6.817.346-9.022zM324.976 383.073c1.267-2.57 3.068-3.03 4.473-4.255 2.61 1.05 3.644 3.299 6.145 5.532 3.106 3.432 3.578 3.986 5.06 6.075-2.279 1.13-2.925 1.23-4.995 3.062-2.14 1.896-2.738 1.935-4.194 3.581-1.568-1.777-1.344-1.637-3.393-3.653-2.13-1.966-2.395-1.917-5.21-4.476.823-2.901 1.257-3.914 2.114-5.866zM337.098 395.321c1.52-1.18 2.941-2.02 4.22-2.866 1.222 1.429 2.381 2.541 3.115 4.143 1.212 1.538 1.306 1.84 2.283 3.929-2.28 1.13-2.042.851-3.733 1.673-1.644.8-2.36 1.682-4.321 2.95-1.567-1.778-.46-1.133-2.508-3.149-.993-1.208-1.512-2.17-3.063-3.719 2.211-1.89 2.52-2.145 4.007-2.961zM343.096 404.223c1.836-.865 2.626-1.325 4.158-1.982 1.031 1.934 1.307 2.226 2.04 3.827.455 1.348.801 2.03 1.59 4.245-1.712.624-2.232.788-3.355 1.294-1.147.517-2.36 1.24-3.69 2.002-1.251-2.345-1.217-1.827-1.94-3.21-.677-1.335-1.133-1.729-2.368-3.53 1.832-1.386 2.393-1.893 3.565-2.646zM347.65 413.33c1.836-.865 1.822-.655 3.354-1.312 1.032 1.934 1.754 5.35 2.309 7.443.41 2.375.756 5.02.874 7.905-1.622.312-.952.12-2.372.402-1.411.28-1.487.334-2.996.962-.448-3.15-.836-4.886-1.652-7.037-.543-1.513-1.668-4.943-2.904-6.744 1.565-.85 2.215-.866 3.387-1.619zM351.623 429.624c.567-.132 1.174-.233 2.372-.33.228 4.121.236 5.127.121 9.228-.304 4.295-.36 7.789-1.045 12.147-.775-.224-.953-.46-2.372-.536-1.417-.076-1.333-.1-2.797-.007 1.025-4.087 1.06-5.488 1.363-10.354.127-3.79.117-5.015-.188-9.283 1.118-.359 1.597-.604 2.546-.865zM349.659 452.124c.567-.132 1.978.035 3.176-.062-1.29 7.246-2.354 9.948-4.79 14.407-2.894 4.206-5.717 8.146-9.438 12.147-.46-.32-.774-.74-1.211-1.162-.422-.406-.777-.53-1.28-.988 4.24-5.605 4.989-7.274 7.525-12.408 2.09-5.129 2.438-6.533 3.829-12.14 1.118.445 1.24.468 2.189.206zM336.355 478.642c.725.468.37.303 1.48 1.01-1.737 2.067-2.98 3.251-6.219 6.46-2.447 1.795-3.18 3.361-8.19 5.381-.596-.67-.621-.758-.91-1.187-.28-.414-.399-.52-.713-1.324 2.543-.783 5.552-2.557 7.462-4.477 3.162-2.719 3.957-3.944 6.062-6.605.487.319.71.436 1.028.742zM320.54 491.048c.398.63.247.813.621 1.556-2.272 1.353-2.78 1.468-8.353 2.555-6.85.231-9.735.068-12.952-.365.117-.857.127-.936.165-1.746.036-.766-.063-.516-.003-1.336 6.405.425 8.35-.004 10.884-.168 4.559-.425 7.995-1.497 9.078-1.772.487.887.432.654.56 1.276zM298.174 493.191c-.137.676-.11.456-.316 1.422-5.308-.923-5.414-.809-11.836-2.132-4.84-1.376-6.437-2.42-9.43-4.014-.219-1.057-.158-.93.082-1.37.317-.58.078-.395.796-.832 3.559 2.137 7.371 2.764 9.414 3.45 4.87 1.002 7.28 1.27 11.4 1.709-.05.931-.06 1.145-.11 1.767zM275.227 485.736c-.806.61-.866.893-1.879.752-1.653-.23-1.866-.698-3.454-1.994-.778-.636-1.988-1.867-1.747-2.308.317-.58.852-2.324 1.555-1.188.614.994 3.234 2.53 4.786 3.596 1.235.848 1.052.905.739 1.142zM267.281 480.289c-.94.297-.704.483-1.477-.185-.627-.543-1.063-1.457-2.204-2.798-.651-.766-1.954-2.97-2.015-3.469-.174-1.428.622-2.371 1.242-1.188 1.106 2.11 2.52 4.316 4.474 6.096 1.108 1.009.355 1.426-.02 1.544zM261.567 471.093c-.94.297-.838.483-1.61-.185-.627-.543-1.254-1.953-1.982-3.557-.428-.944-1.38-2.357-1.033-3.29.386-1.036 1.739-1.746 2.09-.474.636 2.296.845 2.326 1.93 5.025.418 1.04.98 2.363.605 2.481zM258.486 461.316c-.368.707-1.046.622-2.147.127-.886-.398-.554-1.8-.686-3.557-.07-.944-.264-1.821-.006-3.066.224-1.083 2.266-1.475 2.403-.162.1.957-.042 1.514.144 3.15.3 2.644.58 2.956.292 3.508zM257.683 452.075c-.214.597-1.09.398-1.61-.23-.62-.75.115-2.069.161-3.557.03-.946.293-1.899.798-3.066.313-.726 1.444-.812 1.465.508.01.644-.172 1.48-.348 2.881-.192 1.538-.124 2.51-.466 3.464zM259.245 442.745c-.214.597-1.168.031-1.343-.766-.263-1.195.567-2.512.92-3.958.298-1.214.845-2.658 1.825-3.469.715-.591 2.008-.917 1.733.374-.213 1.001-1.645 2.91-2.133 4.534-.446 1.484-.66 2.331-1.002 3.285zM265.093 432.075c-.634.024-1.37.202-1.164-.587.183-.705.867-1.052 2.17-2.084.667-.527 1.838-1.491 2.494-1.816.757-.375 2.242-.844 1.734.374-.213.51-.887.722-2.089 1.542-1.28.874-2.714 2.554-3.145 2.571z" transform="translate(-98.734 -81.609)"/></g></g><use transform="matrix(-1 0 0 1 750 0)" xlink:href="#a"/><path d="M278.855 412.412c-12.98 4.4-31.68 13.42-39.16 18.48-2.42 1.76-2.2 3.74 1.54 11.22 2.64 4.84 5.28 9.02 5.72 9.02.66 0 7.92-3.3 16.06-7.48 8.14-3.96 18.54-9.185 23.32-10.12 3.655-.715 6.993-1.392 9.059-2.25.832 2.02.32.894 1.836 4.068 2.18 4.56.823 4.457 4.591 5.705 3.974 1.316 13.774-4.003 13.774-4.003 11.44-3.96 17.82-4.4 58.96-4.4s47.52.44 58.96 4.62c0 0 9.206 3.132 10.39 3.51 1.175.377 1.796.674 3.038.376 1.133-.272 2.313-2.005 2.835-3.051 0 0 2.53-6.079 3.18-8.212 2.191 1.055 6.187 2.427 10.037 3.637 4.62 1.54 14.96 6.16 23.1 10.12 8.14 4.18 15.4 7.48 16.06 7.48.44 0 3.08-4.18 5.72-9.02 5.28-10.34 5.72-9.46-13.42-19.36-25.52-13.2-51.04-19.14-53.46-12.76-.44 1.21-.813 1.918-1.418 3.487-2.557-.589-9.252-2.167-15.962-3.267-20.68-3.74-77.44-3.74-98.12 0-6.71 1.1-11.246 2.935-15.038 3.987-2.146-4.294-1.697-2.586-2.137-3.796-1.76-4.4-13.405-3.711-29.465 2.009z"/><g fill="#dfdfdf"><path d="M299.75 409.25c-9.447.297-27.166 6.347-45.094 15.469-15.4 7.7-15.836 8.141-11.656 16.281 1.76 3.74 3.749 7.06 3.969 7.5.005.003.025.03.031.031.82.216 7.677-2.825 15.562-6.875 8.36-4.18 18.943-8.774 23.563-10.094 3.41-1.21 5.888-1.32 8.937-1.968-.556-3.241.133-.446-2.03-6.625 2.495-6.259 7.316-11.667 12-12.844-1.205-.643-2.99-.947-5.282-.875z"/><path d="M372.031 409.406c-18.237.174-36.17 1.065-44.375 2.344-13.97 2.31-21.503 6.738-26.688 9.437-1.896 1.416-3.56 1.76-5.625 3 1.637 3.708 1.573 5.94 2.97 9.188 1.468 3.417.734 5.577 4.75 5.687 4.014.11 12.75-4.219 12.75-4.219 11.22-3.96 17.83-4.406 58.75-4.406 41.14 0 49.428 1.31 58.937 4.625 6.893 2.373 9.735 4.246 12.5 3.75 1.42-.255 2.16-2.306 3.156-4.781 1.357-3.372 2.994-7.9 3.813-13.563-2.163-.315-1.208.79-4.157-.53-6.367-2.855-7.578-3.072-11.781-4.844-4.988-2.105-9.654-2.109-16.969-3.47-8.58-1.32-27.65-1.836-46.281-2.218-.589.004-1.162-.006-1.75 0z"/><path d="M448.469 409.438c-1.242.01-2.297.144-3.188.406 1.92 1.207 4.162 3.223 5.407 3.875 4.62 2.42 4.601 4.657 4.156 8.813-.206 1.92-.382 2.652-1.125 5.281 1.724.778 5.98 2.54 9.5 3.75 4.4 1.32 14.953 5.914 23.313 10.094 7.758 3.984 14.533 6.985 15.53 6.875.02-.003.05-.026.063-.031h.031c.22-.44 2.21-3.76 3.97-7.5 2.86-5.5 3.074-7.46.874-9.22-4.84-3.96-24.42-13.003-38.5-17.843-9.013-3.004-15.642-4.535-20.031-4.5z"/><path d="M442.938 411.219a3.843 3.843 0 00-.406.531c-.667.813-.761 1.683-.969 2.688 1.458.515 6.376 3.579 8.906 3.469.542 0 .97-.024 1.219-.125l.063-.032c.006-.003.025-.028.03-.03.022-.015.048-.047.063-.063.007-.008.026-.023.031-.032.003-.005.03-.026.032-.03.002-.006-.001-.027 0-.032v-.031-.031-.032a.635.635 0 00-.125-.25c-.353-.458-1.425-1.199-3.532-2.375-1.486-.83-3.892-2.466-5.312-3.625zM306.344 411.281c-1.445 1.1-3.895 2.618-5.469 3.688-2.827 1.92-3.248 3.41-4.469 6.093a1.325 1.325 0 00-.062.156v.032h.062c.4-.183 2.539-2.11 7.657-3.844 4.39-1.638 2.054-.837 4.78-1.969-1.796-2.776-2.03-2.965-2.25-3.625a2.687 2.687 0 00-.25-.531z"/></g><path d="M325.41 417.812l.504 4.357 2.986-.346c1.077-.124 1.816-.387 2.218-.787.408-.401.565-1.01.47-1.824-.088-.762-.36-1.277-.815-1.542-.456-.266-1.248-.334-2.377-.203l-2.986.345m-1.886-1.313l4.985-.576c.81-.094 1.407-.127 1.794-.101.392.025.749.102 1.07.23.576.234 1.034.6 1.375 1.097.346.497.56 1.103.644 1.82.08.692 0 1.303-.24 1.832-.24.523-.638.958-1.194 1.306.517.081.9.276 1.147.584.254.307.453.853.597 1.638l.394 2.105c.081.45.179.784.292 1.001a.9.9 0 0 0 .465.424l.042.358-2.017.233c-.194-.249-.374-.809-.54-1.68a1.35 1.35 0 0 1-.005-.053l-.3-1.664c-.157-.855-.405-1.392-.743-1.613-.338-.22-1.124-.259-2.358-.116l-2.829.327.637 5.51-1.729.199-1.487-12.86m15.272 6.036l4.023-.295-2.416-5.551-1.607 5.846m-3.34 5.639l3.847-13.264 1.937-.142 5.76 12.558-1.902.14-1.65-3.757-5.085.373-1.093 3.958-1.814.133m17.79-1.126l-.38-12.94 1.757-.052.156 5.315 6.712-.197-.156-5.315 1.766-.052.38 12.94-1.767.053-.177-6.062-6.712.197.177 6.061-1.757.052m15.28-5.722l4.035-.021-2.033-5.703-2.001 5.724m-3.717 5.398l4.741-12.971 1.943-.01 4.891 12.921-1.907.01-1.39-3.86-5.098.026-1.36 3.875-1.82.009m22.046-4.697l1.705.03c-.104 1.574-.664 2.821-1.682 3.741-1.012.914-2.31 1.358-3.891 1.33-1.822-.03-3.24-.677-4.256-1.936-1.01-1.26-1.496-2.989-1.458-5.186.035-2.027.605-3.625 1.71-4.796 1.104-1.176 2.576-1.749 4.415-1.717 1.465.025 2.656.424 3.575 1.196.924.772 1.448 1.812 1.572 3.121l-1.722-.03c-.15-.858-.528-1.52-1.135-1.988-.607-.474-1.403-.719-2.387-.736-1.312-.023-2.34.42-3.082 1.327-.736.907-1.12 2.199-1.148 3.874-.027 1.582.326 2.857 1.059 3.825.74.968 1.73 1.462 2.972 1.484 1.06.018 1.933-.295 2.618-.94.691-.65 1.07-1.516 1.135-2.6m3.696 4.9l.593-12.932 1.756.08-.243 5.312 6.707.308.244-5.312 1.764.08-.592 12.933-1.765-.08.278-6.059-6.708-.307-.278 6.058-1.756-.08m13.02.674l.896-12.915 1.754.121-.896 12.916-1.754-.122m7.42-10.905l-.424 4.365 2.992.291c1.079.105 1.857.004 2.334-.303.483-.306.764-.867.844-1.684.074-.764-.083-1.324-.473-1.68-.389-.355-1.15-.588-2.28-.698l-2.992-.291m-1.568-1.68l4.995.486c.81.078 1.402.171 1.774.278.379.108.711.258.999.45.513.35.884.805 1.112 1.363.234.558.317 1.196.247 1.913-.068.694-.274 1.275-.62 1.741-.345.461-.826.803-1.442 1.026.488.189.82.46.999.812.183.354.262.93.238 1.728l-.058 2.14c-.015.458.01.804.075 1.04.072.231.194.402.365.513l-.035.358-2.02-.196c-.137-.284-.195-.87-.174-1.757l.005-.052.059-1.69c.025-.869-.104-1.446-.388-1.733-.284-.287-1.045-.49-2.28-.61l-2.835-.276-.537 5.52-1.732-.169 1.253-12.885m10.669 14.146l1.687-12.836 1.742.229-1.686 12.836-1.743-.23"/><g><path fill="#171796" stroke="#000" stroke-width="2" d="M299.715 160.554c-5.955 3.1-9.056 7.669-9.545 13.869-.49 6.69.979 11.421 4.813 15.011 1.713 1.713 3.182 3.345 3.182 3.753 0 .326-1.305 1.958-2.937 3.508-3.834 3.59-6.037 8.321-6.037 13.216 0 5.058 1.55 8.566 5.71 13.135l3.427 3.752-3.753 4.161c-7.505 8.321-7.26 17.867.571 25.78l3.345 3.508h153.62l3.752-3.997c7.26-7.75 7.26-16.154.081-25.046l-3.67-4.487 3.426-4.08c7.505-8.973 7.342-17.213-.408-25.86-3.508-3.835-3.59-4.57-.816-6.364 4.487-3.019 7.26-13.216 5.221-19.417-3.018-9.3-15.99-15.5-23.903-11.421-1.469.734-4.406 2.774-6.608 4.487-2.203 1.795-4.243 3.182-4.65 3.182-.327 0-2.285-1.469-4.324-3.264-7.914-6.77-17.214-6.281-25.128 1.387l-3.018 2.937-3.998-3.671c-8.076-7.587-18.192-7.26-26.432.734l-3.019 2.937-3.263-2.937c-4.813-4.405-7.995-5.71-13.543-5.792-5.302-.082-10.279 2.121-14.195 6.363l-1.958 2.04-4.242-3.59c-7.832-6.69-14.114-7.832-21.7-3.834z"/><path fill="#d42e12" stroke="#000" stroke-width="2" d="M295.754 265.034c-7.995 8.892-7.913 17.948.163 26.922l3.019 3.345-3.427 3.753c-1.876 2.04-3.916 4.976-4.568 6.445-2.61 6.281-.653 14.684 4.487 19.498 3.1 3.018 3.181 4.242.244 7.832-1.305 1.55-2.855 3.752-3.426 4.894-6.119 11.585 3.019 26.107 16.561 26.107 5.384 0 9.464-1.714 13.135-5.63 2.937-3.1 4.487-3.181 7.097-.407 3.835 4.242 8.893 6.852 13.135 6.852 4.977 0 8.077-1.55 13.135-6.363l3.834-3.753 3.508 3.835c7.587 8.158 15.256 8.403 25.454.652l4.16-3.1 3.59 3.263c4.487 3.916 7.832 5.466 12.237 5.466 4.406 0 7.669-1.713 12.809-6.77l4.242-4.08 3.263 2.937c6.282 5.63 9.709 7.424 14.277 7.424 4.732 0 8.077-1.55 12.808-5.792 4.406-3.998 6.772-8.648 6.2-12.482-.57-4.161-4.323-11.748-7.097-14.359l-2.366-2.284 3.671-4.16c7.995-9.383 8.077-16.643.164-25.944l-3.264-3.916 3.427-4.16c7.668-9.056 7.587-17.459-.163-25.699l-4.161-4.323-76.36.081-76.361.082-3.427 3.834z"/><path d="M278.855 254.452s.05 76.333.206 105.481c-.26 4.313 2.267 5.358 5.968 8.23 5.986 4.645 12.372 9.508 46.626 6.85 31.46.22 38.06 2.64 41.36 15.18l1.76 7.04 1.54-7.04c2.42-12.1 9.886-14.96 40.246-15.18 39.084.587 42.33-1.866 47.93-6.644 0 0 4.092-3.15 5.147-6.174 1.184-3.395.617-6.17.617-6.17V147.531h-191.4v106.92zm189.2.88l.411 88.069c0 11.856.854 15.492-.411 17.751-1.265 2.259-3.826 5.266-3.826 5.266-5.94 5.94-10.97 7.155-38.06 6.805-17.5.048-26.954.532-40.74 2.708-2.164 1.943-8.11 1.77-10.874 13.079-3.587-11.309-6.146-10.817-6.146-10.817-14.647-6.146-21.198-4.922-44.674-5.161-15.18 2.2-31.46-.66-37.62-6.82 0 0-.917.249-5.06-4.649.04-21.453 0-106.23 0-106.23v-105.6h187v105.6z"/><path fill="#fff" d="M348.088 195.609c-5.791 11.982-6.036 17.359-1.224 26.96 3.753 7.373 8.157 12.058 14.193 15.054 15.742 7.911 35.889 2.074 43.8-12.673 4.895-9.064 4.324-24.195-1.06-30.8l-1.468-1.767-1.387 5.223c-1.957 7.45-3.915 11.214-7.83 15.208-7.34 7.45-17.455 9.14-27.895 4.532-8.075-3.61-11.338-8.603-14.356-22.505l-.734-3.456-2.039 4.224z"/><path d="M346.175 196.372c-4.84 11-4.4 16.5 1.54 28.16 15.4 30.36 61.16 18.92 60.94-15.4-.22-5.5-.05-9.082-3.08-15.18-1.43-2.53-2.042-3.281-3.062-4.811-.403 1.657-1.008 4.591-2.218 9.431-4.4 16.94-18.92 24.86-34.1 18.48-8.58-3.52-12.54-9.24-14.74-21.12l-1.54-7.7-3.74 8.14zm14.96 21.78c10.56 6.82 26.62 4.62 34.76-4.4 3.3-3.74 5.327-9.575 6.16-12.54.822-2.926.983-3.364 1.48-6.287 1.276 2.833 1.978 4.322 2.58 8.704.89 6.473-.54 11.883-2.08 15.843-7.7 20.24-32.34 26.4-47.74 11.88-7.48-6.82-13.42-20.222-10.171-28.87 1.152-3.066 1.415-4.814 2.922-8.051.272 2.211.429 5.241 1.969 9.861 1.98 6.38 5.5 11 10.12 13.86z"/><g id="b" stroke="#000"><path fill="#e9d315" stroke-width="1.625" d="M337.418 297.577c-.147 4.759.082 6.936.834 10.464-2.395-2.312-4.808-3.927-8.127-5.853-4.227-2.454-9.565-4.796-11.378-1.802-1.745 2.881 3.26 6.827 7.178 9.038 4.284 2.417 6.754 2.748 9.541 3.841-2.36 1.248-5.58 2.086-9.147 4.375-3.501 2.246-8.735 6.893-6.75 9.86 2.021 3.02 7.86-.374 11.152-2.577 2.742-1.835 6.37-4.732 7.781-6.214-.279 2.128-1.122 6.37-1.06 10.425.077 4.926.758 10.438 4.426 10.428 3.745-.009 4.541-6.5 4.482-10.889-.061-4.586-.585-7.828-1.036-10.091a76.419 76.419 0 0 0 7.297 6.571c2.664 2.1 9.187 5.21 11.14 2.23 1.99-3.032-1.107-6.047-6.796-9.657-3.987-2.53-6.81-3.396-9.408-4.472 2.627-1.077 5.498-1.353 9.697-3.905 6.229-3.786 8.868-6.318 6.959-9.578-1.856-3.169-5.607-1.438-11.303 2.186-3.052 1.942-5.908 4.515-7.843 6.366.442-2.913.918-7.206.882-10.387-.055-4.728-1.09-10.84-4.31-10.858-3.22-.019-4.05 5.294-4.211 10.499z"/><path fill="#fff" stroke-width="1.86843321" d="M346.662 313.299a5.011 5.011 0 1 1 0-.006"/></g><use x="65.63" xlink:href="#b"/></g></svg>