<svg xmlns="http://www.w3.org/2000/svg" xmlns:xlink="http://www.w3.org/1999/xlink" width="1008" height="504" viewBox="0 0 252 126"><path fill="#319208" d="M0 0h252v126H0z"/><path fill="#FFD200" d="M0 18h252v90H0z"/><path fill="#DE2010" d="M0 36h252v54H0z"/><path d="M0 54h252v18H0z"/><path d="M4.583 0l84 63-84 63H0V0z"/><path fill="#FFF" d="M0 0l84 63-84 63"/><g fill="#DE2010"><g transform="matrix(32 0 0 32 34 63)"><path id="a" d="M0 0v1h.75z" transform="rotate(26.268 2.143 -.5)"/><use id="c" transform="scale(-1 1)" xlink:href="#a"/><path id="b" d="M0 0v1h.75z" transform="rotate(19.58 2.898 -.5)"/><use id="d" transform="scale(-1 1)" xlink:href="#b"/><use transform="rotate(72)" xlink:href="#a"/><use transform="rotate(-72)" xlink:href="#c"/><use transform="rotate(72)" xlink:href="#b"/><use transform="rotate(-72)" xlink:href="#d"/></g><g transform="matrix(27.5 0 0 27.5 34 63)"><g id="f"><path id="e" d="M0 0v1h.5z" transform="rotate(24.225 2.33 -.5)"/><use transform="scale(-1 1)" xlink:href="#e"/></g><use transform="rotate(144)" xlink:href="#f"/><use transform="rotate(-144)" xlink:href="#f"/></g></g><path fill="#ffc618" d="M28.635 55.11c1.977 4.305 2.47 4.587 7.411 6.28 4.94 1.695 18.898 3.3 20.274 3.46-.9-.9-16.621-12.546-19.85-14.875-3.23-2.33-4.13-3.388-4.13-3.388s-2.91-5.24-3.916-6.776c-1.006-1.535-2.859-3.705-5.294-3.705-2.435 0-3.917 1.43-4.623 3.97-.388.106-2.47 1.376-2.4 2.682.6-.07 4.377-1.13 5.682 3.14 1.306 4.27 1.377 11.258.036 14.717-1.341 3.458-3.424 6.07-3.424 9.104 0 .424.283 1.27.989 1.27.247 1.342 2.223 10.905 2.223 10.905h28.161l4.473-17.292" overflow="visible"/><g fill="none" stroke="#000" stroke-width=".212"><path d="M28.635 55.11c1.977 4.305 2.47 4.587 7.411 6.28 4.94 1.695 18.898 3.3 20.274 3.46-.9-.9-16.621-12.546-19.85-14.875-3.23-2.33-4.13-3.388-4.13-3.388s-2.91-5.24-3.916-6.776c-1.006-1.535-2.859-3.705-5.294-3.705-2.435 0-3.917 1.43-4.623 3.97-.388.106-2.47 1.376-2.4 2.682.6-.07 4.377-1.13 5.682 3.14 1.306 4.27 1.377 11.258.036 14.717-1.341 3.458-3.424 6.07-3.424 9.104 0 .424.283 1.27.989 1.27.247 1.342 2.223 10.905 2.223 10.905h28.161l4.473-17.292"/><path d="M19.39 70.99s5.999-.353 7.622-.353c1.623 0 16.734.019 25.165 1.968"/><path d="M21.508 70.87s-.6-.727-.213-2.174c.388-1.447 4.623-5.188 4.623-10.481M25.142 70.637s-.494-2.365 4.905-4.376c1.518-.459 5.858-2.894 6-4.87M29.473 66.485s13.243.058 23.724 2.176"/><path d="M32.793 64.905s4.55.156 5.291-.056c.741-.211 2.053-.762 2.575-2.313M35.49 64.96s2.435-1.266 2.911-2.912M28.141 81.894s-1.04-7.216-1.252-11.257l2.717 2.594 2.875-2.515 2.471 2.638 2.858-2.425 2.471 2.778 2.83-2.407 2.252 2.619 2.822-2.041 3.355 3.189M50.95 77.345c-10.08-1.444-23.57-1.35-23.57-1.35M22.694 51.052s8.2-3.918 9.647-4.465"/></g><g fill="none" stroke="#000" transform="matrix(.21174 0 0 .21174 16 36)"><path d="M52.487 177.086l13.018 11.852 11.762-11.762 11.896 12.266 12.846-11.358 11.827 12.43 13.339-11.013 10.897 12.728 13.27-10.145 13.947 12.319"/><circle cx="89.425" cy="154.584" r="5.167"/><circle cx="111.237" cy="156.047" r="5.167"/><circle cx="30.05" cy="16.5" r="4"/></g></svg>